M48
; DRILL file {KiCad (5.1.9)-1} date 07/31/21 21:08:56
; FORMAT={-:-/ absolute / inch / decimal}
; #@! TF.CreationDate,2021-07-31T21:08:56+01:00
; #@! TF.GenerationSoftware,Kicad,Pcbnew,(5.1.9)-1
; #@! TF.FileFunction,Plated,1,2,PTH
FMAT,2
INCH
T1C0.0157
T2C0.0276
T3C0.0315
T4C0.0354
T5C0.0374
T6C0.0394
T7C0.0512
T8C0.0906
T9C0.1260
%
G90
G05
T1
X-0.39Y2.275
X-0.29Y2.65
X-0.29Y2.175
X-0.29Y2.075
X-0.29Y1.975
X-0.29Y1.875
X-0.165Y0.05
X-0.09Y1.775
X-0.015Y-0.725
X0.025Y0.475
X0.06Y0.7
X0.07Y-0.23
X0.08Y1.35
X0.085Y0.85
X0.09Y1.745
X0.125Y0.115
X0.13Y1.37
X0.17Y1.45
X0.185Y-0.725
X0.195Y0.505
X0.218Y0.755
X0.225Y0.175
X0.225Y1.2375
X0.235Y2.5
X0.235Y1.5
X0.235Y-0.195
X0.235Y-0.15
X0.245Y0.79
X0.285Y2.5
X0.32Y2.445
X0.32Y2.405
X0.335Y-0.725
X0.355Y1.15
X0.355Y0.4
X0.39Y2.42
X0.39Y2.38
X0.39Y2.34
X0.39Y2.3
X0.39Y2.26
X0.39Y2.22
X0.39Y-0.26
X0.4Y0.96
X0.425Y-0.195
X0.43Y2.42
X0.43Y2.38
X0.43Y2.34
X0.43Y2.3
X0.43Y2.26
X0.43Y2.22
X0.435Y0.8
X0.455Y-0.15
X0.4675Y0.7525
X0.47Y1.5975
X0.47Y1.505
X0.47Y1.45
X0.47Y1.35
X0.47Y1.25
X0.47Y0.8475
X0.47Y0.7
X0.47Y0.6
X0.47Y0.5
X0.47Y0.4
X0.485Y-0.725
X0.51Y2.9
X0.51Y1.85
X0.51Y-0.45
X0.535Y-0.1
X0.55Y1.65
X0.55Y1.35
X0.5806Y-0.4694
X0.585Y1.02
X0.6074Y1.1026
X0.61Y-0.435
X0.635Y0.955
X0.64Y-0.56
X0.645Y0.865
X0.695Y0.55
X0.695Y2.6
X0.7Y0.45
X0.725Y2.75
X0.74Y0.88
X0.77Y0.815
X0.785Y2.6
X0.81Y2.9
X0.825Y2.6375
X0.835Y1.205
X0.84Y1.435
X0.84Y0.265
X0.8575Y1.2925
X0.8586Y0.8538
X0.86Y2.805
X0.86Y2.7
X0.88Y1.335
X0.885Y0.985
X0.89Y0.905
X0.89Y0.35
X0.89Y-0.42
X0.91Y-0.725
X0.935Y-0.23
X0.96Y2.9
X0.99Y0.955
X0.99Y0.415
X0.995Y2.25
X0.9975Y2.37
X1.035Y-0.4825
X1.035Y-0.725
X1.04Y2.4175
X1.04Y2.325
X1.04Y2.295
X1.04Y2.2025
X1.04Y0.52
X1.07Y1.775
X1.085Y-0.23
X1.09Y0.73
X1.11Y2.9
X1.1275Y-0.485
X1.14Y0.485
X1.16Y-0.43
X1.19Y1.075
X1.195Y0.39
X1.21Y2.9
X1.21Y1.15
X1.24Y1.08
X1.27Y-0.4925
X1.275Y1.205
X1.28Y0.925
X1.285Y1.525
X1.295Y1.72
X1.3Y-0.16
X1.3525Y0.9925
X1.36Y1.855
X1.3888Y0.8738
X1.41Y2.9
X1.4125Y-0.565
X1.4875Y-0.2125
X1.49Y0.875
X1.5Y1.2
X1.51Y-0.565
X1.5825Y-0.2125
X1.585Y1.75
X1.585Y-0.625
X1.595Y1.175
X1.61Y2.9
X1.61Y2.4
X1.61Y1.575
X1.635Y0.05
X1.66Y-0.45
X1.6675Y-0.1375
X1.6869Y2.2369
X1.69Y1.73
X1.71Y2.4
X1.8Y1.06
X1.805Y1.73
X1.81Y2.9
X1.81Y2.4
X1.81Y2.235
X1.849Y-0.142
X1.85Y-0.065
X1.852Y-0.553
X1.91Y2.4
X1.91Y1.6
X1.925Y0.96
X1.935Y2.235
X1.96Y0.0
X1.99Y1.735
X1.99Y1.295
X2.01Y2.9
X2.01Y2.4
X2.01Y-0.35
X2.033Y-0.142
X2.0619Y2.2369
X2.085Y1.14
X2.09Y1.735
X2.09Y1.295
X2.09Y0.935
X2.11Y2.4
X2.14Y1.14
X2.16Y0.275
X2.16Y-0.14
X2.185Y2.235
X2.195Y1.74
X2.21Y2.9
X2.21Y2.4
X2.21Y-0.195
X2.23Y1.175
X2.26Y-0.155
X2.285Y0.585
X2.2918Y1.7364
X2.305Y0.335
X2.31Y2.4
X2.312Y0.177
X2.335Y1.21
X2.335Y-0.105
X2.389Y0.652
X2.39Y1.74
X2.39Y-0.135
X2.41Y2.9
X2.41Y2.4
X2.4441Y2.2357
X2.485Y-0.23
X2.4882Y0.6232
X2.5Y0.411
X2.51Y2.4
X2.54Y1.715
X2.565Y0.195
X2.565Y-0.095
X2.5704Y2.2381
X2.589Y0.734
X2.59Y-0.485
X2.61Y2.9
X2.61Y2.4
X2.635Y1.1
X2.64Y1.74
X2.692Y0.621
X2.6925Y2.2432
X2.71Y0.35
X2.71Y-0.175
X2.71Y-0.25
X2.735Y0.925
X2.74Y1.74
X2.755Y-0.49
X2.81Y2.9
X2.81Y2.4
X2.81Y1.1
X2.81Y0.553
X2.83Y2.235
X2.835Y0.925
X2.84Y1.74
X2.91Y0.705
X2.91Y-0.25
X2.935Y1.825
X2.94Y1.42
X2.96Y1.625
X2.96Y1.225
X2.96Y0.995
X2.99Y0.681
X3.01Y2.9
X3.01Y2.4
X3.01Y2.25
X3.045Y0.335
X3.06Y0.485
X3.06Y-0.475
X3.085Y1.025
X3.11Y1.8
X3.11Y-0.2
X3.135Y1.525
X3.139Y0.2
X3.145Y0.74
X3.152Y0.864
X3.16Y2.9
X3.16Y2.775
X3.16Y2.65
X3.16Y2.5
X3.16Y2.35
X3.16Y0.65
X3.18Y0.335
X3.21Y-0.325
X3.275Y0.335
X3.385Y0.535
X3.385Y-0.275
X3.435Y0.225
X3.475Y0.335
X3.51Y1.75
X3.51Y-0.155
X3.515Y-0.45
X3.56Y1.325
X3.56Y1.22
X3.61Y1.075
X3.67Y-0.595
X3.747Y1.516
X3.76Y0.6
X3.76Y0.45
X3.76Y0.275
X3.76Y0.1
X3.76Y-0.1
X3.76Y-0.3
X3.76Y-0.5
X3.76Y-0.65
X3.765Y0.75
X4.01Y2.3
X4.01Y2.05
X4.01Y1.89
X4.01Y1.4
X4.01Y0.85
T2
X0.1235Y2.8525
X0.4235Y2.8525
X3.237Y1.809
X3.237Y1.509
X3.361Y1.812
X3.361Y1.512
X3.96Y1.84
X3.96Y1.54
T3
X2.11Y0.0
X2.11Y-0.6
X2.21Y0.0
X2.21Y-0.6
X2.31Y0.0
X2.31Y-0.6
X2.41Y0.0
X2.41Y-0.6
X2.51Y0.0
X2.51Y-0.6
X2.61Y0.0
X2.61Y-0.6
X2.71Y0.0
X2.71Y-0.6
X2.81Y0.0
X2.81Y-0.6
X2.91Y0.0
X2.91Y-0.6
X3.01Y0.0
X3.01Y-0.6
X3.11Y0.0
X3.11Y-0.6
X3.21Y0.0
X3.21Y-0.6
X3.31Y0.0
X3.31Y-0.6
X3.41Y0.0
X3.41Y-0.6
X3.51Y0.0
X3.51Y-0.6
T4
X-0.2145Y2.895
X-0.2145Y2.795
X3.53Y2.295
X3.53Y2.195
X3.65Y2.108
X3.65Y2.008
X3.65Y1.909
X3.65Y1.809
X3.765Y1.83
X3.765Y1.73
T5
X-0.133Y-0.4026
X-0.133Y-0.5006
X-0.054Y-0.4026
X-0.054Y-0.5006
T6
X-0.24Y1.6
X-0.24Y1.5
X-0.24Y1.4
X-0.24Y1.3
X-0.24Y1.2
X-0.24Y1.1
X-0.24Y1.0
X-0.24Y0.9
X-0.24Y0.8
X-0.24Y0.7
X-0.24Y0.6
X-0.24Y0.5
X-0.24Y0.4
X-0.24Y0.3
X-0.24Y0.2
X-0.24Y0.1
X-0.24Y0.0
X-0.165Y2.181
X-0.165Y2.081
X-0.165Y1.981
X-0.165Y1.881
X-0.14Y1.6
X-0.14Y1.5
X-0.14Y1.4
X-0.14Y1.3
X-0.14Y1.2
X-0.14Y1.1
X-0.14Y1.0
X-0.14Y0.9
X-0.14Y0.8
X-0.14Y0.7
X-0.14Y0.6
X-0.14Y0.5
X-0.14Y0.4
X-0.14Y0.3
X-0.14Y0.2
X-0.14Y0.1
X-0.14Y0.0
X0.01Y2.48
X0.01Y2.38
X0.01Y2.1
X0.01Y1.875
X0.01Y1.65
X0.01Y1.55
X0.01Y1.45
X0.01Y1.25
X0.01Y1.15
X0.01Y1.05
X0.01Y0.95
X0.01Y0.75
X0.01Y0.65
X0.01Y0.55
X0.01Y0.4
X0.01Y0.25
X0.01Y0.1
X0.01Y0.0
X0.01Y-0.1
X0.095Y-0.4
X0.095Y-0.5
X0.11Y2.1
X0.11Y1.875
X0.11Y0.75
X0.11Y0.65
X0.11Y0.55
X0.11Y0.4
X0.11Y0.25
X0.255Y-0.3
X0.255Y-0.4
X0.255Y-0.5
X0.255Y-0.6
X0.35Y0.15
X0.35Y0.05
X0.81Y0.2
X0.81Y0.1
X0.81Y0.0
X0.845Y1.89
X0.94Y1.405
X0.94Y0.805
X0.945Y1.89
X0.96Y0.2
X0.96Y0.1
X0.96Y0.0
X1.04Y1.405
X1.04Y0.805
X1.045Y1.89
X1.06Y0.2
X1.06Y0.1
X1.06Y0.0
X1.09Y1.255
X1.09Y1.155
X1.09Y1.055
X1.09Y0.955
X1.14Y1.405
X1.14Y0.805
X1.145Y1.89
X1.16Y0.2
X1.16Y0.1
X1.16Y0.0
X1.24Y1.405
X1.24Y0.805
X1.34Y1.405
X1.34Y0.805
X1.44Y1.405
X1.44Y0.805
X1.54Y1.405
X1.54Y0.805
X1.64Y1.405
X1.64Y0.805
X1.66Y0.4
X1.66Y0.3
X1.66Y0.2
X1.74Y1.405
X1.74Y0.805
X1.76Y0.4
X1.76Y0.3
X1.76Y0.2
X1.84Y1.405
X1.84Y0.805
X1.94Y1.405
X1.94Y0.805
X2.04Y1.405
X2.04Y0.805
X2.14Y1.405
X2.14Y0.805
X2.24Y1.405
X2.24Y0.805
X2.25Y1.0495
X2.25Y0.9495
X2.34Y1.405
X2.34Y0.805
X2.35Y1.0495
X2.35Y0.9495
X2.44Y1.405
X2.44Y0.805
X2.45Y1.047
X2.45Y0.9495
X2.54Y1.405
X2.54Y0.805
X2.64Y1.405
X2.64Y0.805
X2.74Y1.405
X2.74Y0.805
X2.84Y1.405
X2.84Y0.805
X3.01Y2.05
X3.11Y2.05
X3.287Y1.32
X3.287Y1.22
X3.287Y1.12
X3.287Y1.02
X3.287Y0.92
X3.287Y0.82
X3.3864Y1.32
X3.3864Y1.22
X3.3864Y1.12
X3.3864Y1.02
X3.3864Y0.92
X3.3864Y0.82
X3.76Y1.225
X3.76Y1.125
X3.76Y1.025
X3.76Y0.925
X3.91Y2.1416
X3.91Y1.9624
T7
X3.8116Y2.1898
X3.8116Y1.9142
T8
X-0.24Y-0.2146
X-0.24Y-0.6886
T9
X0.575Y2.0625
X0.575Y0.105
X1.405Y2.0625
X1.405Y0.105
X3.365Y2.0625
T6
G00X-0.37Y2.5559
M15
G01X-0.37Y2.4771
M16
G05
G00X-0.2913Y2.3315
M15
G01X-0.2125Y2.3315
M16
G05
G00X-0.1338Y2.5559
M15
G01X-0.1338Y2.4771
M16
G05
T0
M30
