M48
; DRILL file {KiCad (5.1.9)-1} date 07/31/21 21:07:54
; FORMAT={-:-/ absolute / inch / decimal}
; #@! TF.CreationDate,2021-07-31T21:07:54+01:00
; #@! TF.GenerationSoftware,Kicad,Pcbnew,(5.1.9)-1
; #@! TF.FileFunction,Plated,1,2,PTH
FMAT,2
INCH
T1C0.0157
T2C0.0315
T3C0.0354
T4C0.0374
T5C0.0394
T6C0.0512
T7C0.0906
T8C0.1200
%
G90
G05
T1
X-2.04Y2.4
X-2.04Y0.6
X-2.04Y0.2
X-2.04Y-0.3
X-2.04Y-0.6
X-2.04Y-1.0
X-2.04Y-1.45
X-2.036Y1.792
X-1.84Y2.1
X-1.46Y0.09
X-1.44Y0.49
X-1.415Y-1.105
X-1.41Y-0.61
X-1.37Y0.095
X-1.345Y2.15
X-1.29Y0.4
X-1.29Y0.2
X-1.265Y-1.075
X-1.265Y-1.375
X-1.26Y2.1
X-1.26Y-0.63
X-1.26Y-0.74
X-1.24Y0.775
X-1.19Y-1.0
X-1.175Y0.15
X-1.14Y1.46
X-1.14Y1.405
X-1.14Y1.36
X-1.14Y-0.35
X-1.125Y1.505
X-1.11Y2.11
X-1.11Y-0.99
X-1.105Y-0.18
X-1.095Y-0.65
X-1.095Y-0.85
X-1.09Y0.3
X-1.065Y2.005
X-1.05Y1.405
X-1.05Y1.36
X-1.05Y1.315
X-1.05Y1.27
X-1.05Y1.22
X-1.04Y-0.245
X-1.02Y0.225
X-1.02Y-0.45
X-1.005Y1.405
X-1.005Y1.36
X-1.005Y1.315
X-1.005Y1.27
X-1.005Y1.22
X-0.995Y1.9
X-0.985Y0.545
X-0.985Y0.02
X-0.98Y0.27
X-0.98Y0.18
X-0.98Y-0.405
X-0.965Y1.87
X-0.96Y-0.71
X-0.96Y-0.85
X-0.94Y-0.325
X-0.92Y-0.61
X-0.91Y2.01
X-0.91Y-0.65
X-0.905Y0.02
X-0.8956Y2.0726
X-0.895Y2.145
X-0.895Y-0.08
X-0.89Y-0.28
X-0.89Y-1.01
X-0.865Y1.87
X-0.865Y1.35
X-0.845Y-0.205
X-0.8426Y-1.025
X-0.84Y1.385
X-0.84Y-1.38
X-0.805Y1.555
X-0.805Y1.45
X-0.8Y-0.395
X-0.78Y0.3
X-0.7766Y1.59
X-0.76Y-0.8
X-0.75Y-0.905
X-0.74Y1.0
X-0.7081Y0.1469
X-0.69Y-0.45
X-0.64Y0.4
X-0.64Y-0.015
X-0.625Y1.79
X-0.62Y-0.7
X-0.61Y0.35
X-0.605Y0.245
X-0.5975Y-0.2825
X-0.59Y0.45
X-0.59Y-0.85
X-0.59Y-1.25
X-0.585Y0.1
X-0.57Y1.035
X-0.56Y-0.52
X-0.56Y-0.725
X-0.545Y0.88
X-0.53Y1.035
X-0.51Y1.175
X-0.51Y0.1
X-0.51Y-0.27
X-0.505Y1.79
X-0.505Y-0.425
X-0.485Y-0.675
X-0.485Y-0.76
X-0.465Y-0.952
X-0.46Y1.61
X-0.45Y0.7
X-0.445Y2.062
X-0.44Y-1.375
X-0.4004Y-0.0177
X-0.29Y2.25
X-0.29Y-0.405
X-0.29Y-0.575
X-0.251Y0.195
X-0.24Y-0.855
X-0.24Y-0.245
X-0.21Y-1.045
X-0.19Y-0.495
X-0.169Y0.263
X-0.155Y1.06
X-0.145Y-0.39
X-0.145Y-0.496
X-0.14Y1.91
X-0.14Y-0.94
X-0.1315Y-0.5965
X-0.12Y1.62
X-0.09Y2.25
X-0.075Y-0.2
X-0.075Y-0.325
X-0.075Y-0.775
X-0.074Y-0.589
X-0.072Y1.513
X-0.07Y-0.65
X-0.055Y1.02
X0.01Y1.415
X0.01Y1.09
X0.01Y0.45
X0.01Y0.2
X0.03Y0.045
X0.055Y-0.595
X0.11Y1.85
X0.11Y0.85
X0.115Y-0.465
X0.15Y-0.5365
X0.16Y2.25
X0.18Y1.6
X0.205Y0.075
X0.21Y1.15
X0.21Y0.55
X0.235Y0.215
X0.2842Y-1.0464
X0.285Y-0.85
X0.285Y-0.95
X0.3Y-0.2
X0.3Y-0.325
X0.339Y0.349
X0.35Y-0.02
X0.385Y-0.38
X0.4Y-0.95
X0.41Y-0.6
X0.413Y0.245
X0.44Y0.095
X0.44Y-0.13
X0.44Y-0.75
X0.44Y-0.81
X0.493Y0.251
X0.505Y-0.65
X0.56Y1.88
X0.56Y1.65
X0.595Y0.244
X0.6Y-0.995
X0.61Y-1.0966
X0.62Y1.535
X0.625Y-0.805
X0.635Y-0.135
X0.71Y1.25
X0.71Y1.0
X0.72Y0.43
X0.75Y0.17
X0.755Y0.735
X0.76Y-0.545
X0.79Y0.55
X0.8Y1.71
X0.805Y-0.34
X0.86Y1.1
X0.86Y-0.7
X0.885Y0.15
X0.91Y1.395
X0.96Y-0.9
X1.0Y1.495
X1.04Y0.68
X1.07Y0.25
X1.085Y1.825
X1.1Y1.71
X1.1Y1.09
X1.1082Y1.4482
X1.11Y1.25
X1.12Y0.42
X1.16Y0.865
X1.185Y-0.2
X1.2Y0.09
X1.21Y2.25
X1.21Y1.55
X1.28Y0.65
X1.31Y-0.75
X1.31Y-1.45
X1.455Y1.055
X1.495Y1.15
X1.56Y2.25
X1.56Y2.03
X1.71Y-0.75
X1.835Y-1.45
X1.8434Y1.45
X1.855Y1.645
X1.86Y2.25
X1.87Y1.55
X1.935Y0.69
X1.965Y1.705
X1.98Y0.41
X2.0Y1.825
X2.035Y2.4
X2.135Y0.69
X2.18Y0.445
X2.21Y2.25
X2.21Y-0.75
X2.22Y1.225
X2.26Y1.1
X2.35Y-1.45
X2.51Y2.25
X2.71Y-0.75
X2.8Y-1.45
X2.91Y-0.75
X2.93Y1.895
X2.954Y2.115
X2.96Y-0.2
X3.005Y1.0
X3.005Y0.9
X3.005Y0.805
X3.005Y0.68
X3.01Y1.35
X3.06Y2.25
X3.11Y1.85
X3.16Y-0.75
X3.195Y1.49
X3.21Y1.0
X3.21Y0.9
X3.21Y0.805
X3.21Y0.685
X3.21Y-0.05
X3.335Y0.2
X3.336Y1.599
X3.36Y-0.75
X3.365Y-0.95
X3.41Y1.0
X3.41Y0.9
X3.41Y0.805
X3.41Y0.685
X3.479Y-1.085
X3.585Y-0.325
X3.61Y2.25
X3.65Y0.2
X3.757Y0.35
X3.81Y1.09
X3.81Y-0.05
X3.815Y2.395
X3.91Y-0.35
X3.935Y-1.45
X3.96Y0.15
X4.11Y1.19
X4.15Y1.44
X4.41Y1.15
X4.41Y0.95
X4.41Y0.85
X4.41Y0.25
X4.41Y0.145
X4.41Y-0.09
X4.41Y-0.3
X4.555Y2.395
X4.555Y2.085
X4.555Y1.64
X4.555Y1.415
X4.56Y-0.355
X4.56Y-0.975
X4.56Y-1.45
T2
X-0.29Y1.95
X-0.29Y1.85
X-0.29Y1.75
X-0.29Y1.65
X-0.29Y1.55
X-0.29Y1.45
X-0.29Y1.35
X-0.29Y1.25
X-0.29Y1.15
X-0.29Y1.05
X-0.29Y0.95
X-0.29Y0.85
X-0.29Y0.75
X-0.29Y0.65
X-0.29Y0.55
X0.31Y1.95
X0.31Y1.85
X0.31Y1.75
X0.31Y1.65
X0.31Y1.55
X0.31Y1.45
X0.31Y1.35
X0.31Y1.25
X0.31Y1.15
X0.31Y1.05
X0.31Y0.95
X0.31Y0.85
X0.31Y0.75
X0.31Y0.65
X0.31Y0.55
X2.91Y0.55
X3.49Y2.02
X3.49Y1.8
X3.49Y1.58
X3.49Y1.35
X3.51Y0.55
X4.09Y2.02
X4.09Y1.8
X4.09Y1.58
X4.09Y1.35
T3
X4.31Y2.02
X4.31Y1.92
X4.31Y1.8
X4.31Y1.7
X4.31Y1.58
X4.31Y1.48
X4.31Y1.35
X4.31Y1.25
T4
X-1.571Y2.15
X-1.571Y2.052
X-1.492Y2.15
X-1.492Y2.052
T5
X-1.669Y0.348
X-1.669Y0.248
X-1.669Y0.148
X-1.669Y0.048
X-1.669Y-0.052
X-1.669Y-0.152
X-1.669Y-0.252
X-1.669Y-0.352
X-1.669Y-0.452
X-1.669Y-0.552
X-1.669Y-0.652
X-1.669Y-0.752
X-1.669Y-0.852
X-1.669Y-0.952
X-1.669Y-1.052
X-1.669Y-1.152
X-1.669Y-1.252
X-1.668Y1.069
X-1.668Y0.969
X-1.668Y0.869
X-1.668Y0.769
X-1.569Y0.348
X-1.569Y0.248
X-1.569Y0.148
X-1.569Y0.048
X-1.569Y-0.052
X-1.569Y-0.152
X-1.569Y-0.252
X-1.569Y-0.352
X-1.569Y-0.452
X-1.569Y-0.552
X-1.569Y-0.652
X-1.569Y-0.752
X-1.569Y-0.852
X-1.569Y-0.952
X-1.569Y-1.052
X-1.569Y-1.152
X-1.569Y-1.252
X-1.39Y1.95
X-1.39Y1.72
X-1.39Y1.6
X-1.39Y1.5
X-1.39Y1.35
X-1.39Y1.25
X-1.39Y1.069
X-1.39Y0.969
X-1.39Y0.869
X-1.39Y0.769
X-1.29Y1.95
X-1.29Y1.72
X-1.215Y-0.3
X-1.215Y-0.4
X-1.19Y-1.1
X-1.165Y2.25
X-1.165Y2.15
X-1.165Y2.05
X-1.165Y1.95
X-1.14Y1.02
X-1.14Y0.92
X-1.14Y0.82
X-1.09Y-1.1
X-0.99Y-1.1
X-0.915Y0.65
X-0.815Y0.65
X-0.79Y-1.1
X-0.74Y2.031
X-0.715Y0.65
X-0.69Y-1.1
X-0.64Y2.031
X-0.615Y0.65
X-0.54Y2.031
X-0.515Y-1.1
X-0.415Y-1.1
X0.96Y-1.1
X1.06Y-1.1
X1.16Y-1.1
X1.36Y1.9
X1.36Y1.8
X1.36Y1.7
X1.36Y1.6
X1.36Y1.5
X1.36Y1.4
X1.36Y1.3
X1.36Y1.2
X1.36Y1.1
X1.36Y1.0
X1.36Y0.9
X1.36Y0.8
X1.36Y0.7
X1.36Y0.6
X1.36Y0.5
X1.36Y0.4
X1.36Y0.3
X1.36Y0.2
X1.36Y0.1
X1.36Y0.0
X1.49Y-1.0956
X1.59Y-1.0956
X1.69Y-1.0956
X1.76Y1.9
X1.76Y1.8
X1.76Y1.7
X1.76Y1.6
X1.76Y1.5
X1.76Y1.4
X1.76Y1.3
X1.76Y1.2
X1.76Y1.1
X1.76Y1.0
X1.76Y0.9
X1.76Y0.8
X1.76Y0.7
X1.76Y0.6
X1.76Y0.5
X1.76Y0.4
X1.76Y0.3
X1.76Y0.2
X1.76Y0.1
X1.76Y0.0
X1.91Y0.15
X1.99Y-1.098
X2.01Y0.15
X2.09Y-1.098
X2.11Y0.15
X2.1155Y1.41
X2.1155Y1.31
X2.118Y1.51
X2.19Y-1.098
X2.21Y0.15
X2.2155Y1.51
X2.2155Y1.41
X2.2155Y1.31
X2.36Y1.9
X2.36Y1.8
X2.36Y1.7
X2.36Y1.6
X2.36Y1.5
X2.36Y1.4
X2.36Y1.3
X2.36Y1.2
X2.36Y1.1
X2.36Y1.0
X2.36Y0.9
X2.36Y0.8
X2.36Y0.7
X2.36Y0.6
X2.36Y0.5
X2.36Y0.4
X2.36Y0.3
X2.36Y0.2
X2.36Y0.1
X2.36Y0.0
X2.46Y-0.95
X2.46Y-1.1
X2.56Y-0.95
X2.56Y-1.1
X2.66Y-0.95
X2.66Y-1.1
X2.76Y1.9
X2.76Y1.8
X2.76Y1.7
X2.76Y1.6
X2.76Y1.5
X2.76Y1.4
X2.76Y1.3
X2.76Y1.2
X2.76Y1.1
X2.76Y1.0
X2.76Y0.9
X2.76Y0.8
X2.76Y0.7
X2.76Y0.6
X2.76Y0.5
X2.76Y0.4
X2.76Y0.3
X2.76Y0.2
X2.76Y0.1
X2.76Y0.0
X2.934Y-0.95
X2.934Y-1.1
X3.034Y-0.95
X3.034Y-1.1
X3.134Y-0.95
X3.134Y-1.1
X3.635Y-0.9
X3.635Y-1.0
X3.635Y-1.1
X3.635Y-1.2
X3.635Y-1.3
X3.635Y-1.4
X3.735Y-0.9
X3.735Y-1.0
X3.735Y-1.1
X3.735Y-1.2
X3.735Y-1.3
X3.735Y-1.4
X3.835Y-0.9
X3.835Y-1.0
X3.835Y-1.1
X3.835Y-1.2
X3.835Y-1.3
X3.835Y-1.4
X4.06Y-0.05
X4.06Y-0.15
X4.06Y-0.25
X4.06Y-0.5
X4.06Y-0.6
X4.06Y-0.7
X4.06Y-0.8
X4.11Y2.3
X4.11Y2.2
X4.11Y0.95
X4.11Y0.85
X4.11Y0.75
X4.11Y0.65
X4.21Y-0.5
X4.21Y-0.6
X4.21Y-0.7
X4.21Y-0.8
X4.21Y-1.0
X4.21Y-1.1
X4.21Y-1.2
X4.21Y-1.3
X4.31Y0.625
X4.31Y0.525
X4.31Y0.425
X4.31Y0.325
X4.36Y2.3396
X4.36Y2.1604
T6
X4.2616Y2.3878
X4.2616Y2.1122
T7
X-1.678Y2.338
X-1.678Y1.864
T8
X0.6344Y2.3254
X0.6344Y-1.3754
X3.3903Y2.3254
X3.3903Y-1.3754
T5
G00X-1.7771Y1.5404
M15
G01X-1.7771Y1.4617
M16
G05
G00X-1.6984Y1.316
M15
G01X-1.6196Y1.316
M16
G05
G00X-1.5409Y1.5404
M15
G01X-1.5409Y1.4617
M16
G05
T0
M30
