M48
; DRILL file {KiCad (5.1.9)-1} date 07/31/21 21:11:44
; FORMAT={-:-/ absolute / inch / decimal}
; #@! TF.CreationDate,2021-07-31T21:11:44+01:00
; #@! TF.GenerationSoftware,Kicad,Pcbnew,(5.1.9)-1
; #@! TF.FileFunction,Plated,1,2,PTH
FMAT,2
INCH
T1C0.0157
T2C0.0374
T3C0.0390
T4C0.0394
T5C0.0512
T6C0.0906
T7C0.1200
%
G90
G05
T1
X-0.19Y1.915
X0.78Y0.575
X0.91Y2.28
X1.01Y2.38
X1.21Y2.38
X1.225Y-0.375
X1.24Y0.975
X1.2814Y0.525
X1.31Y1.915
X1.335Y-0.175
X1.345Y-0.575
X1.42Y-0.275
X1.42Y-0.875
X1.465Y-0.195
T2
X0.157Y2.474
X0.157Y2.376
X0.236Y2.474
X0.236Y2.376
T3
X-0.115Y1.7772
X-0.115Y1.6
T4
X0.085Y2.025
X0.085Y1.925
X0.135Y1.75
X0.135Y1.65
X0.335Y1.625
X0.42Y2.28
X0.435Y1.625
X0.52Y2.28
X0.535Y1.625
X0.56Y2.025
X0.56Y1.925
X0.56Y1.425
X0.56Y1.325
X0.56Y1.225
X0.56Y1.125
X0.56Y0.825
X0.56Y0.725
X0.56Y0.625
X0.56Y0.525
X0.56Y0.425
X0.56Y0.325
X0.56Y0.225
X0.56Y0.125
X0.56Y0.025
X0.56Y-0.075
X0.56Y-0.175
X0.56Y-0.275
X0.56Y-0.375
X0.56Y-0.475
X0.56Y-0.575
X0.56Y-0.675
X0.56Y-0.775
X0.635Y1.625
X0.66Y0.825
X0.66Y0.725
X0.66Y0.625
X0.66Y0.525
X0.66Y0.425
X0.66Y0.325
X0.66Y0.225
X0.66Y0.125
X0.66Y0.025
X0.66Y-0.075
X0.66Y-0.175
X0.66Y-0.275
X0.66Y-0.375
X0.66Y-0.475
X0.66Y-0.575
X0.66Y-0.675
X0.66Y-0.775
X0.68Y2.58
X0.68Y2.48
X0.68Y2.38
X0.68Y2.28
X0.785Y1.7
X0.885Y1.7
X0.885Y1.55
X0.935Y1.275
X0.935Y1.175
X0.935Y1.075
X0.935Y0.975
X0.935Y0.875
X0.935Y0.775
X0.935Y0.675
X0.935Y0.575
X0.935Y0.475
X0.935Y0.375
X0.935Y0.275
X0.935Y0.175
X0.935Y0.075
X0.935Y-0.025
X0.935Y-0.125
X0.935Y-0.225
X0.935Y-0.325
X0.935Y-0.425
X0.935Y-0.525
X0.935Y-0.625
X0.985Y1.7
X0.985Y1.55
X1.06Y2.025
X1.06Y1.925
X1.535Y1.775
X1.535Y1.675
X1.535Y1.575
X1.535Y1.475
X1.535Y1.275
X1.535Y1.175
X1.535Y1.075
X1.535Y0.975
X1.535Y0.875
X1.535Y0.775
X1.535Y0.675
X1.535Y0.575
X1.535Y0.475
X1.535Y0.375
X1.535Y0.275
X1.535Y0.175
X1.535Y0.075
X1.535Y-0.025
X1.535Y-0.125
X1.535Y-0.225
X1.535Y-0.325
X1.535Y-0.425
X1.535Y-0.525
X1.535Y-0.625
T5
X-0.017Y1.8268
X-0.017Y1.5508
T6
X0.05Y2.662
X0.05Y2.188
T7
X-0.153Y2.8358
X0.2407Y-0.865
X1.658Y2.8358
X1.658Y-0.865
T0
M30
