G04 #@! TF.GenerationSoftware,KiCad,Pcbnew,(5.1.9)-1*
G04 #@! TF.CreationDate,2021-06-02T08:11:27+01:00*
G04 #@! TF.ProjectId,Greaseweazle F1 Plus 3.5,47726561-7365-4776-9561-7a6c65204631,1*
G04 #@! TF.SameCoordinates,PX6312cb0PY6bcb370*
G04 #@! TF.FileFunction,Soldermask,Top*
G04 #@! TF.FilePolarity,Negative*
%FSLAX46Y46*%
G04 Gerber Fmt 4.6, Leading zero omitted, Abs format (unit mm)*
G04 Created by KiCad (PCBNEW (5.1.9)-1) date 2021-06-02 08:11:27*
%MOMM*%
%LPD*%
G01*
G04 APERTURE LIST*
%ADD10C,0.100000*%
%ADD11R,1.700000X1.700000*%
%ADD12C,1.700000*%
%ADD13R,0.650000X1.560000*%
%ADD14R,1.560000X0.650000*%
%ADD15R,0.650000X2.000000*%
%ADD16R,0.800000X1.900000*%
%ADD17O,1.700000X1.700000*%
%ADD18C,4.064000*%
%ADD19O,1.600000X1.600000*%
%ADD20R,1.600000X1.600000*%
%ADD21R,2.500000X1.900000*%
%ADD22C,3.500120*%
%ADD23C,1.501140*%
%ADD24C,1.600000*%
%ADD25R,1.800000X1.800000*%
%ADD26C,1.800000*%
%ADD27R,3.500000X3.500000*%
%ADD28C,1.950000*%
%ADD29C,1.508000*%
%ADD30C,0.600000*%
%ADD31C,1.000000*%
G04 APERTURE END LIST*
D10*
G36*
X26543000Y22733000D02*
G01*
X25908000Y22733000D01*
X25908000Y23368000D01*
X26543000Y23368000D01*
X26543000Y22733000D01*
G37*
X26543000Y22733000D02*
X25908000Y22733000D01*
X25908000Y23368000D01*
X26543000Y23368000D01*
X26543000Y22733000D01*
G36*
X25273000Y20828000D02*
G01*
X24638000Y20828000D01*
X24638000Y21463000D01*
X25273000Y21463000D01*
X25273000Y20828000D01*
G37*
X25273000Y20828000D02*
X24638000Y20828000D01*
X24638000Y21463000D01*
X25273000Y21463000D01*
X25273000Y20828000D01*
G36*
X22733000Y20828000D02*
G01*
X22098000Y20828000D01*
X22098000Y21463000D01*
X22733000Y21463000D01*
X22733000Y20828000D01*
G37*
X22733000Y20828000D02*
X22098000Y20828000D01*
X22098000Y21463000D01*
X22733000Y21463000D01*
X22733000Y20828000D01*
G36*
X22098000Y22098000D02*
G01*
X21463000Y22098000D01*
X21463000Y22733000D01*
X22098000Y22733000D01*
X22098000Y22098000D01*
G37*
X22098000Y22098000D02*
X21463000Y22098000D01*
X21463000Y22733000D01*
X22098000Y22733000D01*
X22098000Y22098000D01*
G36*
X22733000Y24638000D02*
G01*
X22098000Y24638000D01*
X22098000Y25273000D01*
X22733000Y25273000D01*
X22733000Y24638000D01*
G37*
X22733000Y24638000D02*
X22098000Y24638000D01*
X22098000Y25273000D01*
X22733000Y25273000D01*
X22733000Y24638000D01*
G36*
X23368000Y24638000D02*
G01*
X22733000Y24638000D01*
X22733000Y25273000D01*
X23368000Y25273000D01*
X23368000Y24638000D01*
G37*
X23368000Y24638000D02*
X22733000Y24638000D01*
X22733000Y25273000D01*
X23368000Y25273000D01*
X23368000Y24638000D01*
G36*
X24003000Y25273000D02*
G01*
X23368000Y25273000D01*
X23368000Y25908000D01*
X24003000Y25908000D01*
X24003000Y25273000D01*
G37*
X24003000Y25273000D02*
X23368000Y25273000D01*
X23368000Y25908000D01*
X24003000Y25908000D01*
X24003000Y25273000D01*
G36*
X24003000Y24638000D02*
G01*
X23368000Y24638000D01*
X23368000Y25273000D01*
X24003000Y25273000D01*
X24003000Y24638000D01*
G37*
X24003000Y24638000D02*
X23368000Y24638000D01*
X23368000Y25273000D01*
X24003000Y25273000D01*
X24003000Y24638000D01*
G36*
X24638000Y24638000D02*
G01*
X24003000Y24638000D01*
X24003000Y25273000D01*
X24638000Y25273000D01*
X24638000Y24638000D01*
G37*
X24638000Y24638000D02*
X24003000Y24638000D01*
X24003000Y25273000D01*
X24638000Y25273000D01*
X24638000Y24638000D01*
G36*
X25273000Y24638000D02*
G01*
X24638000Y24638000D01*
X24638000Y25273000D01*
X25273000Y25273000D01*
X25273000Y24638000D01*
G37*
X25273000Y24638000D02*
X24638000Y24638000D01*
X24638000Y25273000D01*
X25273000Y25273000D01*
X25273000Y24638000D01*
G36*
X25273000Y25273000D02*
G01*
X24638000Y25273000D01*
X24638000Y25908000D01*
X25273000Y25908000D01*
X25273000Y25273000D01*
G37*
X25273000Y25273000D02*
X24638000Y25273000D01*
X24638000Y25908000D01*
X25273000Y25908000D01*
X25273000Y25273000D01*
G36*
X26543000Y20828000D02*
G01*
X25908000Y20828000D01*
X25908000Y21463000D01*
X26543000Y21463000D01*
X26543000Y20828000D01*
G37*
X26543000Y20828000D02*
X25908000Y20828000D01*
X25908000Y21463000D01*
X26543000Y21463000D01*
X26543000Y20828000D01*
G36*
X26543000Y24638000D02*
G01*
X25908000Y24638000D01*
X25908000Y25273000D01*
X26543000Y25273000D01*
X26543000Y24638000D01*
G37*
X26543000Y24638000D02*
X25908000Y24638000D01*
X25908000Y25273000D01*
X26543000Y25273000D01*
X26543000Y24638000D01*
G36*
X23368000Y24003000D02*
G01*
X22733000Y24003000D01*
X22733000Y24638000D01*
X23368000Y24638000D01*
X23368000Y24003000D01*
G37*
X23368000Y24003000D02*
X22733000Y24003000D01*
X22733000Y24638000D01*
X23368000Y24638000D01*
X23368000Y24003000D01*
G36*
X24003000Y23368000D02*
G01*
X23368000Y23368000D01*
X23368000Y24003000D01*
X24003000Y24003000D01*
X24003000Y23368000D01*
G37*
X24003000Y23368000D02*
X23368000Y23368000D01*
X23368000Y24003000D01*
X24003000Y24003000D01*
X24003000Y23368000D01*
G36*
X25273000Y23368000D02*
G01*
X24638000Y23368000D01*
X24638000Y24003000D01*
X25273000Y24003000D01*
X25273000Y23368000D01*
G37*
X25273000Y23368000D02*
X24638000Y23368000D01*
X24638000Y24003000D01*
X25273000Y24003000D01*
X25273000Y23368000D01*
G36*
X24638000Y23368000D02*
G01*
X24003000Y23368000D01*
X24003000Y24003000D01*
X24638000Y24003000D01*
X24638000Y23368000D01*
G37*
X24638000Y23368000D02*
X24003000Y23368000D01*
X24003000Y24003000D01*
X24638000Y24003000D01*
X24638000Y23368000D01*
G36*
X24638000Y24003000D02*
G01*
X24003000Y24003000D01*
X24003000Y24638000D01*
X24638000Y24638000D01*
X24638000Y24003000D01*
G37*
X24638000Y24003000D02*
X24003000Y24003000D01*
X24003000Y24638000D01*
X24638000Y24638000D01*
X24638000Y24003000D01*
G36*
X26543000Y22733000D02*
G01*
X25908000Y22733000D01*
X25908000Y23368000D01*
X26543000Y23368000D01*
X26543000Y22733000D01*
G37*
X26543000Y22733000D02*
X25908000Y22733000D01*
X25908000Y23368000D01*
X26543000Y23368000D01*
X26543000Y22733000D01*
G36*
X25273000Y20828000D02*
G01*
X24638000Y20828000D01*
X24638000Y21463000D01*
X25273000Y21463000D01*
X25273000Y20828000D01*
G37*
X25273000Y20828000D02*
X24638000Y20828000D01*
X24638000Y21463000D01*
X25273000Y21463000D01*
X25273000Y20828000D01*
G36*
X22733000Y20828000D02*
G01*
X22098000Y20828000D01*
X22098000Y21463000D01*
X22733000Y21463000D01*
X22733000Y20828000D01*
G37*
X22733000Y20828000D02*
X22098000Y20828000D01*
X22098000Y21463000D01*
X22733000Y21463000D01*
X22733000Y20828000D01*
G36*
X22098000Y22098000D02*
G01*
X21463000Y22098000D01*
X21463000Y22733000D01*
X22098000Y22733000D01*
X22098000Y22098000D01*
G37*
X22098000Y22098000D02*
X21463000Y22098000D01*
X21463000Y22733000D01*
X22098000Y22733000D01*
X22098000Y22098000D01*
G36*
X22733000Y24638000D02*
G01*
X22098000Y24638000D01*
X22098000Y25273000D01*
X22733000Y25273000D01*
X22733000Y24638000D01*
G37*
X22733000Y24638000D02*
X22098000Y24638000D01*
X22098000Y25273000D01*
X22733000Y25273000D01*
X22733000Y24638000D01*
G36*
X23368000Y24638000D02*
G01*
X22733000Y24638000D01*
X22733000Y25273000D01*
X23368000Y25273000D01*
X23368000Y24638000D01*
G37*
X23368000Y24638000D02*
X22733000Y24638000D01*
X22733000Y25273000D01*
X23368000Y25273000D01*
X23368000Y24638000D01*
G36*
X24003000Y25273000D02*
G01*
X23368000Y25273000D01*
X23368000Y25908000D01*
X24003000Y25908000D01*
X24003000Y25273000D01*
G37*
X24003000Y25273000D02*
X23368000Y25273000D01*
X23368000Y25908000D01*
X24003000Y25908000D01*
X24003000Y25273000D01*
G36*
X24003000Y24638000D02*
G01*
X23368000Y24638000D01*
X23368000Y25273000D01*
X24003000Y25273000D01*
X24003000Y24638000D01*
G37*
X24003000Y24638000D02*
X23368000Y24638000D01*
X23368000Y25273000D01*
X24003000Y25273000D01*
X24003000Y24638000D01*
G36*
X24638000Y24638000D02*
G01*
X24003000Y24638000D01*
X24003000Y25273000D01*
X24638000Y25273000D01*
X24638000Y24638000D01*
G37*
X24638000Y24638000D02*
X24003000Y24638000D01*
X24003000Y25273000D01*
X24638000Y25273000D01*
X24638000Y24638000D01*
G36*
X25273000Y24638000D02*
G01*
X24638000Y24638000D01*
X24638000Y25273000D01*
X25273000Y25273000D01*
X25273000Y24638000D01*
G37*
X25273000Y24638000D02*
X24638000Y24638000D01*
X24638000Y25273000D01*
X25273000Y25273000D01*
X25273000Y24638000D01*
G36*
X25273000Y25273000D02*
G01*
X24638000Y25273000D01*
X24638000Y25908000D01*
X25273000Y25908000D01*
X25273000Y25273000D01*
G37*
X25273000Y25273000D02*
X24638000Y25273000D01*
X24638000Y25908000D01*
X25273000Y25908000D01*
X25273000Y25273000D01*
G36*
X26543000Y20828000D02*
G01*
X25908000Y20828000D01*
X25908000Y21463000D01*
X26543000Y21463000D01*
X26543000Y20828000D01*
G37*
X26543000Y20828000D02*
X25908000Y20828000D01*
X25908000Y21463000D01*
X26543000Y21463000D01*
X26543000Y20828000D01*
G36*
X26543000Y24638000D02*
G01*
X25908000Y24638000D01*
X25908000Y25273000D01*
X26543000Y25273000D01*
X26543000Y24638000D01*
G37*
X26543000Y24638000D02*
X25908000Y24638000D01*
X25908000Y25273000D01*
X26543000Y25273000D01*
X26543000Y24638000D01*
G36*
X23368000Y24003000D02*
G01*
X22733000Y24003000D01*
X22733000Y24638000D01*
X23368000Y24638000D01*
X23368000Y24003000D01*
G37*
X23368000Y24003000D02*
X22733000Y24003000D01*
X22733000Y24638000D01*
X23368000Y24638000D01*
X23368000Y24003000D01*
G36*
X24003000Y23368000D02*
G01*
X23368000Y23368000D01*
X23368000Y24003000D01*
X24003000Y24003000D01*
X24003000Y23368000D01*
G37*
X24003000Y23368000D02*
X23368000Y23368000D01*
X23368000Y24003000D01*
X24003000Y24003000D01*
X24003000Y23368000D01*
G36*
X25273000Y23368000D02*
G01*
X24638000Y23368000D01*
X24638000Y24003000D01*
X25273000Y24003000D01*
X25273000Y23368000D01*
G37*
X25273000Y23368000D02*
X24638000Y23368000D01*
X24638000Y24003000D01*
X25273000Y24003000D01*
X25273000Y23368000D01*
G36*
X24638000Y23368000D02*
G01*
X24003000Y23368000D01*
X24003000Y24003000D01*
X24638000Y24003000D01*
X24638000Y23368000D01*
G37*
X24638000Y23368000D02*
X24003000Y23368000D01*
X24003000Y24003000D01*
X24638000Y24003000D01*
X24638000Y23368000D01*
G36*
X24638000Y24003000D02*
G01*
X24003000Y24003000D01*
X24003000Y24638000D01*
X24638000Y24638000D01*
X24638000Y24003000D01*
G37*
X24638000Y24003000D02*
X24003000Y24003000D01*
X24003000Y24638000D01*
X24638000Y24638000D01*
X24638000Y24003000D01*
G36*
G01*
X5784000Y-11880001D02*
X5784000Y-10979999D01*
G75*
G02*
X6033999Y-10730000I249999J0D01*
G01*
X6684001Y-10730000D01*
G75*
G02*
X6934000Y-10979999I0J-249999D01*
G01*
X6934000Y-11880001D01*
G75*
G02*
X6684001Y-12130000I-249999J0D01*
G01*
X6033999Y-12130000D01*
G75*
G02*
X5784000Y-11880001I0J249999D01*
G01*
G37*
G36*
G01*
X3734000Y-11880001D02*
X3734000Y-10979999D01*
G75*
G02*
X3983999Y-10730000I249999J0D01*
G01*
X4634001Y-10730000D01*
G75*
G02*
X4884000Y-10979999I0J-249999D01*
G01*
X4884000Y-11880001D01*
G75*
G02*
X4634001Y-12130000I-249999J0D01*
G01*
X3983999Y-12130000D01*
G75*
G02*
X3734000Y-11880001I0J249999D01*
G01*
G37*
G36*
G01*
X-196000Y-1454999D02*
X-196000Y-2355001D01*
G75*
G02*
X-445999Y-2605000I-249999J0D01*
G01*
X-1096001Y-2605000D01*
G75*
G02*
X-1346000Y-2355001I0J249999D01*
G01*
X-1346000Y-1454999D01*
G75*
G02*
X-1096001Y-1205000I249999J0D01*
G01*
X-445999Y-1205000D01*
G75*
G02*
X-196000Y-1454999I0J-249999D01*
G01*
G37*
G36*
G01*
X1854000Y-1454999D02*
X1854000Y-2355001D01*
G75*
G02*
X1604001Y-2605000I-249999J0D01*
G01*
X953999Y-2605000D01*
G75*
G02*
X704000Y-2355001I0J249999D01*
G01*
X704000Y-1454999D01*
G75*
G02*
X953999Y-1205000I249999J0D01*
G01*
X1604001Y-1205000D01*
G75*
G02*
X1854000Y-1454999I0J-249999D01*
G01*
G37*
G36*
G01*
X5784000Y-8705001D02*
X5784000Y-7804999D01*
G75*
G02*
X6033999Y-7555000I249999J0D01*
G01*
X6684001Y-7555000D01*
G75*
G02*
X6934000Y-7804999I0J-249999D01*
G01*
X6934000Y-8705001D01*
G75*
G02*
X6684001Y-8955000I-249999J0D01*
G01*
X6033999Y-8955000D01*
G75*
G02*
X5784000Y-8705001I0J249999D01*
G01*
G37*
G36*
G01*
X3734000Y-8705001D02*
X3734000Y-7804999D01*
G75*
G02*
X3983999Y-7555000I249999J0D01*
G01*
X4634001Y-7555000D01*
G75*
G02*
X4884000Y-7804999I0J-249999D01*
G01*
X4884000Y-8705001D01*
G75*
G02*
X4634001Y-8955000I-249999J0D01*
G01*
X3983999Y-8955000D01*
G75*
G02*
X3734000Y-8705001I0J249999D01*
G01*
G37*
G36*
G01*
X-196000Y-16059999D02*
X-196000Y-16960001D01*
G75*
G02*
X-445999Y-17210000I-249999J0D01*
G01*
X-1096001Y-17210000D01*
G75*
G02*
X-1346000Y-16960001I0J249999D01*
G01*
X-1346000Y-16059999D01*
G75*
G02*
X-1096001Y-15810000I249999J0D01*
G01*
X-445999Y-15810000D01*
G75*
G02*
X-196000Y-16059999I0J-249999D01*
G01*
G37*
G36*
G01*
X1854000Y-16059999D02*
X1854000Y-16960001D01*
G75*
G02*
X1604001Y-17210000I-249999J0D01*
G01*
X953999Y-17210000D01*
G75*
G02*
X704000Y-16960001I0J249999D01*
G01*
X704000Y-16059999D01*
G75*
G02*
X953999Y-15810000I249999J0D01*
G01*
X1604001Y-15810000D01*
G75*
G02*
X1854000Y-16059999I0J-249999D01*
G01*
G37*
G36*
G01*
X-196000Y-4629999D02*
X-196000Y-5530001D01*
G75*
G02*
X-445999Y-5780000I-249999J0D01*
G01*
X-1096001Y-5780000D01*
G75*
G02*
X-1346000Y-5530001I0J249999D01*
G01*
X-1346000Y-4629999D01*
G75*
G02*
X-1096001Y-4380000I249999J0D01*
G01*
X-445999Y-4380000D01*
G75*
G02*
X-196000Y-4629999I0J-249999D01*
G01*
G37*
G36*
G01*
X1854000Y-4629999D02*
X1854000Y-5530001D01*
G75*
G02*
X1604001Y-5780000I-249999J0D01*
G01*
X953999Y-5780000D01*
G75*
G02*
X704000Y-5530001I0J249999D01*
G01*
X704000Y-4629999D01*
G75*
G02*
X953999Y-4380000I249999J0D01*
G01*
X1604001Y-4380000D01*
G75*
G02*
X1854000Y-4629999I0J-249999D01*
G01*
G37*
G36*
G01*
X5784000Y-5530001D02*
X5784000Y-4629999D01*
G75*
G02*
X6033999Y-4380000I249999J0D01*
G01*
X6684001Y-4380000D01*
G75*
G02*
X6934000Y-4629999I0J-249999D01*
G01*
X6934000Y-5530001D01*
G75*
G02*
X6684001Y-5780000I-249999J0D01*
G01*
X6033999Y-5780000D01*
G75*
G02*
X5784000Y-5530001I0J249999D01*
G01*
G37*
G36*
G01*
X3734000Y-5530001D02*
X3734000Y-4629999D01*
G75*
G02*
X3983999Y-4380000I249999J0D01*
G01*
X4634001Y-4380000D01*
G75*
G02*
X4884000Y-4629999I0J-249999D01*
G01*
X4884000Y-5530001D01*
G75*
G02*
X4634001Y-5780000I-249999J0D01*
G01*
X3983999Y-5780000D01*
G75*
G02*
X3734000Y-5530001I0J249999D01*
G01*
G37*
G36*
G01*
X-196000Y-19234999D02*
X-196000Y-20135001D01*
G75*
G02*
X-445999Y-20385000I-249999J0D01*
G01*
X-1096001Y-20385000D01*
G75*
G02*
X-1346000Y-20135001I0J249999D01*
G01*
X-1346000Y-19234999D01*
G75*
G02*
X-1096001Y-18985000I249999J0D01*
G01*
X-445999Y-18985000D01*
G75*
G02*
X-196000Y-19234999I0J-249999D01*
G01*
G37*
G36*
G01*
X1854000Y-19234999D02*
X1854000Y-20135001D01*
G75*
G02*
X1604001Y-20385000I-249999J0D01*
G01*
X953999Y-20385000D01*
G75*
G02*
X704000Y-20135001I0J249999D01*
G01*
X704000Y-19234999D01*
G75*
G02*
X953999Y-18985000I249999J0D01*
G01*
X1604001Y-18985000D01*
G75*
G02*
X1854000Y-19234999I0J-249999D01*
G01*
G37*
G36*
G01*
X-196000Y-7804999D02*
X-196000Y-8705001D01*
G75*
G02*
X-445999Y-8955000I-249999J0D01*
G01*
X-1096001Y-8955000D01*
G75*
G02*
X-1346000Y-8705001I0J249999D01*
G01*
X-1346000Y-7804999D01*
G75*
G02*
X-1096001Y-7555000I249999J0D01*
G01*
X-445999Y-7555000D01*
G75*
G02*
X-196000Y-7804999I0J-249999D01*
G01*
G37*
G36*
G01*
X1854000Y-7804999D02*
X1854000Y-8705001D01*
G75*
G02*
X1604001Y-8955000I-249999J0D01*
G01*
X953999Y-8955000D01*
G75*
G02*
X704000Y-8705001I0J249999D01*
G01*
X704000Y-7804999D01*
G75*
G02*
X953999Y-7555000I249999J0D01*
G01*
X1604001Y-7555000D01*
G75*
G02*
X1854000Y-7804999I0J-249999D01*
G01*
G37*
G36*
G01*
X5784000Y-2355001D02*
X5784000Y-1454999D01*
G75*
G02*
X6033999Y-1205000I249999J0D01*
G01*
X6684001Y-1205000D01*
G75*
G02*
X6934000Y-1454999I0J-249999D01*
G01*
X6934000Y-2355001D01*
G75*
G02*
X6684001Y-2605000I-249999J0D01*
G01*
X6033999Y-2605000D01*
G75*
G02*
X5784000Y-2355001I0J249999D01*
G01*
G37*
G36*
G01*
X3734000Y-2355001D02*
X3734000Y-1454999D01*
G75*
G02*
X3983999Y-1205000I249999J0D01*
G01*
X4634001Y-1205000D01*
G75*
G02*
X4884000Y-1454999I0J-249999D01*
G01*
X4884000Y-2355001D01*
G75*
G02*
X4634001Y-2605000I-249999J0D01*
G01*
X3983999Y-2605000D01*
G75*
G02*
X3734000Y-2355001I0J249999D01*
G01*
G37*
G36*
G01*
X-196000Y-22409999D02*
X-196000Y-23310001D01*
G75*
G02*
X-445999Y-23560000I-249999J0D01*
G01*
X-1096001Y-23560000D01*
G75*
G02*
X-1346000Y-23310001I0J249999D01*
G01*
X-1346000Y-22409999D01*
G75*
G02*
X-1096001Y-22160000I249999J0D01*
G01*
X-445999Y-22160000D01*
G75*
G02*
X-196000Y-22409999I0J-249999D01*
G01*
G37*
G36*
G01*
X1854000Y-22409999D02*
X1854000Y-23310001D01*
G75*
G02*
X1604001Y-23560000I-249999J0D01*
G01*
X953999Y-23560000D01*
G75*
G02*
X704000Y-23310001I0J249999D01*
G01*
X704000Y-22409999D01*
G75*
G02*
X953999Y-22160000I249999J0D01*
G01*
X1604001Y-22160000D01*
G75*
G02*
X1854000Y-22409999I0J-249999D01*
G01*
G37*
G36*
G01*
X-196000Y-10979999D02*
X-196000Y-11880001D01*
G75*
G02*
X-445999Y-12130000I-249999J0D01*
G01*
X-1096001Y-12130000D01*
G75*
G02*
X-1346000Y-11880001I0J249999D01*
G01*
X-1346000Y-10979999D01*
G75*
G02*
X-1096001Y-10730000I249999J0D01*
G01*
X-445999Y-10730000D01*
G75*
G02*
X-196000Y-10979999I0J-249999D01*
G01*
G37*
G36*
G01*
X1854000Y-10979999D02*
X1854000Y-11880001D01*
G75*
G02*
X1604001Y-12130000I-249999J0D01*
G01*
X953999Y-12130000D01*
G75*
G02*
X704000Y-11880001I0J249999D01*
G01*
X704000Y-10979999D01*
G75*
G02*
X953999Y-10730000I249999J0D01*
G01*
X1604001Y-10730000D01*
G75*
G02*
X1854000Y-10979999I0J-249999D01*
G01*
G37*
G36*
G01*
X-196000Y-25584999D02*
X-196000Y-26485001D01*
G75*
G02*
X-445999Y-26735000I-249999J0D01*
G01*
X-1096001Y-26735000D01*
G75*
G02*
X-1346000Y-26485001I0J249999D01*
G01*
X-1346000Y-25584999D01*
G75*
G02*
X-1096001Y-25335000I249999J0D01*
G01*
X-445999Y-25335000D01*
G75*
G02*
X-196000Y-25584999I0J-249999D01*
G01*
G37*
G36*
G01*
X1854000Y-25584999D02*
X1854000Y-26485001D01*
G75*
G02*
X1604001Y-26735000I-249999J0D01*
G01*
X953999Y-26735000D01*
G75*
G02*
X704000Y-26485001I0J249999D01*
G01*
X704000Y-25584999D01*
G75*
G02*
X953999Y-25335000I249999J0D01*
G01*
X1604001Y-25335000D01*
G75*
G02*
X1854000Y-25584999I0J-249999D01*
G01*
G37*
G36*
G01*
X5784000Y-16960001D02*
X5784000Y-16059999D01*
G75*
G02*
X6033999Y-15810000I249999J0D01*
G01*
X6684001Y-15810000D01*
G75*
G02*
X6934000Y-16059999I0J-249999D01*
G01*
X6934000Y-16960001D01*
G75*
G02*
X6684001Y-17210000I-249999J0D01*
G01*
X6033999Y-17210000D01*
G75*
G02*
X5784000Y-16960001I0J249999D01*
G01*
G37*
G36*
G01*
X3734000Y-16960001D02*
X3734000Y-16059999D01*
G75*
G02*
X3983999Y-15810000I249999J0D01*
G01*
X4634001Y-15810000D01*
G75*
G02*
X4884000Y-16059999I0J-249999D01*
G01*
X4884000Y-16960001D01*
G75*
G02*
X4634001Y-17210000I-249999J0D01*
G01*
X3983999Y-17210000D01*
G75*
G02*
X3734000Y-16960001I0J249999D01*
G01*
G37*
G36*
G01*
X-22376000Y-14120000D02*
X-22376000Y-13820000D01*
G75*
G02*
X-22226000Y-13670000I150000J0D01*
G01*
X-20576000Y-13670000D01*
G75*
G02*
X-20426000Y-13820000I0J-150000D01*
G01*
X-20426000Y-14120000D01*
G75*
G02*
X-20576000Y-14270000I-150000J0D01*
G01*
X-22226000Y-14270000D01*
G75*
G02*
X-22376000Y-14120000I0J150000D01*
G01*
G37*
G36*
G01*
X-22376000Y-15390000D02*
X-22376000Y-15090000D01*
G75*
G02*
X-22226000Y-14940000I150000J0D01*
G01*
X-20576000Y-14940000D01*
G75*
G02*
X-20426000Y-15090000I0J-150000D01*
G01*
X-20426000Y-15390000D01*
G75*
G02*
X-20576000Y-15540000I-150000J0D01*
G01*
X-22226000Y-15540000D01*
G75*
G02*
X-22376000Y-15390000I0J150000D01*
G01*
G37*
G36*
G01*
X-22376000Y-16660000D02*
X-22376000Y-16360000D01*
G75*
G02*
X-22226000Y-16210000I150000J0D01*
G01*
X-20576000Y-16210000D01*
G75*
G02*
X-20426000Y-16360000I0J-150000D01*
G01*
X-20426000Y-16660000D01*
G75*
G02*
X-20576000Y-16810000I-150000J0D01*
G01*
X-22226000Y-16810000D01*
G75*
G02*
X-22376000Y-16660000I0J150000D01*
G01*
G37*
G36*
G01*
X-22376000Y-17930000D02*
X-22376000Y-17630000D01*
G75*
G02*
X-22226000Y-17480000I150000J0D01*
G01*
X-20576000Y-17480000D01*
G75*
G02*
X-20426000Y-17630000I0J-150000D01*
G01*
X-20426000Y-17930000D01*
G75*
G02*
X-20576000Y-18080000I-150000J0D01*
G01*
X-22226000Y-18080000D01*
G75*
G02*
X-22376000Y-17930000I0J150000D01*
G01*
G37*
G36*
G01*
X-22376000Y-19200000D02*
X-22376000Y-18900000D01*
G75*
G02*
X-22226000Y-18750000I150000J0D01*
G01*
X-20576000Y-18750000D01*
G75*
G02*
X-20426000Y-18900000I0J-150000D01*
G01*
X-20426000Y-19200000D01*
G75*
G02*
X-20576000Y-19350000I-150000J0D01*
G01*
X-22226000Y-19350000D01*
G75*
G02*
X-22376000Y-19200000I0J150000D01*
G01*
G37*
G36*
G01*
X-22376000Y-20470000D02*
X-22376000Y-20170000D01*
G75*
G02*
X-22226000Y-20020000I150000J0D01*
G01*
X-20576000Y-20020000D01*
G75*
G02*
X-20426000Y-20170000I0J-150000D01*
G01*
X-20426000Y-20470000D01*
G75*
G02*
X-20576000Y-20620000I-150000J0D01*
G01*
X-22226000Y-20620000D01*
G75*
G02*
X-22376000Y-20470000I0J150000D01*
G01*
G37*
G36*
G01*
X-22376000Y-21740000D02*
X-22376000Y-21440000D01*
G75*
G02*
X-22226000Y-21290000I150000J0D01*
G01*
X-20576000Y-21290000D01*
G75*
G02*
X-20426000Y-21440000I0J-150000D01*
G01*
X-20426000Y-21740000D01*
G75*
G02*
X-20576000Y-21890000I-150000J0D01*
G01*
X-22226000Y-21890000D01*
G75*
G02*
X-22376000Y-21740000I0J150000D01*
G01*
G37*
G36*
G01*
X-27326000Y-21740000D02*
X-27326000Y-21440000D01*
G75*
G02*
X-27176000Y-21290000I150000J0D01*
G01*
X-25526000Y-21290000D01*
G75*
G02*
X-25376000Y-21440000I0J-150000D01*
G01*
X-25376000Y-21740000D01*
G75*
G02*
X-25526000Y-21890000I-150000J0D01*
G01*
X-27176000Y-21890000D01*
G75*
G02*
X-27326000Y-21740000I0J150000D01*
G01*
G37*
G36*
G01*
X-27326000Y-20470000D02*
X-27326000Y-20170000D01*
G75*
G02*
X-27176000Y-20020000I150000J0D01*
G01*
X-25526000Y-20020000D01*
G75*
G02*
X-25376000Y-20170000I0J-150000D01*
G01*
X-25376000Y-20470000D01*
G75*
G02*
X-25526000Y-20620000I-150000J0D01*
G01*
X-27176000Y-20620000D01*
G75*
G02*
X-27326000Y-20470000I0J150000D01*
G01*
G37*
G36*
G01*
X-27326000Y-19200000D02*
X-27326000Y-18900000D01*
G75*
G02*
X-27176000Y-18750000I150000J0D01*
G01*
X-25526000Y-18750000D01*
G75*
G02*
X-25376000Y-18900000I0J-150000D01*
G01*
X-25376000Y-19200000D01*
G75*
G02*
X-25526000Y-19350000I-150000J0D01*
G01*
X-27176000Y-19350000D01*
G75*
G02*
X-27326000Y-19200000I0J150000D01*
G01*
G37*
G36*
G01*
X-27326000Y-17930000D02*
X-27326000Y-17630000D01*
G75*
G02*
X-27176000Y-17480000I150000J0D01*
G01*
X-25526000Y-17480000D01*
G75*
G02*
X-25376000Y-17630000I0J-150000D01*
G01*
X-25376000Y-17930000D01*
G75*
G02*
X-25526000Y-18080000I-150000J0D01*
G01*
X-27176000Y-18080000D01*
G75*
G02*
X-27326000Y-17930000I0J150000D01*
G01*
G37*
G36*
G01*
X-27326000Y-16660000D02*
X-27326000Y-16360000D01*
G75*
G02*
X-27176000Y-16210000I150000J0D01*
G01*
X-25526000Y-16210000D01*
G75*
G02*
X-25376000Y-16360000I0J-150000D01*
G01*
X-25376000Y-16660000D01*
G75*
G02*
X-25526000Y-16810000I-150000J0D01*
G01*
X-27176000Y-16810000D01*
G75*
G02*
X-27326000Y-16660000I0J150000D01*
G01*
G37*
G36*
G01*
X-27326000Y-15390000D02*
X-27326000Y-15090000D01*
G75*
G02*
X-27176000Y-14940000I150000J0D01*
G01*
X-25526000Y-14940000D01*
G75*
G02*
X-25376000Y-15090000I0J-150000D01*
G01*
X-25376000Y-15390000D01*
G75*
G02*
X-25526000Y-15540000I-150000J0D01*
G01*
X-27176000Y-15540000D01*
G75*
G02*
X-27326000Y-15390000I0J150000D01*
G01*
G37*
G36*
G01*
X-27326000Y-14120000D02*
X-27326000Y-13820000D01*
G75*
G02*
X-27176000Y-13670000I150000J0D01*
G01*
X-25526000Y-13670000D01*
G75*
G02*
X-25376000Y-13820000I0J-150000D01*
G01*
X-25376000Y-14120000D01*
G75*
G02*
X-25526000Y-14270000I-150000J0D01*
G01*
X-27176000Y-14270000D01*
G75*
G02*
X-27326000Y-14120000I0J150000D01*
G01*
G37*
G36*
G01*
X-22460999Y2898000D02*
X-22460999Y3198000D01*
G75*
G02*
X-22310999Y3348000I150000J0D01*
G01*
X-20660999Y3348000D01*
G75*
G02*
X-20510999Y3198000I0J-150000D01*
G01*
X-20510999Y2898000D01*
G75*
G02*
X-20660999Y2748000I-150000J0D01*
G01*
X-22310999Y2748000D01*
G75*
G02*
X-22460999Y2898000I0J150000D01*
G01*
G37*
G36*
G01*
X-22460999Y1628000D02*
X-22460999Y1928000D01*
G75*
G02*
X-22310999Y2078000I150000J0D01*
G01*
X-20660999Y2078000D01*
G75*
G02*
X-20510999Y1928000I0J-150000D01*
G01*
X-20510999Y1628000D01*
G75*
G02*
X-20660999Y1478000I-150000J0D01*
G01*
X-22310999Y1478000D01*
G75*
G02*
X-22460999Y1628000I0J150000D01*
G01*
G37*
G36*
G01*
X-22460999Y358000D02*
X-22460999Y658000D01*
G75*
G02*
X-22310999Y808000I150000J0D01*
G01*
X-20660999Y808000D01*
G75*
G02*
X-20510999Y658000I0J-150000D01*
G01*
X-20510999Y358000D01*
G75*
G02*
X-20660999Y208000I-150000J0D01*
G01*
X-22310999Y208000D01*
G75*
G02*
X-22460999Y358000I0J150000D01*
G01*
G37*
G36*
G01*
X-22460999Y-912000D02*
X-22460999Y-612000D01*
G75*
G02*
X-22310999Y-462000I150000J0D01*
G01*
X-20660999Y-462000D01*
G75*
G02*
X-20510999Y-612000I0J-150000D01*
G01*
X-20510999Y-912000D01*
G75*
G02*
X-20660999Y-1062000I-150000J0D01*
G01*
X-22310999Y-1062000D01*
G75*
G02*
X-22460999Y-912000I0J150000D01*
G01*
G37*
G36*
G01*
X-22460999Y-2182000D02*
X-22460999Y-1882000D01*
G75*
G02*
X-22310999Y-1732000I150000J0D01*
G01*
X-20660999Y-1732000D01*
G75*
G02*
X-20510999Y-1882000I0J-150000D01*
G01*
X-20510999Y-2182000D01*
G75*
G02*
X-20660999Y-2332000I-150000J0D01*
G01*
X-22310999Y-2332000D01*
G75*
G02*
X-22460999Y-2182000I0J150000D01*
G01*
G37*
G36*
G01*
X-22460999Y-3452000D02*
X-22460999Y-3152000D01*
G75*
G02*
X-22310999Y-3002000I150000J0D01*
G01*
X-20660999Y-3002000D01*
G75*
G02*
X-20510999Y-3152000I0J-150000D01*
G01*
X-20510999Y-3452000D01*
G75*
G02*
X-20660999Y-3602000I-150000J0D01*
G01*
X-22310999Y-3602000D01*
G75*
G02*
X-22460999Y-3452000I0J150000D01*
G01*
G37*
G36*
G01*
X-22460999Y-4722000D02*
X-22460999Y-4422000D01*
G75*
G02*
X-22310999Y-4272000I150000J0D01*
G01*
X-20660999Y-4272000D01*
G75*
G02*
X-20510999Y-4422000I0J-150000D01*
G01*
X-20510999Y-4722000D01*
G75*
G02*
X-20660999Y-4872000I-150000J0D01*
G01*
X-22310999Y-4872000D01*
G75*
G02*
X-22460999Y-4722000I0J150000D01*
G01*
G37*
G36*
G01*
X-27410999Y-4722000D02*
X-27410999Y-4422000D01*
G75*
G02*
X-27260999Y-4272000I150000J0D01*
G01*
X-25610999Y-4272000D01*
G75*
G02*
X-25460999Y-4422000I0J-150000D01*
G01*
X-25460999Y-4722000D01*
G75*
G02*
X-25610999Y-4872000I-150000J0D01*
G01*
X-27260999Y-4872000D01*
G75*
G02*
X-27410999Y-4722000I0J150000D01*
G01*
G37*
G36*
G01*
X-27410999Y-3452000D02*
X-27410999Y-3152000D01*
G75*
G02*
X-27260999Y-3002000I150000J0D01*
G01*
X-25610999Y-3002000D01*
G75*
G02*
X-25460999Y-3152000I0J-150000D01*
G01*
X-25460999Y-3452000D01*
G75*
G02*
X-25610999Y-3602000I-150000J0D01*
G01*
X-27260999Y-3602000D01*
G75*
G02*
X-27410999Y-3452000I0J150000D01*
G01*
G37*
G36*
G01*
X-27410999Y-2182000D02*
X-27410999Y-1882000D01*
G75*
G02*
X-27260999Y-1732000I150000J0D01*
G01*
X-25610999Y-1732000D01*
G75*
G02*
X-25460999Y-1882000I0J-150000D01*
G01*
X-25460999Y-2182000D01*
G75*
G02*
X-25610999Y-2332000I-150000J0D01*
G01*
X-27260999Y-2332000D01*
G75*
G02*
X-27410999Y-2182000I0J150000D01*
G01*
G37*
G36*
G01*
X-27410999Y-912000D02*
X-27410999Y-612000D01*
G75*
G02*
X-27260999Y-462000I150000J0D01*
G01*
X-25610999Y-462000D01*
G75*
G02*
X-25460999Y-612000I0J-150000D01*
G01*
X-25460999Y-912000D01*
G75*
G02*
X-25610999Y-1062000I-150000J0D01*
G01*
X-27260999Y-1062000D01*
G75*
G02*
X-27410999Y-912000I0J150000D01*
G01*
G37*
G36*
G01*
X-27410999Y358000D02*
X-27410999Y658000D01*
G75*
G02*
X-27260999Y808000I150000J0D01*
G01*
X-25610999Y808000D01*
G75*
G02*
X-25460999Y658000I0J-150000D01*
G01*
X-25460999Y358000D01*
G75*
G02*
X-25610999Y208000I-150000J0D01*
G01*
X-27260999Y208000D01*
G75*
G02*
X-27410999Y358000I0J150000D01*
G01*
G37*
G36*
G01*
X-27410999Y1628000D02*
X-27410999Y1928000D01*
G75*
G02*
X-27260999Y2078000I150000J0D01*
G01*
X-25610999Y2078000D01*
G75*
G02*
X-25460999Y1928000I0J-150000D01*
G01*
X-25460999Y1628000D01*
G75*
G02*
X-25610999Y1478000I-150000J0D01*
G01*
X-27260999Y1478000D01*
G75*
G02*
X-27410999Y1628000I0J150000D01*
G01*
G37*
G36*
G01*
X-27410999Y2898000D02*
X-27410999Y3198000D01*
G75*
G02*
X-27260999Y3348000I150000J0D01*
G01*
X-25610999Y3348000D01*
G75*
G02*
X-25460999Y3198000I0J-150000D01*
G01*
X-25460999Y2898000D01*
G75*
G02*
X-25610999Y2748000I-150000J0D01*
G01*
X-27260999Y2748000D01*
G75*
G02*
X-27410999Y2898000I0J150000D01*
G01*
G37*
G36*
G01*
X5784000Y-35375001D02*
X5784000Y-34474999D01*
G75*
G02*
X6033999Y-34225000I249999J0D01*
G01*
X6684001Y-34225000D01*
G75*
G02*
X6934000Y-34474999I0J-249999D01*
G01*
X6934000Y-35375001D01*
G75*
G02*
X6684001Y-35625000I-249999J0D01*
G01*
X6033999Y-35625000D01*
G75*
G02*
X5784000Y-35375001I0J249999D01*
G01*
G37*
G36*
G01*
X3734000Y-35375001D02*
X3734000Y-34474999D01*
G75*
G02*
X3983999Y-34225000I249999J0D01*
G01*
X4634001Y-34225000D01*
G75*
G02*
X4884000Y-34474999I0J-249999D01*
G01*
X4884000Y-35375001D01*
G75*
G02*
X4634001Y-35625000I-249999J0D01*
G01*
X3983999Y-35625000D01*
G75*
G02*
X3734000Y-35375001I0J249999D01*
G01*
G37*
G36*
G01*
X5784000Y-32835001D02*
X5784000Y-31934999D01*
G75*
G02*
X6033999Y-31685000I249999J0D01*
G01*
X6684001Y-31685000D01*
G75*
G02*
X6934000Y-31934999I0J-249999D01*
G01*
X6934000Y-32835001D01*
G75*
G02*
X6684001Y-33085000I-249999J0D01*
G01*
X6033999Y-33085000D01*
G75*
G02*
X5784000Y-32835001I0J249999D01*
G01*
G37*
G36*
G01*
X3734000Y-32835001D02*
X3734000Y-31934999D01*
G75*
G02*
X3983999Y-31685000I249999J0D01*
G01*
X4634001Y-31685000D01*
G75*
G02*
X4884000Y-31934999I0J-249999D01*
G01*
X4884000Y-32835001D01*
G75*
G02*
X4634001Y-33085000I-249999J0D01*
G01*
X3983999Y-33085000D01*
G75*
G02*
X3734000Y-32835001I0J249999D01*
G01*
G37*
G36*
G01*
X-24326000Y-10979999D02*
X-24326000Y-11880001D01*
G75*
G02*
X-24575999Y-12130000I-249999J0D01*
G01*
X-25226001Y-12130000D01*
G75*
G02*
X-25476000Y-11880001I0J249999D01*
G01*
X-25476000Y-10979999D01*
G75*
G02*
X-25226001Y-10730000I249999J0D01*
G01*
X-24575999Y-10730000D01*
G75*
G02*
X-24326000Y-10979999I0J-249999D01*
G01*
G37*
G36*
G01*
X-22276000Y-10979999D02*
X-22276000Y-11880001D01*
G75*
G02*
X-22525999Y-12130000I-249999J0D01*
G01*
X-23176001Y-12130000D01*
G75*
G02*
X-23426000Y-11880001I0J249999D01*
G01*
X-23426000Y-10979999D01*
G75*
G02*
X-23176001Y-10730000I249999J0D01*
G01*
X-22525999Y-10730000D01*
G75*
G02*
X-22276000Y-10979999I0J-249999D01*
G01*
G37*
G36*
G01*
X-24326000Y6165001D02*
X-24326000Y5264999D01*
G75*
G02*
X-24575999Y5015000I-249999J0D01*
G01*
X-25226001Y5015000D01*
G75*
G02*
X-25476000Y5264999I0J249999D01*
G01*
X-25476000Y6165001D01*
G75*
G02*
X-25226001Y6415000I249999J0D01*
G01*
X-24575999Y6415000D01*
G75*
G02*
X-24326000Y6165001I0J-249999D01*
G01*
G37*
G36*
G01*
X-22276000Y6165001D02*
X-22276000Y5264999D01*
G75*
G02*
X-22525999Y5015000I-249999J0D01*
G01*
X-23176001Y5015000D01*
G75*
G02*
X-23426000Y5264999I0J249999D01*
G01*
X-23426000Y6165001D01*
G75*
G02*
X-23176001Y6415000I249999J0D01*
G01*
X-22525999Y6415000D01*
G75*
G02*
X-22276000Y6165001I0J-249999D01*
G01*
G37*
D11*
X48514000Y3810000D03*
D12*
X51054000Y3810000D03*
X53594000Y3810000D03*
X56134000Y3810000D03*
X59944000Y48260000D03*
D11*
X44704000Y48260000D03*
D12*
X59944000Y45720000D03*
X44704000Y45720000D03*
X59944000Y43180000D03*
X44704000Y43180000D03*
X59944000Y40640000D03*
X44704000Y40640000D03*
X59944000Y38100000D03*
X44704000Y38100000D03*
X59944000Y35560000D03*
X44704000Y35560000D03*
X59944000Y33020000D03*
X44704000Y33020000D03*
X59944000Y30480000D03*
X44704000Y30480000D03*
X59944000Y27940000D03*
X44704000Y27940000D03*
X59944000Y25400000D03*
X44704000Y25400000D03*
X59944000Y22860000D03*
X44704000Y22860000D03*
X59944000Y20320000D03*
X44704000Y20320000D03*
X59944000Y17780000D03*
X44704000Y17780000D03*
X59944000Y15240000D03*
X44704000Y15240000D03*
X59944000Y12700000D03*
X44704000Y12700000D03*
X59944000Y10160000D03*
X44704000Y10160000D03*
X59944000Y7620000D03*
X44704000Y7620000D03*
X59944000Y5080000D03*
X44704000Y5080000D03*
X59944000Y2540000D03*
X44704000Y2540000D03*
X59944000Y0D03*
X44704000Y0D03*
X56273700Y35814000D03*
X56273700Y38354000D03*
D11*
X56273700Y33274000D03*
D12*
X53797200Y38354000D03*
X53733700Y35814000D03*
X53733700Y33274000D03*
X92329000Y-22860000D03*
X92329000Y-25400000D03*
X92329000Y-27940000D03*
X92329000Y-30480000D03*
X92329000Y-33020000D03*
D11*
X92329000Y-35560000D03*
D12*
X94869000Y-22860000D03*
X94869000Y-25400000D03*
X94869000Y-27940000D03*
X94869000Y-30480000D03*
X94869000Y-33020000D03*
D11*
X94869000Y-35560000D03*
D13*
X-19725999Y47857400D03*
X-17825999Y47857400D03*
X-17825999Y45157400D03*
X-18775999Y45157400D03*
X-19725999Y45157400D03*
D14*
X-23796000Y53594000D03*
X-23796000Y54544000D03*
X-23796000Y52644000D03*
X-26496000Y52644000D03*
X-26496000Y53594000D03*
X-26496000Y54544000D03*
D15*
X-18481000Y31818000D03*
X-19431000Y31818000D03*
X-20381000Y31818000D03*
X-20381000Y35238000D03*
X-19431000Y35238000D03*
X-18481000Y35238000D03*
D16*
X-27686000Y42775000D03*
X-26736000Y39775000D03*
X-28636000Y39775000D03*
G36*
G01*
X-33922000Y41265000D02*
X-33922000Y40015000D01*
G75*
G02*
X-34172000Y39765000I-250000J0D01*
G01*
X-35097000Y39765000D01*
G75*
G02*
X-35347000Y40015000I0J250000D01*
G01*
X-35347000Y41265000D01*
G75*
G02*
X-35097000Y41515000I250000J0D01*
G01*
X-34172000Y41515000D01*
G75*
G02*
X-33922000Y41265000I0J-250000D01*
G01*
G37*
G36*
G01*
X-30947000Y41265000D02*
X-30947000Y40015000D01*
G75*
G02*
X-31197000Y39765000I-250000J0D01*
G01*
X-32122000Y39765000D01*
G75*
G02*
X-32372000Y40015000I0J250000D01*
G01*
X-32372000Y41265000D01*
G75*
G02*
X-32122000Y41515000I250000J0D01*
G01*
X-31197000Y41515000D01*
G75*
G02*
X-30947000Y41265000I0J-250000D01*
G01*
G37*
D17*
X-32004000Y45085000D03*
D11*
X-34544000Y45085000D03*
D18*
X86113620Y-34935160D03*
X16113760Y59065160D03*
X16113760Y-34935160D03*
X86113620Y59065160D03*
D17*
X104394000Y58420000D03*
D11*
X104394000Y55880000D03*
D17*
X-17526000Y-27940000D03*
D11*
X-14986000Y-27940000D03*
D17*
X-27686000Y-27940000D03*
D11*
X-25146000Y-27940000D03*
D12*
X97409000Y-22860000D03*
X97409000Y-25400000D03*
X97409000Y-27940000D03*
X97409000Y-30480000D03*
X97409000Y-33020000D03*
D11*
X97409000Y-35560000D03*
D17*
X-35306000Y27152600D03*
X-35306000Y24612600D03*
X-35306000Y22072600D03*
D11*
X-35306000Y19532600D03*
D17*
X-32131000Y57150000D03*
X-32131000Y54610000D03*
X-32131000Y52070000D03*
D11*
X-32131000Y49530000D03*
D19*
X7874000Y13970000D03*
X-7366000Y13970000D03*
X7874000Y49530000D03*
X-7366000Y16510000D03*
X7874000Y46990000D03*
X-7366000Y19050000D03*
X7874000Y44450000D03*
X-7366000Y21590000D03*
X7874000Y41910000D03*
X-7366000Y24130000D03*
X7874000Y39370000D03*
X-7366000Y26670000D03*
X7874000Y36830000D03*
X-7366000Y29210000D03*
X7874000Y34290000D03*
X-7366000Y31750000D03*
X7874000Y31750000D03*
X-7366000Y34290000D03*
X7874000Y29210000D03*
X-7366000Y36830000D03*
X7874000Y26670000D03*
X-7366000Y39370000D03*
X7874000Y24130000D03*
X-7366000Y41910000D03*
X7874000Y21590000D03*
X-7366000Y44450000D03*
X7874000Y19050000D03*
X-7366000Y46990000D03*
X7874000Y16510000D03*
D20*
X-7366000Y49530000D03*
D21*
X-21463000Y19544000D03*
X-21463000Y24144000D03*
G36*
G01*
X-19881000Y38677001D02*
X-19881000Y37776999D01*
G75*
G02*
X-20130999Y37527000I-249999J0D01*
G01*
X-20781001Y37527000D01*
G75*
G02*
X-21031000Y37776999I0J249999D01*
G01*
X-21031000Y38677001D01*
G75*
G02*
X-20781001Y38927000I249999J0D01*
G01*
X-20130999Y38927000D01*
G75*
G02*
X-19881000Y38677001I0J-249999D01*
G01*
G37*
G36*
G01*
X-17831000Y38677001D02*
X-17831000Y37776999D01*
G75*
G02*
X-18080999Y37527000I-249999J0D01*
G01*
X-18731001Y37527000D01*
G75*
G02*
X-18981000Y37776999I0J249999D01*
G01*
X-18981000Y38677001D01*
G75*
G02*
X-18731001Y38927000I249999J0D01*
G01*
X-18080999Y38927000D01*
G75*
G02*
X-17831000Y38677001I0J-249999D01*
G01*
G37*
G36*
G01*
X-15690000Y38677001D02*
X-15690000Y37776999D01*
G75*
G02*
X-15939999Y37527000I-249999J0D01*
G01*
X-16590001Y37527000D01*
G75*
G02*
X-16840000Y37776999I0J249999D01*
G01*
X-16840000Y38677001D01*
G75*
G02*
X-16590001Y38927000I249999J0D01*
G01*
X-15939999Y38927000D01*
G75*
G02*
X-15690000Y38677001I0J-249999D01*
G01*
G37*
G36*
G01*
X-13640000Y38677001D02*
X-13640000Y37776999D01*
G75*
G02*
X-13889999Y37527000I-249999J0D01*
G01*
X-14540001Y37527000D01*
G75*
G02*
X-14790000Y37776999I0J249999D01*
G01*
X-14790000Y38677001D01*
G75*
G02*
X-14540001Y38927000I249999J0D01*
G01*
X-13889999Y38927000D01*
G75*
G02*
X-13640000Y38677001I0J-249999D01*
G01*
G37*
D17*
X-28956000Y20828000D03*
X-28956000Y23368000D03*
D11*
X-28956000Y25908000D03*
D17*
X-35306000Y31750000D03*
D11*
X-35306000Y34290000D03*
G36*
G01*
X-14409000Y23171999D02*
X-14409000Y24072001D01*
G75*
G02*
X-14159001Y24322000I249999J0D01*
G01*
X-13508999Y24322000D01*
G75*
G02*
X-13259000Y24072001I0J-249999D01*
G01*
X-13259000Y23171999D01*
G75*
G02*
X-13508999Y22922000I-249999J0D01*
G01*
X-14159001Y22922000D01*
G75*
G02*
X-14409000Y23171999I0J249999D01*
G01*
G37*
G36*
G01*
X-16459000Y23171999D02*
X-16459000Y24072001D01*
G75*
G02*
X-16209001Y24322000I249999J0D01*
G01*
X-15558999Y24322000D01*
G75*
G02*
X-15309000Y24072001I0J-249999D01*
G01*
X-15309000Y23171999D01*
G75*
G02*
X-15558999Y22922000I-249999J0D01*
G01*
X-16209001Y22922000D01*
G75*
G02*
X-16459000Y23171999I0J249999D01*
G01*
G37*
G36*
G01*
X-14409000Y27362999D02*
X-14409000Y28263001D01*
G75*
G02*
X-14159001Y28513000I249999J0D01*
G01*
X-13508999Y28513000D01*
G75*
G02*
X-13259000Y28263001I0J-249999D01*
G01*
X-13259000Y27362999D01*
G75*
G02*
X-13508999Y27113000I-249999J0D01*
G01*
X-14159001Y27113000D01*
G75*
G02*
X-14409000Y27362999I0J249999D01*
G01*
G37*
G36*
G01*
X-16459000Y27362999D02*
X-16459000Y28263001D01*
G75*
G02*
X-16209001Y28513000I249999J0D01*
G01*
X-15558999Y28513000D01*
G75*
G02*
X-15309000Y28263001I0J-249999D01*
G01*
X-15309000Y27362999D01*
G75*
G02*
X-15558999Y27113000I-249999J0D01*
G01*
X-16209001Y27113000D01*
G75*
G02*
X-16459000Y27362999I0J249999D01*
G01*
G37*
G36*
G01*
X-15690000Y36010001D02*
X-15690000Y35109999D01*
G75*
G02*
X-15939999Y34860000I-249999J0D01*
G01*
X-16590001Y34860000D01*
G75*
G02*
X-16840000Y35109999I0J249999D01*
G01*
X-16840000Y36010001D01*
G75*
G02*
X-16590001Y36260000I249999J0D01*
G01*
X-15939999Y36260000D01*
G75*
G02*
X-15690000Y36010001I0J-249999D01*
G01*
G37*
G36*
G01*
X-13640000Y36010001D02*
X-13640000Y35109999D01*
G75*
G02*
X-13889999Y34860000I-249999J0D01*
G01*
X-14540001Y34860000D01*
G75*
G02*
X-14790000Y35109999I0J249999D01*
G01*
X-14790000Y36010001D01*
G75*
G02*
X-14540001Y36260000I249999J0D01*
G01*
X-13889999Y36260000D01*
G75*
G02*
X-13640000Y36010001I0J-249999D01*
G01*
G37*
G36*
G01*
X-19997000Y27362999D02*
X-19997000Y28263001D01*
G75*
G02*
X-19747001Y28513000I249999J0D01*
G01*
X-19096999Y28513000D01*
G75*
G02*
X-18847000Y28263001I0J-249999D01*
G01*
X-18847000Y27362999D01*
G75*
G02*
X-19096999Y27113000I-249999J0D01*
G01*
X-19747001Y27113000D01*
G75*
G02*
X-19997000Y27362999I0J249999D01*
G01*
G37*
G36*
G01*
X-22047000Y27362999D02*
X-22047000Y28263001D01*
G75*
G02*
X-21797001Y28513000I249999J0D01*
G01*
X-21146999Y28513000D01*
G75*
G02*
X-20897000Y28263001I0J-249999D01*
G01*
X-20897000Y27362999D01*
G75*
G02*
X-21146999Y27113000I-249999J0D01*
G01*
X-21797001Y27113000D01*
G75*
G02*
X-22047000Y27362999I0J249999D01*
G01*
G37*
G36*
G01*
X-22790999Y33724000D02*
X-23691001Y33724000D01*
G75*
G02*
X-23941000Y33973999I0J249999D01*
G01*
X-23941000Y34624001D01*
G75*
G02*
X-23691001Y34874000I249999J0D01*
G01*
X-22790999Y34874000D01*
G75*
G02*
X-22541000Y34624001I0J-249999D01*
G01*
X-22541000Y33973999D01*
G75*
G02*
X-22790999Y33724000I-249999J0D01*
G01*
G37*
G36*
G01*
X-22790999Y31674000D02*
X-23691001Y31674000D01*
G75*
G02*
X-23941000Y31923999I0J249999D01*
G01*
X-23941000Y32574001D01*
G75*
G02*
X-23691001Y32824000I249999J0D01*
G01*
X-22790999Y32824000D01*
G75*
G02*
X-22541000Y32574001I0J-249999D01*
G01*
X-22541000Y31923999D01*
G75*
G02*
X-22790999Y31674000I-249999J0D01*
G01*
G37*
D22*
X-42621200Y47345600D03*
X-42621200Y59385200D03*
D23*
X-37896800Y54610000D03*
X-37896800Y52120800D03*
X-39903400Y52120800D03*
X-39903400Y54610000D03*
D17*
X103124000Y-1270000D03*
X103124000Y-3810000D03*
D11*
X103124000Y-6350000D03*
D17*
X109474000Y8255000D03*
X109474000Y10795000D03*
X109474000Y13335000D03*
D11*
X109474000Y15875000D03*
D17*
X29464000Y-27940000D03*
X26924000Y-27940000D03*
D11*
X24384000Y-27940000D03*
D17*
X42926000Y-27829200D03*
X40386000Y-27829200D03*
D11*
X37846000Y-27829200D03*
D17*
X55626000Y-27889200D03*
X53086000Y-27889200D03*
D11*
X50546000Y-27889200D03*
D17*
X-18796000Y51587400D03*
X-16256000Y51587400D03*
D11*
X-13716000Y51587400D03*
D17*
X104394000Y24130000D03*
X104394000Y21590000D03*
X104394000Y19050000D03*
D11*
X104394000Y16510000D03*
X106934000Y-20320000D03*
D17*
X106934000Y-17780000D03*
X106934000Y-15240000D03*
D12*
X106934000Y-12700000D03*
X103124000Y-12700000D03*
D17*
X103124000Y-15240000D03*
X103124000Y-17780000D03*
D11*
X103124000Y-20320000D03*
G36*
G01*
X-14801001Y46057400D02*
X-13900999Y46057400D01*
G75*
G02*
X-13651000Y45807401I0J-249999D01*
G01*
X-13651000Y45157399D01*
G75*
G02*
X-13900999Y44907400I-249999J0D01*
G01*
X-14801001Y44907400D01*
G75*
G02*
X-15051000Y45157399I0J249999D01*
G01*
X-15051000Y45807401D01*
G75*
G02*
X-14801001Y46057400I249999J0D01*
G01*
G37*
G36*
G01*
X-14801001Y48107400D02*
X-13900999Y48107400D01*
G75*
G02*
X-13651000Y47857401I0J-249999D01*
G01*
X-13651000Y47207399D01*
G75*
G02*
X-13900999Y46957400I-249999J0D01*
G01*
X-14801001Y46957400D01*
G75*
G02*
X-15051000Y47207399I0J249999D01*
G01*
X-15051000Y47857401D01*
G75*
G02*
X-14801001Y48107400I249999J0D01*
G01*
G37*
G36*
G01*
X-22790999Y46957400D02*
X-23691001Y46957400D01*
G75*
G02*
X-23941000Y47207399I0J249999D01*
G01*
X-23941000Y47857401D01*
G75*
G02*
X-23691001Y48107400I249999J0D01*
G01*
X-22790999Y48107400D01*
G75*
G02*
X-22541000Y47857401I0J-249999D01*
G01*
X-22541000Y47207399D01*
G75*
G02*
X-22790999Y46957400I-249999J0D01*
G01*
G37*
G36*
G01*
X-22790999Y44907400D02*
X-23691001Y44907400D01*
G75*
G02*
X-23941000Y45157399I0J249999D01*
G01*
X-23941000Y45807401D01*
G75*
G02*
X-23691001Y46057400I249999J0D01*
G01*
X-22790999Y46057400D01*
G75*
G02*
X-22541000Y45807401I0J-249999D01*
G01*
X-22541000Y45157399D01*
G75*
G02*
X-22790999Y44907400I-249999J0D01*
G01*
G37*
D24*
X103886000Y51308000D03*
D19*
X88646000Y51308000D03*
D25*
X109474000Y48768000D03*
D26*
X109474000Y51308000D03*
G36*
G01*
X95816000Y51758001D02*
X95816000Y50857999D01*
G75*
G02*
X95566001Y50608000I-249999J0D01*
G01*
X94915999Y50608000D01*
G75*
G02*
X94666000Y50857999I0J249999D01*
G01*
X94666000Y51758001D01*
G75*
G02*
X94915999Y52008000I249999J0D01*
G01*
X95566001Y52008000D01*
G75*
G02*
X95816000Y51758001I0J-249999D01*
G01*
G37*
G36*
G01*
X97866000Y51758001D02*
X97866000Y50857999D01*
G75*
G02*
X97616001Y50608000I-249999J0D01*
G01*
X96965999Y50608000D01*
G75*
G02*
X96716000Y50857999I0J249999D01*
G01*
X96716000Y51758001D01*
G75*
G02*
X96965999Y52008000I249999J0D01*
G01*
X97616001Y52008000D01*
G75*
G02*
X97866000Y51758001I0J-249999D01*
G01*
G37*
G36*
G01*
X113607001Y50488000D02*
X112706999Y50488000D01*
G75*
G02*
X112457000Y50737999I0J249999D01*
G01*
X112457000Y51388001D01*
G75*
G02*
X112706999Y51638000I249999J0D01*
G01*
X113607001Y51638000D01*
G75*
G02*
X113857000Y51388001I0J-249999D01*
G01*
X113857000Y50737999D01*
G75*
G02*
X113607001Y50488000I-249999J0D01*
G01*
G37*
G36*
G01*
X113607001Y48438000D02*
X112706999Y48438000D01*
G75*
G02*
X112457000Y48687999I0J249999D01*
G01*
X112457000Y49338001D01*
G75*
G02*
X112706999Y49588000I249999J0D01*
G01*
X113607001Y49588000D01*
G75*
G02*
X113857000Y49338001I0J-249999D01*
G01*
X113857000Y48687999D01*
G75*
G02*
X113607001Y48438000I-249999J0D01*
G01*
G37*
G36*
G01*
X95816000Y46170001D02*
X95816000Y45269999D01*
G75*
G02*
X95566001Y45020000I-249999J0D01*
G01*
X94915999Y45020000D01*
G75*
G02*
X94666000Y45269999I0J249999D01*
G01*
X94666000Y46170001D01*
G75*
G02*
X94915999Y46420000I249999J0D01*
G01*
X95566001Y46420000D01*
G75*
G02*
X95816000Y46170001I0J-249999D01*
G01*
G37*
G36*
G01*
X97866000Y46170001D02*
X97866000Y45269999D01*
G75*
G02*
X97616001Y45020000I-249999J0D01*
G01*
X96965999Y45020000D01*
G75*
G02*
X96716000Y45269999I0J249999D01*
G01*
X96716000Y46170001D01*
G75*
G02*
X96965999Y46420000I249999J0D01*
G01*
X97616001Y46420000D01*
G75*
G02*
X97866000Y46170001I0J-249999D01*
G01*
G37*
G36*
G01*
X95816000Y34740001D02*
X95816000Y33839999D01*
G75*
G02*
X95566001Y33590000I-249999J0D01*
G01*
X94915999Y33590000D01*
G75*
G02*
X94666000Y33839999I0J249999D01*
G01*
X94666000Y34740001D01*
G75*
G02*
X94915999Y34990000I249999J0D01*
G01*
X95566001Y34990000D01*
G75*
G02*
X95816000Y34740001I0J-249999D01*
G01*
G37*
G36*
G01*
X97866000Y34740001D02*
X97866000Y33839999D01*
G75*
G02*
X97616001Y33590000I-249999J0D01*
G01*
X96965999Y33590000D01*
G75*
G02*
X96716000Y33839999I0J249999D01*
G01*
X96716000Y34740001D01*
G75*
G02*
X96965999Y34990000I249999J0D01*
G01*
X97616001Y34990000D01*
G75*
G02*
X97866000Y34740001I0J-249999D01*
G01*
G37*
G36*
G01*
X95790600Y40582001D02*
X95790600Y39681999D01*
G75*
G02*
X95540601Y39432000I-249999J0D01*
G01*
X94890599Y39432000D01*
G75*
G02*
X94640600Y39681999I0J249999D01*
G01*
X94640600Y40582001D01*
G75*
G02*
X94890599Y40832000I249999J0D01*
G01*
X95540601Y40832000D01*
G75*
G02*
X95790600Y40582001I0J-249999D01*
G01*
G37*
G36*
G01*
X97840600Y40582001D02*
X97840600Y39681999D01*
G75*
G02*
X97590601Y39432000I-249999J0D01*
G01*
X96940599Y39432000D01*
G75*
G02*
X96690600Y39681999I0J249999D01*
G01*
X96690600Y40582001D01*
G75*
G02*
X96940599Y40832000I249999J0D01*
G01*
X97590601Y40832000D01*
G75*
G02*
X97840600Y40582001I0J-249999D01*
G01*
G37*
G36*
G01*
X81984000Y13519999D02*
X81984000Y14420001D01*
G75*
G02*
X82233999Y14670000I249999J0D01*
G01*
X82884001Y14670000D01*
G75*
G02*
X83134000Y14420001I0J-249999D01*
G01*
X83134000Y13519999D01*
G75*
G02*
X82884001Y13270000I-249999J0D01*
G01*
X82233999Y13270000D01*
G75*
G02*
X81984000Y13519999I0J249999D01*
G01*
G37*
G36*
G01*
X79934000Y13519999D02*
X79934000Y14420001D01*
G75*
G02*
X80183999Y14670000I249999J0D01*
G01*
X80834001Y14670000D01*
G75*
G02*
X81084000Y14420001I0J-249999D01*
G01*
X81084000Y13519999D01*
G75*
G02*
X80834001Y13270000I-249999J0D01*
G01*
X80183999Y13270000D01*
G75*
G02*
X79934000Y13519999I0J249999D01*
G01*
G37*
G36*
G01*
X5784000Y-19500001D02*
X5784000Y-18599999D01*
G75*
G02*
X6033999Y-18350000I249999J0D01*
G01*
X6684001Y-18350000D01*
G75*
G02*
X6934000Y-18599999I0J-249999D01*
G01*
X6934000Y-19500001D01*
G75*
G02*
X6684001Y-19750000I-249999J0D01*
G01*
X6033999Y-19750000D01*
G75*
G02*
X5784000Y-19500001I0J249999D01*
G01*
G37*
G36*
G01*
X3734000Y-19500001D02*
X3734000Y-18599999D01*
G75*
G02*
X3983999Y-18350000I249999J0D01*
G01*
X4634001Y-18350000D01*
G75*
G02*
X4884000Y-18599999I0J-249999D01*
G01*
X4884000Y-19500001D01*
G75*
G02*
X4634001Y-19750000I-249999J0D01*
G01*
X3983999Y-19750000D01*
G75*
G02*
X3734000Y-19500001I0J249999D01*
G01*
G37*
G36*
G01*
X5784000Y-22040001D02*
X5784000Y-21139999D01*
G75*
G02*
X6033999Y-20890000I249999J0D01*
G01*
X6684001Y-20890000D01*
G75*
G02*
X6934000Y-21139999I0J-249999D01*
G01*
X6934000Y-22040001D01*
G75*
G02*
X6684001Y-22290000I-249999J0D01*
G01*
X6033999Y-22290000D01*
G75*
G02*
X5784000Y-22040001I0J249999D01*
G01*
G37*
G36*
G01*
X3734000Y-22040001D02*
X3734000Y-21139999D01*
G75*
G02*
X3983999Y-20890000I249999J0D01*
G01*
X4634001Y-20890000D01*
G75*
G02*
X4884000Y-21139999I0J-249999D01*
G01*
X4884000Y-22040001D01*
G75*
G02*
X4634001Y-22290000I-249999J0D01*
G01*
X3983999Y-22290000D01*
G75*
G02*
X3734000Y-22040001I0J249999D01*
G01*
G37*
G36*
G01*
X5784000Y-24580001D02*
X5784000Y-23679999D01*
G75*
G02*
X6033999Y-23430000I249999J0D01*
G01*
X6684001Y-23430000D01*
G75*
G02*
X6934000Y-23679999I0J-249999D01*
G01*
X6934000Y-24580001D01*
G75*
G02*
X6684001Y-24830000I-249999J0D01*
G01*
X6033999Y-24830000D01*
G75*
G02*
X5784000Y-24580001I0J249999D01*
G01*
G37*
G36*
G01*
X3734000Y-24580001D02*
X3734000Y-23679999D01*
G75*
G02*
X3983999Y-23430000I249999J0D01*
G01*
X4634001Y-23430000D01*
G75*
G02*
X4884000Y-23679999I0J-249999D01*
G01*
X4884000Y-24580001D01*
G75*
G02*
X4634001Y-24830000I-249999J0D01*
G01*
X3983999Y-24830000D01*
G75*
G02*
X3734000Y-24580001I0J249999D01*
G01*
G37*
G36*
G01*
X5784000Y-27120001D02*
X5784000Y-26219999D01*
G75*
G02*
X6033999Y-25970000I249999J0D01*
G01*
X6684001Y-25970000D01*
G75*
G02*
X6934000Y-26219999I0J-249999D01*
G01*
X6934000Y-27120001D01*
G75*
G02*
X6684001Y-27370000I-249999J0D01*
G01*
X6033999Y-27370000D01*
G75*
G02*
X5784000Y-27120001I0J249999D01*
G01*
G37*
G36*
G01*
X3734000Y-27120001D02*
X3734000Y-26219999D01*
G75*
G02*
X3983999Y-25970000I249999J0D01*
G01*
X4634001Y-25970000D01*
G75*
G02*
X4884000Y-26219999I0J-249999D01*
G01*
X4884000Y-27120001D01*
G75*
G02*
X4634001Y-27370000I-249999J0D01*
G01*
X3983999Y-27370000D01*
G75*
G02*
X3734000Y-27120001I0J249999D01*
G01*
G37*
G36*
G01*
X113607001Y44900000D02*
X112706999Y44900000D01*
G75*
G02*
X112457000Y45149999I0J249999D01*
G01*
X112457000Y45800001D01*
G75*
G02*
X112706999Y46050000I249999J0D01*
G01*
X113607001Y46050000D01*
G75*
G02*
X113857000Y45800001I0J-249999D01*
G01*
X113857000Y45149999D01*
G75*
G02*
X113607001Y44900000I-249999J0D01*
G01*
G37*
G36*
G01*
X113607001Y42850000D02*
X112706999Y42850000D01*
G75*
G02*
X112457000Y43099999I0J249999D01*
G01*
X112457000Y43750001D01*
G75*
G02*
X112706999Y44000000I249999J0D01*
G01*
X113607001Y44000000D01*
G75*
G02*
X113857000Y43750001I0J-249999D01*
G01*
X113857000Y43099999D01*
G75*
G02*
X113607001Y42850000I-249999J0D01*
G01*
G37*
G36*
G01*
X113607001Y31420000D02*
X112706999Y31420000D01*
G75*
G02*
X112457000Y31669999I0J249999D01*
G01*
X112457000Y32320001D01*
G75*
G02*
X112706999Y32570000I249999J0D01*
G01*
X113607001Y32570000D01*
G75*
G02*
X113857000Y32320001I0J-249999D01*
G01*
X113857000Y31669999D01*
G75*
G02*
X113607001Y31420000I-249999J0D01*
G01*
G37*
G36*
G01*
X113607001Y33470000D02*
X112706999Y33470000D01*
G75*
G02*
X112457000Y33719999I0J249999D01*
G01*
X112457000Y34370001D01*
G75*
G02*
X112706999Y34620000I249999J0D01*
G01*
X113607001Y34620000D01*
G75*
G02*
X113857000Y34370001I0J-249999D01*
G01*
X113857000Y33719999D01*
G75*
G02*
X113607001Y33470000I-249999J0D01*
G01*
G37*
G36*
G01*
X113607001Y39312000D02*
X112706999Y39312000D01*
G75*
G02*
X112457000Y39561999I0J249999D01*
G01*
X112457000Y40212001D01*
G75*
G02*
X112706999Y40462000I249999J0D01*
G01*
X113607001Y40462000D01*
G75*
G02*
X113857000Y40212001I0J-249999D01*
G01*
X113857000Y39561999D01*
G75*
G02*
X113607001Y39312000I-249999J0D01*
G01*
G37*
G36*
G01*
X113607001Y37262000D02*
X112706999Y37262000D01*
G75*
G02*
X112457000Y37511999I0J249999D01*
G01*
X112457000Y38162001D01*
G75*
G02*
X112706999Y38412000I249999J0D01*
G01*
X113607001Y38412000D01*
G75*
G02*
X113857000Y38162001I0J-249999D01*
G01*
X113857000Y37511999D01*
G75*
G02*
X113607001Y37262000I-249999J0D01*
G01*
G37*
X109474000Y34290000D03*
D25*
X109474000Y31750000D03*
X109474000Y37592000D03*
D26*
X109474000Y40132000D03*
X109474000Y45720000D03*
D25*
X109474000Y43180000D03*
D24*
X73914000Y13970000D03*
D19*
X89154000Y13970000D03*
X88646000Y34290000D03*
D24*
X103886000Y34290000D03*
X103886000Y40132000D03*
D19*
X88646000Y40132000D03*
X88646000Y45720000D03*
D24*
X103886000Y45720000D03*
D17*
X34544000Y0D03*
X34544000Y2540000D03*
X34544000Y5080000D03*
X34544000Y7620000D03*
X34544000Y10160000D03*
X34544000Y12700000D03*
X34544000Y15240000D03*
X34544000Y17780000D03*
X34544000Y20320000D03*
X34544000Y22860000D03*
X34544000Y25400000D03*
X34544000Y27940000D03*
X34544000Y30480000D03*
X34544000Y33020000D03*
X34544000Y35560000D03*
X34544000Y38100000D03*
X34544000Y40640000D03*
X34544000Y43180000D03*
X34544000Y45720000D03*
D12*
X34544000Y48260000D03*
D17*
X70104000Y48260000D03*
X70104000Y45720000D03*
X70104000Y43180000D03*
X70104000Y40640000D03*
X70104000Y38100000D03*
X70104000Y35560000D03*
X70104000Y33020000D03*
X70104000Y30480000D03*
X70104000Y27940000D03*
X70104000Y25400000D03*
X70104000Y22860000D03*
X70104000Y20320000D03*
X70104000Y17780000D03*
X70104000Y15240000D03*
X70104000Y12700000D03*
X70104000Y10160000D03*
X70104000Y7620000D03*
X70104000Y5080000D03*
X70104000Y2540000D03*
D12*
X70104000Y0D03*
D17*
X79603600Y-24130000D03*
X77063600Y-24130000D03*
D11*
X74523600Y-24130000D03*
D17*
X67564000Y-24130000D03*
X65024000Y-24130000D03*
D11*
X62484000Y-24130000D03*
X62484000Y-27940000D03*
D17*
X65024000Y-27940000D03*
D12*
X67564000Y-27940000D03*
D11*
X74523600Y-27940000D03*
D17*
X77063600Y-27940000D03*
D12*
X79603600Y-27940000D03*
D17*
X106934000Y-33020000D03*
X106934000Y-30480000D03*
X106934000Y-27940000D03*
D11*
X106934000Y-25400000D03*
G36*
G01*
X-43888600Y32551400D02*
X-43888600Y34301400D01*
G75*
G02*
X-43013600Y35176400I875000J0D01*
G01*
X-41263600Y35176400D01*
G75*
G02*
X-40388600Y34301400I0J-875000D01*
G01*
X-40388600Y32551400D01*
G75*
G02*
X-41263600Y31676400I-875000J0D01*
G01*
X-43013600Y31676400D01*
G75*
G02*
X-43888600Y32551400I0J875000D01*
G01*
G37*
G36*
G01*
X-46638600Y37126400D02*
X-46638600Y39126400D01*
G75*
G02*
X-45888600Y39876400I750000J0D01*
G01*
X-44388600Y39876400D01*
G75*
G02*
X-43638600Y39126400I0J-750000D01*
G01*
X-43638600Y37126400D01*
G75*
G02*
X-44388600Y36376400I-750000J0D01*
G01*
X-45888600Y36376400D01*
G75*
G02*
X-46638600Y37126400I0J750000D01*
G01*
G37*
D27*
X-39138600Y38126400D03*
D28*
X108244000Y60650000D03*
X108244000Y53650000D03*
D29*
X110744000Y59425000D03*
X110744000Y54875000D03*
D11*
X-42367200Y19532600D03*
D17*
X-42367200Y22072600D03*
X-42367200Y24612600D03*
X-42367200Y27152600D03*
X-39852600Y-31800800D03*
X-42392600Y-31800800D03*
X-39852600Y-29260800D03*
X-42392600Y-29260800D03*
X-39852600Y-26720800D03*
X-42392600Y-26720800D03*
X-39852600Y-24180800D03*
X-42392600Y-24180800D03*
X-39852600Y-21640800D03*
X-42392600Y-21640800D03*
X-39852600Y-19100800D03*
X-42392600Y-19100800D03*
X-39852600Y-16560800D03*
X-42392600Y-16560800D03*
X-39852600Y-14020800D03*
X-42392600Y-14020800D03*
X-39852600Y-11480800D03*
X-42392600Y-11480800D03*
X-39852600Y-8940800D03*
X-42392600Y-8940800D03*
X-39852600Y-6400800D03*
X-42392600Y-6400800D03*
X-39852600Y-3860800D03*
X-42392600Y-3860800D03*
X-39852600Y-1320800D03*
X-42392600Y-1320800D03*
X-39852600Y1219200D03*
X-42392600Y1219200D03*
X-39852600Y3759200D03*
X-42392600Y3759200D03*
X-39852600Y6299200D03*
X-42392600Y6299200D03*
X-39852600Y8839200D03*
D11*
X-42392600Y8839200D03*
D30*
X50292000Y10414000D03*
X5334000Y29210000D03*
X2794000Y21590000D03*
X-51816000Y15240000D03*
X-51816000Y-7620000D03*
X-51816000Y-15240000D03*
X-51816000Y-36830000D03*
X-51714400Y45516800D03*
X96901000Y60833000D03*
X115824000Y-36830000D03*
X105410000Y36576000D03*
X49911000Y43307000D03*
X-3937000Y26924000D03*
X14224000Y41910000D03*
X96774000Y27686000D03*
X76327000Y25400000D03*
X27559000Y46355000D03*
X-51816000Y60960000D03*
X115824000Y-9017000D03*
X112014000Y29210000D03*
X112014000Y24130000D03*
X112014000Y21590000D03*
X112014000Y6350000D03*
X112014000Y3683000D03*
X112014000Y-2286000D03*
X112014000Y-7620000D03*
X115824000Y-24765000D03*
X51689000Y60960000D03*
X33274000Y-36830000D03*
X46609000Y-36830000D03*
X59690000Y-36830000D03*
X71120000Y-36830000D03*
X99949000Y-36830000D03*
X115697000Y60833000D03*
X115697000Y35941000D03*
X115697000Y41656000D03*
X115697000Y52959000D03*
X99314000Y-8890000D03*
X91059000Y-8255000D03*
X81534000Y-1270000D03*
X81534000Y17399000D03*
X85471000Y-24130000D03*
X18034000Y31750000D03*
X28194000Y31750000D03*
X19177000Y18669000D03*
X254000Y11430000D03*
X-11176000Y-34925000D03*
X76454000Y34290000D03*
X84734400Y40614600D03*
X81534000Y25400000D03*
X78994000Y46990000D03*
X30734000Y57150000D03*
X63754000Y57150000D03*
X21844000Y27940000D03*
X30099000Y-5080000D03*
X56134000Y-19050000D03*
X43434000Y-19050000D03*
X33274000Y-19050000D03*
X-32131000Y-34925000D03*
X-31496000Y19685000D03*
X-3556000Y48514000D03*
X15240000Y-25273000D03*
X9779000Y-9652000D03*
X-27813000Y-21590000D03*
X-7366000Y57150000D03*
X20320000Y43434000D03*
X27940000Y43434000D03*
X14224000Y47752000D03*
X2794000Y46990000D03*
X-3048000Y41148000D03*
X4572000Y40640000D03*
X5334000Y13970000D03*
X20066000Y13970000D03*
X28448000Y10668000D03*
X18288000Y10922000D03*
X19050000Y4318000D03*
X30480000Y2286000D03*
X-20447000Y36830000D03*
X-21717000Y34417000D03*
X-29057600Y53594000D03*
X-21971000Y47498000D03*
X-15875000Y45466000D03*
X-13843000Y22352000D03*
X-12954000Y29845000D03*
X-26416000Y48260000D03*
X-46736000Y53340000D03*
X-2286000Y57150000D03*
X4064000Y57150000D03*
X29464000Y21971000D03*
X-18796000Y5080000D03*
X8890000Y-508000D03*
X-31496000Y27940000D03*
X-51816000Y5080000D03*
X-51816000Y-25400000D03*
X96774000Y-1270000D03*
X100584000Y3810000D03*
X76327000Y17272000D03*
X92710000Y5080000D03*
X86614000Y17399000D03*
X26416000Y17272000D03*
X18034000Y25400000D03*
X50800000Y46355000D03*
X91694000Y57150000D03*
X77724000Y57150000D03*
X56134000Y57150000D03*
X47244000Y57150000D03*
X39624000Y57150000D03*
X-32766000Y5080000D03*
X-30226000Y-7239000D03*
X-28956000Y-17780000D03*
X-30226000Y-12700000D03*
X-28956000Y-25400000D03*
X-21336000Y-35052000D03*
X-14986000Y-21590000D03*
X-16891000Y-19050000D03*
X10414000Y-15240000D03*
X19304000Y-13843000D03*
X68834000Y-19050000D03*
X73914000Y-19050000D03*
X80264000Y-19050000D03*
X254000Y5080000D03*
X-27686000Y7620000D03*
X-16256000Y10160000D03*
X-32766000Y10160000D03*
X-36576000Y12446000D03*
X-23114000Y12192000D03*
X-6375400Y4953000D03*
X-4292600Y6680200D03*
X-1828800Y38430200D03*
X-11303000Y52374800D03*
X88366600Y-27559000D03*
X-28321000Y37465000D03*
X-28321000Y34290000D03*
X-11684000Y40894000D03*
X-28321000Y48260000D03*
X-18796000Y25400000D03*
X-14478000Y26289000D03*
X-13462000Y26289000D03*
X57404000Y27940000D03*
X-28067000Y-4572000D03*
X-24892000Y-10287000D03*
X-14224000Y-13208000D03*
X-17526000Y-11430000D03*
X-20320000Y-10033000D03*
X-13716000Y-17145000D03*
X-22606000Y-25400000D03*
X-19431000Y-4191000D03*
X-19050000Y-2032000D03*
X-16129000Y1778000D03*
X254000Y27686000D03*
X22479000Y3810000D03*
X27178000Y6350000D03*
X16129000Y-3429000D03*
X11176000Y2413000D03*
X5969000Y5461000D03*
X27940000Y27686000D03*
X254000Y35941000D03*
X23114000Y35433000D03*
X25400000Y37973000D03*
X81153000Y37846000D03*
X74422000Y48133000D03*
X20447000Y-8636000D03*
X-6096000Y-6223000D03*
X-9144000Y-9017000D03*
X-6223000Y-11557000D03*
X-3683000Y-9906000D03*
X11176000Y-3302000D03*
X762000Y1143000D03*
X5207000Y1905000D03*
X-15367000Y6223000D03*
X55372000Y11303000D03*
X76327000Y20447000D03*
X81534000Y20447000D03*
X86614000Y20447000D03*
X76327000Y22860000D03*
X81534000Y22860000D03*
X86614000Y22860000D03*
X86614000Y25400000D03*
X104394000Y30226000D03*
X37338000Y26797000D03*
X37973000Y29210000D03*
X15875000Y-20447000D03*
X11176000Y-20574000D03*
X10160000Y-24130000D03*
X-9398000Y-17526000D03*
X-9398000Y-21336000D03*
X21844000Y-17780000D03*
X24384000Y-22860000D03*
X75184000Y-5080000D03*
X85979000Y-17780000D03*
X-24511000Y47498000D03*
X-12827000Y45466000D03*
X-26797000Y50800000D03*
X-29083000Y51181000D03*
X-33528000Y53467000D03*
X-22733000Y54483000D03*
X-22748190Y52644000D03*
X-23876000Y-8255000D03*
D31*
X39624000Y51562000D03*
X-19725959Y40386000D03*
D30*
X3809994Y-13627010D03*
X-19050000Y-20320000D03*
X-5461000Y-24003000D03*
X11176000Y-19050000D03*
X-14935200Y-24180778D03*
X7219919Y-26577990D03*
X-6477002Y-26543000D03*
X7239000Y-24130000D03*
X-19050000Y-22987000D03*
X-7302498Y-22987000D03*
X-15748000Y-17780010D03*
X-12954000Y-6858000D03*
X7620000Y-5080000D03*
X-6159500Y-14825753D03*
X-11277600Y15341600D03*
X-24384000Y-18415000D03*
X-27813000Y-16510000D03*
X-12954000Y2540000D03*
X7239000Y-21590000D03*
X-14986000Y11430000D03*
X-15494000Y8890000D03*
X-27686000Y3048000D03*
X8611188Y8865188D03*
X-1905000Y-8255000D03*
X1397000Y-15113000D03*
X2921000Y-11430000D03*
X28149001Y36785001D03*
X46822990Y36830000D03*
X15113000Y6197600D03*
X12522198Y6375400D03*
X95427800Y8890000D03*
D31*
X75031602Y53721000D03*
D30*
X47117000Y41783000D03*
X15748000Y38989000D03*
X10490200Y6223000D03*
X47498000Y39370000D03*
X-15176500Y-7175500D03*
X-7493000Y-11557000D03*
X-1777988Y-16510000D03*
X30734000Y39370000D03*
X-1397000Y25908000D03*
X-9967193Y-826177D03*
X-19471001Y3769999D03*
X54229000Y17526000D03*
X49149000Y17526000D03*
X32512000Y16510000D03*
X7620000Y-8255000D03*
X-4381500Y-15176500D03*
X-25019000Y508000D03*
X-1905000Y-5080000D03*
X-17653000Y-1905000D03*
X15494000Y-27852953D03*
X-9271000Y-14605000D03*
X-1904990Y-19685000D03*
X12827000Y-16510000D03*
X-22860000Y-16510000D03*
X-22733000Y-2032000D03*
X-21463000Y-5207000D03*
X-26416000Y-6223000D03*
X-22987000Y508000D03*
D10*
G36*
X6935848Y-26667118D02*
G01*
X6957116Y-26718462D01*
X6989570Y-26767034D01*
X7030875Y-26808339D01*
X7079447Y-26840793D01*
X7101736Y-26850026D01*
X7102954Y-26851613D01*
X7102189Y-26853461D01*
X7100390Y-26853788D01*
X7082989Y-26848509D01*
X7058998Y-26846146D01*
X7035007Y-26848509D01*
X7011932Y-26855509D01*
X6990669Y-26866875D01*
X6972032Y-26882170D01*
X6956737Y-26900807D01*
X6945372Y-26922071D01*
X6938372Y-26945146D01*
X6935990Y-26969332D01*
X6934825Y-26970958D01*
X6932835Y-26970762D01*
X6932000Y-26969136D01*
X6932000Y-26667883D01*
X6933000Y-26666151D01*
X6935000Y-26666151D01*
X6935848Y-26667118D01*
G37*
G36*
X6748709Y-25968010D02*
G01*
X6789718Y-25972049D01*
X6790103Y-25972125D01*
X6823638Y-25982298D01*
X6824000Y-25982448D01*
X6854899Y-25998964D01*
X6855225Y-25999182D01*
X6882312Y-26021411D01*
X6882589Y-26021688D01*
X6904818Y-26048775D01*
X6905036Y-26049101D01*
X6921552Y-26080000D01*
X6921702Y-26080362D01*
X6931875Y-26113897D01*
X6931951Y-26114282D01*
X6935990Y-26155291D01*
X6936000Y-26155487D01*
X6936000Y-26186750D01*
X6938372Y-26210835D01*
X6945372Y-26233910D01*
X6956737Y-26255174D01*
X6972032Y-26273811D01*
X6990669Y-26289106D01*
X7011933Y-26300471D01*
X7035008Y-26307471D01*
X7058999Y-26309834D01*
X7082990Y-26307471D01*
X7100389Y-26302193D01*
X7102337Y-26302647D01*
X7102918Y-26304561D01*
X7101735Y-26305955D01*
X7079447Y-26315187D01*
X7030875Y-26347641D01*
X6989570Y-26388946D01*
X6957116Y-26437518D01*
X6935848Y-26488862D01*
X6934261Y-26490080D01*
X6932413Y-26489315D01*
X6932000Y-26488097D01*
X6932000Y-26220093D01*
X6927226Y-26171622D01*
X6913113Y-26125098D01*
X6890197Y-26082223D01*
X6859356Y-26044644D01*
X6821777Y-26013803D01*
X6778902Y-25990887D01*
X6732378Y-25976774D01*
X6683805Y-25971990D01*
X6682179Y-25970825D01*
X6682375Y-25968835D01*
X6684001Y-25968000D01*
X6748513Y-25968000D01*
X6748709Y-25968010D01*
G37*
G36*
X6935990Y-23746562D02*
G01*
X6938372Y-23770749D01*
X6945372Y-23793824D01*
X6956737Y-23815088D01*
X6972032Y-23833725D01*
X6990669Y-23849020D01*
X7011933Y-23860385D01*
X7035008Y-23867385D01*
X7058999Y-23869748D01*
X7082990Y-23867385D01*
X7100384Y-23862108D01*
X7102332Y-23862562D01*
X7102913Y-23864476D01*
X7101731Y-23865870D01*
X7098526Y-23867198D01*
X7049956Y-23899651D01*
X7008651Y-23940956D01*
X6976197Y-23989528D01*
X6953842Y-24043497D01*
X6942445Y-24100794D01*
X6942445Y-24159206D01*
X6953842Y-24216503D01*
X6976197Y-24270472D01*
X7008651Y-24319044D01*
X7049956Y-24360349D01*
X7098526Y-24392802D01*
X7101731Y-24394130D01*
X7102948Y-24395717D01*
X7102182Y-24397565D01*
X7100384Y-24397892D01*
X7082990Y-24392615D01*
X7058999Y-24390252D01*
X7035008Y-24392615D01*
X7011933Y-24399615D01*
X6990669Y-24410980D01*
X6972032Y-24426275D01*
X6956737Y-24444912D01*
X6945372Y-24466176D01*
X6938372Y-24489251D01*
X6935990Y-24513438D01*
X6934825Y-24515064D01*
X6932835Y-24514868D01*
X6932000Y-24513242D01*
X6932000Y-23746758D01*
X6933000Y-23745026D01*
X6935000Y-23745026D01*
X6935990Y-23746562D01*
G37*
G36*
X6935990Y-21206562D02*
G01*
X6938372Y-21230749D01*
X6945372Y-21253824D01*
X6956737Y-21275088D01*
X6972032Y-21293725D01*
X6990669Y-21309020D01*
X7011933Y-21320385D01*
X7035008Y-21327385D01*
X7058999Y-21329748D01*
X7082990Y-21327385D01*
X7100384Y-21322108D01*
X7102332Y-21322562D01*
X7102913Y-21324476D01*
X7101731Y-21325870D01*
X7098526Y-21327198D01*
X7049956Y-21359651D01*
X7008651Y-21400956D01*
X6976197Y-21449528D01*
X6953842Y-21503497D01*
X6942445Y-21560794D01*
X6942445Y-21619206D01*
X6953842Y-21676503D01*
X6976197Y-21730472D01*
X7008651Y-21779044D01*
X7049956Y-21820349D01*
X7098526Y-21852802D01*
X7101731Y-21854130D01*
X7102948Y-21855717D01*
X7102182Y-21857565D01*
X7100384Y-21857892D01*
X7082990Y-21852615D01*
X7058999Y-21850252D01*
X7035008Y-21852615D01*
X7011933Y-21859615D01*
X6990669Y-21870980D01*
X6972032Y-21886275D01*
X6956737Y-21904912D01*
X6945372Y-21926176D01*
X6938372Y-21949251D01*
X6935990Y-21973438D01*
X6934825Y-21975064D01*
X6932835Y-21974868D01*
X6932000Y-21973242D01*
X6932000Y-21206758D01*
X6933000Y-21205026D01*
X6935000Y-21205026D01*
X6935990Y-21206562D01*
G37*
G36*
X-27174268Y-21289000D02*
G01*
X-27174268Y-21291000D01*
X-27175804Y-21291990D01*
X-27204869Y-21294852D01*
X-27232634Y-21303275D01*
X-27258220Y-21316951D01*
X-27280645Y-21335355D01*
X-27299049Y-21357780D01*
X-27312725Y-21383366D01*
X-27321148Y-21411131D01*
X-27324000Y-21440094D01*
X-27324000Y-21739906D01*
X-27321148Y-21768869D01*
X-27312725Y-21796634D01*
X-27299049Y-21822220D01*
X-27280645Y-21844645D01*
X-27258220Y-21863049D01*
X-27232634Y-21876725D01*
X-27204869Y-21885148D01*
X-27175804Y-21888010D01*
X-27174178Y-21889175D01*
X-27174374Y-21891165D01*
X-27176000Y-21892000D01*
X-27232360Y-21892000D01*
X-27232556Y-21891990D01*
X-27255649Y-21889716D01*
X-27256034Y-21889640D01*
X-27272334Y-21884695D01*
X-27272696Y-21884545D01*
X-27287718Y-21876515D01*
X-27288044Y-21876297D01*
X-27301213Y-21865490D01*
X-27301490Y-21865213D01*
X-27312297Y-21852044D01*
X-27312515Y-21851718D01*
X-27320545Y-21836696D01*
X-27320695Y-21836334D01*
X-27325640Y-21820034D01*
X-27325716Y-21819649D01*
X-27327979Y-21796670D01*
X-27332703Y-21772918D01*
X-27341929Y-21750644D01*
X-27355324Y-21730596D01*
X-27372371Y-21713549D01*
X-27392418Y-21700154D01*
X-27414692Y-21690928D01*
X-27438342Y-21686223D01*
X-27462448Y-21686223D01*
X-27486098Y-21690927D01*
X-27508372Y-21700153D01*
X-27528420Y-21713548D01*
X-27545500Y-21730628D01*
X-27546623Y-21732143D01*
X-27548458Y-21732939D01*
X-27550065Y-21731748D01*
X-27550078Y-21730187D01*
X-27527842Y-21676503D01*
X-27516445Y-21619206D01*
X-27516445Y-21560794D01*
X-27527842Y-21503497D01*
X-27550197Y-21449528D01*
X-27552099Y-21446680D01*
X-27552230Y-21444684D01*
X-27550567Y-21443573D01*
X-27548890Y-21444300D01*
X-27537363Y-21458347D01*
X-27518726Y-21473642D01*
X-27497462Y-21485007D01*
X-27474387Y-21492007D01*
X-27450396Y-21494370D01*
X-27426405Y-21492007D01*
X-27403330Y-21485007D01*
X-27382066Y-21473642D01*
X-27363429Y-21458347D01*
X-27348134Y-21439710D01*
X-27336769Y-21418446D01*
X-27329755Y-21395322D01*
X-27327984Y-21383387D01*
X-27325716Y-21360351D01*
X-27325640Y-21359966D01*
X-27320695Y-21343666D01*
X-27320545Y-21343304D01*
X-27312515Y-21328282D01*
X-27312297Y-21327956D01*
X-27301490Y-21314787D01*
X-27301213Y-21314510D01*
X-27288044Y-21303703D01*
X-27287718Y-21303485D01*
X-27272696Y-21295455D01*
X-27272334Y-21295305D01*
X-27256034Y-21290360D01*
X-27255649Y-21290284D01*
X-27232556Y-21288010D01*
X-27232360Y-21288000D01*
X-27176000Y-21288000D01*
X-27174268Y-21289000D01*
G37*
G36*
X-22224268Y-16209000D02*
G01*
X-22224268Y-16211000D01*
X-22225804Y-16211990D01*
X-22254869Y-16214852D01*
X-22282634Y-16223275D01*
X-22308220Y-16236951D01*
X-22330645Y-16255355D01*
X-22349049Y-16277780D01*
X-22362725Y-16303366D01*
X-22371148Y-16331131D01*
X-22374000Y-16360094D01*
X-22374000Y-16659906D01*
X-22371148Y-16688869D01*
X-22362725Y-16716634D01*
X-22349049Y-16742220D01*
X-22330645Y-16764645D01*
X-22308220Y-16783049D01*
X-22282634Y-16796725D01*
X-22254869Y-16805148D01*
X-22225804Y-16808010D01*
X-22224178Y-16809175D01*
X-22224374Y-16811165D01*
X-22226000Y-16812000D01*
X-22282360Y-16812000D01*
X-22282556Y-16811990D01*
X-22305649Y-16809716D01*
X-22306034Y-16809640D01*
X-22322334Y-16804695D01*
X-22322696Y-16804545D01*
X-22337718Y-16796515D01*
X-22338044Y-16796297D01*
X-22351213Y-16785490D01*
X-22351490Y-16785213D01*
X-22362297Y-16772044D01*
X-22362515Y-16771718D01*
X-22370545Y-16756696D01*
X-22370695Y-16756334D01*
X-22375640Y-16740033D01*
X-22375716Y-16739648D01*
X-22377594Y-16720582D01*
X-22382319Y-16696829D01*
X-22391545Y-16674556D01*
X-22404940Y-16654508D01*
X-22421987Y-16637461D01*
X-22442034Y-16624067D01*
X-22464308Y-16614840D01*
X-22487958Y-16610136D01*
X-22512064Y-16610136D01*
X-22535715Y-16614841D01*
X-22557988Y-16624067D01*
X-22578036Y-16637462D01*
X-22595222Y-16654648D01*
X-22597154Y-16655166D01*
X-22598568Y-16653752D01*
X-22598299Y-16652123D01*
X-22597197Y-16650472D01*
X-22574842Y-16596503D01*
X-22563445Y-16539206D01*
X-22563445Y-16480794D01*
X-22574842Y-16423497D01*
X-22597197Y-16369528D01*
X-22601716Y-16362765D01*
X-22601847Y-16360770D01*
X-22600184Y-16359658D01*
X-22598507Y-16360385D01*
X-22586978Y-16374433D01*
X-22568342Y-16389728D01*
X-22547078Y-16401094D01*
X-22524003Y-16408094D01*
X-22500012Y-16410457D01*
X-22476021Y-16408094D01*
X-22452946Y-16401094D01*
X-22431682Y-16389729D01*
X-22413045Y-16374434D01*
X-22397750Y-16355798D01*
X-22386384Y-16334534D01*
X-22379370Y-16311410D01*
X-22377599Y-16299475D01*
X-22375716Y-16280352D01*
X-22375640Y-16279967D01*
X-22370695Y-16263666D01*
X-22370545Y-16263304D01*
X-22362515Y-16248282D01*
X-22362297Y-16247956D01*
X-22351490Y-16234787D01*
X-22351213Y-16234510D01*
X-22338044Y-16223703D01*
X-22337718Y-16223485D01*
X-22322696Y-16215455D01*
X-22322334Y-16215305D01*
X-22306034Y-16210360D01*
X-22305649Y-16210284D01*
X-22282556Y-16208010D01*
X-22282360Y-16208000D01*
X-22226000Y-16208000D01*
X-22224268Y-16209000D01*
G37*
G36*
X-27174268Y-16209000D02*
G01*
X-27174268Y-16211000D01*
X-27175804Y-16211990D01*
X-27204869Y-16214852D01*
X-27232634Y-16223275D01*
X-27258220Y-16236951D01*
X-27280645Y-16255355D01*
X-27299049Y-16277780D01*
X-27312725Y-16303366D01*
X-27321148Y-16331131D01*
X-27324000Y-16360094D01*
X-27324000Y-16659906D01*
X-27321148Y-16688869D01*
X-27312725Y-16716634D01*
X-27299049Y-16742220D01*
X-27280645Y-16764645D01*
X-27258220Y-16783049D01*
X-27232634Y-16796725D01*
X-27204869Y-16805148D01*
X-27175804Y-16808010D01*
X-27174178Y-16809175D01*
X-27174374Y-16811165D01*
X-27176000Y-16812000D01*
X-27232360Y-16812000D01*
X-27232556Y-16811990D01*
X-27255649Y-16809716D01*
X-27256034Y-16809640D01*
X-27272334Y-16804695D01*
X-27272696Y-16804545D01*
X-27287718Y-16796515D01*
X-27288044Y-16796297D01*
X-27301213Y-16785490D01*
X-27301490Y-16785213D01*
X-27312297Y-16772044D01*
X-27312515Y-16771718D01*
X-27320545Y-16756696D01*
X-27320695Y-16756334D01*
X-27325640Y-16740034D01*
X-27325716Y-16739649D01*
X-27327979Y-16716670D01*
X-27332703Y-16692918D01*
X-27341929Y-16670644D01*
X-27355324Y-16650596D01*
X-27372371Y-16633549D01*
X-27392418Y-16620154D01*
X-27414692Y-16610928D01*
X-27438342Y-16606223D01*
X-27462448Y-16606223D01*
X-27486098Y-16610927D01*
X-27508372Y-16620153D01*
X-27528420Y-16633548D01*
X-27545500Y-16650628D01*
X-27546623Y-16652143D01*
X-27548458Y-16652939D01*
X-27550065Y-16651748D01*
X-27550078Y-16650187D01*
X-27527842Y-16596503D01*
X-27516445Y-16539206D01*
X-27516445Y-16480794D01*
X-27527842Y-16423497D01*
X-27550197Y-16369528D01*
X-27552099Y-16366680D01*
X-27552230Y-16364684D01*
X-27550567Y-16363573D01*
X-27548890Y-16364300D01*
X-27537363Y-16378347D01*
X-27518726Y-16393642D01*
X-27497462Y-16405007D01*
X-27474387Y-16412007D01*
X-27450396Y-16414370D01*
X-27426405Y-16412007D01*
X-27403330Y-16405007D01*
X-27382066Y-16393642D01*
X-27363429Y-16378347D01*
X-27348134Y-16359710D01*
X-27336769Y-16338446D01*
X-27329755Y-16315322D01*
X-27327984Y-16303387D01*
X-27325716Y-16280351D01*
X-27325640Y-16279966D01*
X-27320695Y-16263666D01*
X-27320545Y-16263304D01*
X-27312515Y-16248282D01*
X-27312297Y-16247956D01*
X-27301490Y-16234787D01*
X-27301213Y-16234510D01*
X-27288044Y-16223703D01*
X-27287718Y-16223485D01*
X-27272696Y-16215455D01*
X-27272334Y-16215305D01*
X-27256034Y-16210360D01*
X-27255649Y-16210284D01*
X-27232556Y-16208010D01*
X-27232360Y-16208000D01*
X-27176000Y-16208000D01*
X-27174268Y-16209000D01*
G37*
G36*
X-1344835Y-16217217D02*
G01*
X-1344000Y-16218843D01*
X-1344000Y-16801157D01*
X-1345000Y-16802889D01*
X-1347000Y-16802889D01*
X-1347990Y-16801353D01*
X-1350372Y-16777166D01*
X-1357372Y-16754091D01*
X-1368737Y-16732827D01*
X-1384032Y-16714190D01*
X-1402669Y-16698895D01*
X-1423933Y-16687530D01*
X-1447008Y-16680530D01*
X-1470999Y-16678167D01*
X-1494990Y-16680530D01*
X-1518065Y-16687530D01*
X-1539329Y-16698895D01*
X-1553373Y-16710421D01*
X-1555347Y-16710747D01*
X-1556615Y-16709201D01*
X-1556056Y-16707461D01*
X-1547639Y-16699044D01*
X-1515185Y-16650472D01*
X-1492830Y-16596503D01*
X-1481433Y-16539206D01*
X-1481433Y-16480794D01*
X-1492830Y-16423497D01*
X-1515185Y-16369528D01*
X-1547639Y-16320956D01*
X-1556056Y-16312539D01*
X-1556574Y-16310607D01*
X-1555160Y-16309193D01*
X-1553373Y-16309579D01*
X-1539329Y-16321105D01*
X-1518065Y-16332470D01*
X-1494990Y-16339470D01*
X-1470999Y-16341833D01*
X-1447008Y-16339470D01*
X-1423933Y-16332470D01*
X-1402669Y-16321105D01*
X-1384032Y-16305810D01*
X-1368737Y-16287173D01*
X-1357372Y-16265909D01*
X-1350372Y-16242834D01*
X-1347990Y-16218647D01*
X-1346825Y-16217021D01*
X-1344835Y-16217217D01*
G37*
G36*
X-25080232Y-10517891D02*
G01*
X-25032472Y-10549803D01*
X-24978503Y-10572158D01*
X-24921206Y-10583555D01*
X-24862794Y-10583555D01*
X-24805497Y-10572158D01*
X-24751528Y-10549803D01*
X-24703768Y-10517891D01*
X-24701772Y-10517760D01*
X-24700661Y-10519423D01*
X-24701111Y-10520823D01*
X-24714117Y-10536671D01*
X-24725482Y-10557935D01*
X-24732482Y-10581010D01*
X-24734845Y-10605001D01*
X-24732482Y-10628992D01*
X-24725482Y-10652067D01*
X-24714117Y-10673331D01*
X-24698822Y-10691968D01*
X-24680185Y-10707263D01*
X-24658921Y-10718628D01*
X-24635846Y-10725628D01*
X-24611659Y-10728010D01*
X-24610033Y-10729175D01*
X-24610229Y-10731165D01*
X-24611855Y-10732000D01*
X-25172145Y-10732000D01*
X-25173877Y-10731000D01*
X-25173877Y-10729000D01*
X-25172341Y-10728010D01*
X-25148154Y-10725628D01*
X-25125079Y-10718628D01*
X-25103815Y-10707263D01*
X-25085178Y-10691968D01*
X-25069883Y-10673331D01*
X-25058518Y-10652067D01*
X-25051518Y-10628992D01*
X-25049155Y-10605001D01*
X-25051518Y-10581010D01*
X-25058518Y-10557935D01*
X-25069883Y-10536671D01*
X-25082889Y-10520823D01*
X-25083215Y-10518849D01*
X-25081669Y-10517581D01*
X-25080232Y-10517891D01*
G37*
G36*
X-21092905Y-4871000D02*
G01*
X-21092905Y-4873000D01*
X-21094441Y-4873990D01*
X-21118628Y-4876372D01*
X-21141703Y-4883372D01*
X-21162967Y-4894737D01*
X-21181604Y-4910032D01*
X-21196899Y-4928669D01*
X-21208264Y-4949933D01*
X-21215264Y-4973008D01*
X-21217627Y-4996999D01*
X-21215264Y-5020990D01*
X-21208264Y-5044065D01*
X-21199697Y-5060092D01*
X-21199763Y-5062091D01*
X-21201526Y-5063034D01*
X-21203124Y-5062146D01*
X-21232651Y-5017956D01*
X-21273956Y-4976651D01*
X-21322528Y-4944197D01*
X-21376497Y-4921842D01*
X-21433794Y-4910445D01*
X-21492206Y-4910445D01*
X-21549503Y-4921842D01*
X-21603472Y-4944197D01*
X-21652044Y-4976651D01*
X-21693349Y-5017956D01*
X-21722876Y-5062146D01*
X-21724670Y-5063031D01*
X-21726333Y-5061920D01*
X-21726303Y-5060092D01*
X-21717735Y-5044063D01*
X-21710735Y-5020988D01*
X-21708373Y-4996997D01*
X-21710736Y-4973006D01*
X-21717737Y-4949931D01*
X-21729102Y-4928667D01*
X-21744398Y-4910031D01*
X-21763035Y-4894736D01*
X-21784299Y-4883371D01*
X-21807374Y-4876371D01*
X-21831559Y-4873990D01*
X-21833185Y-4872825D01*
X-21832989Y-4870835D01*
X-21831363Y-4870000D01*
X-21094637Y-4870000D01*
X-21092905Y-4871000D01*
G37*
G36*
X-25554443Y809990D02*
G01*
X-25531350Y807716D01*
X-25530965Y807640D01*
X-25514665Y802695D01*
X-25514303Y802545D01*
X-25499281Y794515D01*
X-25498955Y794297D01*
X-25485786Y783490D01*
X-25485509Y783213D01*
X-25474702Y770044D01*
X-25474484Y769718D01*
X-25466455Y754697D01*
X-25466305Y754335D01*
X-25463191Y744071D01*
X-25453926Y721706D01*
X-25440531Y701659D01*
X-25423484Y684612D01*
X-25403436Y671218D01*
X-25381162Y661992D01*
X-25357512Y657288D01*
X-25333406Y657288D01*
X-25309756Y661993D01*
X-25287526Y671201D01*
X-25258384Y692814D01*
X-25254031Y697167D01*
X-25252099Y697685D01*
X-25250685Y696271D01*
X-25250954Y694642D01*
X-25281803Y648472D01*
X-25304158Y594503D01*
X-25315555Y537206D01*
X-25315555Y478794D01*
X-25304158Y421497D01*
X-25281803Y367528D01*
X-25250954Y321358D01*
X-25250823Y319362D01*
X-25252486Y318251D01*
X-25254031Y318833D01*
X-25258414Y323216D01*
X-25277131Y338577D01*
X-25298395Y349942D01*
X-25321470Y356942D01*
X-25345461Y359305D01*
X-25369452Y356942D01*
X-25392527Y349942D01*
X-25413791Y338577D01*
X-25432428Y323282D01*
X-25447692Y304682D01*
X-25463205Y271882D01*
X-25466305Y261665D01*
X-25466455Y261303D01*
X-25474484Y246282D01*
X-25474702Y245956D01*
X-25485509Y232787D01*
X-25485786Y232510D01*
X-25498955Y221703D01*
X-25499281Y221485D01*
X-25514303Y213455D01*
X-25514665Y213305D01*
X-25530965Y208360D01*
X-25531350Y208284D01*
X-25554443Y206010D01*
X-25554639Y206000D01*
X-25610999Y206000D01*
X-25612731Y207000D01*
X-25612731Y209000D01*
X-25611195Y209990D01*
X-25582130Y212852D01*
X-25554365Y221275D01*
X-25528779Y234951D01*
X-25506354Y253355D01*
X-25487950Y275780D01*
X-25474274Y301366D01*
X-25465851Y329131D01*
X-25462999Y358094D01*
X-25462999Y657906D01*
X-25465851Y686869D01*
X-25474274Y714634D01*
X-25487950Y740220D01*
X-25506354Y762645D01*
X-25528779Y781049D01*
X-25554365Y794725D01*
X-25582130Y803148D01*
X-25611195Y806010D01*
X-25612821Y807175D01*
X-25612625Y809165D01*
X-25610999Y810000D01*
X-25554639Y810000D01*
X-25554443Y809990D01*
G37*
G36*
X-22459834Y646751D02*
G01*
X-22458999Y645125D01*
X-22458999Y370875D01*
X-22459999Y369143D01*
X-22461999Y369143D01*
X-22462989Y370679D01*
X-22465371Y394866D01*
X-22472371Y417941D01*
X-22483736Y439205D01*
X-22499031Y457842D01*
X-22517668Y473137D01*
X-22538932Y484502D01*
X-22562007Y491502D01*
X-22585998Y493865D01*
X-22609989Y491502D01*
X-22633064Y484502D01*
X-22654328Y473137D01*
X-22672965Y457842D01*
X-22688260Y439205D01*
X-22697926Y421121D01*
X-22699625Y420065D01*
X-22701388Y421008D01*
X-22701652Y422454D01*
X-22690445Y478794D01*
X-22690445Y537206D01*
X-22701652Y593546D01*
X-22701009Y595440D01*
X-22699047Y595830D01*
X-22697926Y594879D01*
X-22688260Y576795D01*
X-22672964Y558158D01*
X-22654327Y542863D01*
X-22633064Y531498D01*
X-22609989Y524498D01*
X-22585998Y522135D01*
X-22562006Y524498D01*
X-22538932Y531498D01*
X-22517668Y542863D01*
X-22499031Y558159D01*
X-22483736Y576796D01*
X-22472371Y598059D01*
X-22465371Y621134D01*
X-22462989Y645321D01*
X-22461824Y646947D01*
X-22459834Y646751D01*
G37*
G36*
X-27409412Y2932967D02*
G01*
X-27408999Y2931749D01*
X-27408999Y2898094D01*
X-27406147Y2869131D01*
X-27397724Y2841366D01*
X-27384048Y2815780D01*
X-27365644Y2793355D01*
X-27343219Y2774951D01*
X-27317633Y2761275D01*
X-27289868Y2752852D01*
X-27260803Y2749990D01*
X-27259177Y2748825D01*
X-27259373Y2746835D01*
X-27260999Y2746000D01*
X-27317359Y2746000D01*
X-27317555Y2746010D01*
X-27340648Y2748284D01*
X-27341033Y2748360D01*
X-27357333Y2753305D01*
X-27357695Y2753455D01*
X-27372717Y2761485D01*
X-27373043Y2761703D01*
X-27392896Y2777996D01*
X-27413023Y2791444D01*
X-27435297Y2800670D01*
X-27458948Y2805374D01*
X-27483054Y2805374D01*
X-27506655Y2800679D01*
X-27535889Y2786853D01*
X-27537882Y2787016D01*
X-27538737Y2788824D01*
X-27537855Y2790324D01*
X-27496956Y2817651D01*
X-27455651Y2858956D01*
X-27423197Y2907528D01*
X-27412847Y2932514D01*
X-27411260Y2933732D01*
X-27409412Y2932967D01*
G37*
G36*
X-27259267Y3349000D02*
G01*
X-27259267Y3347000D01*
X-27260803Y3346010D01*
X-27289868Y3343148D01*
X-27317633Y3334725D01*
X-27343219Y3321049D01*
X-27365644Y3302645D01*
X-27384048Y3280220D01*
X-27397724Y3254634D01*
X-27406147Y3226869D01*
X-27408999Y3197906D01*
X-27408999Y3164251D01*
X-27409999Y3162519D01*
X-27411999Y3162519D01*
X-27412847Y3163486D01*
X-27423197Y3188472D01*
X-27455651Y3237044D01*
X-27496956Y3278349D01*
X-27536152Y3304539D01*
X-27537037Y3306333D01*
X-27535926Y3307996D01*
X-27534098Y3307966D01*
X-27518063Y3299395D01*
X-27494988Y3292395D01*
X-27470997Y3290033D01*
X-27447006Y3292396D01*
X-27423976Y3299383D01*
X-27392860Y3318034D01*
X-27373043Y3334297D01*
X-27372717Y3334515D01*
X-27357695Y3342545D01*
X-27357333Y3342695D01*
X-27341033Y3347640D01*
X-27340648Y3347716D01*
X-27317555Y3349990D01*
X-27317359Y3350000D01*
X-27260999Y3350000D01*
X-27259267Y3349000D01*
G37*
G36*
X-43886610Y32551596D02*
G01*
X-43869817Y32381091D01*
X-43820138Y32217321D01*
X-43739465Y32066392D01*
X-43630897Y31934103D01*
X-43498608Y31825535D01*
X-43347679Y31744862D01*
X-43183909Y31695183D01*
X-43013404Y31678390D01*
X-43011778Y31677225D01*
X-43011974Y31675235D01*
X-43013600Y31674400D01*
X-43069960Y31674400D01*
X-43070156Y31674410D01*
X-43234687Y31690615D01*
X-43235072Y31690691D01*
X-43387383Y31736894D01*
X-43387745Y31737044D01*
X-43528108Y31812069D01*
X-43528434Y31812287D01*
X-43651466Y31913257D01*
X-43651743Y31913534D01*
X-43752713Y32036566D01*
X-43752931Y32036892D01*
X-43827956Y32177255D01*
X-43828106Y32177617D01*
X-43874309Y32329928D01*
X-43874385Y32330313D01*
X-43890590Y32494844D01*
X-43890600Y32495040D01*
X-43890600Y32551400D01*
X-43889600Y32553132D01*
X-43887600Y32553132D01*
X-43886610Y32551596D01*
G37*
G36*
X-40387435Y32553026D02*
G01*
X-40386600Y32551400D01*
X-40386600Y32495040D01*
X-40386610Y32494844D01*
X-40402815Y32330313D01*
X-40402891Y32329928D01*
X-40449094Y32177617D01*
X-40449244Y32177255D01*
X-40524269Y32036892D01*
X-40524487Y32036566D01*
X-40625457Y31913534D01*
X-40625734Y31913257D01*
X-40748766Y31812287D01*
X-40749092Y31812069D01*
X-40889455Y31737044D01*
X-40889817Y31736894D01*
X-41042128Y31690691D01*
X-41042513Y31690615D01*
X-41207044Y31674410D01*
X-41207240Y31674400D01*
X-41263600Y31674400D01*
X-41265332Y31675400D01*
X-41265332Y31677400D01*
X-41263796Y31678390D01*
X-41093291Y31695183D01*
X-40929521Y31744862D01*
X-40778592Y31825535D01*
X-40646303Y31934103D01*
X-40537735Y32066392D01*
X-40457062Y32217321D01*
X-40407383Y32381091D01*
X-40390590Y32551596D01*
X-40389425Y32553222D01*
X-40387435Y32553026D01*
G37*
G36*
X-43011868Y35177400D02*
G01*
X-43011868Y35175400D01*
X-43013404Y35174410D01*
X-43183909Y35157617D01*
X-43347679Y35107938D01*
X-43498608Y35027265D01*
X-43630897Y34918697D01*
X-43739465Y34786408D01*
X-43820138Y34635479D01*
X-43869817Y34471709D01*
X-43886610Y34301204D01*
X-43887775Y34299578D01*
X-43889765Y34299774D01*
X-43890600Y34301400D01*
X-43890600Y34357760D01*
X-43890590Y34357956D01*
X-43874385Y34522487D01*
X-43874309Y34522872D01*
X-43828106Y34675183D01*
X-43827956Y34675545D01*
X-43752931Y34815908D01*
X-43752713Y34816234D01*
X-43651743Y34939266D01*
X-43651466Y34939543D01*
X-43528434Y35040513D01*
X-43528108Y35040731D01*
X-43387745Y35115756D01*
X-43387383Y35115906D01*
X-43235072Y35162109D01*
X-43234687Y35162185D01*
X-43070156Y35178390D01*
X-43069960Y35178400D01*
X-43013600Y35178400D01*
X-43011868Y35177400D01*
G37*
G36*
X-41207044Y35178390D02*
G01*
X-41042513Y35162185D01*
X-41042128Y35162109D01*
X-40889817Y35115906D01*
X-40889455Y35115756D01*
X-40749092Y35040731D01*
X-40748766Y35040513D01*
X-40625734Y34939543D01*
X-40625457Y34939266D01*
X-40524487Y34816234D01*
X-40524269Y34815908D01*
X-40449244Y34675545D01*
X-40449094Y34675183D01*
X-40402891Y34522872D01*
X-40402815Y34522487D01*
X-40386610Y34357956D01*
X-40386600Y34357760D01*
X-40386600Y34301400D01*
X-40387600Y34299668D01*
X-40389600Y34299668D01*
X-40390590Y34301204D01*
X-40407383Y34471709D01*
X-40457062Y34635479D01*
X-40537735Y34786408D01*
X-40646303Y34918697D01*
X-40778592Y35027265D01*
X-40929521Y35107938D01*
X-41093291Y35157617D01*
X-41263796Y35174410D01*
X-41265422Y35175575D01*
X-41265226Y35177565D01*
X-41263600Y35178400D01*
X-41207240Y35178400D01*
X-41207044Y35178390D01*
G37*
G36*
X-46636610Y37126596D02*
G01*
X-46622219Y36980477D01*
X-46579653Y36840156D01*
X-46510531Y36710838D01*
X-46417509Y36597491D01*
X-46304162Y36504469D01*
X-46174844Y36435347D01*
X-46034523Y36392781D01*
X-45888404Y36378390D01*
X-45886778Y36377225D01*
X-45886974Y36375235D01*
X-45888600Y36374400D01*
X-45944960Y36374400D01*
X-45945156Y36374410D01*
X-46085301Y36388213D01*
X-46085686Y36388289D01*
X-46214547Y36427379D01*
X-46214909Y36427529D01*
X-46333660Y36491003D01*
X-46333986Y36491221D01*
X-46438078Y36576645D01*
X-46438355Y36576922D01*
X-46523779Y36681014D01*
X-46523997Y36681340D01*
X-46587471Y36800091D01*
X-46587621Y36800453D01*
X-46626711Y36929314D01*
X-46626787Y36929699D01*
X-46640590Y37069844D01*
X-46640600Y37070040D01*
X-46640600Y37126400D01*
X-46639600Y37128132D01*
X-46637600Y37128132D01*
X-46636610Y37126596D01*
G37*
G36*
X-43637435Y37128026D02*
G01*
X-43636600Y37126400D01*
X-43636600Y37070040D01*
X-43636610Y37069844D01*
X-43650413Y36929699D01*
X-43650489Y36929314D01*
X-43689579Y36800453D01*
X-43689729Y36800091D01*
X-43753203Y36681340D01*
X-43753421Y36681014D01*
X-43838845Y36576922D01*
X-43839122Y36576645D01*
X-43943214Y36491221D01*
X-43943540Y36491003D01*
X-44062291Y36427529D01*
X-44062653Y36427379D01*
X-44191514Y36388289D01*
X-44191899Y36388213D01*
X-44332044Y36374410D01*
X-44332240Y36374400D01*
X-44388600Y36374400D01*
X-44390332Y36375400D01*
X-44390332Y36377400D01*
X-44388796Y36378390D01*
X-44242677Y36392781D01*
X-44102356Y36435347D01*
X-43973038Y36504469D01*
X-43859691Y36597491D01*
X-43766669Y36710838D01*
X-43697547Y36840156D01*
X-43654981Y36980477D01*
X-43640590Y37126596D01*
X-43639425Y37128222D01*
X-43637435Y37128026D01*
G37*
G36*
X-45886868Y39877400D02*
G01*
X-45886868Y39875400D01*
X-45888404Y39874410D01*
X-46034523Y39860019D01*
X-46174844Y39817453D01*
X-46304162Y39748331D01*
X-46417509Y39655309D01*
X-46510531Y39541962D01*
X-46579653Y39412644D01*
X-46622219Y39272323D01*
X-46636610Y39126204D01*
X-46637775Y39124578D01*
X-46639765Y39124774D01*
X-46640600Y39126400D01*
X-46640600Y39182760D01*
X-46640590Y39182956D01*
X-46626787Y39323101D01*
X-46626711Y39323486D01*
X-46587621Y39452347D01*
X-46587471Y39452709D01*
X-46523997Y39571460D01*
X-46523779Y39571786D01*
X-46438355Y39675878D01*
X-46438078Y39676155D01*
X-46333986Y39761579D01*
X-46333660Y39761797D01*
X-46214909Y39825271D01*
X-46214547Y39825421D01*
X-46085686Y39864511D01*
X-46085301Y39864587D01*
X-45945156Y39878390D01*
X-45944960Y39878400D01*
X-45888600Y39878400D01*
X-45886868Y39877400D01*
G37*
G36*
X-44332044Y39878390D02*
G01*
X-44191899Y39864587D01*
X-44191514Y39864511D01*
X-44062653Y39825421D01*
X-44062291Y39825271D01*
X-43943540Y39761797D01*
X-43943214Y39761579D01*
X-43839122Y39676155D01*
X-43838845Y39675878D01*
X-43753421Y39571786D01*
X-43753203Y39571460D01*
X-43689729Y39452709D01*
X-43689579Y39452347D01*
X-43650489Y39323486D01*
X-43650413Y39323101D01*
X-43636610Y39182956D01*
X-43636600Y39182760D01*
X-43636600Y39126400D01*
X-43637600Y39124668D01*
X-43639600Y39124668D01*
X-43640590Y39126204D01*
X-43654981Y39272323D01*
X-43697547Y39412644D01*
X-43766669Y39541962D01*
X-43859691Y39655309D01*
X-43973038Y39748331D01*
X-44102356Y39817453D01*
X-44242677Y39860019D01*
X-44388796Y39874410D01*
X-44390422Y39875575D01*
X-44390226Y39877565D01*
X-44388600Y39878400D01*
X-44332240Y39878400D01*
X-44332044Y39878390D01*
G37*
G36*
X-23014152Y52511154D02*
G01*
X-23010993Y52503528D01*
X-22978539Y52454956D01*
X-22937234Y52413651D01*
X-22888662Y52381197D01*
X-22848271Y52364466D01*
X-22847053Y52362879D01*
X-22847818Y52361031D01*
X-22849617Y52360704D01*
X-22867012Y52365981D01*
X-22891003Y52368343D01*
X-22914994Y52365980D01*
X-22938069Y52358979D01*
X-22959332Y52347614D01*
X-22977969Y52332318D01*
X-22989940Y52317731D01*
X-22991486Y52317000D01*
X-23016000Y52317000D01*
X-23017732Y52318000D01*
X-23018000Y52319000D01*
X-23018000Y52510389D01*
X-23017000Y52512121D01*
X-23015000Y52512121D01*
X-23014152Y52511154D01*
G37*
G36*
X-22989940Y52970269D02*
G01*
X-22977968Y52955680D01*
X-22959331Y52940385D01*
X-22938067Y52929020D01*
X-22914992Y52922020D01*
X-22891001Y52919657D01*
X-22867009Y52922021D01*
X-22849615Y52927296D01*
X-22847668Y52926842D01*
X-22847087Y52924928D01*
X-22848270Y52923534D01*
X-22888662Y52906803D01*
X-22937234Y52874349D01*
X-22978539Y52833044D01*
X-23010993Y52784472D01*
X-23014152Y52776846D01*
X-23015739Y52775628D01*
X-23017587Y52776393D01*
X-23018000Y52777611D01*
X-23018000Y52969000D01*
X-23017000Y52970732D01*
X-23016000Y52971000D01*
X-22991486Y52971000D01*
X-22989940Y52970269D01*
G37*
G36*
X-23014152Y54386825D02*
G01*
X-22995803Y54342528D01*
X-22963349Y54293956D01*
X-22922044Y54252651D01*
X-22873472Y54220197D01*
X-22856375Y54213115D01*
X-22855157Y54211528D01*
X-22855922Y54209680D01*
X-22857721Y54209353D01*
X-22875110Y54214628D01*
X-22899196Y54217000D01*
X-23016000Y54217000D01*
X-23017732Y54218000D01*
X-23018000Y54219000D01*
X-23018000Y54386060D01*
X-23017000Y54387792D01*
X-23015000Y54387792D01*
X-23014152Y54386825D01*
G37*
G36*
X-23013384Y54869196D02*
G01*
X-23011628Y54851364D01*
X-23004628Y54828289D01*
X-22993263Y54807025D01*
X-22977968Y54788388D01*
X-22959331Y54773093D01*
X-22938067Y54761728D01*
X-22914992Y54754728D01*
X-22891001Y54752365D01*
X-22867010Y54754728D01*
X-22849612Y54760006D01*
X-22847664Y54759552D01*
X-22847083Y54757638D01*
X-22848266Y54756244D01*
X-22873472Y54745803D01*
X-22922044Y54713349D01*
X-22963349Y54672044D01*
X-22995803Y54623472D01*
X-23014152Y54579175D01*
X-23015739Y54577957D01*
X-23017587Y54578722D01*
X-23018000Y54579940D01*
X-23018000Y54869000D01*
X-23017000Y54870732D01*
X-23016000Y54871000D01*
X-23015374Y54871000D01*
X-23013384Y54869196D01*
G37*
M02*
