G04 #@! TF.GenerationSoftware,KiCad,Pcbnew,(5.1.9)-1*
G04 #@! TF.CreationDate,2021-05-08T11:38:06+01:00*
G04 #@! TF.ProjectId,Greaseweazle F1 Plus 3.5,47726561-7365-4776-9561-7a6c65204631,1*
G04 #@! TF.SameCoordinates,PX6312cb0PY6bcb370*
G04 #@! TF.FileFunction,Soldermask,Bot*
G04 #@! TF.FilePolarity,Negative*
%FSLAX46Y46*%
G04 Gerber Fmt 4.6, Leading zero omitted, Abs format (unit mm)*
G04 Created by KiCad (PCBNEW (5.1.9)-1) date 2021-05-08 11:38:06*
%MOMM*%
%LPD*%
G01*
G04 APERTURE LIST*
%ADD10C,0.100000*%
%ADD11R,1.700000X1.700000*%
%ADD12C,1.700000*%
%ADD13O,1.700000X1.700000*%
%ADD14C,4.064000*%
%ADD15O,1.600000X1.600000*%
%ADD16R,1.600000X1.600000*%
%ADD17C,3.500120*%
%ADD18C,1.501140*%
%ADD19C,1.600000*%
%ADD20R,1.800000X1.800000*%
%ADD21C,1.800000*%
%ADD22R,3.500000X3.500000*%
%ADD23C,1.950000*%
%ADD24C,1.508000*%
%ADD25C,0.600000*%
%ADD26C,1.000000*%
G04 APERTURE END LIST*
D10*
G36*
X21463000Y22733000D02*
G01*
X22098000Y22733000D01*
X22098000Y23368000D01*
X21463000Y23368000D01*
X21463000Y22733000D01*
G37*
X21463000Y22733000D02*
X22098000Y22733000D01*
X22098000Y23368000D01*
X21463000Y23368000D01*
X21463000Y22733000D01*
G36*
X22733000Y20828000D02*
G01*
X23368000Y20828000D01*
X23368000Y21463000D01*
X22733000Y21463000D01*
X22733000Y20828000D01*
G37*
X22733000Y20828000D02*
X23368000Y20828000D01*
X23368000Y21463000D01*
X22733000Y21463000D01*
X22733000Y20828000D01*
G36*
X25273000Y20828000D02*
G01*
X25908000Y20828000D01*
X25908000Y21463000D01*
X25273000Y21463000D01*
X25273000Y20828000D01*
G37*
X25273000Y20828000D02*
X25908000Y20828000D01*
X25908000Y21463000D01*
X25273000Y21463000D01*
X25273000Y20828000D01*
G36*
X25908000Y22098000D02*
G01*
X26543000Y22098000D01*
X26543000Y22733000D01*
X25908000Y22733000D01*
X25908000Y22098000D01*
G37*
X25908000Y22098000D02*
X26543000Y22098000D01*
X26543000Y22733000D01*
X25908000Y22733000D01*
X25908000Y22098000D01*
G36*
X25273000Y24638000D02*
G01*
X25908000Y24638000D01*
X25908000Y25273000D01*
X25273000Y25273000D01*
X25273000Y24638000D01*
G37*
X25273000Y24638000D02*
X25908000Y24638000D01*
X25908000Y25273000D01*
X25273000Y25273000D01*
X25273000Y24638000D01*
G36*
X24638000Y24638000D02*
G01*
X25273000Y24638000D01*
X25273000Y25273000D01*
X24638000Y25273000D01*
X24638000Y24638000D01*
G37*
X24638000Y24638000D02*
X25273000Y24638000D01*
X25273000Y25273000D01*
X24638000Y25273000D01*
X24638000Y24638000D01*
G36*
X24003000Y25273000D02*
G01*
X24638000Y25273000D01*
X24638000Y25908000D01*
X24003000Y25908000D01*
X24003000Y25273000D01*
G37*
X24003000Y25273000D02*
X24638000Y25273000D01*
X24638000Y25908000D01*
X24003000Y25908000D01*
X24003000Y25273000D01*
G36*
X24003000Y24638000D02*
G01*
X24638000Y24638000D01*
X24638000Y25273000D01*
X24003000Y25273000D01*
X24003000Y24638000D01*
G37*
X24003000Y24638000D02*
X24638000Y24638000D01*
X24638000Y25273000D01*
X24003000Y25273000D01*
X24003000Y24638000D01*
G36*
X23368000Y24638000D02*
G01*
X24003000Y24638000D01*
X24003000Y25273000D01*
X23368000Y25273000D01*
X23368000Y24638000D01*
G37*
X23368000Y24638000D02*
X24003000Y24638000D01*
X24003000Y25273000D01*
X23368000Y25273000D01*
X23368000Y24638000D01*
G36*
X22733000Y24638000D02*
G01*
X23368000Y24638000D01*
X23368000Y25273000D01*
X22733000Y25273000D01*
X22733000Y24638000D01*
G37*
X22733000Y24638000D02*
X23368000Y24638000D01*
X23368000Y25273000D01*
X22733000Y25273000D01*
X22733000Y24638000D01*
G36*
X22733000Y25273000D02*
G01*
X23368000Y25273000D01*
X23368000Y25908000D01*
X22733000Y25908000D01*
X22733000Y25273000D01*
G37*
X22733000Y25273000D02*
X23368000Y25273000D01*
X23368000Y25908000D01*
X22733000Y25908000D01*
X22733000Y25273000D01*
G36*
X21463000Y20828000D02*
G01*
X22098000Y20828000D01*
X22098000Y21463000D01*
X21463000Y21463000D01*
X21463000Y20828000D01*
G37*
X21463000Y20828000D02*
X22098000Y20828000D01*
X22098000Y21463000D01*
X21463000Y21463000D01*
X21463000Y20828000D01*
G36*
X21463000Y24638000D02*
G01*
X22098000Y24638000D01*
X22098000Y25273000D01*
X21463000Y25273000D01*
X21463000Y24638000D01*
G37*
X21463000Y24638000D02*
X22098000Y24638000D01*
X22098000Y25273000D01*
X21463000Y25273000D01*
X21463000Y24638000D01*
G36*
X24638000Y24003000D02*
G01*
X25273000Y24003000D01*
X25273000Y24638000D01*
X24638000Y24638000D01*
X24638000Y24003000D01*
G37*
X24638000Y24003000D02*
X25273000Y24003000D01*
X25273000Y24638000D01*
X24638000Y24638000D01*
X24638000Y24003000D01*
G36*
X24003000Y23368000D02*
G01*
X24638000Y23368000D01*
X24638000Y24003000D01*
X24003000Y24003000D01*
X24003000Y23368000D01*
G37*
X24003000Y23368000D02*
X24638000Y23368000D01*
X24638000Y24003000D01*
X24003000Y24003000D01*
X24003000Y23368000D01*
G36*
X22733000Y23368000D02*
G01*
X23368000Y23368000D01*
X23368000Y24003000D01*
X22733000Y24003000D01*
X22733000Y23368000D01*
G37*
X22733000Y23368000D02*
X23368000Y23368000D01*
X23368000Y24003000D01*
X22733000Y24003000D01*
X22733000Y23368000D01*
G36*
X23368000Y23368000D02*
G01*
X24003000Y23368000D01*
X24003000Y24003000D01*
X23368000Y24003000D01*
X23368000Y23368000D01*
G37*
X23368000Y23368000D02*
X24003000Y23368000D01*
X24003000Y24003000D01*
X23368000Y24003000D01*
X23368000Y23368000D01*
G36*
X23368000Y24003000D02*
G01*
X24003000Y24003000D01*
X24003000Y24638000D01*
X23368000Y24638000D01*
X23368000Y24003000D01*
G37*
X23368000Y24003000D02*
X24003000Y24003000D01*
X24003000Y24638000D01*
X23368000Y24638000D01*
X23368000Y24003000D01*
G36*
X21463000Y22733000D02*
G01*
X22098000Y22733000D01*
X22098000Y23368000D01*
X21463000Y23368000D01*
X21463000Y22733000D01*
G37*
X21463000Y22733000D02*
X22098000Y22733000D01*
X22098000Y23368000D01*
X21463000Y23368000D01*
X21463000Y22733000D01*
G36*
X22733000Y20828000D02*
G01*
X23368000Y20828000D01*
X23368000Y21463000D01*
X22733000Y21463000D01*
X22733000Y20828000D01*
G37*
X22733000Y20828000D02*
X23368000Y20828000D01*
X23368000Y21463000D01*
X22733000Y21463000D01*
X22733000Y20828000D01*
G36*
X25273000Y20828000D02*
G01*
X25908000Y20828000D01*
X25908000Y21463000D01*
X25273000Y21463000D01*
X25273000Y20828000D01*
G37*
X25273000Y20828000D02*
X25908000Y20828000D01*
X25908000Y21463000D01*
X25273000Y21463000D01*
X25273000Y20828000D01*
G36*
X25908000Y22098000D02*
G01*
X26543000Y22098000D01*
X26543000Y22733000D01*
X25908000Y22733000D01*
X25908000Y22098000D01*
G37*
X25908000Y22098000D02*
X26543000Y22098000D01*
X26543000Y22733000D01*
X25908000Y22733000D01*
X25908000Y22098000D01*
G36*
X25273000Y24638000D02*
G01*
X25908000Y24638000D01*
X25908000Y25273000D01*
X25273000Y25273000D01*
X25273000Y24638000D01*
G37*
X25273000Y24638000D02*
X25908000Y24638000D01*
X25908000Y25273000D01*
X25273000Y25273000D01*
X25273000Y24638000D01*
G36*
X24638000Y24638000D02*
G01*
X25273000Y24638000D01*
X25273000Y25273000D01*
X24638000Y25273000D01*
X24638000Y24638000D01*
G37*
X24638000Y24638000D02*
X25273000Y24638000D01*
X25273000Y25273000D01*
X24638000Y25273000D01*
X24638000Y24638000D01*
G36*
X24003000Y25273000D02*
G01*
X24638000Y25273000D01*
X24638000Y25908000D01*
X24003000Y25908000D01*
X24003000Y25273000D01*
G37*
X24003000Y25273000D02*
X24638000Y25273000D01*
X24638000Y25908000D01*
X24003000Y25908000D01*
X24003000Y25273000D01*
G36*
X24003000Y24638000D02*
G01*
X24638000Y24638000D01*
X24638000Y25273000D01*
X24003000Y25273000D01*
X24003000Y24638000D01*
G37*
X24003000Y24638000D02*
X24638000Y24638000D01*
X24638000Y25273000D01*
X24003000Y25273000D01*
X24003000Y24638000D01*
G36*
X23368000Y24638000D02*
G01*
X24003000Y24638000D01*
X24003000Y25273000D01*
X23368000Y25273000D01*
X23368000Y24638000D01*
G37*
X23368000Y24638000D02*
X24003000Y24638000D01*
X24003000Y25273000D01*
X23368000Y25273000D01*
X23368000Y24638000D01*
G36*
X22733000Y24638000D02*
G01*
X23368000Y24638000D01*
X23368000Y25273000D01*
X22733000Y25273000D01*
X22733000Y24638000D01*
G37*
X22733000Y24638000D02*
X23368000Y24638000D01*
X23368000Y25273000D01*
X22733000Y25273000D01*
X22733000Y24638000D01*
G36*
X22733000Y25273000D02*
G01*
X23368000Y25273000D01*
X23368000Y25908000D01*
X22733000Y25908000D01*
X22733000Y25273000D01*
G37*
X22733000Y25273000D02*
X23368000Y25273000D01*
X23368000Y25908000D01*
X22733000Y25908000D01*
X22733000Y25273000D01*
G36*
X21463000Y20828000D02*
G01*
X22098000Y20828000D01*
X22098000Y21463000D01*
X21463000Y21463000D01*
X21463000Y20828000D01*
G37*
X21463000Y20828000D02*
X22098000Y20828000D01*
X22098000Y21463000D01*
X21463000Y21463000D01*
X21463000Y20828000D01*
G36*
X21463000Y24638000D02*
G01*
X22098000Y24638000D01*
X22098000Y25273000D01*
X21463000Y25273000D01*
X21463000Y24638000D01*
G37*
X21463000Y24638000D02*
X22098000Y24638000D01*
X22098000Y25273000D01*
X21463000Y25273000D01*
X21463000Y24638000D01*
G36*
X24638000Y24003000D02*
G01*
X25273000Y24003000D01*
X25273000Y24638000D01*
X24638000Y24638000D01*
X24638000Y24003000D01*
G37*
X24638000Y24003000D02*
X25273000Y24003000D01*
X25273000Y24638000D01*
X24638000Y24638000D01*
X24638000Y24003000D01*
G36*
X24003000Y23368000D02*
G01*
X24638000Y23368000D01*
X24638000Y24003000D01*
X24003000Y24003000D01*
X24003000Y23368000D01*
G37*
X24003000Y23368000D02*
X24638000Y23368000D01*
X24638000Y24003000D01*
X24003000Y24003000D01*
X24003000Y23368000D01*
G36*
X22733000Y23368000D02*
G01*
X23368000Y23368000D01*
X23368000Y24003000D01*
X22733000Y24003000D01*
X22733000Y23368000D01*
G37*
X22733000Y23368000D02*
X23368000Y23368000D01*
X23368000Y24003000D01*
X22733000Y24003000D01*
X22733000Y23368000D01*
G36*
X23368000Y23368000D02*
G01*
X24003000Y23368000D01*
X24003000Y24003000D01*
X23368000Y24003000D01*
X23368000Y23368000D01*
G37*
X23368000Y23368000D02*
X24003000Y23368000D01*
X24003000Y24003000D01*
X23368000Y24003000D01*
X23368000Y23368000D01*
G36*
X23368000Y24003000D02*
G01*
X24003000Y24003000D01*
X24003000Y24638000D01*
X23368000Y24638000D01*
X23368000Y24003000D01*
G37*
X23368000Y24003000D02*
X24003000Y24003000D01*
X24003000Y24638000D01*
X23368000Y24638000D01*
X23368000Y24003000D01*
D11*
X48514000Y3810000D03*
D12*
X51054000Y3810000D03*
X53594000Y3810000D03*
X56134000Y3810000D03*
X59944000Y48260000D03*
D11*
X44704000Y48260000D03*
D12*
X59944000Y45720000D03*
X44704000Y45720000D03*
X59944000Y43180000D03*
X44704000Y43180000D03*
X59944000Y40640000D03*
X44704000Y40640000D03*
X59944000Y38100000D03*
X44704000Y38100000D03*
X59944000Y35560000D03*
X44704000Y35560000D03*
X59944000Y33020000D03*
X44704000Y33020000D03*
X59944000Y30480000D03*
X44704000Y30480000D03*
X59944000Y27940000D03*
X44704000Y27940000D03*
X59944000Y25400000D03*
X44704000Y25400000D03*
X59944000Y22860000D03*
X44704000Y22860000D03*
X59944000Y20320000D03*
X44704000Y20320000D03*
X59944000Y17780000D03*
X44704000Y17780000D03*
X59944000Y15240000D03*
X44704000Y15240000D03*
X59944000Y12700000D03*
X44704000Y12700000D03*
X59944000Y10160000D03*
X44704000Y10160000D03*
X59944000Y7620000D03*
X44704000Y7620000D03*
X59944000Y5080000D03*
X44704000Y5080000D03*
X59944000Y2540000D03*
X44704000Y2540000D03*
X59944000Y0D03*
X44704000Y0D03*
X56273700Y35814000D03*
X56273700Y38354000D03*
D11*
X56273700Y33274000D03*
D12*
X53797200Y38354000D03*
X53733700Y35814000D03*
X53733700Y33274000D03*
X92329000Y-22860000D03*
X92329000Y-25400000D03*
X92329000Y-27940000D03*
X92329000Y-30480000D03*
X92329000Y-33020000D03*
D11*
X92329000Y-35560000D03*
D12*
X94869000Y-22860000D03*
X94869000Y-25400000D03*
X94869000Y-27940000D03*
X94869000Y-30480000D03*
X94869000Y-33020000D03*
D11*
X94869000Y-35560000D03*
D13*
X-32004000Y45085000D03*
D11*
X-34544000Y45085000D03*
D14*
X86113620Y-34935160D03*
X16113760Y59065160D03*
X16113760Y-34935160D03*
X86113620Y59065160D03*
D13*
X104394000Y58420000D03*
D11*
X104394000Y55880000D03*
D13*
X-17526000Y-27940000D03*
D11*
X-14986000Y-27940000D03*
D13*
X-27686000Y-27940000D03*
D11*
X-25146000Y-27940000D03*
D12*
X97409000Y-22860000D03*
X97409000Y-25400000D03*
X97409000Y-27940000D03*
X97409000Y-30480000D03*
X97409000Y-33020000D03*
D11*
X97409000Y-35560000D03*
D13*
X-35306000Y27152600D03*
X-35306000Y24612600D03*
X-35306000Y22072600D03*
D11*
X-35306000Y19532600D03*
D13*
X-32131000Y57150000D03*
X-32131000Y54610000D03*
X-32131000Y52070000D03*
D11*
X-32131000Y49530000D03*
D15*
X7874000Y13970000D03*
X-7366000Y13970000D03*
X7874000Y49530000D03*
X-7366000Y16510000D03*
X7874000Y46990000D03*
X-7366000Y19050000D03*
X7874000Y44450000D03*
X-7366000Y21590000D03*
X7874000Y41910000D03*
X-7366000Y24130000D03*
X7874000Y39370000D03*
X-7366000Y26670000D03*
X7874000Y36830000D03*
X-7366000Y29210000D03*
X7874000Y34290000D03*
X-7366000Y31750000D03*
X7874000Y31750000D03*
X-7366000Y34290000D03*
X7874000Y29210000D03*
X-7366000Y36830000D03*
X7874000Y26670000D03*
X-7366000Y39370000D03*
X7874000Y24130000D03*
X-7366000Y41910000D03*
X7874000Y21590000D03*
X-7366000Y44450000D03*
X7874000Y19050000D03*
X-7366000Y46990000D03*
X7874000Y16510000D03*
D16*
X-7366000Y49530000D03*
D13*
X-28956000Y20828000D03*
X-28956000Y23368000D03*
D11*
X-28956000Y25908000D03*
D13*
X-35306000Y31750000D03*
D11*
X-35306000Y34290000D03*
D17*
X-42621200Y47345600D03*
X-42621200Y59385200D03*
D18*
X-37896800Y54610000D03*
X-37896800Y52120800D03*
X-39903400Y52120800D03*
X-39903400Y54610000D03*
D13*
X103124000Y-1270000D03*
X103124000Y-3810000D03*
D11*
X103124000Y-6350000D03*
D13*
X109474000Y8255000D03*
X109474000Y10795000D03*
X109474000Y13335000D03*
D11*
X109474000Y15875000D03*
D13*
X29464000Y-27940000D03*
X26924000Y-27940000D03*
D11*
X24384000Y-27940000D03*
D13*
X42926000Y-27829200D03*
X40386000Y-27829200D03*
D11*
X37846000Y-27829200D03*
D13*
X55626000Y-27889200D03*
X53086000Y-27889200D03*
D11*
X50546000Y-27889200D03*
D13*
X-18796000Y51587400D03*
X-16256000Y51587400D03*
D11*
X-13716000Y51587400D03*
D13*
X104394000Y24130000D03*
X104394000Y21590000D03*
X104394000Y19050000D03*
D11*
X104394000Y16510000D03*
X106934000Y-20320000D03*
D13*
X106934000Y-17780000D03*
X106934000Y-15240000D03*
D12*
X106934000Y-12700000D03*
X103124000Y-12700000D03*
D13*
X103124000Y-15240000D03*
X103124000Y-17780000D03*
D11*
X103124000Y-20320000D03*
D19*
X103886000Y51308000D03*
D15*
X88646000Y51308000D03*
D20*
X109474000Y48768000D03*
D21*
X109474000Y51308000D03*
X109474000Y34290000D03*
D20*
X109474000Y31750000D03*
X109474000Y37592000D03*
D21*
X109474000Y40132000D03*
X109474000Y45720000D03*
D20*
X109474000Y43180000D03*
D19*
X73914000Y13970000D03*
D15*
X89154000Y13970000D03*
X88646000Y34290000D03*
D19*
X103886000Y34290000D03*
X103886000Y40132000D03*
D15*
X88646000Y40132000D03*
X88646000Y45720000D03*
D19*
X103886000Y45720000D03*
D13*
X34544000Y0D03*
X34544000Y2540000D03*
X34544000Y5080000D03*
X34544000Y7620000D03*
X34544000Y10160000D03*
X34544000Y12700000D03*
X34544000Y15240000D03*
X34544000Y17780000D03*
X34544000Y20320000D03*
X34544000Y22860000D03*
X34544000Y25400000D03*
X34544000Y27940000D03*
X34544000Y30480000D03*
X34544000Y33020000D03*
X34544000Y35560000D03*
X34544000Y38100000D03*
X34544000Y40640000D03*
X34544000Y43180000D03*
X34544000Y45720000D03*
D12*
X34544000Y48260000D03*
D13*
X70104000Y48260000D03*
X70104000Y45720000D03*
X70104000Y43180000D03*
X70104000Y40640000D03*
X70104000Y38100000D03*
X70104000Y35560000D03*
X70104000Y33020000D03*
X70104000Y30480000D03*
X70104000Y27940000D03*
X70104000Y25400000D03*
X70104000Y22860000D03*
X70104000Y20320000D03*
X70104000Y17780000D03*
X70104000Y15240000D03*
X70104000Y12700000D03*
X70104000Y10160000D03*
X70104000Y7620000D03*
X70104000Y5080000D03*
X70104000Y2540000D03*
D12*
X70104000Y0D03*
D13*
X79603600Y-24130000D03*
X77063600Y-24130000D03*
D11*
X74523600Y-24130000D03*
D13*
X67564000Y-24130000D03*
X65024000Y-24130000D03*
D11*
X62484000Y-24130000D03*
X62484000Y-27940000D03*
D13*
X65024000Y-27940000D03*
D12*
X67564000Y-27940000D03*
D11*
X74523600Y-27940000D03*
D13*
X77063600Y-27940000D03*
D12*
X79603600Y-27940000D03*
D13*
X106934000Y-33020000D03*
X106934000Y-30480000D03*
X106934000Y-27940000D03*
D11*
X106934000Y-25400000D03*
G36*
G01*
X-43888600Y32551400D02*
X-43888600Y34301400D01*
G75*
G02*
X-43013600Y35176400I875000J0D01*
G01*
X-41263600Y35176400D01*
G75*
G02*
X-40388600Y34301400I0J-875000D01*
G01*
X-40388600Y32551400D01*
G75*
G02*
X-41263600Y31676400I-875000J0D01*
G01*
X-43013600Y31676400D01*
G75*
G02*
X-43888600Y32551400I0J875000D01*
G01*
G37*
G36*
G01*
X-46638600Y37126400D02*
X-46638600Y39126400D01*
G75*
G02*
X-45888600Y39876400I750000J0D01*
G01*
X-44388600Y39876400D01*
G75*
G02*
X-43638600Y39126400I0J-750000D01*
G01*
X-43638600Y37126400D01*
G75*
G02*
X-44388600Y36376400I-750000J0D01*
G01*
X-45888600Y36376400D01*
G75*
G02*
X-46638600Y37126400I0J750000D01*
G01*
G37*
D22*
X-39138600Y38126400D03*
D23*
X108244000Y60650000D03*
X108244000Y53650000D03*
D24*
X110744000Y59425000D03*
X110744000Y54875000D03*
D11*
X-42367200Y19532600D03*
D13*
X-42367200Y22072600D03*
X-42367200Y24612600D03*
X-42367200Y27152600D03*
X-39852600Y-31800800D03*
X-42392600Y-31800800D03*
X-39852600Y-29260800D03*
X-42392600Y-29260800D03*
X-39852600Y-26720800D03*
X-42392600Y-26720800D03*
X-39852600Y-24180800D03*
X-42392600Y-24180800D03*
X-39852600Y-21640800D03*
X-42392600Y-21640800D03*
X-39852600Y-19100800D03*
X-42392600Y-19100800D03*
X-39852600Y-16560800D03*
X-42392600Y-16560800D03*
X-39852600Y-14020800D03*
X-42392600Y-14020800D03*
X-39852600Y-11480800D03*
X-42392600Y-11480800D03*
X-39852600Y-8940800D03*
X-42392600Y-8940800D03*
X-39852600Y-6400800D03*
X-42392600Y-6400800D03*
X-39852600Y-3860800D03*
X-42392600Y-3860800D03*
X-39852600Y-1320800D03*
X-42392600Y-1320800D03*
X-39852600Y1219200D03*
X-42392600Y1219200D03*
X-39852600Y3759200D03*
X-42392600Y3759200D03*
X-39852600Y6299200D03*
X-42392600Y6299200D03*
X-39852600Y8839200D03*
D11*
X-42392600Y8839200D03*
D25*
X50292000Y10414000D03*
X5334000Y29210000D03*
X2794000Y21590000D03*
X-51816000Y15240000D03*
X-51816000Y-7620000D03*
X-51816000Y-15240000D03*
X-51816000Y-36830000D03*
X-51714400Y45516800D03*
X96901000Y60833000D03*
X115824000Y-36830000D03*
X105410000Y36576000D03*
X49911000Y43307000D03*
X-3937000Y26924000D03*
X14224000Y41910000D03*
X96774000Y27686000D03*
X76327000Y25400000D03*
X27559000Y46355000D03*
X-51816000Y60960000D03*
X115824000Y-9017000D03*
X112014000Y29210000D03*
X112014000Y24130000D03*
X112014000Y21590000D03*
X112014000Y6350000D03*
X112014000Y3683000D03*
X112014000Y-2286000D03*
X112014000Y-7620000D03*
X115824000Y-24765000D03*
X51689000Y60960000D03*
X33274000Y-36830000D03*
X46609000Y-36830000D03*
X59690000Y-36830000D03*
X71120000Y-36830000D03*
X99949000Y-36830000D03*
X115697000Y60833000D03*
X115697000Y35941000D03*
X115697000Y41656000D03*
X115697000Y52959000D03*
X99314000Y-8890000D03*
X91059000Y-8255000D03*
X81534000Y-1270000D03*
X81534000Y17399000D03*
X85471000Y-24130000D03*
X18034000Y31750000D03*
X28194000Y31750000D03*
X19177000Y18669000D03*
X254000Y11430000D03*
X-11176000Y-34925000D03*
X76454000Y34290000D03*
X84734400Y40614600D03*
X81534000Y25400000D03*
X78994000Y46990000D03*
X30734000Y57150000D03*
X63754000Y57150000D03*
X21844000Y27940000D03*
X30099000Y-5080000D03*
X56134000Y-19050000D03*
X43434000Y-19050000D03*
X33274000Y-19050000D03*
X-32131000Y-34925000D03*
X-31496000Y19685000D03*
X-3556000Y48514000D03*
X15240000Y-25273000D03*
X9779000Y-9652000D03*
X-27813000Y-21590000D03*
X-7366000Y57150000D03*
X20320000Y43434000D03*
X27940000Y43434000D03*
X14224000Y47752000D03*
X2794000Y46990000D03*
X-3048000Y41148000D03*
X4572000Y40640000D03*
X5334000Y13970000D03*
X20066000Y13970000D03*
X28448000Y10668000D03*
X18288000Y10922000D03*
X19050000Y4318000D03*
X30480000Y2286000D03*
X-20447000Y36830000D03*
X-21717000Y34417000D03*
X-29057600Y53594000D03*
X-21971000Y47498000D03*
X-15875000Y45466000D03*
X-13843000Y22352000D03*
X-12954000Y29845000D03*
X-26416000Y48260000D03*
X-46736000Y53340000D03*
X-2286000Y57150000D03*
X4064000Y57150000D03*
X29464000Y21971000D03*
X-18796000Y5080000D03*
X8890000Y-508000D03*
X-31496000Y27940000D03*
X-51816000Y5080000D03*
X-51816000Y-25400000D03*
X96774000Y-1270000D03*
X100584000Y3810000D03*
X76327000Y17272000D03*
X92710000Y5080000D03*
X86614000Y17399000D03*
X26416000Y17272000D03*
X18034000Y25400000D03*
X50800000Y46355000D03*
X91694000Y57150000D03*
X77724000Y57150000D03*
X56134000Y57150000D03*
X47244000Y57150000D03*
X39624000Y57150000D03*
X-32766000Y5080000D03*
X-30226000Y-7239000D03*
X-28956000Y-17780000D03*
X-30226000Y-12700000D03*
X-28956000Y-25400000D03*
X-21336000Y-35052000D03*
X-14986000Y-21590000D03*
X-16891000Y-19050000D03*
X10414000Y-15240000D03*
X19304000Y-13843000D03*
X68834000Y-19050000D03*
X73914000Y-19050000D03*
X80264000Y-19050000D03*
X254000Y5080000D03*
X-27686000Y7620000D03*
X-16256000Y10160000D03*
X-32766000Y10160000D03*
X-36576000Y12446000D03*
X-23114000Y12192000D03*
X-6375400Y4953000D03*
X-4292600Y6680200D03*
X-1828800Y38430200D03*
X-11303000Y52374800D03*
X88366600Y-27559000D03*
X-28321000Y37465000D03*
X-28321000Y34290000D03*
X-11684000Y40894000D03*
X-28321000Y48260000D03*
X-18796000Y25400000D03*
X-14478000Y26289000D03*
X-13462000Y26289000D03*
X57404000Y27940000D03*
X-28067000Y-4572000D03*
X-24892000Y-10287000D03*
X-14224000Y-13208000D03*
X-17526000Y-11430000D03*
X-20320000Y-10033000D03*
X-13716000Y-17145000D03*
X-22606000Y-25400000D03*
X-19431000Y-4191000D03*
X-19050000Y-2032000D03*
X-16129000Y1778000D03*
X254000Y27686000D03*
X22479000Y3810000D03*
X27178000Y6350000D03*
X16129000Y-3429000D03*
X11176000Y2413000D03*
X5969000Y5461000D03*
X27940000Y27686000D03*
X254000Y35941000D03*
X23114000Y35433000D03*
X25400000Y37973000D03*
X81153000Y37846000D03*
X74422000Y48133000D03*
X20447000Y-8636000D03*
X-6096000Y-6223000D03*
X-9144000Y-9017000D03*
X-6223000Y-11557000D03*
X-3683000Y-9906000D03*
X11176000Y-3302000D03*
X762000Y1143000D03*
X5207000Y1905000D03*
X-15367000Y6223000D03*
X55372000Y11303000D03*
X76327000Y20447000D03*
X81534000Y20447000D03*
X86614000Y20447000D03*
X76327000Y22860000D03*
X81534000Y22860000D03*
X86614000Y22860000D03*
X86614000Y25400000D03*
X104394000Y30226000D03*
X37338000Y26797000D03*
X37973000Y29210000D03*
X15875000Y-20447000D03*
X11176000Y-20574000D03*
X10160000Y-24130000D03*
X-9398000Y-17526000D03*
X-9398000Y-21336000D03*
X21844000Y-17780000D03*
X24384000Y-22860000D03*
X75184000Y-5080000D03*
X85979000Y-17780000D03*
X-24511000Y47498000D03*
X-12827000Y45466000D03*
X-26797000Y50800000D03*
X-29083000Y51181000D03*
X-33528000Y53467000D03*
X-22733000Y54483000D03*
X-22748190Y52644000D03*
X-23876000Y-8255000D03*
D26*
X39624000Y51562000D03*
X-19725959Y40386000D03*
D25*
X3809994Y-13627010D03*
X-19050000Y-20320000D03*
X-5461000Y-24003000D03*
X11176000Y-19050000D03*
X-14935200Y-24180778D03*
X7219919Y-26577990D03*
X-6477002Y-26543000D03*
X7239000Y-24130000D03*
X-19050000Y-22987000D03*
X-7302498Y-22987000D03*
X-15748000Y-17780010D03*
X-12954000Y-6858000D03*
X7620000Y-5080000D03*
X-6159500Y-14825753D03*
X-11277600Y15341600D03*
X-24384000Y-18415000D03*
X-27813000Y-16510000D03*
X-12954000Y2540000D03*
X7239000Y-21590000D03*
X-14986000Y11430000D03*
X-15494000Y8890000D03*
X-27686000Y3048000D03*
X8611188Y8865188D03*
X-1905000Y-8255000D03*
X1397000Y-15113000D03*
X2921000Y-11430000D03*
X28149001Y36785001D03*
X46822990Y36830000D03*
X15113000Y6197600D03*
X12522198Y6375400D03*
X95427800Y8890000D03*
D26*
X75031602Y53721000D03*
D25*
X47117000Y41783000D03*
X15748000Y38989000D03*
X10490200Y6223000D03*
X47498000Y39370000D03*
X-15176500Y-7175500D03*
X-7493000Y-11557000D03*
X-1777988Y-16510000D03*
X30734000Y39370000D03*
X-1397000Y25908000D03*
X-9967193Y-826177D03*
X-19471001Y3769999D03*
X54229000Y17526000D03*
X49149000Y17526000D03*
X32512000Y16510000D03*
X7620000Y-8255000D03*
X-4381500Y-15176500D03*
X-25019000Y508000D03*
X-1905000Y-5080000D03*
X-17653000Y-1905000D03*
X15494000Y-27852953D03*
X-9271000Y-14605000D03*
X-1904990Y-19685000D03*
X12827000Y-16510000D03*
X-22860000Y-16510000D03*
X-22733000Y-2032000D03*
X-21463000Y-5207000D03*
X-26416000Y-6223000D03*
X-22987000Y508000D03*
D10*
G36*
X-43886610Y32551596D02*
G01*
X-43869817Y32381091D01*
X-43820138Y32217321D01*
X-43739465Y32066392D01*
X-43630897Y31934103D01*
X-43498608Y31825535D01*
X-43347679Y31744862D01*
X-43183909Y31695183D01*
X-43013404Y31678390D01*
X-43011778Y31677225D01*
X-43011974Y31675235D01*
X-43013600Y31674400D01*
X-43069960Y31674400D01*
X-43070156Y31674410D01*
X-43234687Y31690615D01*
X-43235072Y31690691D01*
X-43387383Y31736894D01*
X-43387745Y31737044D01*
X-43528108Y31812069D01*
X-43528434Y31812287D01*
X-43651466Y31913257D01*
X-43651743Y31913534D01*
X-43752713Y32036566D01*
X-43752931Y32036892D01*
X-43827956Y32177255D01*
X-43828106Y32177617D01*
X-43874309Y32329928D01*
X-43874385Y32330313D01*
X-43890590Y32494844D01*
X-43890600Y32495040D01*
X-43890600Y32551400D01*
X-43889600Y32553132D01*
X-43887600Y32553132D01*
X-43886610Y32551596D01*
G37*
G36*
X-40387435Y32553026D02*
G01*
X-40386600Y32551400D01*
X-40386600Y32495040D01*
X-40386610Y32494844D01*
X-40402815Y32330313D01*
X-40402891Y32329928D01*
X-40449094Y32177617D01*
X-40449244Y32177255D01*
X-40524269Y32036892D01*
X-40524487Y32036566D01*
X-40625457Y31913534D01*
X-40625734Y31913257D01*
X-40748766Y31812287D01*
X-40749092Y31812069D01*
X-40889455Y31737044D01*
X-40889817Y31736894D01*
X-41042128Y31690691D01*
X-41042513Y31690615D01*
X-41207044Y31674410D01*
X-41207240Y31674400D01*
X-41263600Y31674400D01*
X-41265332Y31675400D01*
X-41265332Y31677400D01*
X-41263796Y31678390D01*
X-41093291Y31695183D01*
X-40929521Y31744862D01*
X-40778592Y31825535D01*
X-40646303Y31934103D01*
X-40537735Y32066392D01*
X-40457062Y32217321D01*
X-40407383Y32381091D01*
X-40390590Y32551596D01*
X-40389425Y32553222D01*
X-40387435Y32553026D01*
G37*
G36*
X-43011868Y35177400D02*
G01*
X-43011868Y35175400D01*
X-43013404Y35174410D01*
X-43183909Y35157617D01*
X-43347679Y35107938D01*
X-43498608Y35027265D01*
X-43630897Y34918697D01*
X-43739465Y34786408D01*
X-43820138Y34635479D01*
X-43869817Y34471709D01*
X-43886610Y34301204D01*
X-43887775Y34299578D01*
X-43889765Y34299774D01*
X-43890600Y34301400D01*
X-43890600Y34357760D01*
X-43890590Y34357956D01*
X-43874385Y34522487D01*
X-43874309Y34522872D01*
X-43828106Y34675183D01*
X-43827956Y34675545D01*
X-43752931Y34815908D01*
X-43752713Y34816234D01*
X-43651743Y34939266D01*
X-43651466Y34939543D01*
X-43528434Y35040513D01*
X-43528108Y35040731D01*
X-43387745Y35115756D01*
X-43387383Y35115906D01*
X-43235072Y35162109D01*
X-43234687Y35162185D01*
X-43070156Y35178390D01*
X-43069960Y35178400D01*
X-43013600Y35178400D01*
X-43011868Y35177400D01*
G37*
G36*
X-41207044Y35178390D02*
G01*
X-41042513Y35162185D01*
X-41042128Y35162109D01*
X-40889817Y35115906D01*
X-40889455Y35115756D01*
X-40749092Y35040731D01*
X-40748766Y35040513D01*
X-40625734Y34939543D01*
X-40625457Y34939266D01*
X-40524487Y34816234D01*
X-40524269Y34815908D01*
X-40449244Y34675545D01*
X-40449094Y34675183D01*
X-40402891Y34522872D01*
X-40402815Y34522487D01*
X-40386610Y34357956D01*
X-40386600Y34357760D01*
X-40386600Y34301400D01*
X-40387600Y34299668D01*
X-40389600Y34299668D01*
X-40390590Y34301204D01*
X-40407383Y34471709D01*
X-40457062Y34635479D01*
X-40537735Y34786408D01*
X-40646303Y34918697D01*
X-40778592Y35027265D01*
X-40929521Y35107938D01*
X-41093291Y35157617D01*
X-41263796Y35174410D01*
X-41265422Y35175575D01*
X-41265226Y35177565D01*
X-41263600Y35178400D01*
X-41207240Y35178400D01*
X-41207044Y35178390D01*
G37*
G36*
X-46636610Y37126596D02*
G01*
X-46622219Y36980477D01*
X-46579653Y36840156D01*
X-46510531Y36710838D01*
X-46417509Y36597491D01*
X-46304162Y36504469D01*
X-46174844Y36435347D01*
X-46034523Y36392781D01*
X-45888404Y36378390D01*
X-45886778Y36377225D01*
X-45886974Y36375235D01*
X-45888600Y36374400D01*
X-45944960Y36374400D01*
X-45945156Y36374410D01*
X-46085301Y36388213D01*
X-46085686Y36388289D01*
X-46214547Y36427379D01*
X-46214909Y36427529D01*
X-46333660Y36491003D01*
X-46333986Y36491221D01*
X-46438078Y36576645D01*
X-46438355Y36576922D01*
X-46523779Y36681014D01*
X-46523997Y36681340D01*
X-46587471Y36800091D01*
X-46587621Y36800453D01*
X-46626711Y36929314D01*
X-46626787Y36929699D01*
X-46640590Y37069844D01*
X-46640600Y37070040D01*
X-46640600Y37126400D01*
X-46639600Y37128132D01*
X-46637600Y37128132D01*
X-46636610Y37126596D01*
G37*
G36*
X-43637435Y37128026D02*
G01*
X-43636600Y37126400D01*
X-43636600Y37070040D01*
X-43636610Y37069844D01*
X-43650413Y36929699D01*
X-43650489Y36929314D01*
X-43689579Y36800453D01*
X-43689729Y36800091D01*
X-43753203Y36681340D01*
X-43753421Y36681014D01*
X-43838845Y36576922D01*
X-43839122Y36576645D01*
X-43943214Y36491221D01*
X-43943540Y36491003D01*
X-44062291Y36427529D01*
X-44062653Y36427379D01*
X-44191514Y36388289D01*
X-44191899Y36388213D01*
X-44332044Y36374410D01*
X-44332240Y36374400D01*
X-44388600Y36374400D01*
X-44390332Y36375400D01*
X-44390332Y36377400D01*
X-44388796Y36378390D01*
X-44242677Y36392781D01*
X-44102356Y36435347D01*
X-43973038Y36504469D01*
X-43859691Y36597491D01*
X-43766669Y36710838D01*
X-43697547Y36840156D01*
X-43654981Y36980477D01*
X-43640590Y37126596D01*
X-43639425Y37128222D01*
X-43637435Y37128026D01*
G37*
G36*
X-45886868Y39877400D02*
G01*
X-45886868Y39875400D01*
X-45888404Y39874410D01*
X-46034523Y39860019D01*
X-46174844Y39817453D01*
X-46304162Y39748331D01*
X-46417509Y39655309D01*
X-46510531Y39541962D01*
X-46579653Y39412644D01*
X-46622219Y39272323D01*
X-46636610Y39126204D01*
X-46637775Y39124578D01*
X-46639765Y39124774D01*
X-46640600Y39126400D01*
X-46640600Y39182760D01*
X-46640590Y39182956D01*
X-46626787Y39323101D01*
X-46626711Y39323486D01*
X-46587621Y39452347D01*
X-46587471Y39452709D01*
X-46523997Y39571460D01*
X-46523779Y39571786D01*
X-46438355Y39675878D01*
X-46438078Y39676155D01*
X-46333986Y39761579D01*
X-46333660Y39761797D01*
X-46214909Y39825271D01*
X-46214547Y39825421D01*
X-46085686Y39864511D01*
X-46085301Y39864587D01*
X-45945156Y39878390D01*
X-45944960Y39878400D01*
X-45888600Y39878400D01*
X-45886868Y39877400D01*
G37*
G36*
X-44332044Y39878390D02*
G01*
X-44191899Y39864587D01*
X-44191514Y39864511D01*
X-44062653Y39825421D01*
X-44062291Y39825271D01*
X-43943540Y39761797D01*
X-43943214Y39761579D01*
X-43839122Y39676155D01*
X-43838845Y39675878D01*
X-43753421Y39571786D01*
X-43753203Y39571460D01*
X-43689729Y39452709D01*
X-43689579Y39452347D01*
X-43650489Y39323486D01*
X-43650413Y39323101D01*
X-43636610Y39182956D01*
X-43636600Y39182760D01*
X-43636600Y39126400D01*
X-43637600Y39124668D01*
X-43639600Y39124668D01*
X-43640590Y39126204D01*
X-43654981Y39272323D01*
X-43697547Y39412644D01*
X-43766669Y39541962D01*
X-43859691Y39655309D01*
X-43973038Y39748331D01*
X-44102356Y39817453D01*
X-44242677Y39860019D01*
X-44388796Y39874410D01*
X-44390422Y39875575D01*
X-44390226Y39877565D01*
X-44388600Y39878400D01*
X-44332240Y39878400D01*
X-44332044Y39878390D01*
G37*
M02*
