G04 #@! TF.GenerationSoftware,KiCad,Pcbnew,(5.1.9)-1*
G04 #@! TF.CreationDate,2021-06-02T08:11:27+01:00*
G04 #@! TF.ProjectId,Greaseweazle F1 Plus 3.5,47726561-7365-4776-9561-7a6c65204631,1*
G04 #@! TF.SameCoordinates,PX6312cb0PY6bcb370*
G04 #@! TF.FileFunction,Legend,Bot*
G04 #@! TF.FilePolarity,Positive*
%FSLAX46Y46*%
G04 Gerber Fmt 4.6, Leading zero omitted, Abs format (unit mm)*
G04 Created by KiCad (PCBNEW (5.1.9)-1) date 2021-06-02 08:11:27*
%MOMM*%
%LPD*%
G01*
G04 APERTURE LIST*
%ADD10C,0.125000*%
%ADD11C,0.304800*%
%ADD12C,0.200000*%
%ADD13C,0.100000*%
%ADD14C,0.120000*%
%ADD15C,0.150000*%
G04 APERTURE END LIST*
D10*
X111426523Y-13795714D02*
X111521761Y-14081428D01*
X111521761Y-14557619D01*
X111426523Y-14748095D01*
X111331285Y-14843333D01*
X111140809Y-14938571D01*
X110950333Y-14938571D01*
X110759857Y-14843333D01*
X110664619Y-14748095D01*
X110569380Y-14557619D01*
X110474142Y-14176666D01*
X110378904Y-13986190D01*
X110283666Y-13890952D01*
X110093190Y-13795714D01*
X109902714Y-13795714D01*
X109712238Y-13890952D01*
X109617000Y-13986190D01*
X109521761Y-14176666D01*
X109521761Y-14652857D01*
X109617000Y-14938571D01*
X109521761Y-15605238D02*
X111521761Y-16081428D01*
X110093190Y-16462380D01*
X111521761Y-16843333D01*
X109521761Y-17319523D01*
X111521761Y-18081428D02*
X109521761Y-18081428D01*
X109521761Y-18557619D01*
X109617000Y-18843333D01*
X109807476Y-19033809D01*
X109997952Y-19129047D01*
X110378904Y-19224285D01*
X110664619Y-19224285D01*
X111045571Y-19129047D01*
X111236047Y-19033809D01*
X111426523Y-18843333D01*
X111521761Y-18557619D01*
X111521761Y-18081428D01*
X115760428Y-12325000D02*
X115831857Y-12289285D01*
X115939000Y-12289285D01*
X116046142Y-12325000D01*
X116117571Y-12396428D01*
X116153285Y-12467857D01*
X116189000Y-12610714D01*
X116189000Y-12717857D01*
X116153285Y-12860714D01*
X116117571Y-12932142D01*
X116046142Y-13003571D01*
X115939000Y-13039285D01*
X115867571Y-13039285D01*
X115760428Y-13003571D01*
X115724714Y-12967857D01*
X115724714Y-12717857D01*
X115867571Y-12717857D01*
X115403285Y-13039285D02*
X115403285Y-12289285D01*
X114974714Y-13039285D01*
X114974714Y-12289285D01*
X114617571Y-13039285D02*
X114617571Y-12289285D01*
X114439000Y-12289285D01*
X114331857Y-12325000D01*
X114260428Y-12396428D01*
X114224714Y-12467857D01*
X114189000Y-12610714D01*
X114189000Y-12717857D01*
X114224714Y-12860714D01*
X114260428Y-12932142D01*
X114331857Y-13003571D01*
X114439000Y-13039285D01*
X114617571Y-13039285D01*
X116250428Y-15543571D02*
X116143285Y-15579285D01*
X115964714Y-15579285D01*
X115893285Y-15543571D01*
X115857571Y-15507857D01*
X115821857Y-15436428D01*
X115821857Y-15365000D01*
X115857571Y-15293571D01*
X115893285Y-15257857D01*
X115964714Y-15222142D01*
X116107571Y-15186428D01*
X116179000Y-15150714D01*
X116214714Y-15115000D01*
X116250428Y-15043571D01*
X116250428Y-14972142D01*
X116214714Y-14900714D01*
X116179000Y-14865000D01*
X116107571Y-14829285D01*
X115929000Y-14829285D01*
X115821857Y-14865000D01*
X115571857Y-14829285D02*
X115393285Y-15579285D01*
X115250428Y-15043571D01*
X115107571Y-15579285D01*
X114929000Y-14829285D01*
X114214714Y-15507857D02*
X114250428Y-15543571D01*
X114357571Y-15579285D01*
X114429000Y-15579285D01*
X114536142Y-15543571D01*
X114607571Y-15472142D01*
X114643285Y-15400714D01*
X114679000Y-15257857D01*
X114679000Y-15150714D01*
X114643285Y-15007857D01*
X114607571Y-14936428D01*
X114536142Y-14865000D01*
X114429000Y-14829285D01*
X114357571Y-14829285D01*
X114250428Y-14865000D01*
X114214714Y-14900714D01*
X113536142Y-15579285D02*
X113893285Y-15579285D01*
X113893285Y-14829285D01*
X113286142Y-15579285D02*
X113286142Y-14829285D01*
X112857571Y-15579285D02*
X113179000Y-15150714D01*
X112857571Y-14829285D02*
X113286142Y-15257857D01*
X116276285Y-18083571D02*
X116169142Y-18119285D01*
X115990571Y-18119285D01*
X115919142Y-18083571D01*
X115883428Y-18047857D01*
X115847714Y-17976428D01*
X115847714Y-17905000D01*
X115883428Y-17833571D01*
X115919142Y-17797857D01*
X115990571Y-17762142D01*
X116133428Y-17726428D01*
X116204857Y-17690714D01*
X116240571Y-17655000D01*
X116276285Y-17583571D01*
X116276285Y-17512142D01*
X116240571Y-17440714D01*
X116204857Y-17405000D01*
X116133428Y-17369285D01*
X115954857Y-17369285D01*
X115847714Y-17405000D01*
X115597714Y-17369285D02*
X115419142Y-18119285D01*
X115276285Y-17583571D01*
X115133428Y-18119285D01*
X114954857Y-17369285D01*
X114669142Y-18119285D02*
X114669142Y-17369285D01*
X114169142Y-17369285D02*
X114026285Y-17369285D01*
X113954857Y-17405000D01*
X113883428Y-17476428D01*
X113847714Y-17619285D01*
X113847714Y-17869285D01*
X113883428Y-18012142D01*
X113954857Y-18083571D01*
X114026285Y-18119285D01*
X114169142Y-18119285D01*
X114240571Y-18083571D01*
X114312000Y-18012142D01*
X114347714Y-17869285D01*
X114347714Y-17619285D01*
X114312000Y-17476428D01*
X114240571Y-17405000D01*
X114169142Y-17369285D01*
X116308000Y-20373571D02*
X115736571Y-20373571D01*
X116022285Y-20659285D02*
X116022285Y-20087857D01*
X115450857Y-19909285D02*
X114986571Y-19909285D01*
X115236571Y-20195000D01*
X115129428Y-20195000D01*
X115058000Y-20230714D01*
X115022285Y-20266428D01*
X114986571Y-20337857D01*
X114986571Y-20516428D01*
X115022285Y-20587857D01*
X115058000Y-20623571D01*
X115129428Y-20659285D01*
X115343714Y-20659285D01*
X115415142Y-20623571D01*
X115450857Y-20587857D01*
X114665142Y-20587857D02*
X114629428Y-20623571D01*
X114665142Y-20659285D01*
X114700857Y-20623571D01*
X114665142Y-20587857D01*
X114665142Y-20659285D01*
X114379428Y-19909285D02*
X113915142Y-19909285D01*
X114165142Y-20195000D01*
X114058000Y-20195000D01*
X113986571Y-20230714D01*
X113950857Y-20266428D01*
X113915142Y-20337857D01*
X113915142Y-20516428D01*
X113950857Y-20587857D01*
X113986571Y-20623571D01*
X114058000Y-20659285D01*
X114272285Y-20659285D01*
X114343714Y-20623571D01*
X114379428Y-20587857D01*
X113700857Y-19909285D02*
X113450857Y-20659285D01*
X113200857Y-19909285D01*
X111424980Y-24673514D02*
X110424980Y-24673514D01*
X110424980Y-25054466D01*
X110472600Y-25149704D01*
X110520219Y-25197323D01*
X110615457Y-25244942D01*
X110758314Y-25244942D01*
X110853552Y-25197323D01*
X110901171Y-25149704D01*
X110948790Y-25054466D01*
X110948790Y-24673514D01*
X111424980Y-25673514D02*
X110758314Y-25673514D01*
X110948790Y-25673514D02*
X110853552Y-25721133D01*
X110805933Y-25768752D01*
X110758314Y-25863990D01*
X110758314Y-25959228D01*
X111424980Y-26435419D02*
X111377361Y-26340180D01*
X111329742Y-26292561D01*
X111234504Y-26244942D01*
X110948790Y-26244942D01*
X110853552Y-26292561D01*
X110805933Y-26340180D01*
X110758314Y-26435419D01*
X110758314Y-26578276D01*
X110805933Y-26673514D01*
X110853552Y-26721133D01*
X110948790Y-26768752D01*
X111234504Y-26768752D01*
X111329742Y-26721133D01*
X111377361Y-26673514D01*
X111424980Y-26578276D01*
X111424980Y-26435419D01*
X110758314Y-27625895D02*
X111567838Y-27625895D01*
X111663076Y-27578276D01*
X111710695Y-27530657D01*
X111758314Y-27435419D01*
X111758314Y-27292561D01*
X111710695Y-27197323D01*
X111377361Y-27625895D02*
X111424980Y-27530657D01*
X111424980Y-27340180D01*
X111377361Y-27244942D01*
X111329742Y-27197323D01*
X111234504Y-27149704D01*
X110948790Y-27149704D01*
X110853552Y-27197323D01*
X110805933Y-27244942D01*
X110758314Y-27340180D01*
X110758314Y-27530657D01*
X110805933Y-27625895D01*
X111424980Y-28102085D02*
X110758314Y-28102085D01*
X110948790Y-28102085D02*
X110853552Y-28149704D01*
X110805933Y-28197323D01*
X110758314Y-28292561D01*
X110758314Y-28387800D01*
X111424980Y-29149704D02*
X110901171Y-29149704D01*
X110805933Y-29102085D01*
X110758314Y-29006847D01*
X110758314Y-28816371D01*
X110805933Y-28721133D01*
X111377361Y-29149704D02*
X111424980Y-29054466D01*
X111424980Y-28816371D01*
X111377361Y-28721133D01*
X111282123Y-28673514D01*
X111186885Y-28673514D01*
X111091647Y-28721133D01*
X111044028Y-28816371D01*
X111044028Y-29054466D01*
X110996409Y-29149704D01*
X111424980Y-29625895D02*
X110758314Y-29625895D01*
X110853552Y-29625895D02*
X110805933Y-29673514D01*
X110758314Y-29768752D01*
X110758314Y-29911609D01*
X110805933Y-30006847D01*
X110901171Y-30054466D01*
X111424980Y-30054466D01*
X110901171Y-30054466D02*
X110805933Y-30102085D01*
X110758314Y-30197323D01*
X110758314Y-30340180D01*
X110805933Y-30435419D01*
X110901171Y-30483038D01*
X111424980Y-30483038D01*
X111424980Y-30959228D02*
X110758314Y-30959228D01*
X110853552Y-30959228D02*
X110805933Y-31006847D01*
X110758314Y-31102085D01*
X110758314Y-31244942D01*
X110805933Y-31340180D01*
X110901171Y-31387800D01*
X111424980Y-31387800D01*
X110901171Y-31387800D02*
X110805933Y-31435419D01*
X110758314Y-31530657D01*
X110758314Y-31673514D01*
X110805933Y-31768752D01*
X110901171Y-31816371D01*
X111424980Y-31816371D01*
X111424980Y-32292561D02*
X110758314Y-32292561D01*
X110424980Y-32292561D02*
X110472600Y-32244942D01*
X110520219Y-32292561D01*
X110472600Y-32340180D01*
X110424980Y-32292561D01*
X110520219Y-32292561D01*
X110758314Y-32768752D02*
X111424980Y-32768752D01*
X110853552Y-32768752D02*
X110805933Y-32816371D01*
X110758314Y-32911609D01*
X110758314Y-33054466D01*
X110805933Y-33149704D01*
X110901171Y-33197323D01*
X111424980Y-33197323D01*
X110758314Y-34102085D02*
X111567838Y-34102085D01*
X111663076Y-34054466D01*
X111710695Y-34006847D01*
X111758314Y-33911609D01*
X111758314Y-33768752D01*
X111710695Y-33673514D01*
X111377361Y-34102085D02*
X111424980Y-34006847D01*
X111424980Y-33816371D01*
X111377361Y-33721133D01*
X111329742Y-33673514D01*
X111234504Y-33625895D01*
X110948790Y-33625895D01*
X110853552Y-33673514D01*
X110805933Y-33721133D01*
X110758314Y-33816371D01*
X110758314Y-34006847D01*
X110805933Y-34102085D01*
X116500428Y-25932171D02*
X116393285Y-25967885D01*
X116214714Y-25967885D01*
X116143285Y-25932171D01*
X116107571Y-25896457D01*
X116071857Y-25825028D01*
X116071857Y-25753600D01*
X116107571Y-25682171D01*
X116143285Y-25646457D01*
X116214714Y-25610742D01*
X116357571Y-25575028D01*
X116429000Y-25539314D01*
X116464714Y-25503600D01*
X116500428Y-25432171D01*
X116500428Y-25360742D01*
X116464714Y-25289314D01*
X116429000Y-25253600D01*
X116357571Y-25217885D01*
X116179000Y-25217885D01*
X116071857Y-25253600D01*
X115750428Y-25575028D02*
X115500428Y-25575028D01*
X115393285Y-25967885D02*
X115750428Y-25967885D01*
X115750428Y-25217885D01*
X115393285Y-25217885D01*
X114643285Y-25967885D02*
X114893285Y-25610742D01*
X115071857Y-25967885D02*
X115071857Y-25217885D01*
X114786142Y-25217885D01*
X114714714Y-25253600D01*
X114679000Y-25289314D01*
X114643285Y-25360742D01*
X114643285Y-25467885D01*
X114679000Y-25539314D01*
X114714714Y-25575028D01*
X114786142Y-25610742D01*
X115071857Y-25610742D01*
X114500428Y-26039314D02*
X113929000Y-26039314D01*
X113321857Y-25967885D02*
X113571857Y-25610742D01*
X113750428Y-25967885D02*
X113750428Y-25217885D01*
X113464714Y-25217885D01*
X113393285Y-25253600D01*
X113357571Y-25289314D01*
X113321857Y-25360742D01*
X113321857Y-25467885D01*
X113357571Y-25539314D01*
X113393285Y-25575028D01*
X113464714Y-25610742D01*
X113750428Y-25610742D01*
X113071857Y-25217885D02*
X112571857Y-25967885D01*
X112571857Y-25217885D02*
X113071857Y-25967885D01*
X116411142Y-28522971D02*
X116304000Y-28558685D01*
X116125428Y-28558685D01*
X116054000Y-28522971D01*
X116018285Y-28487257D01*
X115982571Y-28415828D01*
X115982571Y-28344400D01*
X116018285Y-28272971D01*
X116054000Y-28237257D01*
X116125428Y-28201542D01*
X116268285Y-28165828D01*
X116339714Y-28130114D01*
X116375428Y-28094400D01*
X116411142Y-28022971D01*
X116411142Y-27951542D01*
X116375428Y-27880114D01*
X116339714Y-27844400D01*
X116268285Y-27808685D01*
X116089714Y-27808685D01*
X115982571Y-27844400D01*
X115661142Y-28165828D02*
X115411142Y-28165828D01*
X115304000Y-28558685D02*
X115661142Y-28558685D01*
X115661142Y-27808685D01*
X115304000Y-27808685D01*
X114554000Y-28558685D02*
X114804000Y-28201542D01*
X114982571Y-28558685D02*
X114982571Y-27808685D01*
X114696857Y-27808685D01*
X114625428Y-27844400D01*
X114589714Y-27880114D01*
X114554000Y-27951542D01*
X114554000Y-28058685D01*
X114589714Y-28130114D01*
X114625428Y-28165828D01*
X114696857Y-28201542D01*
X114982571Y-28201542D01*
X114411142Y-28630114D02*
X113839714Y-28630114D01*
X113768285Y-27808685D02*
X113339714Y-27808685D01*
X113554000Y-28558685D02*
X113554000Y-27808685D01*
X113161142Y-27808685D02*
X112661142Y-28558685D01*
X112661142Y-27808685D02*
X113161142Y-28558685D01*
X116305685Y-30965371D02*
X115734257Y-30965371D01*
X116019971Y-31251085D02*
X116019971Y-30679657D01*
X115019971Y-30501085D02*
X115377114Y-30501085D01*
X115412828Y-30858228D01*
X115377114Y-30822514D01*
X115305685Y-30786800D01*
X115127114Y-30786800D01*
X115055685Y-30822514D01*
X115019971Y-30858228D01*
X114984257Y-30929657D01*
X114984257Y-31108228D01*
X115019971Y-31179657D01*
X115055685Y-31215371D01*
X115127114Y-31251085D01*
X115305685Y-31251085D01*
X115377114Y-31215371D01*
X115412828Y-31179657D01*
X114769971Y-30501085D02*
X114519971Y-31251085D01*
X114269971Y-30501085D01*
X115760428Y-33076800D02*
X115831857Y-33041085D01*
X115939000Y-33041085D01*
X116046142Y-33076800D01*
X116117571Y-33148228D01*
X116153285Y-33219657D01*
X116189000Y-33362514D01*
X116189000Y-33469657D01*
X116153285Y-33612514D01*
X116117571Y-33683942D01*
X116046142Y-33755371D01*
X115939000Y-33791085D01*
X115867571Y-33791085D01*
X115760428Y-33755371D01*
X115724714Y-33719657D01*
X115724714Y-33469657D01*
X115867571Y-33469657D01*
X115403285Y-33791085D02*
X115403285Y-33041085D01*
X114974714Y-33791085D01*
X114974714Y-33041085D01*
X114617571Y-33791085D02*
X114617571Y-33041085D01*
X114439000Y-33041085D01*
X114331857Y-33076800D01*
X114260428Y-33148228D01*
X114224714Y-33219657D01*
X114189000Y-33362514D01*
X114189000Y-33469657D01*
X114224714Y-33612514D01*
X114260428Y-33683942D01*
X114331857Y-33755371D01*
X114439000Y-33791085D01*
X114617571Y-33791085D01*
X11319000Y49940715D02*
X11069000Y49190715D01*
X10819000Y49940715D01*
X10569000Y49190715D02*
X10569000Y49940715D01*
X10211857Y49190715D02*
X10211857Y49940715D01*
X9783286Y49190715D01*
X9783286Y49940715D01*
X11319000Y47365000D02*
X11390429Y47400715D01*
X11497572Y47400715D01*
X11604714Y47365000D01*
X11676143Y47293572D01*
X11711857Y47222143D01*
X11747572Y47079286D01*
X11747572Y46972143D01*
X11711857Y46829286D01*
X11676143Y46757858D01*
X11604714Y46686429D01*
X11497572Y46650715D01*
X11426143Y46650715D01*
X11319000Y46686429D01*
X11283286Y46722143D01*
X11283286Y46972143D01*
X11426143Y46972143D01*
X10961857Y46650715D02*
X10961857Y47400715D01*
X10533286Y46650715D01*
X10533286Y47400715D01*
X10176143Y46650715D02*
X10176143Y47400715D01*
X9997572Y47400715D01*
X9890429Y47365000D01*
X9819000Y47293572D01*
X9783286Y47222143D01*
X9747572Y47079286D01*
X9747572Y46972143D01*
X9783286Y46829286D01*
X9819000Y46757858D01*
X9890429Y46686429D01*
X9997572Y46650715D01*
X10176143Y46650715D01*
X12211857Y44039286D02*
X11640428Y44039286D01*
X11033286Y44110715D02*
X11283286Y44467858D01*
X11461857Y44110715D02*
X11461857Y44860715D01*
X11176143Y44860715D01*
X11104714Y44825000D01*
X11069000Y44789286D01*
X11033286Y44717858D01*
X11033286Y44610715D01*
X11069000Y44539286D01*
X11104714Y44503572D01*
X11176143Y44467858D01*
X11461857Y44467858D01*
X10747571Y44146429D02*
X10640428Y44110715D01*
X10461857Y44110715D01*
X10390428Y44146429D01*
X10354714Y44182143D01*
X10319000Y44253572D01*
X10319000Y44325000D01*
X10354714Y44396429D01*
X10390428Y44432143D01*
X10461857Y44467858D01*
X10604714Y44503572D01*
X10676143Y44539286D01*
X10711857Y44575000D01*
X10747571Y44646429D01*
X10747571Y44717858D01*
X10711857Y44789286D01*
X10676143Y44825000D01*
X10604714Y44860715D01*
X10426143Y44860715D01*
X10319000Y44825000D01*
X10104714Y44860715D02*
X9676143Y44860715D01*
X9890428Y44110715D02*
X9890428Y44860715D01*
X-9070334Y44066667D02*
X-9603667Y44066667D01*
X-10170334Y44133334D02*
X-9937000Y44466667D01*
X-9770334Y44133334D02*
X-9770334Y44833334D01*
X-10037000Y44833334D01*
X-10103667Y44800000D01*
X-10137000Y44766667D01*
X-10170334Y44700000D01*
X-10170334Y44600000D01*
X-10137000Y44533334D01*
X-10103667Y44500000D01*
X-10037000Y44466667D01*
X-9770334Y44466667D01*
X-10437000Y44166667D02*
X-10537000Y44133334D01*
X-10703667Y44133334D01*
X-10770334Y44166667D01*
X-10803667Y44200000D01*
X-10837000Y44266667D01*
X-10837000Y44333334D01*
X-10803667Y44400000D01*
X-10770334Y44433334D01*
X-10703667Y44466667D01*
X-10570334Y44500000D01*
X-10503667Y44533334D01*
X-10470334Y44566667D01*
X-10437000Y44633334D01*
X-10437000Y44700000D01*
X-10470334Y44766667D01*
X-10503667Y44800000D01*
X-10570334Y44833334D01*
X-10737000Y44833334D01*
X-10837000Y44800000D01*
X-11037000Y44833334D02*
X-11437000Y44833334D01*
X-11237000Y44133334D02*
X-11237000Y44833334D01*
X-9499667Y42260000D02*
X-9433000Y42293334D01*
X-9333000Y42293334D01*
X-9233000Y42260000D01*
X-9166334Y42193334D01*
X-9133000Y42126667D01*
X-9099667Y41993334D01*
X-9099667Y41893334D01*
X-9133000Y41760000D01*
X-9166334Y41693334D01*
X-9233000Y41626667D01*
X-9333000Y41593334D01*
X-9399667Y41593334D01*
X-9499667Y41626667D01*
X-9533000Y41660000D01*
X-9533000Y41893334D01*
X-9399667Y41893334D01*
X-9833000Y41593334D02*
X-9833000Y42293334D01*
X-10233000Y41593334D01*
X-10233000Y42293334D01*
X-10566334Y41593334D02*
X-10566334Y42293334D01*
X-10733000Y42293334D01*
X-10833000Y42260000D01*
X-10899667Y42193334D01*
X-10933000Y42126667D01*
X-10966334Y41993334D01*
X-10966334Y41893334D01*
X-10933000Y41760000D01*
X-10899667Y41693334D01*
X-10833000Y41626667D01*
X-10733000Y41593334D01*
X-10566334Y41593334D01*
X-9070334Y38986667D02*
X-9603667Y38986667D01*
X-9737001Y39086667D02*
X-9837001Y39053334D01*
X-10003667Y39053334D01*
X-10070334Y39086667D01*
X-10103667Y39120000D01*
X-10137001Y39186667D01*
X-10137001Y39253334D01*
X-10103667Y39320000D01*
X-10070334Y39353334D01*
X-10003667Y39386667D01*
X-9870334Y39420000D01*
X-9803667Y39453334D01*
X-9770334Y39486667D01*
X-9737001Y39553334D01*
X-9737001Y39620000D01*
X-9770334Y39686667D01*
X-9803667Y39720000D01*
X-9870334Y39753334D01*
X-10037001Y39753334D01*
X-10137001Y39720000D01*
X-10337001Y39753334D02*
X-10737001Y39753334D01*
X-10537001Y39053334D02*
X-10537001Y39753334D01*
X-10970334Y39420000D02*
X-11203667Y39420000D01*
X-11303667Y39053334D02*
X-10970334Y39053334D01*
X-10970334Y39753334D01*
X-11303667Y39753334D01*
X-11603667Y39053334D02*
X-11603667Y39753334D01*
X-11870334Y39753334D01*
X-11937001Y39720000D01*
X-11970334Y39686667D01*
X-12003667Y39620000D01*
X-12003667Y39520000D01*
X-11970334Y39453334D01*
X-11937001Y39420000D01*
X-11870334Y39386667D01*
X-11603667Y39386667D01*
X-9070334Y33906667D02*
X-9603667Y33906667D01*
X-9770334Y33973334D02*
X-9770334Y34673334D01*
X-9937001Y34673334D01*
X-10037001Y34640000D01*
X-10103667Y34573334D01*
X-10137001Y34506667D01*
X-10170334Y34373334D01*
X-10170334Y34273334D01*
X-10137001Y34140000D01*
X-10103667Y34073334D01*
X-10037001Y34006667D01*
X-9937001Y33973334D01*
X-9770334Y33973334D01*
X-10470334Y33973334D02*
X-10470334Y34673334D01*
X-11203667Y33973334D02*
X-10970334Y34306667D01*
X-10803667Y33973334D02*
X-10803667Y34673334D01*
X-11070334Y34673334D01*
X-11137001Y34640000D01*
X-11170334Y34606667D01*
X-11203667Y34540000D01*
X-11203667Y34440000D01*
X-11170334Y34373334D01*
X-11137001Y34340000D01*
X-11070334Y34306667D01*
X-10803667Y34306667D01*
X-8853667Y31366667D02*
X-9387000Y31366667D01*
X-9520334Y31466667D02*
X-9620334Y31433334D01*
X-9787000Y31433334D01*
X-9853667Y31466667D01*
X-9887000Y31500000D01*
X-9920334Y31566667D01*
X-9920334Y31633334D01*
X-9887000Y31700000D01*
X-9853667Y31733334D01*
X-9787000Y31766667D01*
X-9653667Y31800000D01*
X-9587000Y31833334D01*
X-9553667Y31866667D01*
X-9520334Y31933334D01*
X-9520334Y32000000D01*
X-9553667Y32066667D01*
X-9587000Y32100000D01*
X-9653667Y32133334D01*
X-9820334Y32133334D01*
X-9920334Y32100000D01*
X-10220334Y31433334D02*
X-10220334Y32133334D01*
X-10553667Y31433334D02*
X-10553667Y32133334D01*
X-10720334Y32133334D01*
X-10820334Y32100000D01*
X-10887000Y32033334D01*
X-10920334Y31966667D01*
X-10953667Y31833334D01*
X-10953667Y31733334D01*
X-10920334Y31600000D01*
X-10887000Y31533334D01*
X-10820334Y31466667D01*
X-10720334Y31433334D01*
X-10553667Y31433334D01*
X-11253667Y31800000D02*
X-11487000Y31800000D01*
X-11587000Y31433334D02*
X-11253667Y31433334D01*
X-11253667Y32133334D01*
X-11587000Y32133334D01*
X-8995000Y26286667D02*
X-9528334Y26286667D01*
X-9695000Y26353334D02*
X-9695000Y27053334D01*
X-10028334Y26353334D02*
X-10028334Y27053334D01*
X-10428334Y26353334D01*
X-10428334Y27053334D01*
X-10761667Y26353334D02*
X-10761667Y27053334D01*
X-10928334Y27053334D01*
X-11028334Y27020000D01*
X-11095000Y26953334D01*
X-11128334Y26886667D01*
X-11161667Y26753334D01*
X-11161667Y26653334D01*
X-11128334Y26520000D01*
X-11095000Y26453334D01*
X-11028334Y26386667D01*
X-10928334Y26353334D01*
X-10761667Y26353334D01*
X-11461667Y26720000D02*
X-11695000Y26720000D01*
X-11795000Y26353334D02*
X-11461667Y26353334D01*
X-11461667Y27053334D01*
X-11795000Y27053334D01*
X-12028334Y27053334D02*
X-12495000Y26353334D01*
X-12495000Y27053334D02*
X-12028334Y26353334D01*
X-9070334Y23746667D02*
X-9603667Y23746667D01*
X-9670334Y24513334D02*
X-10070334Y24513334D01*
X-9870334Y23813334D02*
X-9870334Y24513334D01*
X-10703667Y23813334D02*
X-10470334Y24146667D01*
X-10303667Y23813334D02*
X-10303667Y24513334D01*
X-10570334Y24513334D01*
X-10637000Y24480000D01*
X-10670334Y24446667D01*
X-10703667Y24380000D01*
X-10703667Y24280000D01*
X-10670334Y24213334D01*
X-10637000Y24180000D01*
X-10570334Y24146667D01*
X-10303667Y24146667D01*
X-11003667Y23813334D02*
X-11003667Y24513334D01*
X-11403667Y23813334D02*
X-11103667Y24213334D01*
X-11403667Y24513334D02*
X-11003667Y24113334D01*
X-11837000Y24513334D02*
X-11903667Y24513334D01*
X-11970334Y24480000D01*
X-12003667Y24446667D01*
X-12037000Y24380000D01*
X-12070334Y24246667D01*
X-12070334Y24080000D01*
X-12037000Y23946667D01*
X-12003667Y23880000D01*
X-11970334Y23846667D01*
X-11903667Y23813334D01*
X-11837000Y23813334D01*
X-11770334Y23846667D01*
X-11737000Y23880000D01*
X-11703667Y23946667D01*
X-11670334Y24080000D01*
X-11670334Y24246667D01*
X-11703667Y24380000D01*
X-11737000Y24446667D01*
X-11770334Y24480000D01*
X-11837000Y24513334D01*
X-9111667Y21206667D02*
X-9645000Y21206667D01*
X-9811667Y21273334D02*
X-9811667Y21973334D01*
X-9978334Y21973334D01*
X-10078334Y21940000D01*
X-10145000Y21873334D01*
X-10178334Y21806667D01*
X-10211667Y21673334D01*
X-10211667Y21573334D01*
X-10178334Y21440000D01*
X-10145000Y21373334D01*
X-10078334Y21306667D01*
X-9978334Y21273334D01*
X-9811667Y21273334D01*
X-10511667Y21273334D02*
X-10511667Y21973334D01*
X-10911667Y21273334D02*
X-10611667Y21673334D01*
X-10911667Y21973334D02*
X-10511667Y21573334D01*
X-11145000Y21973334D02*
X-11311667Y21273334D01*
X-11445000Y21773334D01*
X-11578334Y21273334D01*
X-11745000Y21973334D01*
X-12011667Y21640000D02*
X-12245000Y21640000D01*
X-12345000Y21273334D02*
X-12011667Y21273334D01*
X-12011667Y21973334D01*
X-12345000Y21973334D01*
X-9168000Y18766667D02*
X-9268000Y18733334D01*
X-9434667Y18733334D01*
X-9501334Y18766667D01*
X-9534667Y18800000D01*
X-9568000Y18866667D01*
X-9568000Y18933334D01*
X-9534667Y19000000D01*
X-9501334Y19033334D01*
X-9434667Y19066667D01*
X-9301334Y19100000D01*
X-9234667Y19133334D01*
X-9201334Y19166667D01*
X-9168000Y19233334D01*
X-9168000Y19300000D01*
X-9201334Y19366667D01*
X-9234667Y19400000D01*
X-9301334Y19433334D01*
X-9468000Y19433334D01*
X-9568000Y19400000D01*
X-9868000Y18733334D02*
X-9868000Y19433334D01*
X-10034667Y19433334D01*
X-10134667Y19400000D01*
X-10201334Y19333334D01*
X-10234667Y19266667D01*
X-10268000Y19133334D01*
X-10268000Y19033334D01*
X-10234667Y18900000D01*
X-10201334Y18833334D01*
X-10134667Y18766667D01*
X-10034667Y18733334D01*
X-9868000Y18733334D01*
X-10401334Y18666667D02*
X-10934667Y18666667D01*
X-11501334Y18800000D02*
X-11468000Y18766667D01*
X-11368000Y18733334D01*
X-11301334Y18733334D01*
X-11201334Y18766667D01*
X-11134667Y18833334D01*
X-11101334Y18900000D01*
X-11068000Y19033334D01*
X-11068000Y19133334D01*
X-11101334Y19266667D01*
X-11134667Y19333334D01*
X-11201334Y19400000D01*
X-11301334Y19433334D01*
X-11368000Y19433334D01*
X-11468000Y19400000D01*
X-11501334Y19366667D01*
X-11768000Y18766667D02*
X-11868000Y18733334D01*
X-12034667Y18733334D01*
X-12101334Y18766667D01*
X-12134667Y18800000D01*
X-12168000Y18866667D01*
X-12168000Y18933334D01*
X-12134667Y19000000D01*
X-12101334Y19033334D01*
X-12034667Y19066667D01*
X-11901334Y19100000D01*
X-11834667Y19133334D01*
X-11801334Y19166667D01*
X-11768000Y19233334D01*
X-11768000Y19300000D01*
X-11801334Y19366667D01*
X-11834667Y19400000D01*
X-11901334Y19433334D01*
X-12068000Y19433334D01*
X-12168000Y19400000D01*
X-9136286Y16140143D02*
X-9222000Y16111572D01*
X-9364858Y16111572D01*
X-9422000Y16140143D01*
X-9450572Y16168715D01*
X-9479143Y16225858D01*
X-9479143Y16283000D01*
X-9450572Y16340143D01*
X-9422000Y16368715D01*
X-9364858Y16397286D01*
X-9250572Y16425858D01*
X-9193429Y16454429D01*
X-9164858Y16483000D01*
X-9136286Y16540143D01*
X-9136286Y16597286D01*
X-9164858Y16654429D01*
X-9193429Y16683000D01*
X-9250572Y16711572D01*
X-9393429Y16711572D01*
X-9479143Y16683000D01*
X-10079143Y16168715D02*
X-10050572Y16140143D01*
X-9964858Y16111572D01*
X-9907715Y16111572D01*
X-9822000Y16140143D01*
X-9764858Y16197286D01*
X-9736286Y16254429D01*
X-9707715Y16368715D01*
X-9707715Y16454429D01*
X-9736286Y16568715D01*
X-9764858Y16625858D01*
X-9822000Y16683000D01*
X-9907715Y16711572D01*
X-9964858Y16711572D01*
X-10050572Y16683000D01*
X-10079143Y16654429D01*
X-10193429Y16054429D02*
X-10650572Y16054429D01*
X-10793429Y16111572D02*
X-10793429Y16711572D01*
X-10993429Y16283000D01*
X-11193429Y16711572D01*
X-11193429Y16111572D01*
X-11593429Y16711572D02*
X-11707715Y16711572D01*
X-11764858Y16683000D01*
X-11822000Y16625858D01*
X-11850572Y16511572D01*
X-11850572Y16311572D01*
X-11822000Y16197286D01*
X-11764858Y16140143D01*
X-11707715Y16111572D01*
X-11593429Y16111572D01*
X-11536286Y16140143D01*
X-11479143Y16197286D01*
X-11450572Y16311572D01*
X-11450572Y16511572D01*
X-11479143Y16625858D01*
X-11536286Y16683000D01*
X-11593429Y16711572D01*
X-12079143Y16140143D02*
X-12164858Y16111572D01*
X-12307715Y16111572D01*
X-12364858Y16140143D01*
X-12393429Y16168715D01*
X-12422000Y16225858D01*
X-12422000Y16283000D01*
X-12393429Y16340143D01*
X-12364858Y16368715D01*
X-12307715Y16397286D01*
X-12193429Y16425858D01*
X-12136286Y16454429D01*
X-12107715Y16483000D01*
X-12079143Y16540143D01*
X-12079143Y16597286D01*
X-12107715Y16654429D01*
X-12136286Y16683000D01*
X-12193429Y16711572D01*
X-12336286Y16711572D01*
X-12422000Y16683000D01*
X-12679143Y16111572D02*
X-12679143Y16711572D01*
X-9009286Y13600143D02*
X-9095000Y13571572D01*
X-9237858Y13571572D01*
X-9295000Y13600143D01*
X-9323572Y13628715D01*
X-9352143Y13685858D01*
X-9352143Y13743000D01*
X-9323572Y13800143D01*
X-9295000Y13828715D01*
X-9237858Y13857286D01*
X-9123572Y13885858D01*
X-9066429Y13914429D01*
X-9037858Y13943000D01*
X-9009286Y14000143D01*
X-9009286Y14057286D01*
X-9037858Y14114429D01*
X-9066429Y14143000D01*
X-9123572Y14171572D01*
X-9266429Y14171572D01*
X-9352143Y14143000D01*
X-9952143Y13628715D02*
X-9923572Y13600143D01*
X-9837858Y13571572D01*
X-9780715Y13571572D01*
X-9695000Y13600143D01*
X-9637858Y13657286D01*
X-9609286Y13714429D01*
X-9580715Y13828715D01*
X-9580715Y13914429D01*
X-9609286Y14028715D01*
X-9637858Y14085858D01*
X-9695000Y14143000D01*
X-9780715Y14171572D01*
X-9837858Y14171572D01*
X-9923572Y14143000D01*
X-9952143Y14114429D01*
X-10066429Y13514429D02*
X-10523572Y13514429D01*
X-10666429Y13571572D02*
X-10666429Y14171572D01*
X-10866429Y13743000D01*
X-11066429Y14171572D01*
X-11066429Y13571572D01*
X-11352143Y13571572D02*
X-11352143Y14171572D01*
X-11609286Y13600143D02*
X-11695000Y13571572D01*
X-11837858Y13571572D01*
X-11895000Y13600143D01*
X-11923572Y13628715D01*
X-11952143Y13685858D01*
X-11952143Y13743000D01*
X-11923572Y13800143D01*
X-11895000Y13828715D01*
X-11837858Y13857286D01*
X-11723572Y13885858D01*
X-11666429Y13914429D01*
X-11637858Y13943000D01*
X-11609286Y14000143D01*
X-11609286Y14057286D01*
X-11637858Y14114429D01*
X-11666429Y14143000D01*
X-11723572Y14171572D01*
X-11866429Y14171572D01*
X-11952143Y14143000D01*
X-12323572Y14171572D02*
X-12437858Y14171572D01*
X-12495000Y14143000D01*
X-12552143Y14085858D01*
X-12580715Y13971572D01*
X-12580715Y13771572D01*
X-12552143Y13657286D01*
X-12495000Y13600143D01*
X-12437858Y13571572D01*
X-12323572Y13571572D01*
X-12266429Y13600143D01*
X-12209286Y13657286D01*
X-12180715Y13771572D01*
X-12180715Y13971572D01*
X-12209286Y14085858D01*
X-12266429Y14143000D01*
X-12323572Y14171572D01*
X13484000Y13559667D02*
X13384000Y13526334D01*
X13217333Y13526334D01*
X13150666Y13559667D01*
X13117333Y13593000D01*
X13084000Y13659667D01*
X13084000Y13726334D01*
X13117333Y13793000D01*
X13150666Y13826334D01*
X13217333Y13859667D01*
X13350666Y13893000D01*
X13417333Y13926334D01*
X13450666Y13959667D01*
X13484000Y14026334D01*
X13484000Y14093000D01*
X13450666Y14159667D01*
X13417333Y14193000D01*
X13350666Y14226334D01*
X13184000Y14226334D01*
X13084000Y14193000D01*
X12784000Y13526334D02*
X12784000Y14226334D01*
X12617333Y14226334D01*
X12517333Y14193000D01*
X12450666Y14126334D01*
X12417333Y14059667D01*
X12384000Y13926334D01*
X12384000Y13826334D01*
X12417333Y13693000D01*
X12450666Y13626334D01*
X12517333Y13559667D01*
X12617333Y13526334D01*
X12784000Y13526334D01*
X12250666Y13459667D02*
X11717333Y13459667D01*
X11150666Y13593000D02*
X11184000Y13559667D01*
X11284000Y13526334D01*
X11350666Y13526334D01*
X11450666Y13559667D01*
X11517333Y13626334D01*
X11550666Y13693000D01*
X11584000Y13826334D01*
X11584000Y13926334D01*
X11550666Y14059667D01*
X11517333Y14126334D01*
X11450666Y14193000D01*
X11350666Y14226334D01*
X11284000Y14226334D01*
X11184000Y14193000D01*
X11150666Y14159667D01*
X10517333Y13526334D02*
X10850666Y13526334D01*
X10850666Y14226334D01*
X10284000Y13526334D02*
X10284000Y14226334D01*
X9884000Y13526334D02*
X10184000Y13926334D01*
X9884000Y14226334D02*
X10284000Y13826334D01*
X18347000Y21949915D02*
X18347000Y21414200D01*
X18382714Y21307058D01*
X18454142Y21235629D01*
X18561285Y21199915D01*
X18632714Y21199915D01*
X17989857Y21199915D02*
X17989857Y21949915D01*
X17704142Y21949915D01*
X17632714Y21914200D01*
X17597000Y21878486D01*
X17561285Y21807058D01*
X17561285Y21699915D01*
X17597000Y21628486D01*
X17632714Y21592772D01*
X17704142Y21557058D01*
X17989857Y21557058D01*
X17418428Y21128486D02*
X16847000Y21128486D01*
X16525571Y21949915D02*
X16382714Y21949915D01*
X16311285Y21914200D01*
X16239857Y21842772D01*
X16204142Y21699915D01*
X16204142Y21449915D01*
X16239857Y21307058D01*
X16311285Y21235629D01*
X16382714Y21199915D01*
X16525571Y21199915D01*
X16597000Y21235629D01*
X16668428Y21307058D01*
X16704142Y21449915D01*
X16704142Y21699915D01*
X16668428Y21842772D01*
X16597000Y21914200D01*
X16525571Y21949915D01*
X15525571Y21199915D02*
X15882714Y21199915D01*
X15882714Y21949915D01*
X15275571Y21592772D02*
X15025571Y21592772D01*
X14918428Y21199915D02*
X15275571Y21199915D01*
X15275571Y21949915D01*
X14918428Y21949915D01*
X14597000Y21199915D02*
X14597000Y21949915D01*
X14418428Y21949915D01*
X14311285Y21914200D01*
X14239857Y21842772D01*
X14204142Y21771343D01*
X14168428Y21628486D01*
X14168428Y21521343D01*
X14204142Y21378486D01*
X14239857Y21307058D01*
X14311285Y21235629D01*
X14418428Y21199915D01*
X14597000Y21199915D01*
X14025571Y21128486D02*
X13454142Y21128486D01*
X12847000Y21199915D02*
X13097000Y21557058D01*
X13275571Y21199915D02*
X13275571Y21949915D01*
X12989857Y21949915D01*
X12918428Y21914200D01*
X12882714Y21878486D01*
X12847000Y21807058D01*
X12847000Y21699915D01*
X12882714Y21628486D01*
X12918428Y21592772D01*
X12989857Y21557058D01*
X13275571Y21557058D01*
X12382714Y21949915D02*
X12239857Y21949915D01*
X12168428Y21914200D01*
X12097000Y21842772D01*
X12061285Y21699915D01*
X12061285Y21449915D01*
X12097000Y21307058D01*
X12168428Y21235629D01*
X12239857Y21199915D01*
X12382714Y21199915D01*
X12454142Y21235629D01*
X12525571Y21307058D01*
X12561285Y21449915D01*
X12561285Y21699915D01*
X12525571Y21842772D01*
X12454142Y21914200D01*
X12382714Y21949915D01*
X11847000Y21949915D02*
X11418428Y21949915D01*
X11632714Y21199915D02*
X11632714Y21949915D01*
X11204142Y21414200D02*
X10847000Y21414200D01*
X11275571Y21199915D02*
X11025571Y21949915D01*
X10775571Y21199915D01*
X10632714Y21949915D02*
X10204142Y21949915D01*
X10418428Y21199915D02*
X10418428Y21949915D01*
X9954142Y21592772D02*
X9704142Y21592772D01*
X9597000Y21199915D02*
X9954142Y21199915D01*
X9954142Y21949915D01*
X9597000Y21949915D01*
X15954000Y24540715D02*
X15954000Y24005000D01*
X15989714Y23897858D01*
X16061142Y23826429D01*
X16168285Y23790715D01*
X16239714Y23790715D01*
X15596857Y23790715D02*
X15596857Y24540715D01*
X15311142Y24540715D01*
X15239714Y24505000D01*
X15204000Y24469286D01*
X15168285Y24397858D01*
X15168285Y24290715D01*
X15204000Y24219286D01*
X15239714Y24183572D01*
X15311142Y24147858D01*
X15596857Y24147858D01*
X15025428Y23719286D02*
X14454000Y23719286D01*
X14132571Y24540715D02*
X13989714Y24540715D01*
X13918285Y24505000D01*
X13846857Y24433572D01*
X13811142Y24290715D01*
X13811142Y24040715D01*
X13846857Y23897858D01*
X13918285Y23826429D01*
X13989714Y23790715D01*
X14132571Y23790715D01*
X14204000Y23826429D01*
X14275428Y23897858D01*
X14311142Y24040715D01*
X14311142Y24290715D01*
X14275428Y24433572D01*
X14204000Y24505000D01*
X14132571Y24540715D01*
X13132571Y23790715D02*
X13489714Y23790715D01*
X13489714Y24540715D01*
X12882571Y24183572D02*
X12632571Y24183572D01*
X12525428Y23790715D02*
X12882571Y23790715D01*
X12882571Y24540715D01*
X12525428Y24540715D01*
X12204000Y23790715D02*
X12204000Y24540715D01*
X12025428Y24540715D01*
X11918285Y24505000D01*
X11846857Y24433572D01*
X11811142Y24362143D01*
X11775428Y24219286D01*
X11775428Y24112143D01*
X11811142Y23969286D01*
X11846857Y23897858D01*
X11918285Y23826429D01*
X12025428Y23790715D01*
X12204000Y23790715D01*
X11632571Y23719286D02*
X11061142Y23719286D01*
X10882571Y23790715D02*
X10882571Y24540715D01*
X10704000Y24540715D01*
X10596857Y24505000D01*
X10525428Y24433572D01*
X10489714Y24362143D01*
X10454000Y24219286D01*
X10454000Y24112143D01*
X10489714Y23969286D01*
X10525428Y23897858D01*
X10596857Y23826429D01*
X10704000Y23790715D01*
X10882571Y23790715D01*
X9704000Y23790715D02*
X9954000Y24147858D01*
X10132571Y23790715D02*
X10132571Y24540715D01*
X9846857Y24540715D01*
X9775428Y24505000D01*
X9739714Y24469286D01*
X9704000Y24397858D01*
X9704000Y24290715D01*
X9739714Y24219286D01*
X9775428Y24183572D01*
X9846857Y24147858D01*
X10132571Y24147858D01*
X16640428Y27080715D02*
X16640428Y26545000D01*
X16676142Y26437858D01*
X16747571Y26366429D01*
X16854714Y26330715D01*
X16926142Y26330715D01*
X16283285Y26330715D02*
X16283285Y27080715D01*
X15997571Y27080715D01*
X15926142Y27045000D01*
X15890428Y27009286D01*
X15854714Y26937858D01*
X15854714Y26830715D01*
X15890428Y26759286D01*
X15926142Y26723572D01*
X15997571Y26687858D01*
X16283285Y26687858D01*
X15711857Y26259286D02*
X15140428Y26259286D01*
X14819000Y27080715D02*
X14676142Y27080715D01*
X14604714Y27045000D01*
X14533285Y26973572D01*
X14497571Y26830715D01*
X14497571Y26580715D01*
X14533285Y26437858D01*
X14604714Y26366429D01*
X14676142Y26330715D01*
X14819000Y26330715D01*
X14890428Y26366429D01*
X14961857Y26437858D01*
X14997571Y26580715D01*
X14997571Y26830715D01*
X14961857Y26973572D01*
X14890428Y27045000D01*
X14819000Y27080715D01*
X13819000Y26330715D02*
X14176142Y26330715D01*
X14176142Y27080715D01*
X13569000Y26723572D02*
X13319000Y26723572D01*
X13211857Y26330715D02*
X13569000Y26330715D01*
X13569000Y27080715D01*
X13211857Y27080715D01*
X12890428Y26330715D02*
X12890428Y27080715D01*
X12711857Y27080715D01*
X12604714Y27045000D01*
X12533285Y26973572D01*
X12497571Y26902143D01*
X12461857Y26759286D01*
X12461857Y26652143D01*
X12497571Y26509286D01*
X12533285Y26437858D01*
X12604714Y26366429D01*
X12711857Y26330715D01*
X12890428Y26330715D01*
X12319000Y26259286D02*
X11747571Y26259286D01*
X11140428Y26330715D02*
X11390428Y26687858D01*
X11569000Y26330715D02*
X11569000Y27080715D01*
X11283285Y27080715D01*
X11211857Y27045000D01*
X11176142Y27009286D01*
X11140428Y26937858D01*
X11140428Y26830715D01*
X11176142Y26759286D01*
X11211857Y26723572D01*
X11283285Y26687858D01*
X11569000Y26687858D01*
X10819000Y26723572D02*
X10569000Y26723572D01*
X10461857Y26330715D02*
X10819000Y26330715D01*
X10819000Y27080715D01*
X10461857Y27080715D01*
X10176142Y26366429D02*
X10069000Y26330715D01*
X9890428Y26330715D01*
X9819000Y26366429D01*
X9783285Y26402143D01*
X9747571Y26473572D01*
X9747571Y26545000D01*
X9783285Y26616429D01*
X9819000Y26652143D01*
X9890428Y26687858D01*
X10033285Y26723572D01*
X10104714Y26759286D01*
X10140428Y26795000D01*
X10176142Y26866429D01*
X10176142Y26937858D01*
X10140428Y27009286D01*
X10104714Y27045000D01*
X10033285Y27080715D01*
X9854714Y27080715D01*
X9747571Y27045000D01*
X16727857Y31410715D02*
X16727857Y32160715D01*
X16549285Y32160715D01*
X16442142Y32125000D01*
X16370714Y32053572D01*
X16335000Y31982143D01*
X16299285Y31839286D01*
X16299285Y31732143D01*
X16335000Y31589286D01*
X16370714Y31517858D01*
X16442142Y31446429D01*
X16549285Y31410715D01*
X16727857Y31410715D01*
X15977857Y31410715D02*
X15977857Y31910715D01*
X15977857Y32160715D02*
X16013571Y32125000D01*
X15977857Y32089286D01*
X15942142Y32125000D01*
X15977857Y32160715D01*
X15977857Y32089286D01*
X15656428Y31446429D02*
X15585000Y31410715D01*
X15442142Y31410715D01*
X15370714Y31446429D01*
X15335000Y31517858D01*
X15335000Y31553572D01*
X15370714Y31625000D01*
X15442142Y31660715D01*
X15549285Y31660715D01*
X15620714Y31696429D01*
X15656428Y31767858D01*
X15656428Y31803572D01*
X15620714Y31875000D01*
X15549285Y31910715D01*
X15442142Y31910715D01*
X15370714Y31875000D01*
X15013571Y31910715D02*
X15013571Y31160715D01*
X15013571Y31875000D02*
X14942142Y31910715D01*
X14799285Y31910715D01*
X14727857Y31875000D01*
X14692142Y31839286D01*
X14656428Y31767858D01*
X14656428Y31553572D01*
X14692142Y31482143D01*
X14727857Y31446429D01*
X14799285Y31410715D01*
X14942142Y31410715D01*
X15013571Y31446429D01*
X14227857Y31410715D02*
X14299285Y31446429D01*
X14335000Y31517858D01*
X14335000Y32160715D01*
X13620714Y31410715D02*
X13620714Y31803572D01*
X13656428Y31875000D01*
X13727857Y31910715D01*
X13870714Y31910715D01*
X13942142Y31875000D01*
X13620714Y31446429D02*
X13692142Y31410715D01*
X13870714Y31410715D01*
X13942142Y31446429D01*
X13977857Y31517858D01*
X13977857Y31589286D01*
X13942142Y31660715D01*
X13870714Y31696429D01*
X13692142Y31696429D01*
X13620714Y31732143D01*
X13335000Y31910715D02*
X13156428Y31410715D01*
X12977857Y31910715D02*
X13156428Y31410715D01*
X13227857Y31232143D01*
X13263571Y31196429D01*
X13335000Y31160715D01*
X12870714Y31339286D02*
X12299285Y31339286D01*
X12120714Y31410715D02*
X12120714Y32160715D01*
X11942142Y32160715D01*
X11835000Y32125000D01*
X11763571Y32053572D01*
X11727857Y31982143D01*
X11692142Y31839286D01*
X11692142Y31732143D01*
X11727857Y31589286D01*
X11763571Y31517858D01*
X11835000Y31446429D01*
X11942142Y31410715D01*
X12120714Y31410715D01*
X11049285Y31410715D02*
X11049285Y31803572D01*
X11085000Y31875000D01*
X11156428Y31910715D01*
X11299285Y31910715D01*
X11370714Y31875000D01*
X11049285Y31446429D02*
X11120714Y31410715D01*
X11299285Y31410715D01*
X11370714Y31446429D01*
X11406428Y31517858D01*
X11406428Y31589286D01*
X11370714Y31660715D01*
X11299285Y31696429D01*
X11120714Y31696429D01*
X11049285Y31732143D01*
X10799285Y31910715D02*
X10513571Y31910715D01*
X10692142Y32160715D02*
X10692142Y31517858D01*
X10656428Y31446429D01*
X10585000Y31410715D01*
X10513571Y31410715D01*
X9942142Y31410715D02*
X9942142Y31803572D01*
X9977857Y31875000D01*
X10049285Y31910715D01*
X10192142Y31910715D01*
X10263571Y31875000D01*
X9942142Y31446429D02*
X10013571Y31410715D01*
X10192142Y31410715D01*
X10263571Y31446429D01*
X10299285Y31517858D01*
X10299285Y31589286D01*
X10263571Y31660715D01*
X10192142Y31696429D01*
X10013571Y31696429D01*
X9942142Y31732143D01*
X17376714Y33950715D02*
X17376714Y34700715D01*
X17198142Y34700715D01*
X17091000Y34665000D01*
X17019571Y34593572D01*
X16983857Y34522143D01*
X16948142Y34379286D01*
X16948142Y34272143D01*
X16983857Y34129286D01*
X17019571Y34057858D01*
X17091000Y33986429D01*
X17198142Y33950715D01*
X17376714Y33950715D01*
X16626714Y33950715D02*
X16626714Y34450715D01*
X16626714Y34700715D02*
X16662428Y34665000D01*
X16626714Y34629286D01*
X16591000Y34665000D01*
X16626714Y34700715D01*
X16626714Y34629286D01*
X16305285Y33986429D02*
X16233857Y33950715D01*
X16091000Y33950715D01*
X16019571Y33986429D01*
X15983857Y34057858D01*
X15983857Y34093572D01*
X16019571Y34165000D01*
X16091000Y34200715D01*
X16198142Y34200715D01*
X16269571Y34236429D01*
X16305285Y34307858D01*
X16305285Y34343572D01*
X16269571Y34415000D01*
X16198142Y34450715D01*
X16091000Y34450715D01*
X16019571Y34415000D01*
X15662428Y34450715D02*
X15662428Y33700715D01*
X15662428Y34415000D02*
X15591000Y34450715D01*
X15448142Y34450715D01*
X15376714Y34415000D01*
X15341000Y34379286D01*
X15305285Y34307858D01*
X15305285Y34093572D01*
X15341000Y34022143D01*
X15376714Y33986429D01*
X15448142Y33950715D01*
X15591000Y33950715D01*
X15662428Y33986429D01*
X14876714Y33950715D02*
X14948142Y33986429D01*
X14983857Y34057858D01*
X14983857Y34700715D01*
X14269571Y33950715D02*
X14269571Y34343572D01*
X14305285Y34415000D01*
X14376714Y34450715D01*
X14519571Y34450715D01*
X14591000Y34415000D01*
X14269571Y33986429D02*
X14341000Y33950715D01*
X14519571Y33950715D01*
X14591000Y33986429D01*
X14626714Y34057858D01*
X14626714Y34129286D01*
X14591000Y34200715D01*
X14519571Y34236429D01*
X14341000Y34236429D01*
X14269571Y34272143D01*
X13983857Y34450715D02*
X13805285Y33950715D01*
X13626714Y34450715D02*
X13805285Y33950715D01*
X13876714Y33772143D01*
X13912428Y33736429D01*
X13983857Y33700715D01*
X13519571Y33879286D02*
X12948142Y33879286D01*
X12341000Y34022143D02*
X12376714Y33986429D01*
X12483857Y33950715D01*
X12555285Y33950715D01*
X12662428Y33986429D01*
X12733857Y34057858D01*
X12769571Y34129286D01*
X12805285Y34272143D01*
X12805285Y34379286D01*
X12769571Y34522143D01*
X12733857Y34593572D01*
X12662428Y34665000D01*
X12555285Y34700715D01*
X12483857Y34700715D01*
X12376714Y34665000D01*
X12341000Y34629286D01*
X11912428Y33950715D02*
X11983857Y33986429D01*
X12019571Y34057858D01*
X12019571Y34700715D01*
X11519571Y33950715D02*
X11591000Y33986429D01*
X11626714Y34022143D01*
X11662428Y34093572D01*
X11662428Y34307858D01*
X11626714Y34379286D01*
X11591000Y34415000D01*
X11519571Y34450715D01*
X11412428Y34450715D01*
X11341000Y34415000D01*
X11305285Y34379286D01*
X11269571Y34307858D01*
X11269571Y34093572D01*
X11305285Y34022143D01*
X11341000Y33986429D01*
X11412428Y33950715D01*
X11519571Y33950715D01*
X10626714Y33986429D02*
X10698142Y33950715D01*
X10841000Y33950715D01*
X10912428Y33986429D01*
X10948142Y34022143D01*
X10983857Y34093572D01*
X10983857Y34307858D01*
X10948142Y34379286D01*
X10912428Y34415000D01*
X10841000Y34450715D01*
X10698142Y34450715D01*
X10626714Y34415000D01*
X10305285Y33950715D02*
X10305285Y34700715D01*
X10233857Y34236429D02*
X10019571Y33950715D01*
X10019571Y34450715D02*
X10305285Y34165000D01*
X-33750477Y-32729419D02*
X-34512381Y-32729419D01*
X-35321905Y-32634180D02*
X-34988572Y-32157990D01*
X-34750477Y-32634180D02*
X-34750477Y-31634180D01*
X-35131429Y-31634180D01*
X-35226667Y-31681800D01*
X-35274286Y-31729419D01*
X-35321905Y-31824657D01*
X-35321905Y-31967514D01*
X-35274286Y-32062752D01*
X-35226667Y-32110371D01*
X-35131429Y-32157990D01*
X-34750477Y-32157990D01*
X-35750477Y-32634180D02*
X-35750477Y-31634180D01*
X-35988572Y-31634180D01*
X-36131429Y-31681800D01*
X-36226667Y-31777038D01*
X-36274286Y-31872276D01*
X-36321905Y-32062752D01*
X-36321905Y-32205609D01*
X-36274286Y-32396085D01*
X-36226667Y-32491323D01*
X-36131429Y-32586561D01*
X-35988572Y-32634180D01*
X-35750477Y-32634180D01*
X-36940953Y-32157990D02*
X-36940953Y-32634180D01*
X-36607620Y-31634180D02*
X-36940953Y-32157990D01*
X-37274286Y-31634180D01*
X-33258381Y-29960819D02*
X-34020286Y-29960819D01*
X-34210762Y-29817961D02*
X-34353620Y-29865580D01*
X-34591715Y-29865580D01*
X-34686953Y-29817961D01*
X-34734572Y-29770342D01*
X-34782191Y-29675104D01*
X-34782191Y-29579866D01*
X-34734572Y-29484628D01*
X-34686953Y-29437009D01*
X-34591715Y-29389390D01*
X-34401239Y-29341771D01*
X-34306000Y-29294152D01*
X-34258381Y-29246533D01*
X-34210762Y-29151295D01*
X-34210762Y-29056057D01*
X-34258381Y-28960819D01*
X-34306000Y-28913200D01*
X-34401239Y-28865580D01*
X-34639334Y-28865580D01*
X-34782191Y-28913200D01*
X-35210762Y-29865580D02*
X-35210762Y-28865580D01*
X-35686953Y-29865580D02*
X-35686953Y-28865580D01*
X-35925048Y-28865580D01*
X-36067905Y-28913200D01*
X-36163143Y-29008438D01*
X-36210762Y-29103676D01*
X-36258381Y-29294152D01*
X-36258381Y-29437009D01*
X-36210762Y-29627485D01*
X-36163143Y-29722723D01*
X-36067905Y-29817961D01*
X-35925048Y-29865580D01*
X-35686953Y-29865580D01*
X-36686953Y-29341771D02*
X-37020286Y-29341771D01*
X-37163143Y-29865580D02*
X-36686953Y-29865580D01*
X-36686953Y-28865580D01*
X-37163143Y-28865580D01*
X-32591572Y-27420819D02*
X-33353477Y-27420819D01*
X-33591572Y-27325580D02*
X-33591572Y-26325580D01*
X-33829667Y-26325580D01*
X-33972524Y-26373200D01*
X-34067763Y-26468438D01*
X-34115382Y-26563676D01*
X-34163001Y-26754152D01*
X-34163001Y-26897009D01*
X-34115382Y-27087485D01*
X-34067763Y-27182723D01*
X-33972524Y-27277961D01*
X-33829667Y-27325580D01*
X-33591572Y-27325580D01*
X-34591572Y-27325580D02*
X-34591572Y-26325580D01*
X-35163001Y-27325580D02*
X-34734429Y-26754152D01*
X-35163001Y-26325580D02*
X-34591572Y-26897009D01*
X-36163001Y-27325580D02*
X-35829667Y-26849390D01*
X-35591572Y-27325580D02*
X-35591572Y-26325580D01*
X-35972524Y-26325580D01*
X-36067763Y-26373200D01*
X-36115382Y-26420819D01*
X-36163001Y-26516057D01*
X-36163001Y-26658914D01*
X-36115382Y-26754152D01*
X-36067763Y-26801771D01*
X-35972524Y-26849390D01*
X-35591572Y-26849390D01*
X-36591572Y-27325580D02*
X-36591572Y-26325580D01*
X-36829667Y-26325580D01*
X-36972524Y-26373200D01*
X-37067763Y-26468438D01*
X-37115382Y-26563676D01*
X-37163001Y-26754152D01*
X-37163001Y-26897009D01*
X-37115382Y-27087485D01*
X-37067763Y-27182723D01*
X-36972524Y-27277961D01*
X-36829667Y-27325580D01*
X-36591572Y-27325580D01*
X-30639191Y-24880819D02*
X-31401095Y-24880819D01*
X-31543953Y-23785580D02*
X-31782048Y-24785580D01*
X-31972524Y-24071295D01*
X-32163000Y-24785580D01*
X-32401095Y-23785580D01*
X-33353476Y-24785580D02*
X-33020143Y-24309390D01*
X-32782048Y-24785580D02*
X-32782048Y-23785580D01*
X-33163000Y-23785580D01*
X-33258238Y-23833200D01*
X-33305857Y-23880819D01*
X-33353476Y-23976057D01*
X-33353476Y-24118914D01*
X-33305857Y-24214152D01*
X-33258238Y-24261771D01*
X-33163000Y-24309390D01*
X-32782048Y-24309390D01*
X-33782048Y-24785580D02*
X-33782048Y-23785580D01*
X-34163000Y-23785580D01*
X-34258238Y-23833200D01*
X-34305857Y-23880819D01*
X-34353476Y-23976057D01*
X-34353476Y-24118914D01*
X-34305857Y-24214152D01*
X-34258238Y-24261771D01*
X-34163000Y-24309390D01*
X-33782048Y-24309390D01*
X-35353476Y-24785580D02*
X-35020143Y-24309390D01*
X-34782048Y-24785580D02*
X-34782048Y-23785580D01*
X-35163000Y-23785580D01*
X-35258238Y-23833200D01*
X-35305857Y-23880819D01*
X-35353476Y-23976057D01*
X-35353476Y-24118914D01*
X-35305857Y-24214152D01*
X-35258238Y-24261771D01*
X-35163000Y-24309390D01*
X-34782048Y-24309390D01*
X-35972524Y-23785580D02*
X-36163000Y-23785580D01*
X-36258238Y-23833200D01*
X-36353476Y-23928438D01*
X-36401095Y-24118914D01*
X-36401095Y-24452247D01*
X-36353476Y-24642723D01*
X-36258238Y-24737961D01*
X-36163000Y-24785580D01*
X-35972524Y-24785580D01*
X-35877286Y-24737961D01*
X-35782048Y-24642723D01*
X-35734429Y-24452247D01*
X-35734429Y-24118914D01*
X-35782048Y-23928438D01*
X-35877286Y-23833200D01*
X-35972524Y-23785580D01*
X-36686810Y-23785580D02*
X-37258238Y-23785580D01*
X-36972524Y-24785580D02*
X-36972524Y-23785580D01*
X-32877286Y-22340819D02*
X-33639191Y-22340819D01*
X-33734429Y-21245580D02*
X-34305858Y-21245580D01*
X-34020143Y-22245580D02*
X-34020143Y-21245580D01*
X-35210620Y-22245580D02*
X-34877286Y-21769390D01*
X-34639191Y-22245580D02*
X-34639191Y-21245580D01*
X-35020143Y-21245580D01*
X-35115381Y-21293200D01*
X-35163001Y-21340819D01*
X-35210620Y-21436057D01*
X-35210620Y-21578914D01*
X-35163001Y-21674152D01*
X-35115381Y-21721771D01*
X-35020143Y-21769390D01*
X-34639191Y-21769390D01*
X-35639191Y-22245580D02*
X-35639191Y-21245580D01*
X-36210620Y-22245580D02*
X-35782048Y-21674152D01*
X-36210620Y-21245580D02*
X-35639191Y-21817009D01*
X-36829667Y-21245580D02*
X-36924905Y-21245580D01*
X-37020143Y-21293200D01*
X-37067762Y-21340819D01*
X-37115381Y-21436057D01*
X-37163001Y-21626533D01*
X-37163001Y-21864628D01*
X-37115381Y-22055104D01*
X-37067762Y-22150342D01*
X-37020143Y-22197961D01*
X-36924905Y-22245580D01*
X-36829667Y-22245580D01*
X-36734429Y-22197961D01*
X-36686810Y-22150342D01*
X-36639191Y-22055104D01*
X-36591572Y-21864628D01*
X-36591572Y-21626533D01*
X-36639191Y-21436057D01*
X-36686810Y-21340819D01*
X-36734429Y-21293200D01*
X-36829667Y-21245580D01*
X-32543953Y-19800819D02*
X-33305857Y-19800819D01*
X-33543953Y-19705580D02*
X-33543953Y-18705580D01*
X-33782048Y-18705580D01*
X-33924905Y-18753200D01*
X-34020143Y-18848438D01*
X-34067762Y-18943676D01*
X-34115381Y-19134152D01*
X-34115381Y-19277009D01*
X-34067762Y-19467485D01*
X-34020143Y-19562723D01*
X-33924905Y-19657961D01*
X-33782048Y-19705580D01*
X-33543953Y-19705580D01*
X-34543953Y-19705580D02*
X-34543953Y-18705580D01*
X-35115381Y-19705580D02*
X-34686810Y-19134152D01*
X-35115381Y-18705580D02*
X-34543953Y-19277009D01*
X-35448714Y-18705580D02*
X-35686810Y-19705580D01*
X-35877286Y-18991295D01*
X-36067762Y-19705580D01*
X-36305857Y-18705580D01*
X-36686810Y-19181771D02*
X-37020143Y-19181771D01*
X-37163000Y-19705580D02*
X-36686810Y-19705580D01*
X-36686810Y-18705580D01*
X-37163000Y-18705580D01*
X-32448715Y-17260819D02*
X-33210619Y-17260819D01*
X-33448715Y-17165580D02*
X-33448715Y-16165580D01*
X-33686810Y-16165580D01*
X-33829667Y-16213200D01*
X-33924905Y-16308438D01*
X-33972524Y-16403676D01*
X-34020143Y-16594152D01*
X-34020143Y-16737009D01*
X-33972524Y-16927485D01*
X-33924905Y-17022723D01*
X-33829667Y-17117961D01*
X-33686810Y-17165580D01*
X-33448715Y-17165580D01*
X-34448715Y-17165580D02*
X-34448715Y-16165580D01*
X-35020143Y-17165580D02*
X-34591572Y-16594152D01*
X-35020143Y-16165580D02*
X-34448715Y-16737009D01*
X-35353476Y-16165580D02*
X-35591572Y-17165580D01*
X-35782048Y-16451295D01*
X-35972524Y-17165580D01*
X-36210619Y-16165580D01*
X-36591572Y-17165580D02*
X-36591572Y-16165580D01*
X-36829667Y-16165580D01*
X-36972524Y-16213200D01*
X-37067762Y-16308438D01*
X-37115381Y-16403676D01*
X-37163000Y-16594152D01*
X-37163000Y-16737009D01*
X-37115381Y-16927485D01*
X-37067762Y-17022723D01*
X-36972524Y-17117961D01*
X-36829667Y-17165580D01*
X-36591572Y-17165580D01*
X-32972524Y-14720819D02*
X-33734429Y-14720819D01*
X-33924905Y-14577961D02*
X-34067762Y-14625580D01*
X-34305858Y-14625580D01*
X-34401096Y-14577961D01*
X-34448715Y-14530342D01*
X-34496334Y-14435104D01*
X-34496334Y-14339866D01*
X-34448715Y-14244628D01*
X-34401096Y-14197009D01*
X-34305858Y-14149390D01*
X-34115381Y-14101771D01*
X-34020143Y-14054152D01*
X-33972524Y-14006533D01*
X-33924905Y-13911295D01*
X-33924905Y-13816057D01*
X-33972524Y-13720819D01*
X-34020143Y-13673200D01*
X-34115381Y-13625580D01*
X-34353477Y-13625580D01*
X-34496334Y-13673200D01*
X-34782048Y-13625580D02*
X-35353477Y-13625580D01*
X-35067762Y-14625580D02*
X-35067762Y-13625580D01*
X-35686810Y-14101771D02*
X-36020143Y-14101771D01*
X-36163000Y-14625580D02*
X-35686810Y-14625580D01*
X-35686810Y-13625580D01*
X-36163000Y-13625580D01*
X-36591572Y-14625580D02*
X-36591572Y-13625580D01*
X-36972524Y-13625580D01*
X-37067762Y-13673200D01*
X-37115381Y-13720819D01*
X-37163001Y-13816057D01*
X-37163001Y-13958914D01*
X-37115381Y-14054152D01*
X-37067762Y-14101771D01*
X-36972524Y-14149390D01*
X-36591572Y-14149390D01*
X-34115382Y-12180819D02*
X-34877287Y-12180819D01*
X-35115382Y-12085580D02*
X-35115382Y-11085580D01*
X-35353477Y-11085580D01*
X-35496334Y-11133200D01*
X-35591572Y-11228438D01*
X-35639191Y-11323676D01*
X-35686810Y-11514152D01*
X-35686810Y-11657009D01*
X-35639191Y-11847485D01*
X-35591572Y-11942723D01*
X-35496334Y-12037961D01*
X-35353477Y-12085580D01*
X-35115382Y-12085580D01*
X-36115382Y-12085580D02*
X-36115382Y-11085580D01*
X-37163001Y-12085580D02*
X-36829668Y-11609390D01*
X-36591572Y-12085580D02*
X-36591572Y-11085580D01*
X-36972525Y-11085580D01*
X-37067763Y-11133200D01*
X-37115382Y-11180819D01*
X-37163001Y-11276057D01*
X-37163001Y-11418914D01*
X-37115382Y-11514152D01*
X-37067763Y-11561771D01*
X-36972525Y-11609390D01*
X-36591572Y-11609390D01*
X-30845524Y8088381D02*
X-31607429Y8088381D01*
X-31845524Y8183620D02*
X-31845524Y9183620D01*
X-32083620Y9183620D01*
X-32226477Y9136000D01*
X-32321715Y9040762D01*
X-32369334Y8945524D01*
X-32416953Y8755048D01*
X-32416953Y8612191D01*
X-32369334Y8421715D01*
X-32321715Y8326477D01*
X-32226477Y8231239D01*
X-32083620Y8183620D01*
X-31845524Y8183620D01*
X-32845524Y8707429D02*
X-33178858Y8707429D01*
X-33321715Y8183620D02*
X-32845524Y8183620D01*
X-32845524Y9183620D01*
X-33321715Y9183620D01*
X-33750286Y8183620D02*
X-33750286Y9183620D01*
X-34321715Y8183620D01*
X-34321715Y9183620D01*
X-34750286Y8231239D02*
X-34893143Y8183620D01*
X-35131239Y8183620D01*
X-35226477Y8231239D01*
X-35274096Y8278858D01*
X-35321715Y8374096D01*
X-35321715Y8469334D01*
X-35274096Y8564572D01*
X-35226477Y8612191D01*
X-35131239Y8659810D01*
X-34940762Y8707429D01*
X-34845524Y8755048D01*
X-34797905Y8802667D01*
X-34750286Y8897905D01*
X-34750286Y8993143D01*
X-34797905Y9088381D01*
X-34845524Y9136000D01*
X-34940762Y9183620D01*
X-35178858Y9183620D01*
X-35321715Y9136000D01*
X-35750286Y8707429D02*
X-36083620Y8707429D01*
X-36226477Y8183620D02*
X-35750286Y8183620D01*
X-35750286Y9183620D01*
X-36226477Y9183620D01*
X-37131239Y8183620D02*
X-36655048Y8183620D01*
X-36655048Y9183620D01*
X-31877286Y5742039D02*
X-32020143Y5694420D01*
X-32258239Y5694420D01*
X-32353477Y5742039D01*
X-32401096Y5789658D01*
X-32448715Y5884896D01*
X-32448715Y5980134D01*
X-32401096Y6075372D01*
X-32353477Y6122991D01*
X-32258239Y6170610D01*
X-32067763Y6218229D01*
X-31972524Y6265848D01*
X-31924905Y6313467D01*
X-31877286Y6408705D01*
X-31877286Y6503943D01*
X-31924905Y6599181D01*
X-31972524Y6646800D01*
X-32067763Y6694420D01*
X-32305858Y6694420D01*
X-32448715Y6646800D01*
X-32877286Y5694420D02*
X-32877286Y6694420D01*
X-33258239Y6694420D01*
X-33353477Y6646800D01*
X-33401096Y6599181D01*
X-33448715Y6503943D01*
X-33448715Y6361086D01*
X-33401096Y6265848D01*
X-33353477Y6218229D01*
X-33258239Y6170610D01*
X-32877286Y6170610D01*
X-33829667Y5980134D02*
X-34305858Y5980134D01*
X-33734429Y5694420D02*
X-34067763Y6694420D01*
X-34401096Y5694420D01*
X-35305858Y5694420D02*
X-34972524Y6170610D01*
X-34734429Y5694420D02*
X-34734429Y6694420D01*
X-35115382Y6694420D01*
X-35210620Y6646800D01*
X-35258239Y6599181D01*
X-35305858Y6503943D01*
X-35305858Y6361086D01*
X-35258239Y6265848D01*
X-35210620Y6218229D01*
X-35115382Y6170610D01*
X-34734429Y6170610D01*
X-35734429Y6218229D02*
X-36067763Y6218229D01*
X-36210620Y5694420D02*
X-35734429Y5694420D01*
X-35734429Y6694420D01*
X-36210620Y6694420D01*
X-37163001Y5694420D02*
X-36591572Y5694420D01*
X-36877286Y5694420D02*
X-36877286Y6694420D01*
X-36782048Y6551562D01*
X-36686810Y6456324D01*
X-36591572Y6408705D01*
X-31901143Y3202039D02*
X-32044000Y3154420D01*
X-32282096Y3154420D01*
X-32377334Y3202039D01*
X-32424953Y3249658D01*
X-32472572Y3344896D01*
X-32472572Y3440134D01*
X-32424953Y3535372D01*
X-32377334Y3582991D01*
X-32282096Y3630610D01*
X-32091620Y3678229D01*
X-31996381Y3725848D01*
X-31948762Y3773467D01*
X-31901143Y3868705D01*
X-31901143Y3963943D01*
X-31948762Y4059181D01*
X-31996381Y4106800D01*
X-32091620Y4154420D01*
X-32329715Y4154420D01*
X-32472572Y4106800D01*
X-32901143Y3154420D02*
X-32901143Y4154420D01*
X-33282096Y4154420D01*
X-33377334Y4106800D01*
X-33424953Y4059181D01*
X-33472572Y3963943D01*
X-33472572Y3821086D01*
X-33424953Y3725848D01*
X-33377334Y3678229D01*
X-33282096Y3630610D01*
X-32901143Y3630610D01*
X-33853524Y3440134D02*
X-34329715Y3440134D01*
X-33758286Y3154420D02*
X-34091620Y4154420D01*
X-34424953Y3154420D01*
X-35329715Y3154420D02*
X-34996381Y3630610D01*
X-34758286Y3154420D02*
X-34758286Y4154420D01*
X-35139239Y4154420D01*
X-35234477Y4106800D01*
X-35282096Y4059181D01*
X-35329715Y3963943D01*
X-35329715Y3821086D01*
X-35282096Y3725848D01*
X-35234477Y3678229D01*
X-35139239Y3630610D01*
X-34758286Y3630610D01*
X-35758286Y3678229D02*
X-36091620Y3678229D01*
X-36234477Y3154420D02*
X-35758286Y3154420D01*
X-35758286Y4154420D01*
X-36234477Y4154420D01*
X-36615429Y4059181D02*
X-36663048Y4106800D01*
X-36758286Y4154420D01*
X-36996381Y4154420D01*
X-37091620Y4106800D01*
X-37139239Y4059181D01*
X-37186858Y3963943D01*
X-37186858Y3868705D01*
X-37139239Y3725848D01*
X-36567810Y3154420D01*
X-37186858Y3154420D01*
X-32226572Y519181D02*
X-32988477Y519181D01*
X-33226572Y614420D02*
X-33226572Y1614420D01*
X-33702762Y614420D02*
X-33702762Y1614420D01*
X-34274191Y614420D01*
X-34274191Y1614420D01*
X-34750381Y614420D02*
X-34750381Y1614420D01*
X-34988477Y1614420D01*
X-35131334Y1566800D01*
X-35226572Y1471562D01*
X-35274191Y1376324D01*
X-35321810Y1185848D01*
X-35321810Y1042991D01*
X-35274191Y852515D01*
X-35226572Y757277D01*
X-35131334Y662039D01*
X-34988477Y614420D01*
X-34750381Y614420D01*
X-35750381Y1138229D02*
X-36083715Y1138229D01*
X-36226572Y614420D02*
X-35750381Y614420D01*
X-35750381Y1614420D01*
X-36226572Y1614420D01*
X-36559905Y1614420D02*
X-37226572Y614420D01*
X-37226572Y1614420D02*
X-36559905Y614420D01*
X-32742477Y-9640819D02*
X-33504381Y-9640819D01*
X-33742477Y-9545580D02*
X-33742477Y-8545580D01*
X-34075810Y-9259866D01*
X-34409143Y-8545580D01*
X-34409143Y-9545580D01*
X-34742477Y-8545580D02*
X-35313905Y-8545580D01*
X-35028191Y-9545580D02*
X-35028191Y-8545580D01*
X-36218667Y-9545580D02*
X-35885334Y-9069390D01*
X-35647239Y-9545580D02*
X-35647239Y-8545580D01*
X-36028191Y-8545580D01*
X-36123429Y-8593200D01*
X-36171048Y-8640819D01*
X-36218667Y-8736057D01*
X-36218667Y-8878914D01*
X-36171048Y-8974152D01*
X-36123429Y-9021771D01*
X-36028191Y-9069390D01*
X-35647239Y-9069390D01*
X-37171048Y-9545580D02*
X-36599620Y-9545580D01*
X-36885334Y-9545580D02*
X-36885334Y-8545580D01*
X-36790096Y-8688438D01*
X-36694858Y-8783676D01*
X-36599620Y-8831295D01*
X-32972524Y-7100819D02*
X-33734429Y-7100819D01*
X-33924905Y-6957961D02*
X-34067762Y-7005580D01*
X-34305858Y-7005580D01*
X-34401096Y-6957961D01*
X-34448715Y-6910342D01*
X-34496334Y-6815104D01*
X-34496334Y-6719866D01*
X-34448715Y-6624628D01*
X-34401096Y-6577009D01*
X-34305858Y-6529390D01*
X-34115381Y-6481771D01*
X-34020143Y-6434152D01*
X-33972524Y-6386533D01*
X-33924905Y-6291295D01*
X-33924905Y-6196057D01*
X-33972524Y-6100819D01*
X-34020143Y-6053200D01*
X-34115381Y-6005580D01*
X-34353477Y-6005580D01*
X-34496334Y-6053200D01*
X-34924905Y-6481771D02*
X-35258239Y-6481771D01*
X-35401096Y-7005580D02*
X-34924905Y-7005580D01*
X-34924905Y-6005580D01*
X-35401096Y-6005580D01*
X-36305858Y-7005580D02*
X-35829667Y-7005580D01*
X-35829667Y-6005580D01*
X-36829667Y-6005580D02*
X-36924905Y-6005580D01*
X-37020143Y-6053200D01*
X-37067762Y-6100819D01*
X-37115381Y-6196057D01*
X-37163001Y-6386533D01*
X-37163001Y-6624628D01*
X-37115381Y-6815104D01*
X-37067762Y-6910342D01*
X-37020143Y-6957961D01*
X-36924905Y-7005580D01*
X-36829667Y-7005580D01*
X-36734429Y-6957961D01*
X-36686810Y-6910342D01*
X-36639191Y-6815104D01*
X-36591572Y-6624628D01*
X-36591572Y-6386533D01*
X-36639191Y-6196057D01*
X-36686810Y-6100819D01*
X-36734429Y-6053200D01*
X-36829667Y-6005580D01*
X-32972524Y-4560819D02*
X-33734429Y-4560819D01*
X-33924905Y-4417961D02*
X-34067762Y-4465580D01*
X-34305858Y-4465580D01*
X-34401096Y-4417961D01*
X-34448715Y-4370342D01*
X-34496334Y-4275104D01*
X-34496334Y-4179866D01*
X-34448715Y-4084628D01*
X-34401096Y-4037009D01*
X-34305858Y-3989390D01*
X-34115381Y-3941771D01*
X-34020143Y-3894152D01*
X-33972524Y-3846533D01*
X-33924905Y-3751295D01*
X-33924905Y-3656057D01*
X-33972524Y-3560819D01*
X-34020143Y-3513200D01*
X-34115381Y-3465580D01*
X-34353477Y-3465580D01*
X-34496334Y-3513200D01*
X-34924905Y-3941771D02*
X-35258239Y-3941771D01*
X-35401096Y-4465580D02*
X-34924905Y-4465580D01*
X-34924905Y-3465580D01*
X-35401096Y-3465580D01*
X-36305858Y-4465580D02*
X-35829667Y-4465580D01*
X-35829667Y-3465580D01*
X-37163001Y-4465580D02*
X-36591572Y-4465580D01*
X-36877286Y-4465580D02*
X-36877286Y-3465580D01*
X-36782048Y-3608438D01*
X-36686810Y-3703676D01*
X-36591572Y-3751295D01*
X-32742477Y-2020819D02*
X-33504381Y-2020819D01*
X-33742477Y-1925580D02*
X-33742477Y-925580D01*
X-34075810Y-1639866D01*
X-34409143Y-925580D01*
X-34409143Y-1925580D01*
X-34742477Y-925580D02*
X-35313905Y-925580D01*
X-35028191Y-1925580D02*
X-35028191Y-925580D01*
X-36218667Y-1925580D02*
X-35885334Y-1449390D01*
X-35647239Y-1925580D02*
X-35647239Y-925580D01*
X-36028191Y-925580D01*
X-36123429Y-973200D01*
X-36171048Y-1020819D01*
X-36218667Y-1116057D01*
X-36218667Y-1258914D01*
X-36171048Y-1354152D01*
X-36123429Y-1401771D01*
X-36028191Y-1449390D01*
X-35647239Y-1449390D01*
X-36837715Y-925580D02*
X-36932953Y-925580D01*
X-37028191Y-973200D01*
X-37075810Y-1020819D01*
X-37123429Y-1116057D01*
X-37171048Y-1306533D01*
X-37171048Y-1544628D01*
X-37123429Y-1735104D01*
X-37075810Y-1830342D01*
X-37028191Y-1877961D01*
X-36932953Y-1925580D01*
X-36837715Y-1925580D01*
X-36742477Y-1877961D01*
X-36694858Y-1830342D01*
X-36647239Y-1735104D01*
X-36599620Y-1544628D01*
X-36599620Y-1306533D01*
X-36647239Y-1116057D01*
X-36694858Y-1020819D01*
X-36742477Y-973200D01*
X-36837715Y-925580D01*
X65396857Y29942286D02*
X64825428Y29942286D01*
X64682571Y30049429D02*
X64575428Y30013715D01*
X64396857Y30013715D01*
X64325428Y30049429D01*
X64289714Y30085143D01*
X64254000Y30156572D01*
X64254000Y30228000D01*
X64289714Y30299429D01*
X64325428Y30335143D01*
X64396857Y30370858D01*
X64539714Y30406572D01*
X64611142Y30442286D01*
X64646857Y30478000D01*
X64682571Y30549429D01*
X64682571Y30620858D01*
X64646857Y30692286D01*
X64611142Y30728000D01*
X64539714Y30763715D01*
X64361142Y30763715D01*
X64254000Y30728000D01*
X63932571Y30406572D02*
X63682571Y30406572D01*
X63575428Y30013715D02*
X63932571Y30013715D01*
X63932571Y30763715D01*
X63575428Y30763715D01*
X62896857Y30013715D02*
X63254000Y30013715D01*
X63254000Y30763715D01*
X62254000Y30013715D02*
X62682571Y30013715D01*
X62468285Y30013715D02*
X62468285Y30763715D01*
X62539714Y30656572D01*
X62611142Y30585143D01*
X62682571Y30549429D01*
X65486142Y32609286D02*
X64914714Y32609286D01*
X64736142Y32680715D02*
X64736142Y33430715D01*
X64486142Y32895000D01*
X64236142Y33430715D01*
X64236142Y32680715D01*
X63986142Y33430715D02*
X63557571Y33430715D01*
X63771857Y32680715D02*
X63771857Y33430715D01*
X62879000Y32680715D02*
X63129000Y33037858D01*
X63307571Y32680715D02*
X63307571Y33430715D01*
X63021857Y33430715D01*
X62950428Y33395000D01*
X62914714Y33359286D01*
X62879000Y33287858D01*
X62879000Y33180715D01*
X62914714Y33109286D01*
X62950428Y33073572D01*
X63021857Y33037858D01*
X63307571Y33037858D01*
X62164714Y32680715D02*
X62593285Y32680715D01*
X62379000Y32680715D02*
X62379000Y33430715D01*
X62450428Y33323572D01*
X62521857Y33252143D01*
X62593285Y33216429D01*
X65269857Y35022286D02*
X64698428Y35022286D01*
X64555571Y35129429D02*
X64448428Y35093715D01*
X64269857Y35093715D01*
X64198428Y35129429D01*
X64162714Y35165143D01*
X64127000Y35236572D01*
X64127000Y35308000D01*
X64162714Y35379429D01*
X64198428Y35415143D01*
X64269857Y35450858D01*
X64412714Y35486572D01*
X64484142Y35522286D01*
X64519857Y35558000D01*
X64555571Y35629429D01*
X64555571Y35700858D01*
X64519857Y35772286D01*
X64484142Y35808000D01*
X64412714Y35843715D01*
X64234142Y35843715D01*
X64127000Y35808000D01*
X63805571Y35486572D02*
X63555571Y35486572D01*
X63448428Y35093715D02*
X63805571Y35093715D01*
X63805571Y35843715D01*
X63448428Y35843715D01*
X62769857Y35093715D02*
X63127000Y35093715D01*
X63127000Y35843715D01*
X62377000Y35843715D02*
X62305571Y35843715D01*
X62234142Y35808000D01*
X62198428Y35772286D01*
X62162714Y35700858D01*
X62127000Y35558000D01*
X62127000Y35379429D01*
X62162714Y35236572D01*
X62198428Y35165143D01*
X62234142Y35129429D01*
X62305571Y35093715D01*
X62377000Y35093715D01*
X62448428Y35129429D01*
X62484142Y35165143D01*
X62519857Y35236572D01*
X62555571Y35379429D01*
X62555571Y35558000D01*
X62519857Y35700858D01*
X62484142Y35772286D01*
X62448428Y35808000D01*
X62377000Y35843715D01*
X65613142Y37562286D02*
X65041714Y37562286D01*
X64863142Y37633715D02*
X64863142Y38383715D01*
X64613142Y37848000D01*
X64363142Y38383715D01*
X64363142Y37633715D01*
X64113142Y38383715D02*
X63684571Y38383715D01*
X63898857Y37633715D02*
X63898857Y38383715D01*
X63006000Y37633715D02*
X63256000Y37990858D01*
X63434571Y37633715D02*
X63434571Y38383715D01*
X63148857Y38383715D01*
X63077428Y38348000D01*
X63041714Y38312286D01*
X63006000Y38240858D01*
X63006000Y38133715D01*
X63041714Y38062286D01*
X63077428Y38026572D01*
X63148857Y37990858D01*
X63434571Y37990858D01*
X62541714Y38383715D02*
X62470285Y38383715D01*
X62398857Y38348000D01*
X62363142Y38312286D01*
X62327428Y38240858D01*
X62291714Y38098000D01*
X62291714Y37919429D01*
X62327428Y37776572D01*
X62363142Y37705143D01*
X62398857Y37669429D01*
X62470285Y37633715D01*
X62541714Y37633715D01*
X62613142Y37669429D01*
X62648857Y37705143D01*
X62684571Y37776572D01*
X62720285Y37919429D01*
X62720285Y38098000D01*
X62684571Y38240858D01*
X62648857Y38312286D01*
X62613142Y38348000D01*
X62541714Y38383715D01*
X-9007667Y28826667D02*
X-9541000Y28826667D01*
X-9674334Y28926667D02*
X-9774334Y28893334D01*
X-9941000Y28893334D01*
X-10007667Y28926667D01*
X-10041000Y28960000D01*
X-10074334Y29026667D01*
X-10074334Y29093334D01*
X-10041000Y29160000D01*
X-10007667Y29193334D01*
X-9941000Y29226667D01*
X-9807667Y29260000D01*
X-9741000Y29293334D01*
X-9707667Y29326667D01*
X-9674334Y29393334D01*
X-9674334Y29460000D01*
X-9707667Y29526667D01*
X-9741000Y29560000D01*
X-9807667Y29593334D01*
X-9974334Y29593334D01*
X-10074334Y29560000D01*
X-10374334Y29260000D02*
X-10607667Y29260000D01*
X-10707667Y28893334D02*
X-10374334Y28893334D01*
X-10374334Y29593334D01*
X-10707667Y29593334D01*
X-11341000Y28893334D02*
X-11007667Y28893334D01*
X-11007667Y29593334D01*
X-11707667Y29593334D02*
X-11774334Y29593334D01*
X-11841000Y29560000D01*
X-11874334Y29526667D01*
X-11907667Y29460000D01*
X-11941000Y29326667D01*
X-11941000Y29160000D01*
X-11907667Y29026667D01*
X-11874334Y28960000D01*
X-11841000Y28926667D01*
X-11774334Y28893334D01*
X-11707667Y28893334D01*
X-11641000Y28926667D01*
X-11607667Y28960000D01*
X-11574334Y29026667D01*
X-11541000Y29160000D01*
X-11541000Y29326667D01*
X-11574334Y29460000D01*
X-11607667Y29526667D01*
X-11641000Y29560000D01*
X-11707667Y29593334D01*
X13326857Y28799286D02*
X12755428Y28799286D01*
X12612571Y28906429D02*
X12505428Y28870715D01*
X12326857Y28870715D01*
X12255428Y28906429D01*
X12219714Y28942143D01*
X12184000Y29013572D01*
X12184000Y29085000D01*
X12219714Y29156429D01*
X12255428Y29192143D01*
X12326857Y29227858D01*
X12469714Y29263572D01*
X12541142Y29299286D01*
X12576857Y29335000D01*
X12612571Y29406429D01*
X12612571Y29477858D01*
X12576857Y29549286D01*
X12541142Y29585000D01*
X12469714Y29620715D01*
X12291142Y29620715D01*
X12184000Y29585000D01*
X11862571Y29263572D02*
X11612571Y29263572D01*
X11505428Y28870715D02*
X11862571Y28870715D01*
X11862571Y29620715D01*
X11505428Y29620715D01*
X10826857Y28870715D02*
X11184000Y28870715D01*
X11184000Y29620715D01*
X10184000Y28870715D02*
X10612571Y28870715D01*
X10398285Y28870715D02*
X10398285Y29620715D01*
X10469714Y29513572D01*
X10541142Y29442143D01*
X10612571Y29406429D01*
X102425428Y16885000D02*
X102496857Y16920715D01*
X102604000Y16920715D01*
X102711142Y16885000D01*
X102782571Y16813572D01*
X102818285Y16742143D01*
X102854000Y16599286D01*
X102854000Y16492143D01*
X102818285Y16349286D01*
X102782571Y16277858D01*
X102711142Y16206429D01*
X102604000Y16170715D01*
X102532571Y16170715D01*
X102425428Y16206429D01*
X102389714Y16242143D01*
X102389714Y16492143D01*
X102532571Y16492143D01*
X102068285Y16170715D02*
X102068285Y16920715D01*
X101639714Y16170715D01*
X101639714Y16920715D01*
X101282571Y16170715D02*
X101282571Y16920715D01*
X101104000Y16920715D01*
X100996857Y16885000D01*
X100925428Y16813572D01*
X100889714Y16742143D01*
X100854000Y16599286D01*
X100854000Y16492143D01*
X100889714Y16349286D01*
X100925428Y16277858D01*
X100996857Y16206429D01*
X101104000Y16170715D01*
X101282571Y16170715D01*
X102782571Y11162143D02*
X102818285Y11126429D01*
X102925428Y11090715D01*
X102996857Y11090715D01*
X103104000Y11126429D01*
X103175428Y11197858D01*
X103211142Y11269286D01*
X103246857Y11412143D01*
X103246857Y11519286D01*
X103211142Y11662143D01*
X103175428Y11733572D01*
X103104000Y11805000D01*
X102996857Y11840715D01*
X102925428Y11840715D01*
X102818285Y11805000D01*
X102782571Y11769286D01*
X102354000Y11090715D02*
X102425428Y11126429D01*
X102461142Y11197858D01*
X102461142Y11840715D01*
X101961142Y11090715D02*
X102032571Y11126429D01*
X102068285Y11162143D01*
X102104000Y11233572D01*
X102104000Y11447858D01*
X102068285Y11519286D01*
X102032571Y11555000D01*
X101961142Y11590715D01*
X101854000Y11590715D01*
X101782571Y11555000D01*
X101746857Y11519286D01*
X101711142Y11447858D01*
X101711142Y11233572D01*
X101746857Y11162143D01*
X101782571Y11126429D01*
X101854000Y11090715D01*
X101961142Y11090715D01*
X101068285Y11126429D02*
X101139714Y11090715D01*
X101282571Y11090715D01*
X101354000Y11126429D01*
X101389714Y11162143D01*
X101425428Y11233572D01*
X101425428Y11447858D01*
X101389714Y11519286D01*
X101354000Y11555000D01*
X101282571Y11590715D01*
X101139714Y11590715D01*
X101068285Y11555000D01*
X100746857Y11090715D02*
X100746857Y11840715D01*
X100675428Y11376429D02*
X100461142Y11090715D01*
X100461142Y11590715D02*
X100746857Y11305000D01*
X102943285Y8550715D02*
X102943285Y9300715D01*
X102764714Y9300715D01*
X102657571Y9265000D01*
X102586142Y9193572D01*
X102550428Y9122143D01*
X102514714Y8979286D01*
X102514714Y8872143D01*
X102550428Y8729286D01*
X102586142Y8657858D01*
X102657571Y8586429D01*
X102764714Y8550715D01*
X102943285Y8550715D01*
X101871857Y8550715D02*
X101871857Y8943572D01*
X101907571Y9015000D01*
X101979000Y9050715D01*
X102121857Y9050715D01*
X102193285Y9015000D01*
X101871857Y8586429D02*
X101943285Y8550715D01*
X102121857Y8550715D01*
X102193285Y8586429D01*
X102229000Y8657858D01*
X102229000Y8729286D01*
X102193285Y8800715D01*
X102121857Y8836429D01*
X101943285Y8836429D01*
X101871857Y8872143D01*
X101621857Y9050715D02*
X101336142Y9050715D01*
X101514714Y9300715D02*
X101514714Y8657858D01*
X101479000Y8586429D01*
X101407571Y8550715D01*
X101336142Y8550715D01*
X100764714Y8550715D02*
X100764714Y8943572D01*
X100800428Y9015000D01*
X100871857Y9050715D01*
X101014714Y9050715D01*
X101086142Y9015000D01*
X100764714Y8586429D02*
X100836142Y8550715D01*
X101014714Y8550715D01*
X101086142Y8586429D01*
X101121857Y8657858D01*
X101121857Y8729286D01*
X101086142Y8800715D01*
X101014714Y8836429D01*
X100836142Y8836429D01*
X100764714Y8872143D01*
X102854000Y14380715D02*
X102604000Y13630715D01*
X102354000Y14380715D01*
X101675428Y13702143D02*
X101711142Y13666429D01*
X101818285Y13630715D01*
X101889714Y13630715D01*
X101996857Y13666429D01*
X102068285Y13737858D01*
X102104000Y13809286D01*
X102139714Y13952143D01*
X102139714Y14059286D01*
X102104000Y14202143D01*
X102068285Y14273572D01*
X101996857Y14345000D01*
X101889714Y14380715D01*
X101818285Y14380715D01*
X101711142Y14345000D01*
X101675428Y14309286D01*
X100925428Y13702143D02*
X100961142Y13666429D01*
X101068285Y13630715D01*
X101139714Y13630715D01*
X101246857Y13666429D01*
X101318285Y13737858D01*
X101354000Y13809286D01*
X101389714Y13952143D01*
X101389714Y14059286D01*
X101354000Y14202143D01*
X101318285Y14273572D01*
X101246857Y14345000D01*
X101139714Y14380715D01*
X101068285Y14380715D01*
X100961142Y14345000D01*
X100925428Y14309286D01*
X96646619Y15208929D02*
X96979952Y15208929D01*
X96979952Y14685120D02*
X96979952Y15685120D01*
X96503761Y15685120D01*
X95979952Y14685120D02*
X96075190Y14732739D01*
X96122809Y14780358D01*
X96170428Y14875596D01*
X96170428Y15161310D01*
X96122809Y15256548D01*
X96075190Y15304167D01*
X95979952Y15351786D01*
X95837095Y15351786D01*
X95741857Y15304167D01*
X95694238Y15256548D01*
X95646619Y15161310D01*
X95646619Y14875596D01*
X95694238Y14780358D01*
X95741857Y14732739D01*
X95837095Y14685120D01*
X95979952Y14685120D01*
X95218047Y14685120D02*
X95218047Y15351786D01*
X95218047Y15161310D02*
X95170428Y15256548D01*
X95122809Y15304167D01*
X95027571Y15351786D01*
X94932333Y15351786D01*
X93646619Y15685120D02*
X93551380Y15685120D01*
X93456142Y15637500D01*
X93408523Y15589881D01*
X93360904Y15494643D01*
X93313285Y15304167D01*
X93313285Y15066072D01*
X93360904Y14875596D01*
X93408523Y14780358D01*
X93456142Y14732739D01*
X93551380Y14685120D01*
X93646619Y14685120D01*
X93741857Y14732739D01*
X93789476Y14780358D01*
X93837095Y14875596D01*
X93884714Y15066072D01*
X93884714Y15304167D01*
X93837095Y15494643D01*
X93789476Y15589881D01*
X93741857Y15637500D01*
X93646619Y15685120D01*
X92884714Y14780358D02*
X92837095Y14732739D01*
X92884714Y14685120D01*
X92932333Y14732739D01*
X92884714Y14780358D01*
X92884714Y14685120D01*
X92360904Y14685120D02*
X92170428Y14685120D01*
X92075190Y14732739D01*
X92027571Y14780358D01*
X91932333Y14923215D01*
X91884714Y15113691D01*
X91884714Y15494643D01*
X91932333Y15589881D01*
X91979952Y15637500D01*
X92075190Y15685120D01*
X92265666Y15685120D01*
X92360904Y15637500D01*
X92408523Y15589881D01*
X92456142Y15494643D01*
X92456142Y15256548D01*
X92408523Y15161310D01*
X92360904Y15113691D01*
X92265666Y15066072D01*
X92075190Y15066072D01*
X91979952Y15113691D01*
X91932333Y15161310D01*
X91884714Y15256548D01*
X91027571Y15685120D02*
X91218047Y15685120D01*
X91313285Y15637500D01*
X91360904Y15589881D01*
X91456142Y15447024D01*
X91503761Y15256548D01*
X91503761Y14875596D01*
X91456142Y14780358D01*
X91408523Y14732739D01*
X91313285Y14685120D01*
X91122809Y14685120D01*
X91027571Y14732739D01*
X90979952Y14780358D01*
X90932333Y14875596D01*
X90932333Y15113691D01*
X90979952Y15208929D01*
X91027571Y15256548D01*
X91122809Y15304167D01*
X91313285Y15304167D01*
X91408523Y15256548D01*
X91456142Y15208929D01*
X91503761Y15113691D01*
X90551380Y15685120D02*
X90551380Y15494643D01*
X90170428Y15685120D02*
X90170428Y15494643D01*
X95622809Y13060120D02*
X96194238Y13060120D01*
X95908523Y13060120D02*
X95908523Y14060120D01*
X96003761Y13917262D01*
X96099000Y13822024D01*
X96194238Y13774405D01*
X95241857Y13964881D02*
X95194238Y14012500D01*
X95099000Y14060120D01*
X94860904Y14060120D01*
X94765666Y14012500D01*
X94718047Y13964881D01*
X94670428Y13869643D01*
X94670428Y13774405D01*
X94718047Y13631548D01*
X95289476Y13060120D01*
X94670428Y13060120D01*
X94099000Y13631548D02*
X94194238Y13679167D01*
X94241857Y13726786D01*
X94289476Y13822024D01*
X94289476Y13869643D01*
X94241857Y13964881D01*
X94194238Y14012500D01*
X94099000Y14060120D01*
X93908523Y14060120D01*
X93813285Y14012500D01*
X93765666Y13964881D01*
X93718047Y13869643D01*
X93718047Y13822024D01*
X93765666Y13726786D01*
X93813285Y13679167D01*
X93908523Y13631548D01*
X94099000Y13631548D01*
X94194238Y13583929D01*
X94241857Y13536310D01*
X94289476Y13441072D01*
X94289476Y13250596D01*
X94241857Y13155358D01*
X94194238Y13107739D01*
X94099000Y13060120D01*
X93908523Y13060120D01*
X93813285Y13107739D01*
X93765666Y13155358D01*
X93718047Y13250596D01*
X93718047Y13441072D01*
X93765666Y13536310D01*
X93813285Y13583929D01*
X93908523Y13631548D01*
X93384714Y13060120D02*
X92860904Y13726786D01*
X93384714Y13726786D02*
X92860904Y13060120D01*
X92051380Y14060120D02*
X92241857Y14060120D01*
X92337095Y14012500D01*
X92384714Y13964881D01*
X92479952Y13822024D01*
X92527571Y13631548D01*
X92527571Y13250596D01*
X92479952Y13155358D01*
X92432333Y13107739D01*
X92337095Y13060120D01*
X92146619Y13060120D01*
X92051380Y13107739D01*
X92003761Y13155358D01*
X91956142Y13250596D01*
X91956142Y13488691D01*
X92003761Y13583929D01*
X92051380Y13631548D01*
X92146619Y13679167D01*
X92337095Y13679167D01*
X92432333Y13631548D01*
X92479952Y13583929D01*
X92527571Y13488691D01*
X91099000Y13726786D02*
X91099000Y13060120D01*
X91337095Y14107739D02*
X91575190Y13393453D01*
X90956142Y13393453D01*
X95051380Y12435120D02*
X94860904Y12435120D01*
X94765666Y12387500D01*
X94670428Y12292262D01*
X94622809Y12101786D01*
X94622809Y11768453D01*
X94670428Y11577977D01*
X94765666Y11482739D01*
X94860904Y11435120D01*
X95051380Y11435120D01*
X95146619Y11482739D01*
X95241857Y11577977D01*
X95289476Y11768453D01*
X95289476Y12101786D01*
X95241857Y12292262D01*
X95146619Y12387500D01*
X95051380Y12435120D01*
X93718047Y11435120D02*
X94194238Y11435120D01*
X94194238Y12435120D01*
X93384714Y11958929D02*
X93051380Y11958929D01*
X92908523Y11435120D02*
X93384714Y11435120D01*
X93384714Y12435120D01*
X92908523Y12435120D01*
X92479952Y11435120D02*
X92479952Y12435120D01*
X92241857Y12435120D01*
X92099000Y12387500D01*
X92003761Y12292262D01*
X91956142Y12197024D01*
X91908523Y12006548D01*
X91908523Y11863691D01*
X91956142Y11673215D01*
X92003761Y11577977D01*
X92099000Y11482739D01*
X92241857Y11435120D01*
X92479952Y11435120D01*
X98551380Y9429167D02*
X98599000Y9476786D01*
X98694238Y9619643D01*
X98741857Y9714881D01*
X98789476Y9857739D01*
X98837095Y10095834D01*
X98837095Y10286310D01*
X98789476Y10524405D01*
X98741857Y10667262D01*
X98694238Y10762500D01*
X98599000Y10905358D01*
X98551380Y10952977D01*
X98170428Y10810120D02*
X98170428Y10000596D01*
X98122809Y9905358D01*
X98075190Y9857739D01*
X97979952Y9810120D01*
X97789476Y9810120D01*
X97694238Y9857739D01*
X97646619Y9905358D01*
X97599000Y10000596D01*
X97599000Y10810120D01*
X97122809Y10476786D02*
X97122809Y9476786D01*
X97122809Y10429167D02*
X97027571Y10476786D01*
X96837095Y10476786D01*
X96741857Y10429167D01*
X96694238Y10381548D01*
X96646619Y10286310D01*
X96646619Y10000596D01*
X96694238Y9905358D01*
X96741857Y9857739D01*
X96837095Y9810120D01*
X97027571Y9810120D01*
X97122809Y9857739D01*
X96265666Y9857739D02*
X96170428Y9810120D01*
X95979952Y9810120D01*
X95884714Y9857739D01*
X95837095Y9952977D01*
X95837095Y10000596D01*
X95884714Y10095834D01*
X95979952Y10143453D01*
X96122809Y10143453D01*
X96218047Y10191072D01*
X96265666Y10286310D01*
X96265666Y10333929D01*
X96218047Y10429167D01*
X96122809Y10476786D01*
X95979952Y10476786D01*
X95884714Y10429167D01*
X95408523Y9810120D02*
X95408523Y10476786D01*
X95408523Y10810120D02*
X95456142Y10762500D01*
X95408523Y10714881D01*
X95360904Y10762500D01*
X95408523Y10810120D01*
X95408523Y10714881D01*
X94503761Y9810120D02*
X94503761Y10810120D01*
X94503761Y9857739D02*
X94599000Y9810120D01*
X94789476Y9810120D01*
X94884714Y9857739D01*
X94932333Y9905358D01*
X94979952Y10000596D01*
X94979952Y10286310D01*
X94932333Y10381548D01*
X94884714Y10429167D01*
X94789476Y10476786D01*
X94599000Y10476786D01*
X94503761Y10429167D01*
X93646619Y9857739D02*
X93741857Y9810120D01*
X93932333Y9810120D01*
X94027571Y9857739D01*
X94075190Y9952977D01*
X94075190Y10333929D01*
X94027571Y10429167D01*
X93932333Y10476786D01*
X93741857Y10476786D01*
X93646619Y10429167D01*
X93599000Y10333929D01*
X93599000Y10238691D01*
X94075190Y10143453D01*
X92408523Y9810120D02*
X92408523Y10810120D01*
X92170428Y10810120D01*
X92027571Y10762500D01*
X91932333Y10667262D01*
X91884714Y10572024D01*
X91837095Y10381548D01*
X91837095Y10238691D01*
X91884714Y10048215D01*
X91932333Y9952977D01*
X92027571Y9857739D01*
X92170428Y9810120D01*
X92408523Y9810120D01*
X91265666Y9810120D02*
X91360904Y9857739D01*
X91408523Y9905358D01*
X91456142Y10000596D01*
X91456142Y10286310D01*
X91408523Y10381548D01*
X91360904Y10429167D01*
X91265666Y10476786D01*
X91122809Y10476786D01*
X91027571Y10429167D01*
X90979952Y10381548D01*
X90932333Y10286310D01*
X90932333Y10000596D01*
X90979952Y9905358D01*
X91027571Y9857739D01*
X91122809Y9810120D01*
X91265666Y9810120D01*
X90599000Y10476786D02*
X90408523Y9810120D01*
X90218047Y10286310D01*
X90027571Y9810120D01*
X89837095Y10476786D01*
X89456142Y10476786D02*
X89456142Y9810120D01*
X89456142Y10381548D02*
X89408523Y10429167D01*
X89313285Y10476786D01*
X89170428Y10476786D01*
X89075190Y10429167D01*
X89027571Y10333929D01*
X89027571Y9810120D01*
X88646619Y9429167D02*
X88599000Y9476786D01*
X88503761Y9619643D01*
X88456142Y9714881D01*
X88408523Y9857739D01*
X88360904Y10095834D01*
X88360904Y10286310D01*
X88408523Y10524405D01*
X88456142Y10667262D01*
X88503761Y10762500D01*
X88599000Y10905358D01*
X88646619Y10952977D01*
X100647333Y17898334D02*
X100314000Y17898334D01*
X99647333Y17565000D01*
X99314000Y16898334D01*
X99314000Y13565000D01*
X98980666Y12898334D01*
X98314000Y12565000D01*
X98980666Y12231667D01*
X99314000Y11565000D01*
X99314000Y8231667D01*
X99647333Y7565000D01*
X100314000Y7231667D01*
X100647333Y7231667D01*
D11*
X86644718Y-5735000D02*
X86882813Y-5615952D01*
X87239956Y-5615952D01*
X87597099Y-5735000D01*
X87835194Y-5973095D01*
X87954241Y-6211190D01*
X88073289Y-6687380D01*
X88073289Y-7044523D01*
X87954241Y-7520714D01*
X87835194Y-7758809D01*
X87597099Y-7996904D01*
X87239956Y-8115952D01*
X87001860Y-8115952D01*
X86644718Y-7996904D01*
X86525670Y-7877857D01*
X86525670Y-7044523D01*
X87001860Y-7044523D01*
X85454241Y-8115952D02*
X85454241Y-6449285D01*
X85454241Y-6925476D02*
X85335194Y-6687380D01*
X85216146Y-6568333D01*
X84978051Y-6449285D01*
X84739956Y-6449285D01*
X82954241Y-7996904D02*
X83192337Y-8115952D01*
X83668527Y-8115952D01*
X83906622Y-7996904D01*
X84025670Y-7758809D01*
X84025670Y-6806428D01*
X83906622Y-6568333D01*
X83668527Y-6449285D01*
X83192337Y-6449285D01*
X82954241Y-6568333D01*
X82835194Y-6806428D01*
X82835194Y-7044523D01*
X84025670Y-7282619D01*
X80692337Y-8115952D02*
X80692337Y-6806428D01*
X80811384Y-6568333D01*
X81049480Y-6449285D01*
X81525670Y-6449285D01*
X81763765Y-6568333D01*
X80692337Y-7996904D02*
X80930432Y-8115952D01*
X81525670Y-8115952D01*
X81763765Y-7996904D01*
X81882813Y-7758809D01*
X81882813Y-7520714D01*
X81763765Y-7282619D01*
X81525670Y-7163571D01*
X80930432Y-7163571D01*
X80692337Y-7044523D01*
X79620908Y-7996904D02*
X79382813Y-8115952D01*
X78906622Y-8115952D01*
X78668527Y-7996904D01*
X78549480Y-7758809D01*
X78549480Y-7639761D01*
X78668527Y-7401666D01*
X78906622Y-7282619D01*
X79263765Y-7282619D01*
X79501860Y-7163571D01*
X79620908Y-6925476D01*
X79620908Y-6806428D01*
X79501860Y-6568333D01*
X79263765Y-6449285D01*
X78906622Y-6449285D01*
X78668527Y-6568333D01*
X76525670Y-7996904D02*
X76763765Y-8115952D01*
X77239956Y-8115952D01*
X77478051Y-7996904D01*
X77597099Y-7758809D01*
X77597099Y-6806428D01*
X77478051Y-6568333D01*
X77239956Y-6449285D01*
X76763765Y-6449285D01*
X76525670Y-6568333D01*
X76406622Y-6806428D01*
X76406622Y-7044523D01*
X77597099Y-7282619D01*
X75573289Y-6449285D02*
X75097099Y-8115952D01*
X74620908Y-6925476D01*
X74144718Y-8115952D01*
X73668527Y-6449285D01*
X71763765Y-7996904D02*
X72001860Y-8115952D01*
X72478051Y-8115952D01*
X72716146Y-7996904D01*
X72835194Y-7758809D01*
X72835194Y-6806428D01*
X72716146Y-6568333D01*
X72478051Y-6449285D01*
X72001860Y-6449285D01*
X71763765Y-6568333D01*
X71644718Y-6806428D01*
X71644718Y-7044523D01*
X72835194Y-7282619D01*
X69501860Y-8115952D02*
X69501860Y-6806428D01*
X69620908Y-6568333D01*
X69859003Y-6449285D01*
X70335194Y-6449285D01*
X70573289Y-6568333D01*
X69501860Y-7996904D02*
X69739956Y-8115952D01*
X70335194Y-8115952D01*
X70573289Y-7996904D01*
X70692337Y-7758809D01*
X70692337Y-7520714D01*
X70573289Y-7282619D01*
X70335194Y-7163571D01*
X69739956Y-7163571D01*
X69501860Y-7044523D01*
X68549480Y-6449285D02*
X67239956Y-6449285D01*
X68549480Y-8115952D01*
X67239956Y-8115952D01*
X65930432Y-8115952D02*
X66168527Y-7996904D01*
X66287575Y-7758809D01*
X66287575Y-5615952D01*
X64025670Y-7996904D02*
X64263765Y-8115952D01*
X64739956Y-8115952D01*
X64978051Y-7996904D01*
X65097099Y-7758809D01*
X65097099Y-6806428D01*
X64978051Y-6568333D01*
X64739956Y-6449285D01*
X64263765Y-6449285D01*
X64025670Y-6568333D01*
X63906622Y-6806428D01*
X63906622Y-7044523D01*
X65097099Y-7282619D01*
X60097099Y-6806428D02*
X60930432Y-6806428D01*
X60930432Y-8115952D02*
X60930432Y-5615952D01*
X59739956Y-5615952D01*
X57478051Y-8115952D02*
X58906622Y-8115952D01*
X58192337Y-8115952D02*
X58192337Y-5615952D01*
X58430432Y-5973095D01*
X58668527Y-6211190D01*
X58906622Y-6330238D01*
X54501860Y-8115952D02*
X54501860Y-5615952D01*
X53549480Y-5615952D01*
X53311384Y-5735000D01*
X53192337Y-5854047D01*
X53073289Y-6092142D01*
X53073289Y-6449285D01*
X53192337Y-6687380D01*
X53311384Y-6806428D01*
X53549480Y-6925476D01*
X54501860Y-6925476D01*
X51644718Y-8115952D02*
X51882813Y-7996904D01*
X52001860Y-7758809D01*
X52001860Y-5615952D01*
X49620908Y-6449285D02*
X49620908Y-8115952D01*
X50692337Y-6449285D02*
X50692337Y-7758809D01*
X50573289Y-7996904D01*
X50335194Y-8115952D01*
X49978051Y-8115952D01*
X49739956Y-7996904D01*
X49620908Y-7877857D01*
X48549480Y-7996904D02*
X48311384Y-8115952D01*
X47835194Y-8115952D01*
X47597099Y-7996904D01*
X47478051Y-7758809D01*
X47478051Y-7639761D01*
X47597099Y-7401666D01*
X47835194Y-7282619D01*
X48192337Y-7282619D01*
X48430432Y-7163571D01*
X48549480Y-6925476D01*
X48549480Y-6806428D01*
X48430432Y-6568333D01*
X48192337Y-6449285D01*
X47835194Y-6449285D01*
X47597099Y-6568333D01*
X44739956Y-5615952D02*
X43192337Y-5615952D01*
X44025670Y-6568333D01*
X43668527Y-6568333D01*
X43430432Y-6687380D01*
X43311384Y-6806428D01*
X43192337Y-7044523D01*
X43192337Y-7639761D01*
X43311384Y-7877857D01*
X43430432Y-7996904D01*
X43668527Y-8115952D01*
X44382813Y-8115952D01*
X44620908Y-7996904D01*
X44739956Y-7877857D01*
X42120908Y-7877857D02*
X42001860Y-7996904D01*
X42120908Y-8115952D01*
X42239956Y-7996904D01*
X42120908Y-7877857D01*
X42120908Y-8115952D01*
X39739956Y-5615952D02*
X40930432Y-5615952D01*
X41049480Y-6806428D01*
X40930432Y-6687380D01*
X40692337Y-6568333D01*
X40097099Y-6568333D01*
X39859003Y-6687380D01*
X39739956Y-6806428D01*
X39620908Y-7044523D01*
X39620908Y-7639761D01*
X39739956Y-7877857D01*
X39859003Y-7996904D01*
X40097099Y-8115952D01*
X40692337Y-8115952D01*
X40930432Y-7996904D01*
X41049480Y-7877857D01*
X38668527Y-5615952D02*
X38668527Y-6092142D01*
X37716146Y-5615952D02*
X37716146Y-6092142D01*
D12*
X88260457Y-12108571D02*
X88260457Y-10608571D01*
X87403314Y-12108571D02*
X88046171Y-11251428D01*
X87403314Y-10608571D02*
X88260457Y-11465714D01*
X86189028Y-12037142D02*
X86331885Y-12108571D01*
X86617600Y-12108571D01*
X86760457Y-12037142D01*
X86831885Y-11894285D01*
X86831885Y-11322857D01*
X86760457Y-11180000D01*
X86617600Y-11108571D01*
X86331885Y-11108571D01*
X86189028Y-11180000D01*
X86117600Y-11322857D01*
X86117600Y-11465714D01*
X86831885Y-11608571D01*
X85474742Y-12108571D02*
X85474742Y-11108571D01*
X85474742Y-10608571D02*
X85546171Y-10680000D01*
X85474742Y-10751428D01*
X85403314Y-10680000D01*
X85474742Y-10608571D01*
X85474742Y-10751428D01*
X84760457Y-12108571D02*
X84760457Y-11108571D01*
X84760457Y-11394285D02*
X84689028Y-11251428D01*
X84617600Y-11180000D01*
X84474742Y-11108571D01*
X84331885Y-11108571D01*
X82189028Y-11322857D02*
X82689028Y-11322857D01*
X82689028Y-12108571D02*
X82689028Y-10608571D01*
X81974742Y-10608571D01*
X81403314Y-12108571D02*
X81403314Y-11108571D01*
X81403314Y-11394285D02*
X81331885Y-11251428D01*
X81260457Y-11180000D01*
X81117600Y-11108571D01*
X80974742Y-11108571D01*
X79831885Y-12108571D02*
X79831885Y-11322857D01*
X79903314Y-11180000D01*
X80046171Y-11108571D01*
X80331885Y-11108571D01*
X80474742Y-11180000D01*
X79831885Y-12037142D02*
X79974742Y-12108571D01*
X80331885Y-12108571D01*
X80474742Y-12037142D01*
X80546171Y-11894285D01*
X80546171Y-11751428D01*
X80474742Y-11608571D01*
X80331885Y-11537142D01*
X79974742Y-11537142D01*
X79831885Y-11465714D01*
X79189028Y-12037142D02*
X79046171Y-12108571D01*
X78760457Y-12108571D01*
X78617600Y-12037142D01*
X78546171Y-11894285D01*
X78546171Y-11822857D01*
X78617600Y-11680000D01*
X78760457Y-11608571D01*
X78974742Y-11608571D01*
X79117600Y-11537142D01*
X79189028Y-11394285D01*
X79189028Y-11322857D01*
X79117600Y-11180000D01*
X78974742Y-11108571D01*
X78760457Y-11108571D01*
X78617600Y-11180000D01*
X77331885Y-12037142D02*
X77474742Y-12108571D01*
X77760457Y-12108571D01*
X77903314Y-12037142D01*
X77974742Y-11894285D01*
X77974742Y-11322857D01*
X77903314Y-11180000D01*
X77760457Y-11108571D01*
X77474742Y-11108571D01*
X77331885Y-11180000D01*
X77260457Y-11322857D01*
X77260457Y-11465714D01*
X77974742Y-11608571D01*
X76617600Y-12108571D02*
X76617600Y-11108571D01*
X76617600Y-11394285D02*
X76546171Y-11251428D01*
X76474742Y-11180000D01*
X76331885Y-11108571D01*
X76189028Y-11108571D01*
X75617600Y-10608571D02*
X75760457Y-10894285D01*
X75046171Y-12037142D02*
X74903314Y-12108571D01*
X74617600Y-12108571D01*
X74474742Y-12037142D01*
X74403314Y-11894285D01*
X74403314Y-11822857D01*
X74474742Y-11680000D01*
X74617600Y-11608571D01*
X74831885Y-11608571D01*
X74974742Y-11537142D01*
X75046171Y-11394285D01*
X75046171Y-11322857D01*
X74974742Y-11180000D01*
X74831885Y-11108571D01*
X74617600Y-11108571D01*
X74474742Y-11180000D01*
X71831885Y-10680000D02*
X71974742Y-10608571D01*
X72189028Y-10608571D01*
X72403314Y-10680000D01*
X72546171Y-10822857D01*
X72617600Y-10965714D01*
X72689028Y-11251428D01*
X72689028Y-11465714D01*
X72617600Y-11751428D01*
X72546171Y-11894285D01*
X72403314Y-12037142D01*
X72189028Y-12108571D01*
X72046171Y-12108571D01*
X71831885Y-12037142D01*
X71760457Y-11965714D01*
X71760457Y-11465714D01*
X72046171Y-11465714D01*
X71117600Y-12108571D02*
X71117600Y-11108571D01*
X71117600Y-11394285D02*
X71046171Y-11251428D01*
X70974742Y-11180000D01*
X70831885Y-11108571D01*
X70689028Y-11108571D01*
X69617600Y-12037142D02*
X69760457Y-12108571D01*
X70046171Y-12108571D01*
X70189028Y-12037142D01*
X70260457Y-11894285D01*
X70260457Y-11322857D01*
X70189028Y-11180000D01*
X70046171Y-11108571D01*
X69760457Y-11108571D01*
X69617600Y-11180000D01*
X69546171Y-11322857D01*
X69546171Y-11465714D01*
X70260457Y-11608571D01*
X68260457Y-12108571D02*
X68260457Y-11322857D01*
X68331885Y-11180000D01*
X68474742Y-11108571D01*
X68760457Y-11108571D01*
X68903314Y-11180000D01*
X68260457Y-12037142D02*
X68403314Y-12108571D01*
X68760457Y-12108571D01*
X68903314Y-12037142D01*
X68974742Y-11894285D01*
X68974742Y-11751428D01*
X68903314Y-11608571D01*
X68760457Y-11537142D01*
X68403314Y-11537142D01*
X68260457Y-11465714D01*
X67617600Y-12037142D02*
X67474742Y-12108571D01*
X67189028Y-12108571D01*
X67046171Y-12037142D01*
X66974742Y-11894285D01*
X66974742Y-11822857D01*
X67046171Y-11680000D01*
X67189028Y-11608571D01*
X67403314Y-11608571D01*
X67546171Y-11537142D01*
X67617600Y-11394285D01*
X67617600Y-11322857D01*
X67546171Y-11180000D01*
X67403314Y-11108571D01*
X67189028Y-11108571D01*
X67046171Y-11180000D01*
X65760457Y-12037142D02*
X65903314Y-12108571D01*
X66189028Y-12108571D01*
X66331885Y-12037142D01*
X66403314Y-11894285D01*
X66403314Y-11322857D01*
X66331885Y-11180000D01*
X66189028Y-11108571D01*
X65903314Y-11108571D01*
X65760457Y-11180000D01*
X65689028Y-11322857D01*
X65689028Y-11465714D01*
X66403314Y-11608571D01*
X65189028Y-11108571D02*
X64903314Y-12108571D01*
X64617600Y-11394285D01*
X64331885Y-12108571D01*
X64046171Y-11108571D01*
X62903314Y-12037142D02*
X63046171Y-12108571D01*
X63331885Y-12108571D01*
X63474742Y-12037142D01*
X63546171Y-11894285D01*
X63546171Y-11322857D01*
X63474742Y-11180000D01*
X63331885Y-11108571D01*
X63046171Y-11108571D01*
X62903314Y-11180000D01*
X62831885Y-11322857D01*
X62831885Y-11465714D01*
X63546171Y-11608571D01*
X61546171Y-12108571D02*
X61546171Y-11322857D01*
X61617600Y-11180000D01*
X61760457Y-11108571D01*
X62046171Y-11108571D01*
X62189028Y-11180000D01*
X61546171Y-12037142D02*
X61689028Y-12108571D01*
X62046171Y-12108571D01*
X62189028Y-12037142D01*
X62260457Y-11894285D01*
X62260457Y-11751428D01*
X62189028Y-11608571D01*
X62046171Y-11537142D01*
X61689028Y-11537142D01*
X61546171Y-11465714D01*
X60974742Y-11108571D02*
X60189028Y-11108571D01*
X60974742Y-12108571D01*
X60189028Y-12108571D01*
X59403314Y-12108571D02*
X59546171Y-12037142D01*
X59617600Y-11894285D01*
X59617600Y-10608571D01*
X58260457Y-12037142D02*
X58403314Y-12108571D01*
X58689028Y-12108571D01*
X58831885Y-12037142D01*
X58903314Y-11894285D01*
X58903314Y-11322857D01*
X58831885Y-11180000D01*
X58689028Y-11108571D01*
X58403314Y-11108571D01*
X58260457Y-11180000D01*
X58189028Y-11322857D01*
X58189028Y-11465714D01*
X58903314Y-11608571D01*
X56403314Y-11537142D02*
X55260457Y-11537142D01*
X53403314Y-12108571D02*
X53403314Y-10608571D01*
X52760457Y-12108571D02*
X52760457Y-11322857D01*
X52831885Y-11180000D01*
X52974742Y-11108571D01*
X53189028Y-11108571D01*
X53331885Y-11180000D01*
X53403314Y-11251428D01*
X52260457Y-11108571D02*
X51689028Y-11108571D01*
X52046171Y-10608571D02*
X52046171Y-11894285D01*
X51974742Y-12037142D01*
X51831885Y-12108571D01*
X51689028Y-12108571D01*
X51403314Y-11108571D02*
X50831885Y-11108571D01*
X51189028Y-10608571D02*
X51189028Y-11894285D01*
X51117600Y-12037142D01*
X50974742Y-12108571D01*
X50831885Y-12108571D01*
X50331885Y-11108571D02*
X50331885Y-12608571D01*
X50331885Y-11180000D02*
X50189028Y-11108571D01*
X49903314Y-11108571D01*
X49760457Y-11180000D01*
X49689028Y-11251428D01*
X49617600Y-11394285D01*
X49617600Y-11822857D01*
X49689028Y-11965714D01*
X49760457Y-12037142D01*
X49903314Y-12108571D01*
X50189028Y-12108571D01*
X50331885Y-12037142D01*
X49046171Y-12037142D02*
X48903314Y-12108571D01*
X48617600Y-12108571D01*
X48474742Y-12037142D01*
X48403314Y-11894285D01*
X48403314Y-11822857D01*
X48474742Y-11680000D01*
X48617600Y-11608571D01*
X48831885Y-11608571D01*
X48974742Y-11537142D01*
X49046171Y-11394285D01*
X49046171Y-11322857D01*
X48974742Y-11180000D01*
X48831885Y-11108571D01*
X48617600Y-11108571D01*
X48474742Y-11180000D01*
X47760457Y-11965714D02*
X47689028Y-12037142D01*
X47760457Y-12108571D01*
X47831885Y-12037142D01*
X47760457Y-11965714D01*
X47760457Y-12108571D01*
X47760457Y-11180000D02*
X47689028Y-11251428D01*
X47760457Y-11322857D01*
X47831885Y-11251428D01*
X47760457Y-11180000D01*
X47760457Y-11322857D01*
X45974742Y-10537142D02*
X47260457Y-12465714D01*
X44403314Y-10537142D02*
X45689028Y-12465714D01*
X43260457Y-11108571D02*
X43260457Y-12322857D01*
X43331885Y-12465714D01*
X43403314Y-12537142D01*
X43546171Y-12608571D01*
X43760457Y-12608571D01*
X43903314Y-12537142D01*
X43260457Y-12037142D02*
X43403314Y-12108571D01*
X43689028Y-12108571D01*
X43831885Y-12037142D01*
X43903314Y-11965714D01*
X43974742Y-11822857D01*
X43974742Y-11394285D01*
X43903314Y-11251428D01*
X43831885Y-11180000D01*
X43689028Y-11108571D01*
X43403314Y-11108571D01*
X43260457Y-11180000D01*
X42546171Y-12108571D02*
X42546171Y-11108571D01*
X42546171Y-10608571D02*
X42617599Y-10680000D01*
X42546171Y-10751428D01*
X42474742Y-10680000D01*
X42546171Y-10608571D01*
X42546171Y-10751428D01*
X42046171Y-11108571D02*
X41474742Y-11108571D01*
X41831885Y-10608571D02*
X41831885Y-11894285D01*
X41760457Y-12037142D01*
X41617599Y-12108571D01*
X41474742Y-12108571D01*
X40974742Y-12108571D02*
X40974742Y-10608571D01*
X40331885Y-12108571D02*
X40331885Y-11322857D01*
X40403314Y-11180000D01*
X40546171Y-11108571D01*
X40760457Y-11108571D01*
X40903314Y-11180000D01*
X40974742Y-11251428D01*
X38974742Y-11108571D02*
X38974742Y-12108571D01*
X39617599Y-11108571D02*
X39617599Y-11894285D01*
X39546171Y-12037142D01*
X39403314Y-12108571D01*
X39189028Y-12108571D01*
X39046171Y-12037142D01*
X38974742Y-11965714D01*
X38260457Y-12108571D02*
X38260457Y-10608571D01*
X38260457Y-11180000D02*
X38117599Y-11108571D01*
X37831885Y-11108571D01*
X37689028Y-11180000D01*
X37617599Y-11251428D01*
X37546171Y-11394285D01*
X37546171Y-11822857D01*
X37617599Y-11965714D01*
X37689028Y-12037142D01*
X37831885Y-12108571D01*
X38117599Y-12108571D01*
X38260457Y-12037142D01*
X36903314Y-11965714D02*
X36831885Y-12037142D01*
X36903314Y-12108571D01*
X36974742Y-12037142D01*
X36903314Y-11965714D01*
X36903314Y-12108571D01*
X35546171Y-12037142D02*
X35689028Y-12108571D01*
X35974742Y-12108571D01*
X36117599Y-12037142D01*
X36189028Y-11965714D01*
X36260457Y-11822857D01*
X36260457Y-11394285D01*
X36189028Y-11251428D01*
X36117599Y-11180000D01*
X35974742Y-11108571D01*
X35689028Y-11108571D01*
X35546171Y-11180000D01*
X34689028Y-12108571D02*
X34831885Y-12037142D01*
X34903314Y-11965714D01*
X34974742Y-11822857D01*
X34974742Y-11394285D01*
X34903314Y-11251428D01*
X34831885Y-11180000D01*
X34689028Y-11108571D01*
X34474742Y-11108571D01*
X34331885Y-11180000D01*
X34260457Y-11251428D01*
X34189028Y-11394285D01*
X34189028Y-11822857D01*
X34260457Y-11965714D01*
X34331885Y-12037142D01*
X34474742Y-12108571D01*
X34689028Y-12108571D01*
X33546171Y-12108571D02*
X33546171Y-11108571D01*
X33546171Y-11251428D02*
X33474742Y-11180000D01*
X33331885Y-11108571D01*
X33117599Y-11108571D01*
X32974742Y-11180000D01*
X32903314Y-11322857D01*
X32903314Y-12108571D01*
X32903314Y-11322857D02*
X32831885Y-11180000D01*
X32689028Y-11108571D01*
X32474742Y-11108571D01*
X32331885Y-11180000D01*
X32260457Y-11322857D01*
X32260457Y-12108571D01*
X30474742Y-10537142D02*
X31760457Y-12465714D01*
X29974742Y-12108571D02*
X29974742Y-10608571D01*
X29831885Y-11537142D02*
X29403314Y-12108571D01*
X29403314Y-11108571D02*
X29974742Y-11680000D01*
X28189028Y-12037142D02*
X28331885Y-12108571D01*
X28617599Y-12108571D01*
X28760457Y-12037142D01*
X28831885Y-11894285D01*
X28831885Y-11322857D01*
X28760457Y-11180000D01*
X28617599Y-11108571D01*
X28331885Y-11108571D01*
X28189028Y-11180000D01*
X28117599Y-11322857D01*
X28117599Y-11465714D01*
X28831885Y-11608571D01*
X27474742Y-12108571D02*
X27474742Y-11108571D01*
X27474742Y-10608571D02*
X27546171Y-10680000D01*
X27474742Y-10751428D01*
X27403314Y-10680000D01*
X27474742Y-10608571D01*
X27474742Y-10751428D01*
X26760457Y-12108571D02*
X26760457Y-11108571D01*
X26760457Y-11394285D02*
X26689028Y-11251428D01*
X26617599Y-11180000D01*
X26474742Y-11108571D01*
X26331885Y-11108571D01*
X26046171Y-11108571D02*
X25474742Y-11108571D01*
X25831885Y-12108571D02*
X25831885Y-10822857D01*
X25760457Y-10680000D01*
X25617599Y-10608571D01*
X25474742Y-10608571D01*
X23903314Y-10537142D02*
X25189028Y-12465714D01*
X22617599Y-10680000D02*
X22760457Y-10608571D01*
X22974742Y-10608571D01*
X23189028Y-10680000D01*
X23331885Y-10822857D01*
X23403314Y-10965714D01*
X23474742Y-11251428D01*
X23474742Y-11465714D01*
X23403314Y-11751428D01*
X23331885Y-11894285D01*
X23189028Y-12037142D01*
X22974742Y-12108571D01*
X22831885Y-12108571D01*
X22617599Y-12037142D01*
X22546171Y-11965714D01*
X22546171Y-11465714D01*
X22831885Y-11465714D01*
X21903314Y-12108571D02*
X21903314Y-11108571D01*
X21903314Y-11394285D02*
X21831885Y-11251428D01*
X21760457Y-11180000D01*
X21617599Y-11108571D01*
X21474742Y-11108571D01*
X20403314Y-12037142D02*
X20546171Y-12108571D01*
X20831885Y-12108571D01*
X20974742Y-12037142D01*
X21046171Y-11894285D01*
X21046171Y-11322857D01*
X20974742Y-11180000D01*
X20831885Y-11108571D01*
X20546171Y-11108571D01*
X20403314Y-11180000D01*
X20331885Y-11322857D01*
X20331885Y-11465714D01*
X21046171Y-11608571D01*
X19046171Y-12108571D02*
X19046171Y-11322857D01*
X19117599Y-11180000D01*
X19260457Y-11108571D01*
X19546171Y-11108571D01*
X19689028Y-11180000D01*
X19046171Y-12037142D02*
X19189028Y-12108571D01*
X19546171Y-12108571D01*
X19689028Y-12037142D01*
X19760457Y-11894285D01*
X19760457Y-11751428D01*
X19689028Y-11608571D01*
X19546171Y-11537142D01*
X19189028Y-11537142D01*
X19046171Y-11465714D01*
X18403314Y-12037142D02*
X18260457Y-12108571D01*
X17974742Y-12108571D01*
X17831885Y-12037142D01*
X17760457Y-11894285D01*
X17760457Y-11822857D01*
X17831885Y-11680000D01*
X17974742Y-11608571D01*
X18189028Y-11608571D01*
X18331885Y-11537142D01*
X18403314Y-11394285D01*
X18403314Y-11322857D01*
X18331885Y-11180000D01*
X18189028Y-11108571D01*
X17974742Y-11108571D01*
X17831885Y-11180000D01*
X16546171Y-12037142D02*
X16689028Y-12108571D01*
X16974742Y-12108571D01*
X17117599Y-12037142D01*
X17189028Y-11894285D01*
X17189028Y-11322857D01*
X17117599Y-11180000D01*
X16974742Y-11108571D01*
X16689028Y-11108571D01*
X16546171Y-11180000D01*
X16474742Y-11322857D01*
X16474742Y-11465714D01*
X17189028Y-11608571D01*
X15974742Y-11108571D02*
X15689028Y-12108571D01*
X15403314Y-11394285D01*
X15117599Y-12108571D01*
X14831885Y-11108571D01*
X13689028Y-12037142D02*
X13831885Y-12108571D01*
X14117599Y-12108571D01*
X14260457Y-12037142D01*
X14331885Y-11894285D01*
X14331885Y-11322857D01*
X14260457Y-11180000D01*
X14117599Y-11108571D01*
X13831885Y-11108571D01*
X13689028Y-11180000D01*
X13617599Y-11322857D01*
X13617599Y-11465714D01*
X14331885Y-11608571D01*
X12331885Y-12108571D02*
X12331885Y-11322857D01*
X12403314Y-11180000D01*
X12546171Y-11108571D01*
X12831885Y-11108571D01*
X12974742Y-11180000D01*
X12331885Y-12037142D02*
X12474742Y-12108571D01*
X12831885Y-12108571D01*
X12974742Y-12037142D01*
X13046171Y-11894285D01*
X13046171Y-11751428D01*
X12974742Y-11608571D01*
X12831885Y-11537142D01*
X12474742Y-11537142D01*
X12331885Y-11465714D01*
X11760457Y-11108571D02*
X10974742Y-11108571D01*
X11760457Y-12108571D01*
X10974742Y-12108571D01*
X10189028Y-12108571D02*
X10331885Y-12037142D01*
X10403314Y-11894285D01*
X10403314Y-10608571D01*
X9046171Y-12037142D02*
X9189028Y-12108571D01*
X9474742Y-12108571D01*
X9617599Y-12037142D01*
X9689028Y-11894285D01*
X9689028Y-11322857D01*
X9617599Y-11180000D01*
X9474742Y-11108571D01*
X9189028Y-11108571D01*
X9046171Y-11180000D01*
X8974742Y-11322857D01*
X8974742Y-11465714D01*
X9689028Y-11608571D01*
X88260457Y-15328571D02*
X88260457Y-13828571D01*
X87689028Y-13828571D01*
X87546171Y-13900000D01*
X87474742Y-13971428D01*
X87403314Y-14114285D01*
X87403314Y-14328571D01*
X87474742Y-14471428D01*
X87546171Y-14542857D01*
X87689028Y-14614285D01*
X88260457Y-14614285D01*
X85903314Y-15185714D02*
X85974742Y-15257142D01*
X86189028Y-15328571D01*
X86331885Y-15328571D01*
X86546171Y-15257142D01*
X86689028Y-15114285D01*
X86760457Y-14971428D01*
X86831885Y-14685714D01*
X86831885Y-14471428D01*
X86760457Y-14185714D01*
X86689028Y-14042857D01*
X86546171Y-13900000D01*
X86331885Y-13828571D01*
X86189028Y-13828571D01*
X85974742Y-13900000D01*
X85903314Y-13971428D01*
X84760457Y-14542857D02*
X84546171Y-14614285D01*
X84474742Y-14685714D01*
X84403314Y-14828571D01*
X84403314Y-15042857D01*
X84474742Y-15185714D01*
X84546171Y-15257142D01*
X84689028Y-15328571D01*
X85260457Y-15328571D01*
X85260457Y-13828571D01*
X84760457Y-13828571D01*
X84617600Y-13900000D01*
X84546171Y-13971428D01*
X84474742Y-14114285D01*
X84474742Y-14257142D01*
X84546171Y-14400000D01*
X84617600Y-14471428D01*
X84760457Y-14542857D01*
X85260457Y-14542857D01*
X81974742Y-15328571D02*
X81974742Y-13828571D01*
X81974742Y-15257142D02*
X82117600Y-15328571D01*
X82403314Y-15328571D01*
X82546171Y-15257142D01*
X82617600Y-15185714D01*
X82689028Y-15042857D01*
X82689028Y-14614285D01*
X82617600Y-14471428D01*
X82546171Y-14400000D01*
X82403314Y-14328571D01*
X82117600Y-14328571D01*
X81974742Y-14400000D01*
X80689028Y-15257142D02*
X80831885Y-15328571D01*
X81117600Y-15328571D01*
X81260457Y-15257142D01*
X81331885Y-15114285D01*
X81331885Y-14542857D01*
X81260457Y-14400000D01*
X81117600Y-14328571D01*
X80831885Y-14328571D01*
X80689028Y-14400000D01*
X80617600Y-14542857D01*
X80617600Y-14685714D01*
X81331885Y-14828571D01*
X80046171Y-15257142D02*
X79903314Y-15328571D01*
X79617600Y-15328571D01*
X79474742Y-15257142D01*
X79403314Y-15114285D01*
X79403314Y-15042857D01*
X79474742Y-14900000D01*
X79617600Y-14828571D01*
X79831885Y-14828571D01*
X79974742Y-14757142D01*
X80046171Y-14614285D01*
X80046171Y-14542857D01*
X79974742Y-14400000D01*
X79831885Y-14328571D01*
X79617600Y-14328571D01*
X79474742Y-14400000D01*
X78760457Y-15328571D02*
X78760457Y-14328571D01*
X78760457Y-13828571D02*
X78831885Y-13900000D01*
X78760457Y-13971428D01*
X78689028Y-13900000D01*
X78760457Y-13828571D01*
X78760457Y-13971428D01*
X77403314Y-14328571D02*
X77403314Y-15542857D01*
X77474742Y-15685714D01*
X77546171Y-15757142D01*
X77689028Y-15828571D01*
X77903314Y-15828571D01*
X78046171Y-15757142D01*
X77403314Y-15257142D02*
X77546171Y-15328571D01*
X77831885Y-15328571D01*
X77974742Y-15257142D01*
X78046171Y-15185714D01*
X78117600Y-15042857D01*
X78117600Y-14614285D01*
X78046171Y-14471428D01*
X77974742Y-14400000D01*
X77831885Y-14328571D01*
X77546171Y-14328571D01*
X77403314Y-14400000D01*
X76689028Y-14328571D02*
X76689028Y-15328571D01*
X76689028Y-14471428D02*
X76617600Y-14400000D01*
X76474742Y-14328571D01*
X76260457Y-14328571D01*
X76117600Y-14400000D01*
X76046171Y-14542857D01*
X76046171Y-15328571D01*
X74189028Y-15328571D02*
X74189028Y-13828571D01*
X74189028Y-14400000D02*
X74046171Y-14328571D01*
X73760457Y-14328571D01*
X73617600Y-14400000D01*
X73546171Y-14471428D01*
X73474742Y-14614285D01*
X73474742Y-15042857D01*
X73546171Y-15185714D01*
X73617600Y-15257142D01*
X73760457Y-15328571D01*
X74046171Y-15328571D01*
X74189028Y-15257142D01*
X72974742Y-14328571D02*
X72617600Y-15328571D01*
X72260457Y-14328571D02*
X72617600Y-15328571D01*
X72760457Y-15685714D01*
X72831885Y-15757142D01*
X72974742Y-15828571D01*
X70617600Y-15257142D02*
X70474742Y-15328571D01*
X70189028Y-15328571D01*
X70046171Y-15257142D01*
X69974742Y-15114285D01*
X69974742Y-15042857D01*
X70046171Y-14900000D01*
X70189028Y-14828571D01*
X70403314Y-14828571D01*
X70546171Y-14757142D01*
X70617600Y-14614285D01*
X70617600Y-14542857D01*
X70546171Y-14400000D01*
X70403314Y-14328571D01*
X70189028Y-14328571D01*
X70046171Y-14400000D01*
X69117600Y-15328571D02*
X69260457Y-15257142D01*
X69331885Y-15185714D01*
X69403314Y-15042857D01*
X69403314Y-14614285D01*
X69331885Y-14471428D01*
X69260457Y-14400000D01*
X69117600Y-14328571D01*
X68903314Y-14328571D01*
X68760457Y-14400000D01*
X68689028Y-14471428D01*
X68617600Y-14614285D01*
X68617600Y-15042857D01*
X68689028Y-15185714D01*
X68760457Y-15257142D01*
X68903314Y-15328571D01*
X69117600Y-15328571D01*
X67760457Y-15328571D02*
X67903314Y-15257142D01*
X67974742Y-15114285D01*
X67974742Y-13828571D01*
X66546171Y-15328571D02*
X66546171Y-14542857D01*
X66617600Y-14400000D01*
X66760457Y-14328571D01*
X67046171Y-14328571D01*
X67189028Y-14400000D01*
X66546171Y-15257142D02*
X66689028Y-15328571D01*
X67046171Y-15328571D01*
X67189028Y-15257142D01*
X67260457Y-15114285D01*
X67260457Y-14971428D01*
X67189028Y-14828571D01*
X67046171Y-14757142D01*
X66689028Y-14757142D01*
X66546171Y-14685714D01*
X65831885Y-15328571D02*
X65831885Y-14328571D01*
X65831885Y-14614285D02*
X65760457Y-14471428D01*
X65689028Y-14400000D01*
X65546171Y-14328571D01*
X65403314Y-14328571D01*
X64903314Y-15328571D02*
X64903314Y-14328571D01*
X64903314Y-14471428D02*
X64831885Y-14400000D01*
X64689028Y-14328571D01*
X64474742Y-14328571D01*
X64331885Y-14400000D01*
X64260457Y-14542857D01*
X64260457Y-15328571D01*
X64260457Y-14542857D02*
X64189028Y-14400000D01*
X64046171Y-14328571D01*
X63831885Y-14328571D01*
X63689028Y-14400000D01*
X63617600Y-14542857D01*
X63617600Y-15328571D01*
X62689028Y-15328571D02*
X62831885Y-15257142D01*
X62903314Y-15185714D01*
X62974742Y-15042857D01*
X62974742Y-14614285D01*
X62903314Y-14471428D01*
X62831885Y-14400000D01*
X62689028Y-14328571D01*
X62474742Y-14328571D01*
X62331885Y-14400000D01*
X62260457Y-14471428D01*
X62189028Y-14614285D01*
X62189028Y-15042857D01*
X62260457Y-15185714D01*
X62331885Y-15257142D01*
X62474742Y-15328571D01*
X62689028Y-15328571D01*
X61546171Y-14328571D02*
X61546171Y-15328571D01*
X61546171Y-14471428D02*
X61474742Y-14400000D01*
X61331885Y-14328571D01*
X61117600Y-14328571D01*
X60974742Y-14400000D01*
X60903314Y-14542857D01*
X60903314Y-15328571D01*
X88260457Y-17778571D02*
X88260457Y-16278571D01*
X87617600Y-17778571D02*
X87617600Y-16992857D01*
X87689028Y-16850000D01*
X87831885Y-16778571D01*
X88046171Y-16778571D01*
X88189028Y-16850000D01*
X88260457Y-16921428D01*
X87117600Y-16778571D02*
X86546171Y-16778571D01*
X86903314Y-16278571D02*
X86903314Y-17564285D01*
X86831885Y-17707142D01*
X86689028Y-17778571D01*
X86546171Y-17778571D01*
X86260457Y-16778571D02*
X85689028Y-16778571D01*
X86046171Y-16278571D02*
X86046171Y-17564285D01*
X85974742Y-17707142D01*
X85831885Y-17778571D01*
X85689028Y-17778571D01*
X85189028Y-16778571D02*
X85189028Y-18278571D01*
X85189028Y-16850000D02*
X85046171Y-16778571D01*
X84760457Y-16778571D01*
X84617600Y-16850000D01*
X84546171Y-16921428D01*
X84474742Y-17064285D01*
X84474742Y-17492857D01*
X84546171Y-17635714D01*
X84617600Y-17707142D01*
X84760457Y-17778571D01*
X85046171Y-17778571D01*
X85189028Y-17707142D01*
X83903314Y-17707142D02*
X83760457Y-17778571D01*
X83474742Y-17778571D01*
X83331885Y-17707142D01*
X83260457Y-17564285D01*
X83260457Y-17492857D01*
X83331885Y-17350000D01*
X83474742Y-17278571D01*
X83689028Y-17278571D01*
X83831885Y-17207142D01*
X83903314Y-17064285D01*
X83903314Y-16992857D01*
X83831885Y-16850000D01*
X83689028Y-16778571D01*
X83474742Y-16778571D01*
X83331885Y-16850000D01*
X82617600Y-17635714D02*
X82546171Y-17707142D01*
X82617600Y-17778571D01*
X82689028Y-17707142D01*
X82617600Y-17635714D01*
X82617600Y-17778571D01*
X82617600Y-16850000D02*
X82546171Y-16921428D01*
X82617600Y-16992857D01*
X82689028Y-16921428D01*
X82617600Y-16850000D01*
X82617600Y-16992857D01*
X80831885Y-16207142D02*
X82117600Y-18135714D01*
X79260457Y-16207142D02*
X80546171Y-18135714D01*
X78117600Y-16778571D02*
X78117600Y-17992857D01*
X78189028Y-18135714D01*
X78260457Y-18207142D01*
X78403314Y-18278571D01*
X78617600Y-18278571D01*
X78760457Y-18207142D01*
X78117600Y-17707142D02*
X78260457Y-17778571D01*
X78546171Y-17778571D01*
X78689028Y-17707142D01*
X78760457Y-17635714D01*
X78831885Y-17492857D01*
X78831885Y-17064285D01*
X78760457Y-16921428D01*
X78689028Y-16850000D01*
X78546171Y-16778571D01*
X78260457Y-16778571D01*
X78117600Y-16850000D01*
X77403314Y-17778571D02*
X77403314Y-16778571D01*
X77403314Y-16278571D02*
X77474742Y-16350000D01*
X77403314Y-16421428D01*
X77331885Y-16350000D01*
X77403314Y-16278571D01*
X77403314Y-16421428D01*
X76903314Y-16778571D02*
X76331885Y-16778571D01*
X76689028Y-16278571D02*
X76689028Y-17564285D01*
X76617600Y-17707142D01*
X76474742Y-17778571D01*
X76331885Y-17778571D01*
X75831885Y-17778571D02*
X75831885Y-16278571D01*
X75189028Y-17778571D02*
X75189028Y-16992857D01*
X75260457Y-16850000D01*
X75403314Y-16778571D01*
X75617600Y-16778571D01*
X75760457Y-16850000D01*
X75831885Y-16921428D01*
X73831885Y-16778571D02*
X73831885Y-17778571D01*
X74474742Y-16778571D02*
X74474742Y-17564285D01*
X74403314Y-17707142D01*
X74260457Y-17778571D01*
X74046171Y-17778571D01*
X73903314Y-17707142D01*
X73831885Y-17635714D01*
X73117600Y-17778571D02*
X73117600Y-16278571D01*
X73117600Y-16850000D02*
X72974742Y-16778571D01*
X72689028Y-16778571D01*
X72546171Y-16850000D01*
X72474742Y-16921428D01*
X72403314Y-17064285D01*
X72403314Y-17492857D01*
X72474742Y-17635714D01*
X72546171Y-17707142D01*
X72689028Y-17778571D01*
X72974742Y-17778571D01*
X73117600Y-17707142D01*
X71760457Y-17635714D02*
X71689028Y-17707142D01*
X71760457Y-17778571D01*
X71831885Y-17707142D01*
X71760457Y-17635714D01*
X71760457Y-17778571D01*
X70403314Y-17707142D02*
X70546171Y-17778571D01*
X70831885Y-17778571D01*
X70974742Y-17707142D01*
X71046171Y-17635714D01*
X71117600Y-17492857D01*
X71117600Y-17064285D01*
X71046171Y-16921428D01*
X70974742Y-16850000D01*
X70831885Y-16778571D01*
X70546171Y-16778571D01*
X70403314Y-16850000D01*
X69546171Y-17778571D02*
X69689028Y-17707142D01*
X69760457Y-17635714D01*
X69831885Y-17492857D01*
X69831885Y-17064285D01*
X69760457Y-16921428D01*
X69689028Y-16850000D01*
X69546171Y-16778571D01*
X69331885Y-16778571D01*
X69189028Y-16850000D01*
X69117600Y-16921428D01*
X69046171Y-17064285D01*
X69046171Y-17492857D01*
X69117600Y-17635714D01*
X69189028Y-17707142D01*
X69331885Y-17778571D01*
X69546171Y-17778571D01*
X68403314Y-17778571D02*
X68403314Y-16778571D01*
X68403314Y-16921428D02*
X68331885Y-16850000D01*
X68189028Y-16778571D01*
X67974742Y-16778571D01*
X67831885Y-16850000D01*
X67760457Y-16992857D01*
X67760457Y-17778571D01*
X67760457Y-16992857D02*
X67689028Y-16850000D01*
X67546171Y-16778571D01*
X67331885Y-16778571D01*
X67189028Y-16850000D01*
X67117600Y-16992857D01*
X67117600Y-17778571D01*
X65331885Y-16207142D02*
X66617600Y-18135714D01*
X64903314Y-17707142D02*
X64760457Y-17778571D01*
X64474742Y-17778571D01*
X64331885Y-17707142D01*
X64260457Y-17564285D01*
X64260457Y-17492857D01*
X64331885Y-17350000D01*
X64474742Y-17278571D01*
X64689028Y-17278571D01*
X64831885Y-17207142D01*
X64903314Y-17064285D01*
X64903314Y-16992857D01*
X64831885Y-16850000D01*
X64689028Y-16778571D01*
X64474742Y-16778571D01*
X64331885Y-16850000D01*
X63403314Y-17778571D02*
X63546171Y-17707142D01*
X63617600Y-17635714D01*
X63689028Y-17492857D01*
X63689028Y-17064285D01*
X63617600Y-16921428D01*
X63546171Y-16850000D01*
X63403314Y-16778571D01*
X63189028Y-16778571D01*
X63046171Y-16850000D01*
X62974742Y-16921428D01*
X62903314Y-17064285D01*
X62903314Y-17492857D01*
X62974742Y-17635714D01*
X63046171Y-17707142D01*
X63189028Y-17778571D01*
X63403314Y-17778571D01*
X62046171Y-17778571D02*
X62189028Y-17707142D01*
X62260457Y-17564285D01*
X62260457Y-16278571D01*
X60831885Y-17778571D02*
X60831885Y-16992857D01*
X60903314Y-16850000D01*
X61046171Y-16778571D01*
X61331885Y-16778571D01*
X61474742Y-16850000D01*
X60831885Y-17707142D02*
X60974742Y-17778571D01*
X61331885Y-17778571D01*
X61474742Y-17707142D01*
X61546171Y-17564285D01*
X61546171Y-17421428D01*
X61474742Y-17278571D01*
X61331885Y-17207142D01*
X60974742Y-17207142D01*
X60831885Y-17135714D01*
X60117600Y-17778571D02*
X60117600Y-16778571D01*
X60117600Y-17064285D02*
X60046171Y-16921428D01*
X59974742Y-16850000D01*
X59831885Y-16778571D01*
X59689028Y-16778571D01*
X59189028Y-17778571D02*
X59189028Y-16778571D01*
X59189028Y-16921428D02*
X59117600Y-16850000D01*
X58974742Y-16778571D01*
X58760457Y-16778571D01*
X58617600Y-16850000D01*
X58546171Y-16992857D01*
X58546171Y-17778571D01*
X58546171Y-16992857D02*
X58474742Y-16850000D01*
X58331885Y-16778571D01*
X58117600Y-16778571D01*
X57974742Y-16850000D01*
X57903314Y-16992857D01*
X57903314Y-17778571D01*
X56974742Y-17778571D02*
X57117600Y-17707142D01*
X57189028Y-17635714D01*
X57260457Y-17492857D01*
X57260457Y-17064285D01*
X57189028Y-16921428D01*
X57117600Y-16850000D01*
X56974742Y-16778571D01*
X56760457Y-16778571D01*
X56617600Y-16850000D01*
X56546171Y-16921428D01*
X56474742Y-17064285D01*
X56474742Y-17492857D01*
X56546171Y-17635714D01*
X56617600Y-17707142D01*
X56760457Y-17778571D01*
X56974742Y-17778571D01*
X55831885Y-16778571D02*
X55831885Y-17778571D01*
X55831885Y-16921428D02*
X55760457Y-16850000D01*
X55617600Y-16778571D01*
X55403314Y-16778571D01*
X55260457Y-16850000D01*
X55189028Y-16992857D01*
X55189028Y-17778571D01*
D13*
X26543000Y25273000D02*
X24638000Y25273000D01*
X25908000Y25908000D02*
X25908000Y20828000D01*
X22733000Y24638000D02*
X26543000Y24638000D01*
X26543000Y24638000D02*
X26543000Y25273000D01*
X25908000Y25908000D02*
X22733000Y25908000D01*
X24638000Y25908000D02*
X24638000Y25273000D01*
X24003000Y25908000D02*
X24003000Y25273000D01*
X24003000Y25273000D02*
X23368000Y25273000D01*
X23368000Y25908000D02*
X23368000Y25273000D01*
X22733000Y25908000D02*
X22733000Y20828000D01*
X25273000Y24638000D02*
X25273000Y24003000D01*
X25273000Y24003000D02*
X24003000Y24003000D01*
X24638000Y24638000D02*
X24638000Y23368000D01*
X24003000Y24638000D02*
X24003000Y24003000D01*
X23368000Y24638000D02*
X23368000Y24003000D01*
X26543000Y23368000D02*
X21463000Y23368000D01*
X26543000Y22098000D02*
X26543000Y23368000D01*
X26543000Y22733000D02*
X21463000Y22733000D01*
X26543000Y22098000D02*
X22733000Y22098000D01*
X25908000Y21463000D02*
X22733000Y21463000D01*
X25273000Y21463000D02*
X25273000Y20828000D01*
X23368000Y21463000D02*
X23368000Y20828000D01*
X25908000Y20828000D02*
X25273000Y20828000D01*
X23368000Y20828000D02*
X22733000Y20828000D01*
X22098000Y20828000D02*
X21463000Y20828000D01*
X22098000Y25273000D02*
X22098000Y20828000D01*
X21463000Y25273000D02*
X21463000Y20828000D01*
X22098000Y25273000D02*
X21463000Y25273000D01*
X22098000Y24638000D02*
X21463000Y24638000D01*
X22098000Y21463000D02*
X21463000Y21463000D01*
X24003000Y22733000D02*
X24003000Y22098000D01*
X23368000Y22733000D02*
X23368000Y22098000D01*
G36*
X24003000Y24003000D02*
G01*
X24638000Y24003000D01*
X24638000Y24638000D01*
X24003000Y24638000D01*
X24003000Y24003000D01*
G37*
X24003000Y24003000D02*
X24638000Y24003000D01*
X24638000Y24638000D01*
X24003000Y24638000D01*
X24003000Y24003000D01*
G36*
X22733000Y24003000D02*
G01*
X23368000Y24003000D01*
X23368000Y24638000D01*
X22733000Y24638000D01*
X22733000Y24003000D01*
G37*
X22733000Y24003000D02*
X23368000Y24003000D01*
X23368000Y24638000D01*
X22733000Y24638000D01*
X22733000Y24003000D01*
G36*
X23368000Y22098000D02*
G01*
X24003000Y22098000D01*
X24003000Y22733000D01*
X23368000Y22733000D01*
X23368000Y22098000D01*
G37*
X23368000Y22098000D02*
X24003000Y22098000D01*
X24003000Y22733000D01*
X23368000Y22733000D01*
X23368000Y22098000D01*
X23368000Y24003000D02*
X22733000Y24003000D01*
D14*
X110804000Y6925000D02*
X108144000Y6925000D01*
X110804000Y14605000D02*
X110804000Y6925000D01*
X108144000Y14605000D02*
X108144000Y6925000D01*
X110804000Y14605000D02*
X108144000Y14605000D01*
X110804000Y15875000D02*
X110804000Y17205000D01*
X110804000Y17205000D02*
X109474000Y17205000D01*
D15*
X26449428Y19762429D02*
X26378000Y19726715D01*
X26235142Y19726715D01*
X26163714Y19762429D01*
X26128000Y19833858D01*
X26128000Y19869572D01*
X26163714Y19941000D01*
X26235142Y19976715D01*
X26342285Y19976715D01*
X26413714Y20012429D01*
X26449428Y20083858D01*
X26449428Y20119572D01*
X26413714Y20191000D01*
X26342285Y20226715D01*
X26235142Y20226715D01*
X26163714Y20191000D01*
X25699428Y19726715D02*
X25770857Y19762429D01*
X25806571Y19798143D01*
X25842285Y19869572D01*
X25842285Y20083858D01*
X25806571Y20155286D01*
X25770857Y20191000D01*
X25699428Y20226715D01*
X25592285Y20226715D01*
X25520857Y20191000D01*
X25485142Y20155286D01*
X25449428Y20083858D01*
X25449428Y19869572D01*
X25485142Y19798143D01*
X25520857Y19762429D01*
X25592285Y19726715D01*
X25699428Y19726715D01*
X25020857Y19726715D02*
X25092285Y19762429D01*
X25128000Y19833858D01*
X25128000Y20476715D01*
X24413714Y19726715D02*
X24413714Y20119572D01*
X24449428Y20191000D01*
X24520857Y20226715D01*
X24663714Y20226715D01*
X24735142Y20191000D01*
X24413714Y19762429D02*
X24485142Y19726715D01*
X24663714Y19726715D01*
X24735142Y19762429D01*
X24770857Y19833858D01*
X24770857Y19905286D01*
X24735142Y19976715D01*
X24663714Y20012429D01*
X24485142Y20012429D01*
X24413714Y20048143D01*
X24056571Y19726715D02*
X24056571Y20226715D01*
X24056571Y20083858D02*
X24020857Y20155286D01*
X23985142Y20191000D01*
X23913714Y20226715D01*
X23842285Y20226715D01*
X23592285Y19726715D02*
X23592285Y20226715D01*
X23592285Y20155286D02*
X23556571Y20191000D01*
X23485142Y20226715D01*
X23378000Y20226715D01*
X23306571Y20191000D01*
X23270857Y20119572D01*
X23270857Y19726715D01*
X23270857Y20119572D02*
X23235142Y20191000D01*
X23163714Y20226715D01*
X23056571Y20226715D01*
X22985142Y20191000D01*
X22949428Y20119572D01*
X22949428Y19726715D01*
X22485142Y19726715D02*
X22556571Y19762429D01*
X22592285Y19798143D01*
X22628000Y19869572D01*
X22628000Y20083858D01*
X22592285Y20155286D01*
X22556571Y20191000D01*
X22485142Y20226715D01*
X22378000Y20226715D01*
X22306571Y20191000D01*
X22270857Y20155286D01*
X22235142Y20083858D01*
X22235142Y19869572D01*
X22270857Y19798143D01*
X22306571Y19762429D01*
X22378000Y19726715D01*
X22485142Y19726715D01*
X21913714Y20226715D02*
X21913714Y19726715D01*
X21913714Y20155286D02*
X21878000Y20191000D01*
X21806571Y20226715D01*
X21699428Y20226715D01*
X21628000Y20191000D01*
X21592285Y20119572D01*
X21592285Y19726715D01*
X110283523Y18752620D02*
X110283523Y18038334D01*
X110331142Y17895477D01*
X110426380Y17800239D01*
X110569238Y17752620D01*
X110664476Y17752620D01*
X109283523Y17752620D02*
X109854952Y17752620D01*
X109569238Y17752620D02*
X109569238Y18752620D01*
X109664476Y18609762D01*
X109759714Y18514524D01*
X109854952Y18466905D01*
X108950190Y18752620D02*
X108331142Y18752620D01*
X108664476Y18371667D01*
X108521619Y18371667D01*
X108426380Y18324048D01*
X108378761Y18276429D01*
X108331142Y18181191D01*
X108331142Y17943096D01*
X108378761Y17847858D01*
X108426380Y17800239D01*
X108521619Y17752620D01*
X108807333Y17752620D01*
X108902571Y17800239D01*
X108950190Y17847858D01*
M02*
