G04 #@! TF.GenerationSoftware,KiCad,Pcbnew,(5.1.9)-1*
G04 #@! TF.CreationDate,2021-06-25T18:36:14+01:00*
G04 #@! TF.ProjectId,Greaseweazle F1 Plus,47726561-7365-4776-9561-7a6c65204631,1*
G04 #@! TF.SameCoordinates,PX6312cb0PY6bcb370*
G04 #@! TF.FileFunction,Soldermask,Bot*
G04 #@! TF.FilePolarity,Negative*
%FSLAX46Y46*%
G04 Gerber Fmt 4.6, Leading zero omitted, Abs format (unit mm)*
G04 Created by KiCad (PCBNEW (5.1.9)-1) date 2021-06-25 18:36:14*
%MOMM*%
%LPD*%
G01*
G04 APERTURE LIST*
%ADD10C,0.100000*%
%ADD11O,1.900000X1.900000*%
%ADD12C,4.264000*%
%ADD13C,1.900000*%
%ADD14C,1.701140*%
%ADD15C,3.700120*%
%ADD16C,0.800000*%
%ADD17C,1.000000*%
%ADD18C,0.900000*%
%ADD19C,1.200000*%
G04 APERTURE END LIST*
D10*
G36*
X49149000Y-6985000D02*
G01*
X49784000Y-6985000D01*
X49784000Y-6350000D01*
X49149000Y-6350000D01*
X49149000Y-6985000D01*
G37*
X49149000Y-6985000D02*
X49784000Y-6985000D01*
X49784000Y-6350000D01*
X49149000Y-6350000D01*
X49149000Y-6985000D01*
G36*
X50419000Y-8890000D02*
G01*
X51054000Y-8890000D01*
X51054000Y-8255000D01*
X50419000Y-8255000D01*
X50419000Y-8890000D01*
G37*
X50419000Y-8890000D02*
X51054000Y-8890000D01*
X51054000Y-8255000D01*
X50419000Y-8255000D01*
X50419000Y-8890000D01*
G36*
X52959000Y-8890000D02*
G01*
X53594000Y-8890000D01*
X53594000Y-8255000D01*
X52959000Y-8255000D01*
X52959000Y-8890000D01*
G37*
X52959000Y-8890000D02*
X53594000Y-8890000D01*
X53594000Y-8255000D01*
X52959000Y-8255000D01*
X52959000Y-8890000D01*
G36*
X53594000Y-7620000D02*
G01*
X54229000Y-7620000D01*
X54229000Y-6985000D01*
X53594000Y-6985000D01*
X53594000Y-7620000D01*
G37*
X53594000Y-7620000D02*
X54229000Y-7620000D01*
X54229000Y-6985000D01*
X53594000Y-6985000D01*
X53594000Y-7620000D01*
G36*
X52959000Y-5080000D02*
G01*
X53594000Y-5080000D01*
X53594000Y-4445000D01*
X52959000Y-4445000D01*
X52959000Y-5080000D01*
G37*
X52959000Y-5080000D02*
X53594000Y-5080000D01*
X53594000Y-4445000D01*
X52959000Y-4445000D01*
X52959000Y-5080000D01*
G36*
X52324000Y-5080000D02*
G01*
X52959000Y-5080000D01*
X52959000Y-4445000D01*
X52324000Y-4445000D01*
X52324000Y-5080000D01*
G37*
X52324000Y-5080000D02*
X52959000Y-5080000D01*
X52959000Y-4445000D01*
X52324000Y-4445000D01*
X52324000Y-5080000D01*
G36*
X51689000Y-4445000D02*
G01*
X52324000Y-4445000D01*
X52324000Y-3810000D01*
X51689000Y-3810000D01*
X51689000Y-4445000D01*
G37*
X51689000Y-4445000D02*
X52324000Y-4445000D01*
X52324000Y-3810000D01*
X51689000Y-3810000D01*
X51689000Y-4445000D01*
G36*
X51689000Y-5080000D02*
G01*
X52324000Y-5080000D01*
X52324000Y-4445000D01*
X51689000Y-4445000D01*
X51689000Y-5080000D01*
G37*
X51689000Y-5080000D02*
X52324000Y-5080000D01*
X52324000Y-4445000D01*
X51689000Y-4445000D01*
X51689000Y-5080000D01*
G36*
X51054000Y-5080000D02*
G01*
X51689000Y-5080000D01*
X51689000Y-4445000D01*
X51054000Y-4445000D01*
X51054000Y-5080000D01*
G37*
X51054000Y-5080000D02*
X51689000Y-5080000D01*
X51689000Y-4445000D01*
X51054000Y-4445000D01*
X51054000Y-5080000D01*
G36*
X50419000Y-5080000D02*
G01*
X51054000Y-5080000D01*
X51054000Y-4445000D01*
X50419000Y-4445000D01*
X50419000Y-5080000D01*
G37*
X50419000Y-5080000D02*
X51054000Y-5080000D01*
X51054000Y-4445000D01*
X50419000Y-4445000D01*
X50419000Y-5080000D01*
G36*
X50419000Y-4445000D02*
G01*
X51054000Y-4445000D01*
X51054000Y-3810000D01*
X50419000Y-3810000D01*
X50419000Y-4445000D01*
G37*
X50419000Y-4445000D02*
X51054000Y-4445000D01*
X51054000Y-3810000D01*
X50419000Y-3810000D01*
X50419000Y-4445000D01*
G36*
X49149000Y-8890000D02*
G01*
X49784000Y-8890000D01*
X49784000Y-8255000D01*
X49149000Y-8255000D01*
X49149000Y-8890000D01*
G37*
X49149000Y-8890000D02*
X49784000Y-8890000D01*
X49784000Y-8255000D01*
X49149000Y-8255000D01*
X49149000Y-8890000D01*
G36*
X49149000Y-5080000D02*
G01*
X49784000Y-5080000D01*
X49784000Y-4445000D01*
X49149000Y-4445000D01*
X49149000Y-5080000D01*
G37*
X49149000Y-5080000D02*
X49784000Y-5080000D01*
X49784000Y-4445000D01*
X49149000Y-4445000D01*
X49149000Y-5080000D01*
G36*
X52324000Y-5715000D02*
G01*
X52959000Y-5715000D01*
X52959000Y-5080000D01*
X52324000Y-5080000D01*
X52324000Y-5715000D01*
G37*
X52324000Y-5715000D02*
X52959000Y-5715000D01*
X52959000Y-5080000D01*
X52324000Y-5080000D01*
X52324000Y-5715000D01*
G36*
X51689000Y-6350000D02*
G01*
X52324000Y-6350000D01*
X52324000Y-5715000D01*
X51689000Y-5715000D01*
X51689000Y-6350000D01*
G37*
X51689000Y-6350000D02*
X52324000Y-6350000D01*
X52324000Y-5715000D01*
X51689000Y-5715000D01*
X51689000Y-6350000D01*
G36*
X50419000Y-6350000D02*
G01*
X51054000Y-6350000D01*
X51054000Y-5715000D01*
X50419000Y-5715000D01*
X50419000Y-6350000D01*
G37*
X50419000Y-6350000D02*
X51054000Y-6350000D01*
X51054000Y-5715000D01*
X50419000Y-5715000D01*
X50419000Y-6350000D01*
G36*
X51054000Y-6350000D02*
G01*
X51689000Y-6350000D01*
X51689000Y-5715000D01*
X51054000Y-5715000D01*
X51054000Y-6350000D01*
G37*
X51054000Y-6350000D02*
X51689000Y-6350000D01*
X51689000Y-5715000D01*
X51054000Y-5715000D01*
X51054000Y-6350000D01*
G36*
X51054000Y-5715000D02*
G01*
X51689000Y-5715000D01*
X51689000Y-5080000D01*
X51054000Y-5080000D01*
X51054000Y-5715000D01*
G37*
X51054000Y-5715000D02*
X51689000Y-5715000D01*
X51689000Y-5080000D01*
X51054000Y-5080000D01*
X51054000Y-5715000D01*
G36*
X51054000Y-5715000D02*
G01*
X51689000Y-5715000D01*
X51689000Y-5080000D01*
X51054000Y-5080000D01*
X51054000Y-5715000D01*
G37*
X51054000Y-5715000D02*
X51689000Y-5715000D01*
X51689000Y-5080000D01*
X51054000Y-5080000D01*
X51054000Y-5715000D01*
G36*
X51054000Y-6350000D02*
G01*
X51689000Y-6350000D01*
X51689000Y-5715000D01*
X51054000Y-5715000D01*
X51054000Y-6350000D01*
G37*
X51054000Y-6350000D02*
X51689000Y-6350000D01*
X51689000Y-5715000D01*
X51054000Y-5715000D01*
X51054000Y-6350000D01*
G36*
X50419000Y-6350000D02*
G01*
X51054000Y-6350000D01*
X51054000Y-5715000D01*
X50419000Y-5715000D01*
X50419000Y-6350000D01*
G37*
X50419000Y-6350000D02*
X51054000Y-6350000D01*
X51054000Y-5715000D01*
X50419000Y-5715000D01*
X50419000Y-6350000D01*
G36*
X51689000Y-6350000D02*
G01*
X52324000Y-6350000D01*
X52324000Y-5715000D01*
X51689000Y-5715000D01*
X51689000Y-6350000D01*
G37*
X51689000Y-6350000D02*
X52324000Y-6350000D01*
X52324000Y-5715000D01*
X51689000Y-5715000D01*
X51689000Y-6350000D01*
G36*
X52324000Y-5715000D02*
G01*
X52959000Y-5715000D01*
X52959000Y-5080000D01*
X52324000Y-5080000D01*
X52324000Y-5715000D01*
G37*
X52324000Y-5715000D02*
X52959000Y-5715000D01*
X52959000Y-5080000D01*
X52324000Y-5080000D01*
X52324000Y-5715000D01*
G36*
X49149000Y-5080000D02*
G01*
X49784000Y-5080000D01*
X49784000Y-4445000D01*
X49149000Y-4445000D01*
X49149000Y-5080000D01*
G37*
X49149000Y-5080000D02*
X49784000Y-5080000D01*
X49784000Y-4445000D01*
X49149000Y-4445000D01*
X49149000Y-5080000D01*
G36*
X49149000Y-8890000D02*
G01*
X49784000Y-8890000D01*
X49784000Y-8255000D01*
X49149000Y-8255000D01*
X49149000Y-8890000D01*
G37*
X49149000Y-8890000D02*
X49784000Y-8890000D01*
X49784000Y-8255000D01*
X49149000Y-8255000D01*
X49149000Y-8890000D01*
G36*
X50419000Y-4445000D02*
G01*
X51054000Y-4445000D01*
X51054000Y-3810000D01*
X50419000Y-3810000D01*
X50419000Y-4445000D01*
G37*
X50419000Y-4445000D02*
X51054000Y-4445000D01*
X51054000Y-3810000D01*
X50419000Y-3810000D01*
X50419000Y-4445000D01*
G36*
X50419000Y-5080000D02*
G01*
X51054000Y-5080000D01*
X51054000Y-4445000D01*
X50419000Y-4445000D01*
X50419000Y-5080000D01*
G37*
X50419000Y-5080000D02*
X51054000Y-5080000D01*
X51054000Y-4445000D01*
X50419000Y-4445000D01*
X50419000Y-5080000D01*
G36*
X51054000Y-5080000D02*
G01*
X51689000Y-5080000D01*
X51689000Y-4445000D01*
X51054000Y-4445000D01*
X51054000Y-5080000D01*
G37*
X51054000Y-5080000D02*
X51689000Y-5080000D01*
X51689000Y-4445000D01*
X51054000Y-4445000D01*
X51054000Y-5080000D01*
G36*
X51689000Y-5080000D02*
G01*
X52324000Y-5080000D01*
X52324000Y-4445000D01*
X51689000Y-4445000D01*
X51689000Y-5080000D01*
G37*
X51689000Y-5080000D02*
X52324000Y-5080000D01*
X52324000Y-4445000D01*
X51689000Y-4445000D01*
X51689000Y-5080000D01*
G36*
X51689000Y-4445000D02*
G01*
X52324000Y-4445000D01*
X52324000Y-3810000D01*
X51689000Y-3810000D01*
X51689000Y-4445000D01*
G37*
X51689000Y-4445000D02*
X52324000Y-4445000D01*
X52324000Y-3810000D01*
X51689000Y-3810000D01*
X51689000Y-4445000D01*
G36*
X52324000Y-5080000D02*
G01*
X52959000Y-5080000D01*
X52959000Y-4445000D01*
X52324000Y-4445000D01*
X52324000Y-5080000D01*
G37*
X52324000Y-5080000D02*
X52959000Y-5080000D01*
X52959000Y-4445000D01*
X52324000Y-4445000D01*
X52324000Y-5080000D01*
G36*
X52959000Y-5080000D02*
G01*
X53594000Y-5080000D01*
X53594000Y-4445000D01*
X52959000Y-4445000D01*
X52959000Y-5080000D01*
G37*
X52959000Y-5080000D02*
X53594000Y-5080000D01*
X53594000Y-4445000D01*
X52959000Y-4445000D01*
X52959000Y-5080000D01*
G36*
X53594000Y-7620000D02*
G01*
X54229000Y-7620000D01*
X54229000Y-6985000D01*
X53594000Y-6985000D01*
X53594000Y-7620000D01*
G37*
X53594000Y-7620000D02*
X54229000Y-7620000D01*
X54229000Y-6985000D01*
X53594000Y-6985000D01*
X53594000Y-7620000D01*
G36*
X52959000Y-8890000D02*
G01*
X53594000Y-8890000D01*
X53594000Y-8255000D01*
X52959000Y-8255000D01*
X52959000Y-8890000D01*
G37*
X52959000Y-8890000D02*
X53594000Y-8890000D01*
X53594000Y-8255000D01*
X52959000Y-8255000D01*
X52959000Y-8890000D01*
G36*
X50419000Y-8890000D02*
G01*
X51054000Y-8890000D01*
X51054000Y-8255000D01*
X50419000Y-8255000D01*
X50419000Y-8890000D01*
G37*
X50419000Y-8890000D02*
X51054000Y-8890000D01*
X51054000Y-8255000D01*
X50419000Y-8255000D01*
X50419000Y-8890000D01*
G36*
X49149000Y-6985000D02*
G01*
X49784000Y-6985000D01*
X49784000Y-6350000D01*
X49149000Y-6350000D01*
X49149000Y-6985000D01*
G37*
X49149000Y-6985000D02*
X49784000Y-6985000D01*
X49784000Y-6350000D01*
X49149000Y-6350000D01*
X49149000Y-6985000D01*
G36*
X49149000Y-6985000D02*
G01*
X49784000Y-6985000D01*
X49784000Y-6350000D01*
X49149000Y-6350000D01*
X49149000Y-6985000D01*
G37*
X49149000Y-6985000D02*
X49784000Y-6985000D01*
X49784000Y-6350000D01*
X49149000Y-6350000D01*
X49149000Y-6985000D01*
G36*
X50419000Y-8890000D02*
G01*
X51054000Y-8890000D01*
X51054000Y-8255000D01*
X50419000Y-8255000D01*
X50419000Y-8890000D01*
G37*
X50419000Y-8890000D02*
X51054000Y-8890000D01*
X51054000Y-8255000D01*
X50419000Y-8255000D01*
X50419000Y-8890000D01*
G36*
X52959000Y-8890000D02*
G01*
X53594000Y-8890000D01*
X53594000Y-8255000D01*
X52959000Y-8255000D01*
X52959000Y-8890000D01*
G37*
X52959000Y-8890000D02*
X53594000Y-8890000D01*
X53594000Y-8255000D01*
X52959000Y-8255000D01*
X52959000Y-8890000D01*
G36*
X53594000Y-7620000D02*
G01*
X54229000Y-7620000D01*
X54229000Y-6985000D01*
X53594000Y-6985000D01*
X53594000Y-7620000D01*
G37*
X53594000Y-7620000D02*
X54229000Y-7620000D01*
X54229000Y-6985000D01*
X53594000Y-6985000D01*
X53594000Y-7620000D01*
G36*
X52959000Y-5080000D02*
G01*
X53594000Y-5080000D01*
X53594000Y-4445000D01*
X52959000Y-4445000D01*
X52959000Y-5080000D01*
G37*
X52959000Y-5080000D02*
X53594000Y-5080000D01*
X53594000Y-4445000D01*
X52959000Y-4445000D01*
X52959000Y-5080000D01*
G36*
X52324000Y-5080000D02*
G01*
X52959000Y-5080000D01*
X52959000Y-4445000D01*
X52324000Y-4445000D01*
X52324000Y-5080000D01*
G37*
X52324000Y-5080000D02*
X52959000Y-5080000D01*
X52959000Y-4445000D01*
X52324000Y-4445000D01*
X52324000Y-5080000D01*
G36*
X51689000Y-4445000D02*
G01*
X52324000Y-4445000D01*
X52324000Y-3810000D01*
X51689000Y-3810000D01*
X51689000Y-4445000D01*
G37*
X51689000Y-4445000D02*
X52324000Y-4445000D01*
X52324000Y-3810000D01*
X51689000Y-3810000D01*
X51689000Y-4445000D01*
G36*
X51689000Y-5080000D02*
G01*
X52324000Y-5080000D01*
X52324000Y-4445000D01*
X51689000Y-4445000D01*
X51689000Y-5080000D01*
G37*
X51689000Y-5080000D02*
X52324000Y-5080000D01*
X52324000Y-4445000D01*
X51689000Y-4445000D01*
X51689000Y-5080000D01*
G36*
X51054000Y-5080000D02*
G01*
X51689000Y-5080000D01*
X51689000Y-4445000D01*
X51054000Y-4445000D01*
X51054000Y-5080000D01*
G37*
X51054000Y-5080000D02*
X51689000Y-5080000D01*
X51689000Y-4445000D01*
X51054000Y-4445000D01*
X51054000Y-5080000D01*
G36*
X50419000Y-5080000D02*
G01*
X51054000Y-5080000D01*
X51054000Y-4445000D01*
X50419000Y-4445000D01*
X50419000Y-5080000D01*
G37*
X50419000Y-5080000D02*
X51054000Y-5080000D01*
X51054000Y-4445000D01*
X50419000Y-4445000D01*
X50419000Y-5080000D01*
G36*
X50419000Y-4445000D02*
G01*
X51054000Y-4445000D01*
X51054000Y-3810000D01*
X50419000Y-3810000D01*
X50419000Y-4445000D01*
G37*
X50419000Y-4445000D02*
X51054000Y-4445000D01*
X51054000Y-3810000D01*
X50419000Y-3810000D01*
X50419000Y-4445000D01*
G36*
X49149000Y-8890000D02*
G01*
X49784000Y-8890000D01*
X49784000Y-8255000D01*
X49149000Y-8255000D01*
X49149000Y-8890000D01*
G37*
X49149000Y-8890000D02*
X49784000Y-8890000D01*
X49784000Y-8255000D01*
X49149000Y-8255000D01*
X49149000Y-8890000D01*
G36*
X49149000Y-5080000D02*
G01*
X49784000Y-5080000D01*
X49784000Y-4445000D01*
X49149000Y-4445000D01*
X49149000Y-5080000D01*
G37*
X49149000Y-5080000D02*
X49784000Y-5080000D01*
X49784000Y-4445000D01*
X49149000Y-4445000D01*
X49149000Y-5080000D01*
G36*
X52324000Y-5715000D02*
G01*
X52959000Y-5715000D01*
X52959000Y-5080000D01*
X52324000Y-5080000D01*
X52324000Y-5715000D01*
G37*
X52324000Y-5715000D02*
X52959000Y-5715000D01*
X52959000Y-5080000D01*
X52324000Y-5080000D01*
X52324000Y-5715000D01*
G36*
X51689000Y-6350000D02*
G01*
X52324000Y-6350000D01*
X52324000Y-5715000D01*
X51689000Y-5715000D01*
X51689000Y-6350000D01*
G37*
X51689000Y-6350000D02*
X52324000Y-6350000D01*
X52324000Y-5715000D01*
X51689000Y-5715000D01*
X51689000Y-6350000D01*
G36*
X50419000Y-6350000D02*
G01*
X51054000Y-6350000D01*
X51054000Y-5715000D01*
X50419000Y-5715000D01*
X50419000Y-6350000D01*
G37*
X50419000Y-6350000D02*
X51054000Y-6350000D01*
X51054000Y-5715000D01*
X50419000Y-5715000D01*
X50419000Y-6350000D01*
G36*
X51054000Y-6350000D02*
G01*
X51689000Y-6350000D01*
X51689000Y-5715000D01*
X51054000Y-5715000D01*
X51054000Y-6350000D01*
G37*
X51054000Y-6350000D02*
X51689000Y-6350000D01*
X51689000Y-5715000D01*
X51054000Y-5715000D01*
X51054000Y-6350000D01*
G36*
X51054000Y-5715000D02*
G01*
X51689000Y-5715000D01*
X51689000Y-5080000D01*
X51054000Y-5080000D01*
X51054000Y-5715000D01*
G37*
X51054000Y-5715000D02*
X51689000Y-5715000D01*
X51689000Y-5080000D01*
X51054000Y-5080000D01*
X51054000Y-5715000D01*
G36*
X51054000Y-5715000D02*
G01*
X51689000Y-5715000D01*
X51689000Y-5080000D01*
X51054000Y-5080000D01*
X51054000Y-5715000D01*
G37*
X51054000Y-5715000D02*
X51689000Y-5715000D01*
X51689000Y-5080000D01*
X51054000Y-5080000D01*
X51054000Y-5715000D01*
G36*
X51054000Y-6350000D02*
G01*
X51689000Y-6350000D01*
X51689000Y-5715000D01*
X51054000Y-5715000D01*
X51054000Y-6350000D01*
G37*
X51054000Y-6350000D02*
X51689000Y-6350000D01*
X51689000Y-5715000D01*
X51054000Y-5715000D01*
X51054000Y-6350000D01*
G36*
X50419000Y-6350000D02*
G01*
X51054000Y-6350000D01*
X51054000Y-5715000D01*
X50419000Y-5715000D01*
X50419000Y-6350000D01*
G37*
X50419000Y-6350000D02*
X51054000Y-6350000D01*
X51054000Y-5715000D01*
X50419000Y-5715000D01*
X50419000Y-6350000D01*
G36*
X51689000Y-6350000D02*
G01*
X52324000Y-6350000D01*
X52324000Y-5715000D01*
X51689000Y-5715000D01*
X51689000Y-6350000D01*
G37*
X51689000Y-6350000D02*
X52324000Y-6350000D01*
X52324000Y-5715000D01*
X51689000Y-5715000D01*
X51689000Y-6350000D01*
G36*
X52324000Y-5715000D02*
G01*
X52959000Y-5715000D01*
X52959000Y-5080000D01*
X52324000Y-5080000D01*
X52324000Y-5715000D01*
G37*
X52324000Y-5715000D02*
X52959000Y-5715000D01*
X52959000Y-5080000D01*
X52324000Y-5080000D01*
X52324000Y-5715000D01*
G36*
X49149000Y-5080000D02*
G01*
X49784000Y-5080000D01*
X49784000Y-4445000D01*
X49149000Y-4445000D01*
X49149000Y-5080000D01*
G37*
X49149000Y-5080000D02*
X49784000Y-5080000D01*
X49784000Y-4445000D01*
X49149000Y-4445000D01*
X49149000Y-5080000D01*
G36*
X49149000Y-8890000D02*
G01*
X49784000Y-8890000D01*
X49784000Y-8255000D01*
X49149000Y-8255000D01*
X49149000Y-8890000D01*
G37*
X49149000Y-8890000D02*
X49784000Y-8890000D01*
X49784000Y-8255000D01*
X49149000Y-8255000D01*
X49149000Y-8890000D01*
G36*
X50419000Y-4445000D02*
G01*
X51054000Y-4445000D01*
X51054000Y-3810000D01*
X50419000Y-3810000D01*
X50419000Y-4445000D01*
G37*
X50419000Y-4445000D02*
X51054000Y-4445000D01*
X51054000Y-3810000D01*
X50419000Y-3810000D01*
X50419000Y-4445000D01*
G36*
X50419000Y-5080000D02*
G01*
X51054000Y-5080000D01*
X51054000Y-4445000D01*
X50419000Y-4445000D01*
X50419000Y-5080000D01*
G37*
X50419000Y-5080000D02*
X51054000Y-5080000D01*
X51054000Y-4445000D01*
X50419000Y-4445000D01*
X50419000Y-5080000D01*
G36*
X51054000Y-5080000D02*
G01*
X51689000Y-5080000D01*
X51689000Y-4445000D01*
X51054000Y-4445000D01*
X51054000Y-5080000D01*
G37*
X51054000Y-5080000D02*
X51689000Y-5080000D01*
X51689000Y-4445000D01*
X51054000Y-4445000D01*
X51054000Y-5080000D01*
G36*
X51689000Y-5080000D02*
G01*
X52324000Y-5080000D01*
X52324000Y-4445000D01*
X51689000Y-4445000D01*
X51689000Y-5080000D01*
G37*
X51689000Y-5080000D02*
X52324000Y-5080000D01*
X52324000Y-4445000D01*
X51689000Y-4445000D01*
X51689000Y-5080000D01*
G36*
X51689000Y-4445000D02*
G01*
X52324000Y-4445000D01*
X52324000Y-3810000D01*
X51689000Y-3810000D01*
X51689000Y-4445000D01*
G37*
X51689000Y-4445000D02*
X52324000Y-4445000D01*
X52324000Y-3810000D01*
X51689000Y-3810000D01*
X51689000Y-4445000D01*
G36*
X52324000Y-5080000D02*
G01*
X52959000Y-5080000D01*
X52959000Y-4445000D01*
X52324000Y-4445000D01*
X52324000Y-5080000D01*
G37*
X52324000Y-5080000D02*
X52959000Y-5080000D01*
X52959000Y-4445000D01*
X52324000Y-4445000D01*
X52324000Y-5080000D01*
G36*
X52959000Y-5080000D02*
G01*
X53594000Y-5080000D01*
X53594000Y-4445000D01*
X52959000Y-4445000D01*
X52959000Y-5080000D01*
G37*
X52959000Y-5080000D02*
X53594000Y-5080000D01*
X53594000Y-4445000D01*
X52959000Y-4445000D01*
X52959000Y-5080000D01*
G36*
X53594000Y-7620000D02*
G01*
X54229000Y-7620000D01*
X54229000Y-6985000D01*
X53594000Y-6985000D01*
X53594000Y-7620000D01*
G37*
X53594000Y-7620000D02*
X54229000Y-7620000D01*
X54229000Y-6985000D01*
X53594000Y-6985000D01*
X53594000Y-7620000D01*
G36*
X52959000Y-8890000D02*
G01*
X53594000Y-8890000D01*
X53594000Y-8255000D01*
X52959000Y-8255000D01*
X52959000Y-8890000D01*
G37*
X52959000Y-8890000D02*
X53594000Y-8890000D01*
X53594000Y-8255000D01*
X52959000Y-8255000D01*
X52959000Y-8890000D01*
G36*
X50419000Y-8890000D02*
G01*
X51054000Y-8890000D01*
X51054000Y-8255000D01*
X50419000Y-8255000D01*
X50419000Y-8890000D01*
G37*
X50419000Y-8890000D02*
X51054000Y-8890000D01*
X51054000Y-8255000D01*
X50419000Y-8255000D01*
X50419000Y-8890000D01*
G36*
X49149000Y-6985000D02*
G01*
X49784000Y-6985000D01*
X49784000Y-6350000D01*
X49149000Y-6350000D01*
X49149000Y-6985000D01*
G37*
X49149000Y-6985000D02*
X49784000Y-6985000D01*
X49784000Y-6350000D01*
X49149000Y-6350000D01*
X49149000Y-6985000D01*
D11*
X28829000Y48260000D03*
X26289000Y48260000D03*
X23749000Y48260000D03*
G36*
G01*
X22059000Y47310000D02*
X20359000Y47310000D01*
G75*
G02*
X20259000Y47410000I0J100000D01*
G01*
X20259000Y49110000D01*
G75*
G02*
X20359000Y49210000I100000J0D01*
G01*
X22059000Y49210000D01*
G75*
G02*
X22159000Y49110000I0J-100000D01*
G01*
X22159000Y47410000D01*
G75*
G02*
X22059000Y47310000I-100000J0D01*
G01*
G37*
X5334000Y0D03*
X2794000Y0D03*
G36*
G01*
X1104000Y-950000D02*
X-596000Y-950000D01*
G75*
G02*
X-696000Y-850000I0J100000D01*
G01*
X-696000Y850000D01*
G75*
G02*
X-596000Y950000I100000J0D01*
G01*
X1104000Y950000D01*
G75*
G02*
X1204000Y850000I0J-100000D01*
G01*
X1204000Y-850000D01*
G75*
G02*
X1104000Y-950000I-100000J0D01*
G01*
G37*
X14224000Y0D03*
G36*
G01*
X12534000Y-950000D02*
X10834000Y-950000D01*
G75*
G02*
X10734000Y-850000I0J100000D01*
G01*
X10734000Y850000D01*
G75*
G02*
X10834000Y950000I100000J0D01*
G01*
X12534000Y950000D01*
G75*
G02*
X12634000Y850000I0J-100000D01*
G01*
X12634000Y-850000D01*
G75*
G02*
X12534000Y-950000I-100000J0D01*
G01*
G37*
D12*
X73114000Y-21584600D03*
X3114000Y-21584600D03*
X73114000Y72415400D03*
X3114000Y72415400D03*
D11*
X40894000Y62865000D03*
G36*
G01*
X39204000Y61915000D02*
X37504000Y61915000D01*
G75*
G02*
X37404000Y62015000I0J100000D01*
G01*
X37404000Y63715000D01*
G75*
G02*
X37504000Y63815000I100000J0D01*
G01*
X39204000Y63815000D01*
G75*
G02*
X39304000Y63715000I0J-100000D01*
G01*
X39304000Y62015000D01*
G75*
G02*
X39204000Y61915000I-100000J0D01*
G01*
G37*
X49784000Y62865000D03*
G36*
G01*
X48094000Y61915000D02*
X46394000Y61915000D01*
G75*
G02*
X46294000Y62015000I0J100000D01*
G01*
X46294000Y63715000D01*
G75*
G02*
X46394000Y63815000I100000J0D01*
G01*
X48094000Y63815000D01*
G75*
G02*
X48194000Y63715000I0J-100000D01*
G01*
X48194000Y62015000D01*
G75*
G02*
X48094000Y61915000I-100000J0D01*
G01*
G37*
X58674000Y62865000D03*
G36*
G01*
X56984000Y61915000D02*
X55284000Y61915000D01*
G75*
G02*
X55184000Y62015000I0J100000D01*
G01*
X55184000Y63715000D01*
G75*
G02*
X55284000Y63815000I100000J0D01*
G01*
X56984000Y63815000D01*
G75*
G02*
X57084000Y63715000I0J-100000D01*
G01*
X57084000Y62015000D01*
G75*
G02*
X56984000Y61915000I-100000J0D01*
G01*
G37*
X67564000Y62865000D03*
G36*
G01*
X65874000Y61915000D02*
X64174000Y61915000D01*
G75*
G02*
X64074000Y62015000I0J100000D01*
G01*
X64074000Y63715000D01*
G75*
G02*
X64174000Y63815000I100000J0D01*
G01*
X65874000Y63815000D01*
G75*
G02*
X65974000Y63715000I0J-100000D01*
G01*
X65974000Y62015000D01*
G75*
G02*
X65874000Y61915000I-100000J0D01*
G01*
G37*
D13*
X57150000Y26657300D03*
X59690000Y26657300D03*
X62230000Y26593800D03*
G36*
G01*
X56300000Y25067300D02*
X58000000Y25067300D01*
G75*
G02*
X58100000Y24967300I0J-100000D01*
G01*
X58100000Y23267300D01*
G75*
G02*
X58000000Y23167300I-100000J0D01*
G01*
X56300000Y23167300D01*
G75*
G02*
X56200000Y23267300I0J100000D01*
G01*
X56200000Y24967300D01*
G75*
G02*
X56300000Y25067300I100000J0D01*
G01*
G37*
X62230000Y24117300D03*
X59690000Y24117300D03*
X23876000Y35687000D03*
X23876000Y20447000D03*
X26416000Y35687000D03*
X26416000Y20447000D03*
X28956000Y35687000D03*
X28956000Y20447000D03*
X31496000Y35687000D03*
X31496000Y20447000D03*
X34036000Y35687000D03*
X34036000Y20447000D03*
X36576000Y35687000D03*
X36576000Y20447000D03*
X39116000Y35687000D03*
X39116000Y20447000D03*
X41656000Y35687000D03*
X41656000Y20447000D03*
X44196000Y35687000D03*
X44196000Y20447000D03*
X46736000Y35687000D03*
X46736000Y20447000D03*
X49276000Y35687000D03*
X49276000Y20447000D03*
X51816000Y35687000D03*
X51816000Y20447000D03*
X54356000Y35687000D03*
X54356000Y20447000D03*
X56896000Y35687000D03*
X56896000Y20447000D03*
X59436000Y35687000D03*
X59436000Y20447000D03*
X61976000Y35687000D03*
X61976000Y20447000D03*
X64516000Y35687000D03*
X64516000Y20447000D03*
X67056000Y35687000D03*
X67056000Y20447000D03*
X69596000Y35687000D03*
X69596000Y20447000D03*
G36*
G01*
X71286000Y36637000D02*
X72986000Y36637000D01*
G75*
G02*
X73086000Y36537000I0J-100000D01*
G01*
X73086000Y34837000D01*
G75*
G02*
X72986000Y34737000I-100000J0D01*
G01*
X71286000Y34737000D01*
G75*
G02*
X71186000Y34837000I0J100000D01*
G01*
X71186000Y36537000D01*
G75*
G02*
X71286000Y36637000I100000J0D01*
G01*
G37*
X72136000Y20447000D03*
X27686000Y24257000D03*
X27686000Y26797000D03*
X27686000Y29337000D03*
G36*
G01*
X26836000Y32827000D02*
X28536000Y32827000D01*
G75*
G02*
X28636000Y32727000I0J-100000D01*
G01*
X28636000Y31027000D01*
G75*
G02*
X28536000Y30927000I-100000J0D01*
G01*
X26836000Y30927000D01*
G75*
G02*
X26736000Y31027000I0J100000D01*
G01*
X26736000Y32727000D01*
G75*
G02*
X26836000Y32827000I100000J0D01*
G01*
G37*
D11*
X254000Y7620000D03*
G36*
G01*
X1944000Y8570000D02*
X3644000Y8570000D01*
G75*
G02*
X3744000Y8470000I0J-100000D01*
G01*
X3744000Y6770000D01*
G75*
G02*
X3644000Y6670000I-100000J0D01*
G01*
X1944000Y6670000D01*
G75*
G02*
X1844000Y6770000I0J100000D01*
G01*
X1844000Y8470000D01*
G75*
G02*
X1944000Y8570000I100000J0D01*
G01*
G37*
X254000Y3810000D03*
G36*
G01*
X1944000Y4760000D02*
X3644000Y4760000D01*
G75*
G02*
X3744000Y4660000I0J-100000D01*
G01*
X3744000Y2960000D01*
G75*
G02*
X3644000Y2860000I-100000J0D01*
G01*
X1944000Y2860000D01*
G75*
G02*
X1844000Y2960000I0J100000D01*
G01*
X1844000Y4660000D01*
G75*
G02*
X1944000Y4760000I100000J0D01*
G01*
G37*
X2794000Y53340000D03*
G36*
G01*
X1104000Y52390000D02*
X-596000Y52390000D01*
G75*
G02*
X-696000Y52490000I0J100000D01*
G01*
X-696000Y54190000D01*
G75*
G02*
X-596000Y54290000I100000J0D01*
G01*
X1104000Y54290000D01*
G75*
G02*
X1204000Y54190000I0J-100000D01*
G01*
X1204000Y52490000D01*
G75*
G02*
X1104000Y52390000I-100000J0D01*
G01*
G37*
X5080000Y-7493000D03*
X5080000Y-10033000D03*
X5080000Y-12573000D03*
G36*
G01*
X6030000Y-14263000D02*
X6030000Y-15963000D01*
G75*
G02*
X5930000Y-16063000I-100000J0D01*
G01*
X4230000Y-16063000D01*
G75*
G02*
X4130000Y-15963000I0J100000D01*
G01*
X4130000Y-14263000D01*
G75*
G02*
X4230000Y-14163000I100000J0D01*
G01*
X5930000Y-14163000D01*
G75*
G02*
X6030000Y-14263000I0J-100000D01*
G01*
G37*
X254000Y47625000D03*
G36*
G01*
X1944000Y48575000D02*
X3644000Y48575000D01*
G75*
G02*
X3744000Y48475000I0J-100000D01*
G01*
X3744000Y46775000D01*
G75*
G02*
X3644000Y46675000I-100000J0D01*
G01*
X1944000Y46675000D01*
G75*
G02*
X1844000Y46775000I0J100000D01*
G01*
X1844000Y48475000D01*
G75*
G02*
X1944000Y48575000I100000J0D01*
G01*
G37*
X-4191000Y55397400D03*
X-4191000Y52857400D03*
X-4191000Y50317400D03*
G36*
G01*
X-3241000Y48627400D02*
X-3241000Y46927400D01*
G75*
G02*
X-3341000Y46827400I-100000J0D01*
G01*
X-5041000Y46827400D01*
G75*
G02*
X-5141000Y46927400I0J100000D01*
G01*
X-5141000Y48627400D01*
G75*
G02*
X-5041000Y48727400I100000J0D01*
G01*
X-3341000Y48727400D01*
G75*
G02*
X-3241000Y48627400I0J-100000D01*
G01*
G37*
G36*
G01*
X-696000Y31001600D02*
X-696000Y32701600D01*
G75*
G02*
X-596000Y32801600I100000J0D01*
G01*
X1104000Y32801600D01*
G75*
G02*
X1204000Y32701600I0J-100000D01*
G01*
X1204000Y31001600D01*
G75*
G02*
X1104000Y30901600I-100000J0D01*
G01*
X-596000Y30901600D01*
G75*
G02*
X-696000Y31001600I0J100000D01*
G01*
G37*
X254000Y29311600D03*
X254000Y26771600D03*
X254000Y24231600D03*
X254000Y36830000D03*
X254000Y39370000D03*
G36*
G01*
X-696000Y41060000D02*
X-696000Y42760000D01*
G75*
G02*
X-596000Y42860000I100000J0D01*
G01*
X1104000Y42860000D01*
G75*
G02*
X1204000Y42760000I0J-100000D01*
G01*
X1204000Y41060000D01*
G75*
G02*
X1104000Y40960000I-100000J0D01*
G01*
X-596000Y40960000D01*
G75*
G02*
X-696000Y41060000I0J100000D01*
G01*
G37*
G36*
G01*
X66609000Y-13755000D02*
X66609000Y-15455000D01*
G75*
G02*
X66509000Y-15555000I-100000J0D01*
G01*
X64809000Y-15555000D01*
G75*
G02*
X64709000Y-15455000I0J100000D01*
G01*
X64709000Y-13755000D01*
G75*
G02*
X64809000Y-13655000I100000J0D01*
G01*
X66509000Y-13655000D01*
G75*
G02*
X66609000Y-13755000I0J-100000D01*
G01*
G37*
X65659000Y-12065000D03*
D14*
X-3378200Y-10225400D03*
X-3378200Y-12714600D03*
X-1371600Y-12714600D03*
X-1371600Y-10225400D03*
D15*
X-6096000Y-5450200D03*
X-6096000Y-17489800D03*
G36*
G01*
X3744000Y14820000D02*
X3744000Y13120000D01*
G75*
G02*
X3644000Y13020000I-100000J0D01*
G01*
X1944000Y13020000D01*
G75*
G02*
X1844000Y13120000I0J100000D01*
G01*
X1844000Y14820000D01*
G75*
G02*
X1944000Y14920000I100000J0D01*
G01*
X3644000Y14920000D01*
G75*
G02*
X3744000Y14820000I0J-100000D01*
G01*
G37*
D11*
X254000Y13970000D03*
X2794000Y16510000D03*
X254000Y16510000D03*
X2794000Y19050000D03*
X254000Y19050000D03*
G36*
G01*
X-5248000Y62169100D02*
X-5248000Y65669100D01*
G75*
G02*
X-5148000Y65769100I100000J0D01*
G01*
X-1648000Y65769100D01*
G75*
G02*
X-1548000Y65669100I0J-100000D01*
G01*
X-1548000Y62169100D01*
G75*
G02*
X-1648000Y62069100I-100000J0D01*
G01*
X-5148000Y62069100D01*
G75*
G02*
X-5248000Y62169100I0J100000D01*
G01*
G37*
G36*
G01*
X-10998000Y62869100D02*
X-10998000Y64969100D01*
G75*
G02*
X-10198000Y65769100I800000J0D01*
G01*
X-8598000Y65769100D01*
G75*
G02*
X-7798000Y64969100I0J-800000D01*
G01*
X-7798000Y62869100D01*
G75*
G02*
X-8598000Y62069100I-800000J0D01*
G01*
X-10198000Y62069100D01*
G75*
G02*
X-10998000Y62869100I0J800000D01*
G01*
G37*
G36*
G01*
X-8248000Y58294100D02*
X-8248000Y60144100D01*
G75*
G02*
X-7323000Y61069100I925000J0D01*
G01*
X-5473000Y61069100D01*
G75*
G02*
X-4548000Y60144100I0J-925000D01*
G01*
X-4548000Y58294100D01*
G75*
G02*
X-5473000Y57369100I-925000J0D01*
G01*
X-7323000Y57369100D01*
G75*
G02*
X-8248000Y58294100I0J925000D01*
G01*
G37*
G36*
G01*
X64709000Y420000D02*
X64709000Y2120000D01*
G75*
G02*
X64809000Y2220000I100000J0D01*
G01*
X66509000Y2220000D01*
G75*
G02*
X66609000Y2120000I0J-100000D01*
G01*
X66609000Y420000D01*
G75*
G02*
X66509000Y320000I-100000J0D01*
G01*
X64809000Y320000D01*
G75*
G02*
X64709000Y420000I0J100000D01*
G01*
G37*
X65659000Y-1270000D03*
X65659000Y-3810000D03*
X65659000Y-6350000D03*
G36*
G01*
X-7046000Y39790000D02*
X-7046000Y41490000D01*
G75*
G02*
X-6946000Y41590000I100000J0D01*
G01*
X-5246000Y41590000D01*
G75*
G02*
X-5146000Y41490000I0J-100000D01*
G01*
X-5146000Y39790000D01*
G75*
G02*
X-5246000Y39690000I-100000J0D01*
G01*
X-6946000Y39690000D01*
G75*
G02*
X-7046000Y39790000I0J100000D01*
G01*
G37*
X-3556000Y40640000D03*
X-6096000Y38100000D03*
X-3556000Y38100000D03*
X-6096000Y35560000D03*
X-3556000Y35560000D03*
X-6096000Y33020000D03*
X-3556000Y33020000D03*
X-6096000Y30480000D03*
X-3556000Y30480000D03*
X-6096000Y27940000D03*
X-3556000Y27940000D03*
X-6096000Y25400000D03*
X-3556000Y25400000D03*
X-6096000Y22860000D03*
X-3556000Y22860000D03*
X-6096000Y20320000D03*
X-3556000Y20320000D03*
X-6096000Y17780000D03*
X-3556000Y17780000D03*
X-6096000Y15240000D03*
X-3556000Y15240000D03*
X-6096000Y12700000D03*
X-3556000Y12700000D03*
X-6096000Y10160000D03*
X-3556000Y10160000D03*
X-6096000Y7620000D03*
X-3556000Y7620000D03*
X-6096000Y5080000D03*
X-3556000Y5080000D03*
X-6096000Y2540000D03*
X-3556000Y2540000D03*
X-6096000Y0D03*
X-3556000Y0D03*
D16*
X65760600Y18923000D03*
X68376800Y15773400D03*
X61849000Y8890000D03*
X43992800Y27914600D03*
X68834000Y8890000D03*
X-7366000Y-11430000D03*
X8382000Y19812000D03*
X30099000Y29718000D03*
X37211000Y508000D03*
X35941000Y4699000D03*
X38100000Y30480000D03*
X-7366000Y-8890000D03*
X-7366000Y-13970000D03*
X-7366000Y47625000D03*
X-7366000Y50165000D03*
X-7366000Y52705000D03*
X-7366000Y55245000D03*
X-9906000Y57785000D03*
X14859000Y53975000D03*
X-1651000Y43688000D03*
X23114000Y-5080000D03*
X12954000Y-7620000D03*
X16129000Y27559000D03*
X2159000Y21590000D03*
X14859000Y59690000D03*
X9702800Y-11303000D03*
X12954000Y-11430000D03*
X26416000Y61404500D03*
X26416000Y59055000D03*
X26416000Y55943500D03*
X21844000Y68580000D03*
X21844000Y71120000D03*
X20955000Y66992500D03*
X18415000Y69850000D03*
X8128000Y62230000D03*
X9017000Y10160000D03*
X8509000Y13335000D03*
X4953000Y12827000D03*
X-1270000Y-15240000D03*
X31369000Y27940000D03*
X21336000Y36449000D03*
X56642000Y29845000D03*
X40259000Y44450000D03*
X66802000Y29845000D03*
X48514000Y40640000D03*
X40894000Y40005000D03*
X32639000Y37719000D03*
X7366000Y63500000D03*
X4953000Y31496000D03*
X11938000Y40576500D03*
X11938000Y38227000D03*
X11938000Y21526500D03*
X11874500Y19113500D03*
X19939000Y66040000D03*
X17653000Y66040000D03*
X40195500Y-5397500D03*
X37782500Y-5397500D03*
X25273000Y57150000D03*
X25336500Y60198000D03*
X26416000Y58293000D03*
X49149000Y25527000D03*
X53086000Y23749000D03*
X59690000Y31115000D03*
X32385000Y24003000D03*
X70739000Y5207000D03*
X65786000Y41656000D03*
X71374000Y33020000D03*
X20955000Y12700000D03*
X34671000Y11176000D03*
X65659000Y23495000D03*
X73279000Y30480000D03*
X73914000Y42545000D03*
X58166000Y19304000D03*
X69469000Y18288000D03*
X9017000Y29210000D03*
X29718000Y26289000D03*
X11938000Y29210000D03*
X11938000Y10160000D03*
X12954000Y46990000D03*
X12954000Y-13716000D03*
X9652000Y-13716000D03*
X26670000Y7620000D03*
X20955000Y7239000D03*
X15875000Y7239000D03*
X5461000Y10160000D03*
X13208000Y15240000D03*
X13081000Y17526000D03*
X16764000Y21590000D03*
X19939000Y20828000D03*
X12954000Y-16256000D03*
X21082000Y-13589000D03*
X26289000Y-2540000D03*
X44958000Y1270000D03*
X56261000Y3937000D03*
X58928000Y-6604000D03*
X45974000Y-6985000D03*
X59944000Y-12700000D03*
X35179000Y70485000D03*
X35179000Y65405000D03*
X41910000Y67310000D03*
X50800000Y67310000D03*
X59690000Y67310000D03*
X35179000Y58420000D03*
X19939000Y40005000D03*
X16764000Y25400000D03*
X19685000Y25400000D03*
X22479000Y24384000D03*
X24384000Y24130000D03*
D17*
X42545000Y49809400D03*
X56769000Y49784000D03*
D18*
X39647505Y49807503D03*
X33528000Y49784000D03*
D17*
X42570400Y54940200D03*
X56769000Y53467000D03*
D19*
X13970000Y41910000D03*
D16*
X64516000Y43179992D03*
X62357000Y56785563D03*
X20828000Y10922000D03*
X52372500Y56817500D03*
X22005990Y21979622D03*
X24130000Y4572000D03*
X23622000Y25527000D03*
X25527000Y7239000D03*
X43095693Y56569307D03*
X45974000Y56769000D03*
X30226000Y8763000D03*
X30226000Y23876000D03*
X67056000Y43688000D03*
X65531994Y56769000D03*
X20862990Y13521296D03*
X45846988Y43942000D03*
X18922996Y22606004D03*
X11938000Y12700000D03*
X69596000Y44196000D03*
X68707000Y56769000D03*
X11938000Y15240000D03*
X72136000Y44195972D03*
X72136000Y56769000D03*
X49149000Y56769000D03*
X21463012Y34925000D03*
X11938000Y36830000D03*
X72009000Y17780000D03*
X70739000Y15875000D03*
X73787000Y17780000D03*
X73787000Y15874994D03*
X35276000Y22001000D03*
X37846004Y22225004D03*
D18*
X26416000Y13208000D03*
X70485000Y67310000D03*
D16*
X60680600Y16560800D03*
X63201001Y15830001D03*
D17*
X3429000Y66675000D03*
X25019000Y68580000D03*
X21844000Y57785000D03*
X10541000Y50546000D03*
X10033000Y60960000D03*
X15494000Y63500000D03*
X9525000Y50546000D03*
X8509000Y50546000D03*
X7493000Y50546000D03*
X10033000Y59817000D03*
X10033000Y58674000D03*
X10033000Y57531000D03*
X11049000Y60960000D03*
X11049000Y58674000D03*
X11049000Y59817000D03*
X11049000Y57531000D03*
X10541000Y51562000D03*
X8509000Y51562000D03*
X9525000Y51562000D03*
X7493000Y51562000D03*
X28829000Y54610000D03*
X28829000Y63500000D03*
X4064000Y36830000D03*
D16*
X15570204Y-11912600D03*
X16484600Y-15595602D03*
D17*
X-381000Y64135000D03*
D16*
X6858000Y38100000D03*
X-4191000Y-3175000D03*
X2984500Y34099500D03*
X1016000Y34051622D03*
X30226000Y27305000D03*
X42926000Y43942000D03*
X34163000Y25400000D03*
X11285589Y31565967D03*
X11938000Y34290000D03*
X52959000Y28956000D03*
X50546000Y32893000D03*
X50546000Y44069000D03*
X21971000Y32829500D03*
X15367000Y28067000D03*
X14605000Y25400000D03*
X60706000Y44196000D03*
X25146000Y18576990D03*
X58212953Y44105829D03*
X19989335Y31064665D03*
X32892995Y30607005D03*
X13970000Y34290000D03*
X6223000Y22860000D03*
X53086000Y32893000D03*
X53086000Y44069000D03*
X54356000Y28956000D03*
X11938000Y17780000D03*
X55753000Y44196000D03*
X5588000Y20320000D03*
X1524000Y17780000D03*
X126974Y11557000D03*
X8509000Y2540000D03*
X55498999Y56768999D03*
X-6857996Y-2540000D03*
X-2286000Y45085000D03*
X32893000Y39497000D03*
D10*
G36*
X21136774Y13230705D02*
G01*
X21136388Y13228918D01*
X21124862Y13214874D01*
X21113497Y13193610D01*
X21106497Y13170535D01*
X21104134Y13146544D01*
X21106497Y13122553D01*
X21113497Y13099478D01*
X21124862Y13078214D01*
X21140157Y13059577D01*
X21154205Y13048049D01*
X21154909Y13046177D01*
X21153641Y13044631D01*
X21151825Y13044840D01*
X21142612Y13050996D01*
X21070532Y13080852D01*
X20994008Y13096074D01*
X20915992Y13096074D01*
X20839468Y13080852D01*
X20767388Y13050996D01*
X20702517Y13007650D01*
X20684562Y12989695D01*
X20682630Y12989177D01*
X20681216Y12990591D01*
X20681602Y12992378D01*
X20693128Y13006422D01*
X20704493Y13027686D01*
X20711493Y13050761D01*
X20713856Y13074752D01*
X20711493Y13098743D01*
X20704493Y13121818D01*
X20693128Y13143082D01*
X20677833Y13161719D01*
X20663785Y13173247D01*
X20663081Y13175119D01*
X20664349Y13176665D01*
X20666165Y13176456D01*
X20675378Y13170300D01*
X20747458Y13140444D01*
X20823982Y13125222D01*
X20901998Y13125222D01*
X20978522Y13140444D01*
X21050602Y13170300D01*
X21115473Y13213646D01*
X21133428Y13231601D01*
X21135360Y13232119D01*
X21136774Y13230705D01*
G37*
G36*
X15765826Y28026448D02*
G01*
X15766497Y28025140D01*
X15768844Y28001312D01*
X15775844Y27978237D01*
X15787209Y27956973D01*
X15802504Y27938336D01*
X15821141Y27923041D01*
X15842405Y27911676D01*
X15865480Y27904676D01*
X15889471Y27902313D01*
X15913462Y27904676D01*
X15936633Y27911705D01*
X15937111Y27911903D01*
X15939094Y27911642D01*
X15939859Y27909794D01*
X15938987Y27908392D01*
X15876517Y27866650D01*
X15821350Y27811483D01*
X15778004Y27746612D01*
X15748148Y27674532D01*
X15733455Y27600666D01*
X15732136Y27599162D01*
X15730174Y27599552D01*
X15729503Y27600860D01*
X15727156Y27624688D01*
X15720156Y27647763D01*
X15708791Y27669027D01*
X15693496Y27687664D01*
X15674859Y27702959D01*
X15653595Y27714324D01*
X15630520Y27721324D01*
X15606529Y27723687D01*
X15582538Y27721324D01*
X15559367Y27714295D01*
X15558889Y27714097D01*
X15556906Y27714358D01*
X15556141Y27716206D01*
X15557013Y27717608D01*
X15619483Y27759350D01*
X15674650Y27814517D01*
X15717996Y27879388D01*
X15747852Y27951468D01*
X15762545Y28025334D01*
X15763864Y28026838D01*
X15765826Y28026448D01*
G37*
G36*
X7902510Y50832350D02*
G01*
X7914033Y50818309D01*
X7932670Y50803014D01*
X7953934Y50791649D01*
X7977009Y50784649D01*
X8001000Y50782286D01*
X8024991Y50784649D01*
X8048066Y50791649D01*
X8069330Y50803014D01*
X8087967Y50818309D01*
X8099490Y50832350D01*
X8101362Y50833054D01*
X8102908Y50831785D01*
X8102699Y50829970D01*
X8069812Y50780751D01*
X8032454Y50690560D01*
X8013408Y50594810D01*
X8013408Y50497190D01*
X8032454Y50401440D01*
X8069812Y50311249D01*
X8102699Y50262030D01*
X8102830Y50260034D01*
X8101167Y50258923D01*
X8099490Y50259650D01*
X8087967Y50273691D01*
X8069330Y50288986D01*
X8048066Y50300351D01*
X8024991Y50307351D01*
X8001000Y50309714D01*
X7977009Y50307351D01*
X7953934Y50300351D01*
X7932670Y50288986D01*
X7914033Y50273691D01*
X7902510Y50259650D01*
X7900638Y50258946D01*
X7899092Y50260215D01*
X7899301Y50262030D01*
X7932188Y50311249D01*
X7969546Y50401440D01*
X7988592Y50497190D01*
X7988592Y50594810D01*
X7969546Y50690560D01*
X7932188Y50780751D01*
X7899301Y50829970D01*
X7899170Y50831966D01*
X7900833Y50833077D01*
X7902510Y50832350D01*
G37*
G36*
X8918510Y50832350D02*
G01*
X8930033Y50818309D01*
X8948670Y50803014D01*
X8969934Y50791649D01*
X8993009Y50784649D01*
X9017000Y50782286D01*
X9040991Y50784649D01*
X9064066Y50791649D01*
X9085330Y50803014D01*
X9103967Y50818309D01*
X9115490Y50832350D01*
X9117362Y50833054D01*
X9118908Y50831785D01*
X9118699Y50829970D01*
X9085812Y50780751D01*
X9048454Y50690560D01*
X9029408Y50594810D01*
X9029408Y50497190D01*
X9048454Y50401440D01*
X9085812Y50311249D01*
X9118699Y50262030D01*
X9118830Y50260034D01*
X9117167Y50258923D01*
X9115490Y50259650D01*
X9103967Y50273691D01*
X9085330Y50288986D01*
X9064066Y50300351D01*
X9040991Y50307351D01*
X9017000Y50309714D01*
X8993009Y50307351D01*
X8969934Y50300351D01*
X8948670Y50288986D01*
X8930033Y50273691D01*
X8918510Y50259650D01*
X8916638Y50258946D01*
X8915092Y50260215D01*
X8915301Y50262030D01*
X8948188Y50311249D01*
X8985546Y50401440D01*
X9004592Y50497190D01*
X9004592Y50594810D01*
X8985546Y50690560D01*
X8948188Y50780751D01*
X8915301Y50829970D01*
X8915170Y50831966D01*
X8916833Y50833077D01*
X8918510Y50832350D01*
G37*
G36*
X9934510Y50832350D02*
G01*
X9946033Y50818309D01*
X9964670Y50803014D01*
X9985934Y50791649D01*
X10009009Y50784649D01*
X10033000Y50782286D01*
X10056991Y50784649D01*
X10080066Y50791649D01*
X10101330Y50803014D01*
X10119967Y50818309D01*
X10131490Y50832350D01*
X10133362Y50833054D01*
X10134908Y50831785D01*
X10134699Y50829970D01*
X10101812Y50780751D01*
X10064454Y50690560D01*
X10045408Y50594810D01*
X10045408Y50497190D01*
X10064454Y50401440D01*
X10101812Y50311249D01*
X10134699Y50262030D01*
X10134830Y50260034D01*
X10133167Y50258923D01*
X10131490Y50259650D01*
X10119967Y50273691D01*
X10101330Y50288986D01*
X10080066Y50300351D01*
X10056991Y50307351D01*
X10033000Y50309714D01*
X10009009Y50307351D01*
X9985934Y50300351D01*
X9964670Y50288986D01*
X9946033Y50273691D01*
X9934510Y50259650D01*
X9932638Y50258946D01*
X9931092Y50260215D01*
X9931301Y50262030D01*
X9964188Y50311249D01*
X10001546Y50401440D01*
X10020592Y50497190D01*
X10020592Y50594810D01*
X10001546Y50690560D01*
X9964188Y50780751D01*
X9931301Y50829970D01*
X9931170Y50831966D01*
X9932833Y50833077D01*
X9934510Y50832350D01*
G37*
G36*
X10257030Y51155699D02*
G01*
X10306249Y51122812D01*
X10396440Y51085454D01*
X10492190Y51066408D01*
X10589810Y51066408D01*
X10685560Y51085454D01*
X10775751Y51122812D01*
X10824970Y51155699D01*
X10826966Y51155830D01*
X10828077Y51154167D01*
X10827350Y51152490D01*
X10813309Y51140967D01*
X10798014Y51122330D01*
X10786649Y51101066D01*
X10779649Y51077991D01*
X10777286Y51054000D01*
X10779649Y51030009D01*
X10786649Y51006934D01*
X10798014Y50985670D01*
X10813309Y50967033D01*
X10827350Y50955510D01*
X10828054Y50953638D01*
X10826785Y50952092D01*
X10824970Y50952301D01*
X10775751Y50985188D01*
X10685560Y51022546D01*
X10589810Y51041592D01*
X10492190Y51041592D01*
X10396440Y51022546D01*
X10306249Y50985188D01*
X10257030Y50952301D01*
X10255034Y50952170D01*
X10253923Y50953833D01*
X10254650Y50955510D01*
X10268691Y50967033D01*
X10283986Y50985670D01*
X10295351Y51006934D01*
X10302351Y51030009D01*
X10304714Y51054000D01*
X10302351Y51077991D01*
X10295351Y51101066D01*
X10283986Y51122330D01*
X10268691Y51140967D01*
X10254650Y51152490D01*
X10253946Y51154362D01*
X10255215Y51155908D01*
X10257030Y51155699D01*
G37*
G36*
X9241030Y51155699D02*
G01*
X9290249Y51122812D01*
X9380440Y51085454D01*
X9476190Y51066408D01*
X9573810Y51066408D01*
X9669560Y51085454D01*
X9759751Y51122812D01*
X9808970Y51155699D01*
X9810966Y51155830D01*
X9812077Y51154167D01*
X9811350Y51152490D01*
X9797309Y51140967D01*
X9782014Y51122330D01*
X9770649Y51101066D01*
X9763649Y51077991D01*
X9761286Y51054000D01*
X9763649Y51030009D01*
X9770649Y51006934D01*
X9782014Y50985670D01*
X9797309Y50967033D01*
X9811350Y50955510D01*
X9812054Y50953638D01*
X9810785Y50952092D01*
X9808970Y50952301D01*
X9759751Y50985188D01*
X9669560Y51022546D01*
X9573810Y51041592D01*
X9476190Y51041592D01*
X9380440Y51022546D01*
X9290249Y50985188D01*
X9241030Y50952301D01*
X9239034Y50952170D01*
X9237923Y50953833D01*
X9238650Y50955510D01*
X9252691Y50967033D01*
X9267986Y50985670D01*
X9279351Y51006934D01*
X9286351Y51030009D01*
X9288714Y51054000D01*
X9286351Y51077991D01*
X9279351Y51101066D01*
X9267986Y51122330D01*
X9252691Y51140967D01*
X9238650Y51152490D01*
X9237946Y51154362D01*
X9239215Y51155908D01*
X9241030Y51155699D01*
G37*
G36*
X8225030Y51155699D02*
G01*
X8274249Y51122812D01*
X8364440Y51085454D01*
X8460190Y51066408D01*
X8557810Y51066408D01*
X8653560Y51085454D01*
X8743751Y51122812D01*
X8792970Y51155699D01*
X8794966Y51155830D01*
X8796077Y51154167D01*
X8795350Y51152490D01*
X8781309Y51140967D01*
X8766014Y51122330D01*
X8754649Y51101066D01*
X8747649Y51077991D01*
X8745286Y51054000D01*
X8747649Y51030009D01*
X8754649Y51006934D01*
X8766014Y50985670D01*
X8781309Y50967033D01*
X8795350Y50955510D01*
X8796054Y50953638D01*
X8794785Y50952092D01*
X8792970Y50952301D01*
X8743751Y50985188D01*
X8653560Y51022546D01*
X8557810Y51041592D01*
X8460190Y51041592D01*
X8364440Y51022546D01*
X8274249Y50985188D01*
X8225030Y50952301D01*
X8223034Y50952170D01*
X8221923Y50953833D01*
X8222650Y50955510D01*
X8236691Y50967033D01*
X8251986Y50985670D01*
X8263351Y51006934D01*
X8270351Y51030009D01*
X8272714Y51054000D01*
X8270351Y51077991D01*
X8263351Y51101066D01*
X8251986Y51122330D01*
X8236691Y51140967D01*
X8222650Y51152490D01*
X8221946Y51154362D01*
X8223215Y51155908D01*
X8225030Y51155699D01*
G37*
G36*
X7209030Y51155699D02*
G01*
X7258249Y51122812D01*
X7348440Y51085454D01*
X7444190Y51066408D01*
X7541810Y51066408D01*
X7637560Y51085454D01*
X7727751Y51122812D01*
X7776970Y51155699D01*
X7778966Y51155830D01*
X7780077Y51154167D01*
X7779350Y51152490D01*
X7765309Y51140967D01*
X7750014Y51122330D01*
X7738649Y51101066D01*
X7731649Y51077991D01*
X7729286Y51054000D01*
X7731649Y51030009D01*
X7738649Y51006934D01*
X7750014Y50985670D01*
X7765309Y50967033D01*
X7779350Y50955510D01*
X7780054Y50953638D01*
X7778785Y50952092D01*
X7776970Y50952301D01*
X7727751Y50985188D01*
X7637560Y51022546D01*
X7541810Y51041592D01*
X7444190Y51041592D01*
X7348440Y51022546D01*
X7258249Y50985188D01*
X7209030Y50952301D01*
X7207034Y50952170D01*
X7205923Y50953833D01*
X7206650Y50955510D01*
X7220691Y50967033D01*
X7235986Y50985670D01*
X7247351Y51006934D01*
X7254351Y51030009D01*
X7256714Y51054000D01*
X7254351Y51077991D01*
X7247351Y51101066D01*
X7235986Y51122330D01*
X7220691Y51140967D01*
X7206650Y51152490D01*
X7205946Y51154362D01*
X7207215Y51155908D01*
X7209030Y51155699D01*
G37*
G36*
X9934510Y51848350D02*
G01*
X9946033Y51834309D01*
X9964670Y51819014D01*
X9985934Y51807649D01*
X10009009Y51800649D01*
X10033000Y51798286D01*
X10056991Y51800649D01*
X10080066Y51807649D01*
X10101330Y51819014D01*
X10119967Y51834309D01*
X10131490Y51848350D01*
X10133362Y51849054D01*
X10134908Y51847785D01*
X10134699Y51845970D01*
X10101812Y51796751D01*
X10064454Y51706560D01*
X10045408Y51610810D01*
X10045408Y51513190D01*
X10064454Y51417440D01*
X10101812Y51327249D01*
X10134699Y51278030D01*
X10134830Y51276034D01*
X10133167Y51274923D01*
X10131490Y51275650D01*
X10119967Y51289691D01*
X10101330Y51304986D01*
X10080066Y51316351D01*
X10056991Y51323351D01*
X10033000Y51325714D01*
X10009009Y51323351D01*
X9985934Y51316351D01*
X9964670Y51304986D01*
X9946033Y51289691D01*
X9934510Y51275650D01*
X9932638Y51274946D01*
X9931092Y51276215D01*
X9931301Y51278030D01*
X9964188Y51327249D01*
X10001546Y51417440D01*
X10020592Y51513190D01*
X10020592Y51610810D01*
X10001546Y51706560D01*
X9964188Y51796751D01*
X9931301Y51845970D01*
X9931170Y51847966D01*
X9932833Y51849077D01*
X9934510Y51848350D01*
G37*
G36*
X8918510Y51848350D02*
G01*
X8930033Y51834309D01*
X8948670Y51819014D01*
X8969934Y51807649D01*
X8993009Y51800649D01*
X9017000Y51798286D01*
X9040991Y51800649D01*
X9064066Y51807649D01*
X9085330Y51819014D01*
X9103967Y51834309D01*
X9115490Y51848350D01*
X9117362Y51849054D01*
X9118908Y51847785D01*
X9118699Y51845970D01*
X9085812Y51796751D01*
X9048454Y51706560D01*
X9029408Y51610810D01*
X9029408Y51513190D01*
X9048454Y51417440D01*
X9085812Y51327249D01*
X9118699Y51278030D01*
X9118830Y51276034D01*
X9117167Y51274923D01*
X9115490Y51275650D01*
X9103967Y51289691D01*
X9085330Y51304986D01*
X9064066Y51316351D01*
X9040991Y51323351D01*
X9017000Y51325714D01*
X8993009Y51323351D01*
X8969934Y51316351D01*
X8948670Y51304986D01*
X8930033Y51289691D01*
X8918510Y51275650D01*
X8916638Y51274946D01*
X8915092Y51276215D01*
X8915301Y51278030D01*
X8948188Y51327249D01*
X8985546Y51417440D01*
X9004592Y51513190D01*
X9004592Y51610810D01*
X8985546Y51706560D01*
X8948188Y51796751D01*
X8915301Y51845970D01*
X8915170Y51847966D01*
X8916833Y51849077D01*
X8918510Y51848350D01*
G37*
G36*
X7902510Y51848350D02*
G01*
X7914033Y51834309D01*
X7932670Y51819014D01*
X7953934Y51807649D01*
X7977009Y51800649D01*
X8001000Y51798286D01*
X8024991Y51800649D01*
X8048066Y51807649D01*
X8069330Y51819014D01*
X8087967Y51834309D01*
X8099490Y51848350D01*
X8101362Y51849054D01*
X8102908Y51847785D01*
X8102699Y51845970D01*
X8069812Y51796751D01*
X8032454Y51706560D01*
X8013408Y51610810D01*
X8013408Y51513190D01*
X8032454Y51417440D01*
X8069812Y51327249D01*
X8102699Y51278030D01*
X8102830Y51276034D01*
X8101167Y51274923D01*
X8099490Y51275650D01*
X8087967Y51289691D01*
X8069330Y51304986D01*
X8048066Y51316351D01*
X8024991Y51323351D01*
X8001000Y51325714D01*
X7977009Y51323351D01*
X7953934Y51316351D01*
X7932670Y51304986D01*
X7914033Y51289691D01*
X7902510Y51275650D01*
X7900638Y51274946D01*
X7899092Y51276215D01*
X7899301Y51278030D01*
X7932188Y51327249D01*
X7969546Y51417440D01*
X7988592Y51513190D01*
X7988592Y51610810D01*
X7969546Y51706560D01*
X7932188Y51796751D01*
X7899301Y51845970D01*
X7899170Y51847966D01*
X7900833Y51849077D01*
X7902510Y51848350D01*
G37*
G36*
X10442510Y57817350D02*
G01*
X10454033Y57803309D01*
X10472670Y57788014D01*
X10493934Y57776649D01*
X10517009Y57769649D01*
X10541000Y57767286D01*
X10564991Y57769649D01*
X10588066Y57776649D01*
X10609330Y57788014D01*
X10627967Y57803309D01*
X10639490Y57817350D01*
X10641362Y57818054D01*
X10642908Y57816785D01*
X10642699Y57814970D01*
X10609812Y57765751D01*
X10572454Y57675560D01*
X10553408Y57579810D01*
X10553408Y57482190D01*
X10572454Y57386440D01*
X10609812Y57296249D01*
X10642699Y57247030D01*
X10642830Y57245034D01*
X10641167Y57243923D01*
X10639490Y57244650D01*
X10627967Y57258691D01*
X10609330Y57273986D01*
X10588066Y57285351D01*
X10564991Y57292351D01*
X10541000Y57294714D01*
X10517009Y57292351D01*
X10493934Y57285351D01*
X10472670Y57273986D01*
X10454033Y57258691D01*
X10442510Y57244650D01*
X10440638Y57243946D01*
X10439092Y57245215D01*
X10439301Y57247030D01*
X10472188Y57296249D01*
X10509546Y57386440D01*
X10528592Y57482190D01*
X10528592Y57579810D01*
X10509546Y57675560D01*
X10472188Y57765751D01*
X10439301Y57814970D01*
X10439170Y57816966D01*
X10440833Y57818077D01*
X10442510Y57817350D01*
G37*
G36*
X-4546835Y58295726D02*
G01*
X-4546000Y58294100D01*
X-4546000Y58237740D01*
X-4546010Y58237544D01*
X-4563176Y58063259D01*
X-4563252Y58062874D01*
X-4612300Y57901183D01*
X-4612450Y57900821D01*
X-4692094Y57751818D01*
X-4692312Y57751492D01*
X-4799503Y57620880D01*
X-4799780Y57620603D01*
X-4930392Y57513412D01*
X-4930718Y57513194D01*
X-5079721Y57433550D01*
X-5080083Y57433400D01*
X-5241774Y57384352D01*
X-5242159Y57384276D01*
X-5416444Y57367110D01*
X-5416640Y57367100D01*
X-5473000Y57367100D01*
X-5474732Y57368100D01*
X-5474732Y57370100D01*
X-5473196Y57371090D01*
X-5292936Y57388844D01*
X-5119787Y57441368D01*
X-4960214Y57526662D01*
X-4820347Y57641447D01*
X-4705562Y57781314D01*
X-4620268Y57940887D01*
X-4567744Y58114036D01*
X-4549990Y58294296D01*
X-4548825Y58295922D01*
X-4546835Y58295726D01*
G37*
G36*
X-8246010Y58294296D02*
G01*
X-8228256Y58114036D01*
X-8175732Y57940887D01*
X-8090438Y57781314D01*
X-7975653Y57641447D01*
X-7835786Y57526662D01*
X-7676213Y57441368D01*
X-7503064Y57388844D01*
X-7322804Y57371090D01*
X-7321178Y57369925D01*
X-7321374Y57367935D01*
X-7323000Y57367100D01*
X-7379360Y57367100D01*
X-7379556Y57367110D01*
X-7553841Y57384276D01*
X-7554226Y57384352D01*
X-7715917Y57433400D01*
X-7716279Y57433550D01*
X-7865282Y57513194D01*
X-7865608Y57513412D01*
X-7996220Y57620603D01*
X-7996497Y57620880D01*
X-8103688Y57751492D01*
X-8103906Y57751818D01*
X-8183550Y57900821D01*
X-8183700Y57901183D01*
X-8232748Y58062874D01*
X-8232824Y58063259D01*
X-8249990Y58237544D01*
X-8250000Y58237740D01*
X-8250000Y58294100D01*
X-8249000Y58295832D01*
X-8247000Y58295832D01*
X-8246010Y58294296D01*
G37*
G36*
X10226582Y58216677D02*
G01*
X10227347Y58214829D01*
X10226307Y58213326D01*
X10210284Y58204762D01*
X10191647Y58189466D01*
X10176352Y58170829D01*
X10164987Y58149566D01*
X10157987Y58126491D01*
X10155624Y58102500D01*
X10157987Y58078508D01*
X10164987Y58055434D01*
X10176352Y58034170D01*
X10191648Y58015533D01*
X10210285Y58000238D01*
X10226308Y57991674D01*
X10227364Y57989975D01*
X10226421Y57988212D01*
X10224600Y57988062D01*
X10177560Y58007546D01*
X10081810Y58026592D01*
X9984190Y58026592D01*
X9888440Y58007546D01*
X9841401Y57988062D01*
X9839418Y57988323D01*
X9838653Y57990171D01*
X9839693Y57991674D01*
X9855716Y58000238D01*
X9874353Y58015534D01*
X9889648Y58034171D01*
X9901013Y58055434D01*
X9908013Y58078509D01*
X9910376Y58102500D01*
X9908013Y58126492D01*
X9901013Y58149566D01*
X9889648Y58170830D01*
X9874352Y58189467D01*
X9855715Y58204762D01*
X9839692Y58213326D01*
X9838636Y58215025D01*
X9839579Y58216788D01*
X9841400Y58216938D01*
X9888440Y58197454D01*
X9984190Y58178408D01*
X10081810Y58178408D01*
X10177560Y58197454D01*
X10224599Y58216938D01*
X10226582Y58216677D01*
G37*
G36*
X11242582Y58216677D02*
G01*
X11243347Y58214829D01*
X11242307Y58213326D01*
X11226284Y58204762D01*
X11207647Y58189466D01*
X11192352Y58170829D01*
X11180987Y58149566D01*
X11173987Y58126491D01*
X11171624Y58102500D01*
X11173987Y58078508D01*
X11180987Y58055434D01*
X11192352Y58034170D01*
X11207648Y58015533D01*
X11226285Y58000238D01*
X11242308Y57991674D01*
X11243364Y57989975D01*
X11242421Y57988212D01*
X11240600Y57988062D01*
X11193560Y58007546D01*
X11097810Y58026592D01*
X11000190Y58026592D01*
X10904440Y58007546D01*
X10857401Y57988062D01*
X10855418Y57988323D01*
X10854653Y57990171D01*
X10855693Y57991674D01*
X10871716Y58000238D01*
X10890353Y58015534D01*
X10905648Y58034171D01*
X10917013Y58055434D01*
X10924013Y58078509D01*
X10926376Y58102500D01*
X10924013Y58126492D01*
X10917013Y58149566D01*
X10905648Y58170830D01*
X10890352Y58189467D01*
X10871715Y58204762D01*
X10855692Y58213326D01*
X10854636Y58215025D01*
X10855579Y58216788D01*
X10857400Y58216938D01*
X10904440Y58197454D01*
X11000190Y58178408D01*
X11097810Y58178408D01*
X11193560Y58197454D01*
X11240599Y58216938D01*
X11242582Y58216677D01*
G37*
G36*
X10442510Y58960350D02*
G01*
X10454033Y58946309D01*
X10472670Y58931014D01*
X10493934Y58919649D01*
X10517009Y58912649D01*
X10541000Y58910286D01*
X10564991Y58912649D01*
X10588066Y58919649D01*
X10609330Y58931014D01*
X10627967Y58946309D01*
X10639490Y58960350D01*
X10641362Y58961054D01*
X10642908Y58959785D01*
X10642699Y58957970D01*
X10609812Y58908751D01*
X10572454Y58818560D01*
X10553408Y58722810D01*
X10553408Y58625190D01*
X10572454Y58529440D01*
X10609812Y58439249D01*
X10642699Y58390030D01*
X10642830Y58388034D01*
X10641167Y58386923D01*
X10639490Y58387650D01*
X10627967Y58401691D01*
X10609330Y58416986D01*
X10588066Y58428351D01*
X10564991Y58435351D01*
X10541000Y58437714D01*
X10517009Y58435351D01*
X10493934Y58428351D01*
X10472670Y58416986D01*
X10454033Y58401691D01*
X10442510Y58387650D01*
X10440638Y58386946D01*
X10439092Y58388215D01*
X10439301Y58390030D01*
X10472188Y58439249D01*
X10509546Y58529440D01*
X10528592Y58625190D01*
X10528592Y58722810D01*
X10509546Y58818560D01*
X10472188Y58908751D01*
X10439301Y58957970D01*
X10439170Y58959966D01*
X10440833Y58961077D01*
X10442510Y58960350D01*
G37*
G36*
X10226582Y59359677D02*
G01*
X10227347Y59357829D01*
X10226307Y59356326D01*
X10210284Y59347762D01*
X10191647Y59332466D01*
X10176352Y59313829D01*
X10164987Y59292566D01*
X10157987Y59269491D01*
X10155624Y59245500D01*
X10157987Y59221508D01*
X10164987Y59198434D01*
X10176352Y59177170D01*
X10191648Y59158533D01*
X10210285Y59143238D01*
X10226308Y59134674D01*
X10227364Y59132975D01*
X10226421Y59131212D01*
X10224600Y59131062D01*
X10177560Y59150546D01*
X10081810Y59169592D01*
X9984190Y59169592D01*
X9888440Y59150546D01*
X9841401Y59131062D01*
X9839418Y59131323D01*
X9838653Y59133171D01*
X9839693Y59134674D01*
X9855716Y59143238D01*
X9874353Y59158534D01*
X9889648Y59177171D01*
X9901013Y59198434D01*
X9908013Y59221509D01*
X9910376Y59245500D01*
X9908013Y59269492D01*
X9901013Y59292566D01*
X9889648Y59313830D01*
X9874352Y59332467D01*
X9855715Y59347762D01*
X9839692Y59356326D01*
X9838636Y59358025D01*
X9839579Y59359788D01*
X9841400Y59359938D01*
X9888440Y59340454D01*
X9984190Y59321408D01*
X10081810Y59321408D01*
X10177560Y59340454D01*
X10224599Y59359938D01*
X10226582Y59359677D01*
G37*
G36*
X11242582Y59359677D02*
G01*
X11243347Y59357829D01*
X11242307Y59356326D01*
X11226284Y59347762D01*
X11207647Y59332466D01*
X11192352Y59313829D01*
X11180987Y59292566D01*
X11173987Y59269491D01*
X11171624Y59245500D01*
X11173987Y59221508D01*
X11180987Y59198434D01*
X11192352Y59177170D01*
X11207648Y59158533D01*
X11226285Y59143238D01*
X11242308Y59134674D01*
X11243364Y59132975D01*
X11242421Y59131212D01*
X11240600Y59131062D01*
X11193560Y59150546D01*
X11097810Y59169592D01*
X11000190Y59169592D01*
X10904440Y59150546D01*
X10857401Y59131062D01*
X10855418Y59131323D01*
X10854653Y59133171D01*
X10855693Y59134674D01*
X10871716Y59143238D01*
X10890353Y59158534D01*
X10905648Y59177171D01*
X10917013Y59198434D01*
X10924013Y59221509D01*
X10926376Y59245500D01*
X10924013Y59269492D01*
X10917013Y59292566D01*
X10905648Y59313830D01*
X10890352Y59332467D01*
X10871715Y59347762D01*
X10855692Y59356326D01*
X10854636Y59358025D01*
X10855579Y59359788D01*
X10857400Y59359938D01*
X10904440Y59340454D01*
X11000190Y59321408D01*
X11097810Y59321408D01*
X11193560Y59340454D01*
X11240599Y59359938D01*
X11242582Y59359677D01*
G37*
G36*
X10442510Y60103350D02*
G01*
X10454033Y60089309D01*
X10472670Y60074014D01*
X10493934Y60062649D01*
X10517009Y60055649D01*
X10541000Y60053286D01*
X10564991Y60055649D01*
X10588066Y60062649D01*
X10609330Y60074014D01*
X10627967Y60089309D01*
X10639490Y60103350D01*
X10641362Y60104054D01*
X10642908Y60102785D01*
X10642699Y60100970D01*
X10609812Y60051751D01*
X10572454Y59961560D01*
X10553408Y59865810D01*
X10553408Y59768190D01*
X10572454Y59672440D01*
X10609812Y59582249D01*
X10642699Y59533030D01*
X10642830Y59531034D01*
X10641167Y59529923D01*
X10639490Y59530650D01*
X10627967Y59544691D01*
X10609330Y59559986D01*
X10588066Y59571351D01*
X10564991Y59578351D01*
X10541000Y59580714D01*
X10517009Y59578351D01*
X10493934Y59571351D01*
X10472670Y59559986D01*
X10454033Y59544691D01*
X10442510Y59530650D01*
X10440638Y59529946D01*
X10439092Y59531215D01*
X10439301Y59533030D01*
X10472188Y59582249D01*
X10509546Y59672440D01*
X10528592Y59768190D01*
X10528592Y59865810D01*
X10509546Y59961560D01*
X10472188Y60051751D01*
X10439301Y60100970D01*
X10439170Y60102966D01*
X10440833Y60104077D01*
X10442510Y60103350D01*
G37*
G36*
X-7321268Y61070100D02*
G01*
X-7321268Y61068100D01*
X-7322804Y61067110D01*
X-7503064Y61049356D01*
X-7676213Y60996832D01*
X-7835786Y60911538D01*
X-7975653Y60796753D01*
X-8090438Y60656886D01*
X-8175732Y60497313D01*
X-8228256Y60324164D01*
X-8246010Y60143904D01*
X-8247175Y60142278D01*
X-8249165Y60142474D01*
X-8250000Y60144100D01*
X-8250000Y60200460D01*
X-8249990Y60200656D01*
X-8232824Y60374941D01*
X-8232748Y60375326D01*
X-8183700Y60537017D01*
X-8183550Y60537379D01*
X-8103906Y60686382D01*
X-8103688Y60686708D01*
X-7996497Y60817320D01*
X-7996220Y60817597D01*
X-7865608Y60924788D01*
X-7865282Y60925006D01*
X-7716279Y61004650D01*
X-7715917Y61004800D01*
X-7554226Y61053848D01*
X-7553841Y61053924D01*
X-7379556Y61071090D01*
X-7379360Y61071100D01*
X-7323000Y61071100D01*
X-7321268Y61070100D01*
G37*
G36*
X-5416444Y61071090D02*
G01*
X-5242159Y61053924D01*
X-5241774Y61053848D01*
X-5080083Y61004800D01*
X-5079721Y61004650D01*
X-4930718Y60925006D01*
X-4930392Y60924788D01*
X-4799780Y60817597D01*
X-4799503Y60817320D01*
X-4692312Y60686708D01*
X-4692094Y60686382D01*
X-4612450Y60537379D01*
X-4612300Y60537017D01*
X-4563252Y60375326D01*
X-4563176Y60374941D01*
X-4546010Y60200656D01*
X-4546000Y60200460D01*
X-4546000Y60144100D01*
X-4547000Y60142368D01*
X-4549000Y60142368D01*
X-4549990Y60143904D01*
X-4567744Y60324164D01*
X-4620268Y60497313D01*
X-4705562Y60656886D01*
X-4820347Y60796753D01*
X-4960214Y60911538D01*
X-5119787Y60996832D01*
X-5292936Y61049356D01*
X-5473196Y61067110D01*
X-5474822Y61068275D01*
X-5474626Y61070265D01*
X-5473000Y61071100D01*
X-5416640Y61071100D01*
X-5416444Y61071090D01*
G37*
G36*
X11242582Y60502677D02*
G01*
X11243347Y60500829D01*
X11242307Y60499326D01*
X11226284Y60490762D01*
X11207647Y60475466D01*
X11192352Y60456829D01*
X11180987Y60435566D01*
X11173987Y60412491D01*
X11171624Y60388500D01*
X11173987Y60364508D01*
X11180987Y60341434D01*
X11192352Y60320170D01*
X11207648Y60301533D01*
X11226285Y60286238D01*
X11242308Y60277674D01*
X11243364Y60275975D01*
X11242421Y60274212D01*
X11240600Y60274062D01*
X11193560Y60293546D01*
X11097810Y60312592D01*
X11000190Y60312592D01*
X10904440Y60293546D01*
X10857401Y60274062D01*
X10855418Y60274323D01*
X10854653Y60276171D01*
X10855693Y60277674D01*
X10871716Y60286238D01*
X10890353Y60301534D01*
X10905648Y60320171D01*
X10917013Y60341434D01*
X10924013Y60364509D01*
X10926376Y60388500D01*
X10924013Y60412492D01*
X10917013Y60435566D01*
X10905648Y60456830D01*
X10890352Y60475467D01*
X10871715Y60490762D01*
X10855692Y60499326D01*
X10854636Y60501025D01*
X10855579Y60502788D01*
X10857400Y60502938D01*
X10904440Y60483454D01*
X11000190Y60464408D01*
X11097810Y60464408D01*
X11193560Y60483454D01*
X11240599Y60502938D01*
X11242582Y60502677D01*
G37*
G36*
X10226582Y60502677D02*
G01*
X10227347Y60500829D01*
X10226307Y60499326D01*
X10210284Y60490762D01*
X10191647Y60475466D01*
X10176352Y60456829D01*
X10164987Y60435566D01*
X10157987Y60412491D01*
X10155624Y60388500D01*
X10157987Y60364508D01*
X10164987Y60341434D01*
X10176352Y60320170D01*
X10191648Y60301533D01*
X10210285Y60286238D01*
X10226308Y60277674D01*
X10227364Y60275975D01*
X10226421Y60274212D01*
X10224600Y60274062D01*
X10177560Y60293546D01*
X10081810Y60312592D01*
X9984190Y60312592D01*
X9888440Y60293546D01*
X9841401Y60274062D01*
X9839418Y60274323D01*
X9838653Y60276171D01*
X9839693Y60277674D01*
X9855716Y60286238D01*
X9874353Y60301534D01*
X9889648Y60320171D01*
X9901013Y60341434D01*
X9908013Y60364509D01*
X9910376Y60388500D01*
X9908013Y60412492D01*
X9901013Y60435566D01*
X9889648Y60456830D01*
X9874352Y60475467D01*
X9855715Y60490762D01*
X9839692Y60499326D01*
X9838636Y60501025D01*
X9839579Y60502788D01*
X9841400Y60502938D01*
X9888440Y60483454D01*
X9984190Y60464408D01*
X10081810Y60464408D01*
X10177560Y60483454D01*
X10224599Y60502938D01*
X10226582Y60502677D01*
G37*
G36*
X10442510Y61246350D02*
G01*
X10454033Y61232309D01*
X10472670Y61217014D01*
X10493934Y61205649D01*
X10517009Y61198649D01*
X10541000Y61196286D01*
X10564991Y61198649D01*
X10588066Y61205649D01*
X10609330Y61217014D01*
X10627967Y61232309D01*
X10639490Y61246350D01*
X10641362Y61247054D01*
X10642908Y61245785D01*
X10642699Y61243970D01*
X10609812Y61194751D01*
X10572454Y61104560D01*
X10553408Y61008810D01*
X10553408Y60911190D01*
X10572454Y60815440D01*
X10609812Y60725249D01*
X10642699Y60676030D01*
X10642830Y60674034D01*
X10641167Y60672923D01*
X10639490Y60673650D01*
X10627967Y60687691D01*
X10609330Y60702986D01*
X10588066Y60714351D01*
X10564991Y60721351D01*
X10541000Y60723714D01*
X10517009Y60721351D01*
X10493934Y60714351D01*
X10472670Y60702986D01*
X10454033Y60687691D01*
X10442510Y60673650D01*
X10440638Y60672946D01*
X10439092Y60674215D01*
X10439301Y60676030D01*
X10472188Y60725249D01*
X10509546Y60815440D01*
X10528592Y60911190D01*
X10528592Y61008810D01*
X10509546Y61104560D01*
X10472188Y61194751D01*
X10439301Y61243970D01*
X10439170Y61245966D01*
X10440833Y61247077D01*
X10442510Y61246350D01*
G37*
G36*
X-10996010Y62869296D02*
G01*
X-10980658Y62713423D01*
X-10935247Y62563722D01*
X-10861505Y62425760D01*
X-10762264Y62304836D01*
X-10641340Y62205595D01*
X-10503378Y62131853D01*
X-10353677Y62086442D01*
X-10197804Y62071090D01*
X-10196178Y62069925D01*
X-10196374Y62067935D01*
X-10198000Y62067100D01*
X-10254360Y62067100D01*
X-10254556Y62067110D01*
X-10404455Y62081874D01*
X-10404840Y62081950D01*
X-10543082Y62123885D01*
X-10543444Y62124035D01*
X-10670840Y62192129D01*
X-10671166Y62192347D01*
X-10782833Y62283990D01*
X-10783110Y62284267D01*
X-10874753Y62395934D01*
X-10874971Y62396260D01*
X-10943065Y62523656D01*
X-10943215Y62524018D01*
X-10985150Y62662260D01*
X-10985226Y62662645D01*
X-10999990Y62812544D01*
X-11000000Y62812740D01*
X-11000000Y62869100D01*
X-10999000Y62870832D01*
X-10997000Y62870832D01*
X-10996010Y62869296D01*
G37*
G36*
X-7796835Y62870726D02*
G01*
X-7796000Y62869100D01*
X-7796000Y62812740D01*
X-7796010Y62812544D01*
X-7810774Y62662645D01*
X-7810850Y62662260D01*
X-7852785Y62524018D01*
X-7852935Y62523656D01*
X-7921029Y62396260D01*
X-7921247Y62395934D01*
X-8012890Y62284267D01*
X-8013167Y62283990D01*
X-8124834Y62192347D01*
X-8125160Y62192129D01*
X-8252556Y62124035D01*
X-8252918Y62123885D01*
X-8391160Y62081950D01*
X-8391545Y62081874D01*
X-8541444Y62067110D01*
X-8541640Y62067100D01*
X-8598000Y62067100D01*
X-8599732Y62068100D01*
X-8599732Y62070100D01*
X-8598196Y62071090D01*
X-8442323Y62086442D01*
X-8292622Y62131853D01*
X-8154660Y62205595D01*
X-8033736Y62304836D01*
X-7934495Y62425760D01*
X-7860753Y62563722D01*
X-7815342Y62713423D01*
X-7799990Y62869296D01*
X-7798825Y62870922D01*
X-7796835Y62870726D01*
G37*
G36*
X-10196268Y65770100D02*
G01*
X-10196268Y65768100D01*
X-10197804Y65767110D01*
X-10353677Y65751758D01*
X-10503378Y65706347D01*
X-10641340Y65632605D01*
X-10762264Y65533364D01*
X-10861505Y65412440D01*
X-10935247Y65274478D01*
X-10980658Y65124777D01*
X-10996010Y64968904D01*
X-10997175Y64967278D01*
X-10999165Y64967474D01*
X-11000000Y64969100D01*
X-11000000Y65025460D01*
X-10999990Y65025656D01*
X-10985226Y65175555D01*
X-10985150Y65175940D01*
X-10943215Y65314182D01*
X-10943065Y65314544D01*
X-10874971Y65441940D01*
X-10874753Y65442266D01*
X-10783110Y65553933D01*
X-10782833Y65554210D01*
X-10671166Y65645853D01*
X-10670840Y65646071D01*
X-10543444Y65714165D01*
X-10543082Y65714315D01*
X-10404840Y65756250D01*
X-10404455Y65756326D01*
X-10254556Y65771090D01*
X-10254360Y65771100D01*
X-10198000Y65771100D01*
X-10196268Y65770100D01*
G37*
G36*
X-8541444Y65771090D02*
G01*
X-8391545Y65756326D01*
X-8391160Y65756250D01*
X-8252918Y65714315D01*
X-8252556Y65714165D01*
X-8125160Y65646071D01*
X-8124834Y65645853D01*
X-8013167Y65554210D01*
X-8012890Y65553933D01*
X-7921247Y65442266D01*
X-7921029Y65441940D01*
X-7852935Y65314544D01*
X-7852785Y65314182D01*
X-7810850Y65175940D01*
X-7810774Y65175555D01*
X-7796010Y65025656D01*
X-7796000Y65025460D01*
X-7796000Y64969100D01*
X-7797000Y64967368D01*
X-7799000Y64967368D01*
X-7799990Y64968904D01*
X-7815342Y65124777D01*
X-7860753Y65274478D01*
X-7934495Y65412440D01*
X-8033736Y65533364D01*
X-8154660Y65632605D01*
X-8292622Y65706347D01*
X-8442323Y65751758D01*
X-8598196Y65767110D01*
X-8599822Y65768275D01*
X-8599626Y65770265D01*
X-8598000Y65771100D01*
X-8541640Y65771100D01*
X-8541444Y65771090D01*
G37*
M02*
