M48
; DRILL file {KiCad (5.1.9)-1} date 09/13/21 16:43:53
; FORMAT={-:-/ absolute / inch / decimal}
; #@! TF.CreationDate,2021-09-13T16:43:53+01:00
; #@! TF.GenerationSoftware,Kicad,Pcbnew,(5.1.9)-1
; #@! TF.FileFunction,Plated,1,2,PTH
FMAT,2
INCH
T1C0.0157
T2C0.0236
T3C0.0374
T4C0.0394
T5C0.0906
T6C0.1200
%
G90
G05
T1
X-0.39Y2.275
X-0.29Y2.175
X-0.29Y2.075
X-0.29Y1.975
X-0.29Y1.875
X-0.29Y-0.35
X-0.29Y-0.45
X-0.29Y-0.55
X-0.27Y-0.1
X-0.165Y-0.125
X-0.09Y1.775
X-0.065Y1.72
X-0.045Y-0.645
X0.005Y0.455
X0.04Y1.3406
X0.06Y0.7
X0.085Y0.85
X0.1175Y1.3425
X0.195Y1.24
X0.195Y0.505
X0.215Y0.4
X0.22Y0.8
X0.245Y0.9
X0.27Y1.5
X0.29Y2.5
X0.32Y2.45
X0.33Y0.78
X0.335Y0.525
X0.335Y0.1
X0.355Y1.15
X0.355Y0.4
X0.4443Y1.2428
X0.4675Y0.7525
X0.47Y1.5975
X0.47Y1.505
X0.47Y1.45
X0.47Y1.35
X0.47Y1.15
X0.47Y0.8475
X0.47Y0.7
X0.47Y0.6
X0.47Y0.5
X0.47Y0.4
X0.485Y-0.54
X0.51Y1.85
X0.51Y-0.3
X0.51Y-0.64
X0.515Y0.69
X0.52Y0.6
X0.52Y-0.435
X0.535Y-0.54
X0.55Y1.65
X0.55Y1.35
X0.57Y-0.435
X0.575Y1.0
X0.585Y2.35
X0.585Y2.125
X0.605Y1.105
X0.613Y-0.469
X0.625Y0.285
X0.635Y1.085
X0.649Y-0.614
X0.66Y1.0
X0.66Y0.85
X0.695Y2.6
X0.725Y2.75
X0.745Y0.89
X0.775Y1.0
X0.785Y2.6
X0.785Y1.575
X0.785Y0.82
X0.787Y1.223
X0.82Y0.43
X0.8214Y0.5323
X0.825Y2.6375
X0.825Y0.5
X0.825Y0.285
X0.83Y-0.535
X0.84Y1.435
X0.845Y1.375
X0.86Y2.8
X0.86Y2.7
X0.865Y1.2925
X0.8664Y0.8653
X0.885Y0.96
X0.91Y-0.2
X0.93Y1.005
X0.95Y0.18
X0.96Y0.95
X0.99Y0.7314
X0.995Y2.25
X0.9975Y2.37
X1.005Y0.285
X1.035Y-0.1
X1.04Y2.4175
X1.04Y2.325
X1.04Y2.295
X1.04Y2.2025
X1.04Y0.52
X1.05Y0.3
X1.17Y1.035
X1.185Y1.17
X1.19Y1.075
X1.19Y0.94
X1.19Y0.345
X1.235Y1.1
X1.275Y0.945
X1.285Y1.485
X1.295Y1.205
X1.295Y1.555
X1.32Y1.96
X1.345Y1.0
X1.365Y0.44
X1.385Y2.775
X1.385Y2.575
X1.385Y2.3
X1.3888Y0.8662
X1.415Y0.185
X1.465Y0.02
X1.4875Y-0.2125
X1.49Y0.875
X1.5Y1.2
X1.5609Y1.9609
X1.5825Y-0.2125
X1.585Y1.75
X1.61Y1.575
X1.65Y2.65
X1.69Y1.73
X1.6967Y2.2271
X1.732Y1.099
X1.77Y0.05
X1.805Y1.73
X1.81Y2.235
X1.81Y-0.275
X1.91Y1.6
X1.935Y2.235
X1.935Y1.005
X1.99Y1.735
X1.99Y1.295
X2.0Y2.65
X2.0619Y2.2369
X2.085Y1.14
X2.09Y1.735
X2.09Y1.295
X2.09Y0.935
X2.14Y1.14
X2.185Y2.235
X2.195Y1.74
X2.215Y0.155
X2.23Y1.175
X2.29Y0.76
X2.2918Y1.7364
X2.32Y-0.26
X2.35Y2.65
X2.35Y1.225
X2.36Y-0.5
X2.389Y0.652
X2.39Y1.74
X2.435Y0.35
X2.455Y2.2357
X2.4882Y0.6232
X2.54Y1.7
X2.58Y2.235
X2.585Y0.925
X2.589Y0.745
X2.59Y1.64
X2.63Y1.175
X2.64Y1.72
X2.692Y0.621
X2.705Y2.235
X2.71Y0.35
X2.735Y0.72
X2.74Y1.74
X2.775Y2.65
X2.785Y0.625
X2.785Y0.205
X2.81Y1.3
X2.835Y0.7
X2.84Y2.235
X2.84Y1.74
X2.885Y1.2
X2.905Y0.7
X2.905Y0.625
X2.91Y1.675
T2
X0.135Y2.625
X0.16Y1.45
X0.295Y2.03
X0.295Y1.99
X0.335Y2.03
X0.335Y1.99
X0.375Y2.03
X0.375Y1.99
X0.395Y2.4
X0.395Y2.355
X0.395Y2.31
X0.395Y2.265
X0.415Y2.03
X0.415Y1.99
X0.435Y2.4
X0.435Y2.355
X0.435Y2.31
X0.435Y2.265
X0.61Y2.5
X0.86Y2.275
X0.985Y2.7
X1.135Y2.5
X1.135Y2.15
X1.675Y1.961
X1.676Y2.163
X2.235Y2.105
X2.235Y1.96
T3
X-0.133Y-0.4026
X-0.133Y-0.5006
X-0.054Y-0.4026
X-0.054Y-0.5006
T4
X-0.24Y1.6
X-0.24Y1.5
X-0.24Y1.4
X-0.24Y1.3
X-0.24Y1.2
X-0.24Y1.1
X-0.24Y1.0
X-0.24Y0.9
X-0.24Y0.8
X-0.24Y0.7
X-0.24Y0.6
X-0.24Y0.5
X-0.24Y0.4
X-0.24Y0.3
X-0.24Y0.2
X-0.24Y0.1
X-0.24Y0.0
X-0.165Y2.181
X-0.165Y2.081
X-0.165Y1.981
X-0.165Y1.881
X-0.14Y1.6
X-0.14Y1.5
X-0.14Y1.4
X-0.14Y1.3
X-0.14Y1.2
X-0.14Y1.1
X-0.14Y1.0
X-0.14Y0.9
X-0.14Y0.8
X-0.14Y0.7
X-0.14Y0.6
X-0.14Y0.5
X-0.14Y0.4
X-0.14Y0.3
X-0.14Y0.2
X-0.14Y0.1
X-0.14Y0.0
X0.005Y2.48
X0.005Y2.38
X0.01Y2.1
X0.01Y1.875
X0.01Y1.65
X0.01Y1.55
X0.01Y1.45
X0.01Y1.254
X0.01Y1.154
X0.01Y1.054
X0.01Y0.954
X0.01Y0.75
X0.01Y0.65
X0.01Y0.55
X0.01Y0.3
X0.01Y0.15
X0.01Y0.0
X0.11Y2.1
X0.11Y1.875
X0.11Y0.75
X0.11Y0.65
X0.11Y0.55
X0.11Y0.3
X0.11Y0.15
X0.11Y0.0
X0.185Y-0.4
X0.185Y-0.5
X0.21Y0.0
X0.425Y-0.295
X0.425Y-0.395
X0.425Y-0.495
X0.425Y-0.595
X0.46Y0.0
X0.56Y0.0
X0.835Y1.9
X0.935Y1.9
X0.94Y1.405
X0.94Y0.805
X1.035Y1.9
X1.04Y1.405
X1.04Y0.805
X1.09Y1.255
X1.09Y1.155
X1.09Y1.055
X1.09Y0.955
X1.135Y1.9
X1.14Y1.405
X1.14Y0.805
X1.24Y1.405
X1.24Y0.805
X1.34Y1.405
X1.34Y0.805
X1.44Y1.405
X1.44Y0.805
X1.51Y2.475
X1.54Y1.405
X1.54Y0.805
X1.61Y2.475
X1.64Y1.405
X1.64Y0.805
X1.74Y1.405
X1.74Y0.805
X1.84Y1.405
X1.84Y0.805
X1.86Y2.475
X1.94Y1.405
X1.94Y0.805
X1.96Y2.475
X2.04Y1.405
X2.04Y0.805
X2.14Y1.405
X2.14Y0.805
X2.21Y2.475
X2.24Y1.405
X2.24Y0.805
X2.25Y1.0495
X2.25Y0.9495
X2.31Y2.475
X2.34Y1.405
X2.34Y0.805
X2.35Y1.0495
X2.35Y0.9495
X2.44Y1.405
X2.44Y0.805
X2.45Y1.047
X2.45Y0.9495
X2.54Y1.405
X2.54Y0.805
X2.56Y2.475
X2.585Y0.05
X2.585Y-0.05
X2.585Y-0.15
X2.585Y-0.25
X2.585Y-0.475
X2.585Y-0.575
X2.64Y1.405
X2.64Y0.805
X2.66Y2.475
X2.74Y1.405
X2.74Y0.805
X2.84Y1.405
X2.84Y0.805
T5
X-0.24Y-0.2146
X-0.24Y-0.6886
T6
X0.1226Y2.851
X0.1226Y-0.8498
X2.8785Y2.851
X2.8785Y-0.8498
T4
G00X-0.37Y2.5559
M15
G01X-0.37Y2.4771
M16
G05
G00X-0.2913Y2.3315
M15
G01X-0.2125Y2.3315
M16
G05
G00X-0.1338Y2.5559
M15
G01X-0.1338Y2.4771
M16
G05
T0
M30
