G04 #@! TF.GenerationSoftware,KiCad,Pcbnew,(5.1.9)-1*
G04 #@! TF.CreationDate,2021-09-13T16:43:51+01:00*
G04 #@! TF.ProjectId,Greaseweazle F1 Plus Rev 1.1,47726561-7365-4776-9561-7a6c65204631,1*
G04 #@! TF.SameCoordinates,PX6312cb0PY6bcb370*
G04 #@! TF.FileFunction,Legend,Bot*
G04 #@! TF.FilePolarity,Positive*
%FSLAX46Y46*%
G04 Gerber Fmt 4.6, Leading zero omitted, Abs format (unit mm)*
G04 Created by KiCad (PCBNEW (5.1.9)-1) date 2021-09-13 16:43:51*
%MOMM*%
%LPD*%
G01*
G04 APERTURE LIST*
%ADD10C,0.120000*%
%ADD11C,0.125000*%
%ADD12C,0.150000*%
%ADD13C,0.100000*%
G04 APERTURE END LIST*
D10*
X-2794000Y50927000D02*
X-3302000Y50546000D01*
X-2794000Y52197000D02*
X-3302000Y52578000D01*
X-2794000Y48387000D02*
X-3302000Y47752000D01*
D11*
X-2746477Y-1611380D02*
X-3365524Y-1611380D01*
X-3032191Y-1992333D01*
X-3175048Y-1992333D01*
X-3270286Y-2039952D01*
X-3317905Y-2087571D01*
X-3365524Y-2182809D01*
X-3365524Y-2420904D01*
X-3317905Y-2516142D01*
X-3270286Y-2563761D01*
X-3175048Y-2611380D01*
X-2889334Y-2611380D01*
X-2794096Y-2563761D01*
X-2746477Y-2516142D01*
X-4222667Y-1944714D02*
X-4222667Y-2611380D01*
X-3984572Y-1563761D02*
X-3746477Y-2278047D01*
X-4365524Y-2278047D01*
X-6381715Y42727620D02*
X-5810286Y42727620D01*
X-6096000Y42727620D02*
X-6096000Y43727620D01*
X-6000762Y43584762D01*
X-5905524Y43489524D01*
X-5810286Y43441905D01*
X61565285Y40298858D02*
X61565285Y40870286D01*
X61636714Y41477429D02*
X61993857Y41227429D01*
X61636714Y41048858D02*
X62386714Y41048858D01*
X62386714Y41334572D01*
X62351000Y41406000D01*
X62315285Y41441715D01*
X62243857Y41477429D01*
X62136714Y41477429D01*
X62065285Y41441715D01*
X62029571Y41406000D01*
X61993857Y41334572D01*
X61993857Y41048858D01*
X61636714Y41798858D02*
X62386714Y41798858D01*
X62386714Y41977429D01*
X62351000Y42084572D01*
X62279571Y42156000D01*
X62208142Y42191715D01*
X62065285Y42227429D01*
X61958142Y42227429D01*
X61815285Y42191715D01*
X61743857Y42156000D01*
X61672428Y42084572D01*
X61636714Y41977429D01*
X61636714Y41798858D01*
X61993857Y42691715D02*
X61636714Y42691715D01*
X62386714Y42441715D02*
X61993857Y42691715D01*
X62386714Y42941715D01*
X49258571Y40930572D02*
X49858571Y40930572D01*
X49258571Y41273429D01*
X49858571Y41273429D01*
X49315714Y41902000D02*
X49287142Y41873429D01*
X49258571Y41787715D01*
X49258571Y41730572D01*
X49287142Y41644858D01*
X49344285Y41587715D01*
X49401428Y41559143D01*
X49515714Y41530572D01*
X49601428Y41530572D01*
X49715714Y41559143D01*
X49772857Y41587715D01*
X49830000Y41644858D01*
X49858571Y41730572D01*
X49858571Y41787715D01*
X49830000Y41873429D01*
X49801428Y41902000D01*
X23477571Y14641572D02*
X24077571Y14641572D01*
X23477571Y14984429D01*
X24077571Y14984429D01*
X23534714Y15613000D02*
X23506142Y15584429D01*
X23477571Y15498715D01*
X23477571Y15441572D01*
X23506142Y15355858D01*
X23563285Y15298715D01*
X23620428Y15270143D01*
X23734714Y15241572D01*
X23820428Y15241572D01*
X23934714Y15270143D01*
X23991857Y15298715D01*
X24049000Y15355858D01*
X24077571Y15441572D01*
X24077571Y15498715D01*
X24049000Y15584429D01*
X24020428Y15613000D01*
X28557571Y14527286D02*
X29157571Y14527286D01*
X28557571Y14813000D02*
X29157571Y14813000D01*
X29157571Y14955858D01*
X29129000Y15041572D01*
X29071857Y15098715D01*
X29014714Y15127286D01*
X28900428Y15155858D01*
X28814714Y15155858D01*
X28700428Y15127286D01*
X28643285Y15098715D01*
X28586142Y15041572D01*
X28557571Y14955858D01*
X28557571Y14813000D01*
X29157571Y15527286D02*
X29157571Y15584429D01*
X29129000Y15641572D01*
X29100428Y15670143D01*
X29043285Y15698715D01*
X28929000Y15727286D01*
X28786142Y15727286D01*
X28671857Y15698715D01*
X28614714Y15670143D01*
X28586142Y15641572D01*
X28557571Y15584429D01*
X28557571Y15527286D01*
X28586142Y15470143D01*
X28614714Y15441572D01*
X28671857Y15413000D01*
X28786142Y15384429D01*
X28929000Y15384429D01*
X29043285Y15413000D01*
X29100428Y15441572D01*
X29129000Y15470143D01*
X29157571Y15527286D01*
X31097571Y14527286D02*
X31697571Y14527286D01*
X31097571Y14813000D02*
X31697571Y14813000D01*
X31697571Y14955858D01*
X31669000Y15041572D01*
X31611857Y15098715D01*
X31554714Y15127286D01*
X31440428Y15155858D01*
X31354714Y15155858D01*
X31240428Y15127286D01*
X31183285Y15098715D01*
X31126142Y15041572D01*
X31097571Y14955858D01*
X31097571Y14813000D01*
X31097571Y15727286D02*
X31097571Y15384429D01*
X31097571Y15555858D02*
X31697571Y15555858D01*
X31611857Y15498715D01*
X31554714Y15441572D01*
X31526142Y15384429D01*
X36206142Y13527286D02*
X36177571Y13613000D01*
X36177571Y13755858D01*
X36206142Y13813000D01*
X36234714Y13841572D01*
X36291857Y13870143D01*
X36349000Y13870143D01*
X36406142Y13841572D01*
X36434714Y13813000D01*
X36463285Y13755858D01*
X36491857Y13641572D01*
X36520428Y13584429D01*
X36549000Y13555858D01*
X36606142Y13527286D01*
X36663285Y13527286D01*
X36720428Y13555858D01*
X36749000Y13584429D01*
X36777571Y13641572D01*
X36777571Y13784429D01*
X36749000Y13870143D01*
X36177571Y14127286D02*
X36777571Y14127286D01*
X36777571Y14355858D01*
X36749000Y14413000D01*
X36720428Y14441572D01*
X36663285Y14470143D01*
X36577571Y14470143D01*
X36520428Y14441572D01*
X36491857Y14413000D01*
X36463285Y14355858D01*
X36463285Y14127286D01*
X36349000Y14698715D02*
X36349000Y14984429D01*
X36177571Y14641572D02*
X36777571Y14841572D01*
X36177571Y15041572D01*
X36177571Y15584429D02*
X36463285Y15384429D01*
X36177571Y15241572D02*
X36777571Y15241572D01*
X36777571Y15470143D01*
X36749000Y15527286D01*
X36720428Y15555858D01*
X36663285Y15584429D01*
X36577571Y15584429D01*
X36520428Y15555858D01*
X36491857Y15527286D01*
X36463285Y15470143D01*
X36463285Y15241572D01*
X36491857Y15841572D02*
X36491857Y16041572D01*
X36177571Y16127286D02*
X36177571Y15841572D01*
X36777571Y15841572D01*
X36777571Y16127286D01*
X36720428Y16355858D02*
X36749000Y16384429D01*
X36777571Y16441572D01*
X36777571Y16584429D01*
X36749000Y16641572D01*
X36720428Y16670143D01*
X36663285Y16698715D01*
X36606142Y16698715D01*
X36520428Y16670143D01*
X36177571Y16327286D01*
X36177571Y16698715D01*
X39285857Y13955858D02*
X39285857Y13755858D01*
X38971571Y13755858D02*
X39571571Y13755858D01*
X39571571Y14041572D01*
X38971571Y14555858D02*
X38971571Y14270143D01*
X39571571Y14270143D01*
X38971571Y14755858D02*
X39571571Y14755858D01*
X38971571Y15041572D02*
X39571571Y15041572D01*
X39571571Y15270143D01*
X39543000Y15327286D01*
X39514428Y15355858D01*
X39457285Y15384429D01*
X39371571Y15384429D01*
X39314428Y15355858D01*
X39285857Y15327286D01*
X39257285Y15270143D01*
X39257285Y15041572D01*
X38971571Y15641572D02*
X39571571Y15641572D01*
X39571571Y15870143D01*
X39543000Y15927286D01*
X39514428Y15955858D01*
X39457285Y15984429D01*
X39371571Y15984429D01*
X39314428Y15955858D01*
X39285857Y15927286D01*
X39257285Y15870143D01*
X39257285Y15641572D01*
X39257285Y16355858D02*
X38971571Y16355858D01*
X39571571Y16155858D02*
X39257285Y16355858D01*
X39571571Y16555858D01*
X41540142Y13527286D02*
X41511571Y13613000D01*
X41511571Y13755858D01*
X41540142Y13813000D01*
X41568714Y13841572D01*
X41625857Y13870143D01*
X41683000Y13870143D01*
X41740142Y13841572D01*
X41768714Y13813000D01*
X41797285Y13755858D01*
X41825857Y13641572D01*
X41854428Y13584429D01*
X41883000Y13555858D01*
X41940142Y13527286D01*
X41997285Y13527286D01*
X42054428Y13555858D01*
X42083000Y13584429D01*
X42111571Y13641572D01*
X42111571Y13784429D01*
X42083000Y13870143D01*
X41511571Y14127286D02*
X42111571Y14127286D01*
X42111571Y14355858D01*
X42083000Y14413000D01*
X42054428Y14441572D01*
X41997285Y14470143D01*
X41911571Y14470143D01*
X41854428Y14441572D01*
X41825857Y14413000D01*
X41797285Y14355858D01*
X41797285Y14127286D01*
X41683000Y14698715D02*
X41683000Y14984429D01*
X41511571Y14641572D02*
X42111571Y14841572D01*
X41511571Y15041572D01*
X41511571Y15584429D02*
X41797285Y15384429D01*
X41511571Y15241572D02*
X42111571Y15241572D01*
X42111571Y15470143D01*
X42083000Y15527286D01*
X42054428Y15555858D01*
X41997285Y15584429D01*
X41911571Y15584429D01*
X41854428Y15555858D01*
X41825857Y15527286D01*
X41797285Y15470143D01*
X41797285Y15241572D01*
X41825857Y15841572D02*
X41825857Y16041572D01*
X41511571Y16127286D02*
X41511571Y15841572D01*
X42111571Y15841572D01*
X42111571Y16127286D01*
X41511571Y16698715D02*
X41511571Y16355858D01*
X41511571Y16527286D02*
X42111571Y16527286D01*
X42025857Y16470143D01*
X41968714Y16413000D01*
X41940142Y16355858D01*
X44051571Y14641572D02*
X44651571Y14641572D01*
X44051571Y14984429D01*
X44651571Y14984429D01*
X44108714Y15613000D02*
X44080142Y15584429D01*
X44051571Y15498715D01*
X44051571Y15441572D01*
X44080142Y15355858D01*
X44137285Y15298715D01*
X44194428Y15270143D01*
X44308714Y15241572D01*
X44394428Y15241572D01*
X44508714Y15270143D01*
X44565857Y15298715D01*
X44623000Y15355858D01*
X44651571Y15441572D01*
X44651571Y15498715D01*
X44623000Y15584429D01*
X44594428Y15613000D01*
X46591571Y14641572D02*
X47191571Y14641572D01*
X46591571Y14984429D01*
X47191571Y14984429D01*
X46648714Y15613000D02*
X46620142Y15584429D01*
X46591571Y15498715D01*
X46591571Y15441572D01*
X46620142Y15355858D01*
X46677285Y15298715D01*
X46734428Y15270143D01*
X46848714Y15241572D01*
X46934428Y15241572D01*
X47048714Y15270143D01*
X47105857Y15298715D01*
X47163000Y15355858D01*
X47191571Y15441572D01*
X47191571Y15498715D01*
X47163000Y15584429D01*
X47134428Y15613000D01*
X48877571Y14641572D02*
X49477571Y14641572D01*
X48877571Y14984429D01*
X49477571Y14984429D01*
X48934714Y15613000D02*
X48906142Y15584429D01*
X48877571Y15498715D01*
X48877571Y15441572D01*
X48906142Y15355858D01*
X48963285Y15298715D01*
X49020428Y15270143D01*
X49134714Y15241572D01*
X49220428Y15241572D01*
X49334714Y15270143D01*
X49391857Y15298715D01*
X49449000Y15355858D01*
X49477571Y15441572D01*
X49477571Y15498715D01*
X49449000Y15584429D01*
X49420428Y15613000D01*
X51671571Y14641572D02*
X52271571Y14641572D01*
X51671571Y14984429D01*
X52271571Y14984429D01*
X51728714Y15613000D02*
X51700142Y15584429D01*
X51671571Y15498715D01*
X51671571Y15441572D01*
X51700142Y15355858D01*
X51757285Y15298715D01*
X51814428Y15270143D01*
X51928714Y15241572D01*
X52014428Y15241572D01*
X52128714Y15270143D01*
X52185857Y15298715D01*
X52243000Y15355858D01*
X52271571Y15441572D01*
X52271571Y15498715D01*
X52243000Y15584429D01*
X52214428Y15613000D01*
X53900428Y13798715D02*
X53900428Y14255858D01*
X53986142Y14370143D02*
X53957571Y14455858D01*
X53957571Y14598715D01*
X53986142Y14655858D01*
X54014714Y14684429D01*
X54071857Y14713000D01*
X54129000Y14713000D01*
X54186142Y14684429D01*
X54214714Y14655858D01*
X54243285Y14598715D01*
X54271857Y14484429D01*
X54300428Y14427286D01*
X54329000Y14398715D01*
X54386142Y14370143D01*
X54443285Y14370143D01*
X54500428Y14398715D01*
X54529000Y14427286D01*
X54557571Y14484429D01*
X54557571Y14627286D01*
X54529000Y14713000D01*
X54271857Y14970143D02*
X54271857Y15170143D01*
X53957571Y15255858D02*
X53957571Y14970143D01*
X54557571Y14970143D01*
X54557571Y15255858D01*
X53957571Y15798715D02*
X53957571Y15513000D01*
X54557571Y15513000D01*
X53957571Y16313000D02*
X53957571Y15970143D01*
X53957571Y16141572D02*
X54557571Y16141572D01*
X54471857Y16084429D01*
X54414714Y16027286D01*
X54386142Y15970143D01*
X75696090Y-1706197D02*
X75588948Y-1741911D01*
X75410376Y-1741911D01*
X75338948Y-1706197D01*
X75303233Y-1670483D01*
X75267519Y-1599054D01*
X75267519Y-1527626D01*
X75303233Y-1456197D01*
X75338948Y-1420483D01*
X75410376Y-1384768D01*
X75553233Y-1349054D01*
X75624662Y-1313340D01*
X75660376Y-1277626D01*
X75696090Y-1206197D01*
X75696090Y-1134768D01*
X75660376Y-1063340D01*
X75624662Y-1027626D01*
X75553233Y-991911D01*
X75374662Y-991911D01*
X75267519Y-1027626D01*
X74946090Y-1349054D02*
X74696090Y-1349054D01*
X74588948Y-1741911D02*
X74946090Y-1741911D01*
X74946090Y-991911D01*
X74588948Y-991911D01*
X73838948Y-1741911D02*
X74088948Y-1384768D01*
X74267519Y-1741911D02*
X74267519Y-991911D01*
X73981805Y-991911D01*
X73910376Y-1027626D01*
X73874662Y-1063340D01*
X73838948Y-1134768D01*
X73838948Y-1241911D01*
X73874662Y-1313340D01*
X73910376Y-1349054D01*
X73981805Y-1384768D01*
X74267519Y-1384768D01*
X73696090Y-1813340D02*
X73124662Y-1813340D01*
X73053233Y-991911D02*
X72624662Y-991911D01*
X72838948Y-1741911D02*
X72838948Y-991911D01*
X72446090Y-991911D02*
X71946090Y-1741911D01*
X71946090Y-991911D02*
X72446090Y-1741911D01*
X75696090Y960803D02*
X75588947Y925089D01*
X75410376Y925089D01*
X75338947Y960803D01*
X75303233Y996517D01*
X75267519Y1067946D01*
X75267519Y1139374D01*
X75303233Y1210803D01*
X75338947Y1246517D01*
X75410376Y1282232D01*
X75553233Y1317946D01*
X75624662Y1353660D01*
X75660376Y1389374D01*
X75696090Y1460803D01*
X75696090Y1532232D01*
X75660376Y1603660D01*
X75624662Y1639374D01*
X75553233Y1675089D01*
X75374662Y1675089D01*
X75267519Y1639374D01*
X74946090Y1317946D02*
X74696090Y1317946D01*
X74588947Y925089D02*
X74946090Y925089D01*
X74946090Y1675089D01*
X74588947Y1675089D01*
X73838947Y925089D02*
X74088947Y1282232D01*
X74267519Y925089D02*
X74267519Y1675089D01*
X73981804Y1675089D01*
X73910376Y1639374D01*
X73874662Y1603660D01*
X73838947Y1532232D01*
X73838947Y1425089D01*
X73874662Y1353660D01*
X73910376Y1317946D01*
X73981804Y1282232D01*
X74267519Y1282232D01*
X73696090Y853660D02*
X73124662Y853660D01*
X72517519Y925089D02*
X72767519Y1282232D01*
X72946090Y925089D02*
X72946090Y1675089D01*
X72660376Y1675089D01*
X72588947Y1639374D01*
X72553233Y1603660D01*
X72517519Y1532232D01*
X72517519Y1425089D01*
X72553233Y1353660D01*
X72588947Y1317946D01*
X72660376Y1282232D01*
X72946090Y1282232D01*
X72267519Y1675089D02*
X71767519Y925089D01*
X71767519Y1675089D02*
X72267519Y925089D01*
X75267519Y-3491426D02*
X75338948Y-3455711D01*
X75446091Y-3455711D01*
X75553233Y-3491426D01*
X75624662Y-3562854D01*
X75660376Y-3634283D01*
X75696091Y-3777140D01*
X75696091Y-3884283D01*
X75660376Y-4027140D01*
X75624662Y-4098568D01*
X75553233Y-4169997D01*
X75446091Y-4205711D01*
X75374662Y-4205711D01*
X75267519Y-4169997D01*
X75231805Y-4134283D01*
X75231805Y-3884283D01*
X75374662Y-3884283D01*
X74910376Y-4205711D02*
X74910376Y-3455711D01*
X74481805Y-4205711D01*
X74481805Y-3455711D01*
X74124662Y-4205711D02*
X74124662Y-3455711D01*
X73946091Y-3455711D01*
X73838948Y-3491426D01*
X73767519Y-3562854D01*
X73731805Y-3634283D01*
X73696091Y-3777140D01*
X73696091Y-3884283D01*
X73731805Y-4027140D01*
X73767519Y-4098568D01*
X73838948Y-4169997D01*
X73946091Y-4205711D01*
X74124662Y-4205711D01*
X75660376Y-6561597D02*
X75088948Y-6561597D01*
X75374662Y-6847311D02*
X75374662Y-6275883D01*
X74374662Y-6097311D02*
X74731805Y-6097311D01*
X74767519Y-6454454D01*
X74731805Y-6418740D01*
X74660376Y-6383026D01*
X74481805Y-6383026D01*
X74410376Y-6418740D01*
X74374662Y-6454454D01*
X74338948Y-6525883D01*
X74338948Y-6704454D01*
X74374662Y-6775883D01*
X74410376Y-6811597D01*
X74481805Y-6847311D01*
X74660376Y-6847311D01*
X74731805Y-6811597D01*
X74767519Y-6775883D01*
X74124662Y-6097311D02*
X73874662Y-6847311D01*
X73624662Y-6097311D01*
X56440428Y13981286D02*
X56440428Y14438429D01*
X56497571Y14581286D02*
X57097571Y14581286D01*
X56669000Y14781286D01*
X57097571Y14981286D01*
X56497571Y14981286D01*
X57097571Y15181286D02*
X57097571Y15524143D01*
X56497571Y15352715D02*
X57097571Y15352715D01*
X56497571Y16067000D02*
X56783285Y15867000D01*
X56497571Y15724143D02*
X57097571Y15724143D01*
X57097571Y15952715D01*
X57069000Y16009858D01*
X57040428Y16038429D01*
X56983285Y16067000D01*
X56897571Y16067000D01*
X56840428Y16038429D01*
X56811857Y16009858D01*
X56783285Y15952715D01*
X56783285Y15724143D01*
X56497571Y16638429D02*
X56497571Y16295572D01*
X56497571Y16467000D02*
X57097571Y16467000D01*
X57011857Y16409858D01*
X56954714Y16352715D01*
X56926142Y16295572D01*
X64005666Y14150334D02*
X64005666Y14683667D01*
X64072333Y15250334D02*
X64405666Y15017000D01*
X64072333Y14850334D02*
X64772333Y14850334D01*
X64772333Y15117000D01*
X64739000Y15183667D01*
X64705666Y15217000D01*
X64639000Y15250334D01*
X64539000Y15250334D01*
X64472333Y15217000D01*
X64439000Y15183667D01*
X64405666Y15117000D01*
X64405666Y14850334D01*
X64105666Y15517000D02*
X64072333Y15617000D01*
X64072333Y15783667D01*
X64105666Y15850334D01*
X64139000Y15883667D01*
X64205666Y15917000D01*
X64272333Y15917000D01*
X64339000Y15883667D01*
X64372333Y15850334D01*
X64405666Y15783667D01*
X64439000Y15650334D01*
X64472333Y15583667D01*
X64505666Y15550334D01*
X64572333Y15517000D01*
X64639000Y15517000D01*
X64705666Y15550334D01*
X64739000Y15583667D01*
X64772333Y15650334D01*
X64772333Y15817000D01*
X64739000Y15917000D01*
X64772333Y16117000D02*
X64772333Y16517000D01*
X64072333Y16317000D02*
X64772333Y16317000D01*
X61465666Y13750334D02*
X61465666Y14283667D01*
X61532333Y14450334D02*
X62232333Y14450334D01*
X61732333Y14683667D01*
X62232333Y14917000D01*
X61532333Y14917000D01*
X62232333Y15150334D02*
X62232333Y15550334D01*
X61532333Y15350334D02*
X62232333Y15350334D01*
X61532333Y16183667D02*
X61865666Y15950334D01*
X61532333Y15783667D02*
X62232333Y15783667D01*
X62232333Y16050334D01*
X62199000Y16117000D01*
X62165666Y16150334D01*
X62099000Y16183667D01*
X61999000Y16183667D01*
X61932333Y16150334D01*
X61899000Y16117000D01*
X61865666Y16050334D01*
X61865666Y15783667D01*
X62232333Y16617000D02*
X62232333Y16683667D01*
X62199000Y16750334D01*
X62165666Y16783667D01*
X62099000Y16817000D01*
X61965666Y16850334D01*
X61799000Y16850334D01*
X61665666Y16817000D01*
X61599000Y16783667D01*
X61565666Y16750334D01*
X61532333Y16683667D01*
X61532333Y16617000D01*
X61565666Y16550334D01*
X61599000Y16517000D01*
X61665666Y16483667D01*
X61799000Y16450334D01*
X61965666Y16450334D01*
X62099000Y16483667D01*
X62165666Y16517000D01*
X62199000Y16550334D01*
X62232333Y16617000D01*
X66875428Y13486000D02*
X66875428Y14057429D01*
X66589714Y13771715D02*
X67161142Y13771715D01*
X67339714Y14343143D02*
X67339714Y14807429D01*
X67054000Y14557429D01*
X67054000Y14664572D01*
X67018285Y14736000D01*
X66982571Y14771715D01*
X66911142Y14807429D01*
X66732571Y14807429D01*
X66661142Y14771715D01*
X66625428Y14736000D01*
X66589714Y14664572D01*
X66589714Y14450286D01*
X66625428Y14378858D01*
X66661142Y14343143D01*
X66661142Y15128858D02*
X66625428Y15164572D01*
X66589714Y15128858D01*
X66625428Y15093143D01*
X66661142Y15128858D01*
X66589714Y15128858D01*
X67339714Y15414572D02*
X67339714Y15878858D01*
X67054000Y15628858D01*
X67054000Y15736000D01*
X67018285Y15807429D01*
X66982571Y15843143D01*
X66911142Y15878858D01*
X66732571Y15878858D01*
X66661142Y15843143D01*
X66625428Y15807429D01*
X66589714Y15736000D01*
X66589714Y15521715D01*
X66625428Y15450286D01*
X66661142Y15414572D01*
X67339714Y16093143D02*
X66589714Y16343143D01*
X67339714Y16593143D01*
X34182809Y12684358D02*
X33778047Y12684358D01*
X33730428Y12708167D01*
X33706619Y12731977D01*
X33682809Y12779596D01*
X33682809Y12874834D01*
X33706619Y12922453D01*
X33730428Y12946262D01*
X33778047Y12970072D01*
X34182809Y12970072D01*
X33706619Y13184358D02*
X33682809Y13255786D01*
X33682809Y13374834D01*
X33706619Y13422453D01*
X33730428Y13446262D01*
X33778047Y13470072D01*
X33825666Y13470072D01*
X33873285Y13446262D01*
X33897095Y13422453D01*
X33920904Y13374834D01*
X33944714Y13279596D01*
X33968523Y13231977D01*
X33992333Y13208167D01*
X34039952Y13184358D01*
X34087571Y13184358D01*
X34135190Y13208167D01*
X34159000Y13231977D01*
X34182809Y13279596D01*
X34182809Y13398643D01*
X34159000Y13470072D01*
X33944714Y13851024D02*
X33920904Y13922453D01*
X33897095Y13946262D01*
X33849476Y13970072D01*
X33778047Y13970072D01*
X33730428Y13946262D01*
X33706619Y13922453D01*
X33682809Y13874834D01*
X33682809Y13684358D01*
X34182809Y13684358D01*
X34182809Y13851024D01*
X34159000Y13898643D01*
X34135190Y13922453D01*
X34087571Y13946262D01*
X34039952Y13946262D01*
X33992333Y13922453D01*
X33968523Y13898643D01*
X33944714Y13851024D01*
X33944714Y13684358D01*
X33635190Y14065310D02*
X33635190Y14446262D01*
X33730428Y14851024D02*
X33706619Y14827215D01*
X33682809Y14755786D01*
X33682809Y14708167D01*
X33706619Y14636739D01*
X33754238Y14589120D01*
X33801857Y14565310D01*
X33897095Y14541500D01*
X33968523Y14541500D01*
X34063761Y14565310D01*
X34111380Y14589120D01*
X34159000Y14636739D01*
X34182809Y14708167D01*
X34182809Y14755786D01*
X34159000Y14827215D01*
X34135190Y14851024D01*
X34182809Y15160548D02*
X34182809Y15255786D01*
X34159000Y15303405D01*
X34111380Y15351024D01*
X34016142Y15374834D01*
X33849476Y15374834D01*
X33754238Y15351024D01*
X33706619Y15303405D01*
X33682809Y15255786D01*
X33682809Y15160548D01*
X33706619Y15112929D01*
X33754238Y15065310D01*
X33849476Y15041500D01*
X34016142Y15041500D01*
X34111380Y15065310D01*
X34159000Y15112929D01*
X34182809Y15160548D01*
X33682809Y15589120D02*
X34182809Y15589120D01*
X33682809Y15874834D01*
X34182809Y15874834D01*
X33682809Y16112929D02*
X34182809Y16112929D01*
X33682809Y16398643D01*
X34182809Y16398643D01*
X58925666Y13833667D02*
X58925666Y14367000D01*
X59025666Y14500334D02*
X58992333Y14600334D01*
X58992333Y14767000D01*
X59025666Y14833667D01*
X59059000Y14867000D01*
X59125666Y14900334D01*
X59192333Y14900334D01*
X59259000Y14867000D01*
X59292333Y14833667D01*
X59325666Y14767000D01*
X59359000Y14633667D01*
X59392333Y14567000D01*
X59425666Y14533667D01*
X59492333Y14500334D01*
X59559000Y14500334D01*
X59625666Y14533667D01*
X59659000Y14567000D01*
X59692333Y14633667D01*
X59692333Y14800334D01*
X59659000Y14900334D01*
X59359000Y15200334D02*
X59359000Y15433667D01*
X58992333Y15533667D02*
X58992333Y15200334D01*
X59692333Y15200334D01*
X59692333Y15533667D01*
X58992333Y16167000D02*
X58992333Y15833667D01*
X59692333Y15833667D01*
X59692333Y16533667D02*
X59692333Y16600334D01*
X59659000Y16667000D01*
X59625666Y16700334D01*
X59559000Y16733667D01*
X59425666Y16767000D01*
X59259000Y16767000D01*
X59125666Y16733667D01*
X59059000Y16700334D01*
X59025666Y16667000D01*
X58992333Y16600334D01*
X58992333Y16533667D01*
X59025666Y16467000D01*
X59059000Y16433667D01*
X59125666Y16400334D01*
X59259000Y16367000D01*
X59425666Y16367000D01*
X59559000Y16400334D01*
X59625666Y16433667D01*
X59659000Y16467000D01*
X59692333Y16533667D01*
X69844000Y14414572D02*
X69879714Y14343143D01*
X69879714Y14236000D01*
X69844000Y14128858D01*
X69772571Y14057429D01*
X69701142Y14021715D01*
X69558285Y13986000D01*
X69451142Y13986000D01*
X69308285Y14021715D01*
X69236857Y14057429D01*
X69165428Y14128858D01*
X69129714Y14236000D01*
X69129714Y14307429D01*
X69165428Y14414572D01*
X69201142Y14450286D01*
X69451142Y14450286D01*
X69451142Y14307429D01*
X69129714Y14771715D02*
X69879714Y14771715D01*
X69129714Y15200286D01*
X69879714Y15200286D01*
X69129714Y15557429D02*
X69879714Y15557429D01*
X69879714Y15736000D01*
X69844000Y15843143D01*
X69772571Y15914572D01*
X69701142Y15950286D01*
X69558285Y15986000D01*
X69451142Y15986000D01*
X69308285Y15950286D01*
X69236857Y15914572D01*
X69165428Y15843143D01*
X69129714Y15736000D01*
X69129714Y15557429D01*
X72384000Y14414572D02*
X72419714Y14343143D01*
X72419714Y14236000D01*
X72384000Y14128858D01*
X72312571Y14057429D01*
X72241142Y14021715D01*
X72098285Y13986000D01*
X71991142Y13986000D01*
X71848285Y14021715D01*
X71776857Y14057429D01*
X71705428Y14128858D01*
X71669714Y14236000D01*
X71669714Y14307429D01*
X71705428Y14414572D01*
X71741142Y14450286D01*
X71991142Y14450286D01*
X71991142Y14307429D01*
X71669714Y14771715D02*
X72419714Y14771715D01*
X71669714Y15200286D01*
X72419714Y15200286D01*
X71669714Y15557429D02*
X72419714Y15557429D01*
X72419714Y15736000D01*
X72384000Y15843143D01*
X72312571Y15914572D01*
X72241142Y15950286D01*
X72098285Y15986000D01*
X71991142Y15986000D01*
X71848285Y15950286D01*
X71776857Y15914572D01*
X71705428Y15843143D01*
X71669714Y15736000D01*
X71669714Y15557429D01*
X26015190Y14521762D02*
X26015190Y14902715D01*
X26205666Y14997953D02*
X26205666Y15236048D01*
X26062809Y14950334D02*
X26562809Y15117000D01*
X26062809Y15283667D01*
X26110428Y15736048D02*
X26086619Y15712239D01*
X26062809Y15640810D01*
X26062809Y15593191D01*
X26086619Y15521762D01*
X26134238Y15474143D01*
X26181857Y15450334D01*
X26277095Y15426524D01*
X26348523Y15426524D01*
X26443761Y15450334D01*
X26491380Y15474143D01*
X26539000Y15521762D01*
X26562809Y15593191D01*
X26562809Y15640810D01*
X26539000Y15712239D01*
X26515190Y15736048D01*
X26562809Y15878905D02*
X26562809Y16164620D01*
X26062809Y16021762D02*
X26562809Y16021762D01*
X31112666Y39930667D02*
X31112666Y40464000D01*
X31179333Y40630667D02*
X31879333Y40630667D01*
X31879333Y40797334D01*
X31846000Y40897334D01*
X31779333Y40964000D01*
X31712666Y40997334D01*
X31579333Y41030667D01*
X31479333Y41030667D01*
X31346000Y40997334D01*
X31279333Y40964000D01*
X31212666Y40897334D01*
X31179333Y40797334D01*
X31179333Y40630667D01*
X31546000Y41330667D02*
X31546000Y41564000D01*
X31179333Y41664000D02*
X31179333Y41330667D01*
X31879333Y41330667D01*
X31879333Y41664000D01*
X31179333Y41964000D02*
X31879333Y41964000D01*
X31179333Y42364000D01*
X31879333Y42364000D01*
X31212666Y42664000D02*
X31179333Y42764000D01*
X31179333Y42930667D01*
X31212666Y42997334D01*
X31246000Y43030667D01*
X31312666Y43064000D01*
X31379333Y43064000D01*
X31446000Y43030667D01*
X31479333Y42997334D01*
X31512666Y42930667D01*
X31546000Y42797334D01*
X31579333Y42730667D01*
X31612666Y42697334D01*
X31679333Y42664000D01*
X31746000Y42664000D01*
X31812666Y42697334D01*
X31846000Y42730667D01*
X31879333Y42797334D01*
X31879333Y42964000D01*
X31846000Y43064000D01*
X31546000Y43364000D02*
X31546000Y43597334D01*
X31179333Y43697334D02*
X31179333Y43364000D01*
X31879333Y43364000D01*
X31879333Y43697334D01*
X31179333Y44330667D02*
X31179333Y43997334D01*
X31879333Y43997334D01*
X26791000Y40894072D02*
X26826714Y40822643D01*
X26826714Y40715500D01*
X26791000Y40608358D01*
X26719571Y40536929D01*
X26648142Y40501215D01*
X26505285Y40465500D01*
X26398142Y40465500D01*
X26255285Y40501215D01*
X26183857Y40536929D01*
X26112428Y40608358D01*
X26076714Y40715500D01*
X26076714Y40786929D01*
X26112428Y40894072D01*
X26148142Y40929786D01*
X26398142Y40929786D01*
X26398142Y40786929D01*
X26076714Y41251215D02*
X26826714Y41251215D01*
X26076714Y41679786D01*
X26826714Y41679786D01*
X26076714Y42036929D02*
X26826714Y42036929D01*
X26826714Y42215500D01*
X26791000Y42322643D01*
X26719571Y42394072D01*
X26648142Y42429786D01*
X26505285Y42465500D01*
X26398142Y42465500D01*
X26255285Y42429786D01*
X26183857Y42394072D01*
X26112428Y42322643D01*
X26076714Y42215500D01*
X26076714Y42036929D01*
X28902428Y40501215D02*
X28902428Y41072643D01*
X28616714Y40786929D02*
X29188142Y40786929D01*
X29366714Y41786929D02*
X29366714Y41429786D01*
X29009571Y41394072D01*
X29045285Y41429786D01*
X29081000Y41501215D01*
X29081000Y41679786D01*
X29045285Y41751215D01*
X29009571Y41786929D01*
X28938142Y41822643D01*
X28759571Y41822643D01*
X28688142Y41786929D01*
X28652428Y41751215D01*
X28616714Y41679786D01*
X28616714Y41501215D01*
X28652428Y41429786D01*
X28688142Y41394072D01*
X29366714Y42036929D02*
X28616714Y42286929D01*
X29366714Y42536929D01*
X59193142Y40170286D02*
X59164571Y40256000D01*
X59164571Y40398858D01*
X59193142Y40456000D01*
X59221714Y40484572D01*
X59278857Y40513143D01*
X59336000Y40513143D01*
X59393142Y40484572D01*
X59421714Y40456000D01*
X59450285Y40398858D01*
X59478857Y40284572D01*
X59507428Y40227429D01*
X59536000Y40198858D01*
X59593142Y40170286D01*
X59650285Y40170286D01*
X59707428Y40198858D01*
X59736000Y40227429D01*
X59764571Y40284572D01*
X59764571Y40427429D01*
X59736000Y40513143D01*
X59478857Y40770286D02*
X59478857Y40970286D01*
X59164571Y41056000D02*
X59164571Y40770286D01*
X59764571Y40770286D01*
X59764571Y41056000D01*
X59164571Y41656000D02*
X59450285Y41456000D01*
X59164571Y41313143D02*
X59764571Y41313143D01*
X59764571Y41541715D01*
X59736000Y41598858D01*
X59707428Y41627429D01*
X59650285Y41656000D01*
X59564571Y41656000D01*
X59507428Y41627429D01*
X59478857Y41598858D01*
X59450285Y41541715D01*
X59450285Y41313143D01*
X59107428Y41770286D02*
X59107428Y42227429D01*
X59764571Y42284572D02*
X59764571Y42627429D01*
X59164571Y42456000D02*
X59764571Y42456000D01*
X59764571Y42770286D02*
X59164571Y43170286D01*
X59764571Y43170286D02*
X59164571Y42770286D01*
X46407428Y40036929D02*
X46407428Y40494072D01*
X46464571Y40636929D02*
X47064571Y40636929D01*
X47064571Y40779786D01*
X47036000Y40865500D01*
X46978857Y40922643D01*
X46921714Y40951215D01*
X46807428Y40979786D01*
X46721714Y40979786D01*
X46607428Y40951215D01*
X46550285Y40922643D01*
X46493142Y40865500D01*
X46464571Y40779786D01*
X46464571Y40636929D01*
X46464571Y41236929D02*
X47064571Y41236929D01*
X46464571Y41579786D02*
X46807428Y41322643D01*
X47064571Y41579786D02*
X46721714Y41236929D01*
X46464571Y42179786D02*
X46750285Y41979786D01*
X46464571Y41836929D02*
X47064571Y41836929D01*
X47064571Y42065500D01*
X47036000Y42122643D01*
X47007428Y42151215D01*
X46950285Y42179786D01*
X46864571Y42179786D01*
X46807428Y42151215D01*
X46778857Y42122643D01*
X46750285Y42065500D01*
X46750285Y41836929D01*
X46464571Y42436929D02*
X47064571Y42436929D01*
X47064571Y42579786D01*
X47036000Y42665500D01*
X46978857Y42722643D01*
X46921714Y42751215D01*
X46807428Y42779786D01*
X46721714Y42779786D01*
X46607428Y42751215D01*
X46550285Y42722643D01*
X46493142Y42665500D01*
X46464571Y42579786D01*
X46464571Y42436929D01*
X69267428Y40087715D02*
X69267428Y40544858D01*
X69353142Y40659143D02*
X69324571Y40744858D01*
X69324571Y40887715D01*
X69353142Y40944858D01*
X69381714Y40973429D01*
X69438857Y41002000D01*
X69496000Y41002000D01*
X69553142Y40973429D01*
X69581714Y40944858D01*
X69610285Y40887715D01*
X69638857Y40773429D01*
X69667428Y40716286D01*
X69696000Y40687715D01*
X69753142Y40659143D01*
X69810285Y40659143D01*
X69867428Y40687715D01*
X69896000Y40716286D01*
X69924571Y40773429D01*
X69924571Y40916286D01*
X69896000Y41002000D01*
X69924571Y41173429D02*
X69924571Y41516286D01*
X69324571Y41344858D02*
X69924571Y41344858D01*
X69638857Y41716286D02*
X69638857Y41916286D01*
X69324571Y42002000D02*
X69324571Y41716286D01*
X69924571Y41716286D01*
X69924571Y42002000D01*
X69324571Y42259143D02*
X69924571Y42259143D01*
X69924571Y42487715D01*
X69896000Y42544858D01*
X69867428Y42573429D01*
X69810285Y42602000D01*
X69724571Y42602000D01*
X69667428Y42573429D01*
X69638857Y42544858D01*
X69610285Y42487715D01*
X69610285Y42259143D01*
X52144571Y40062358D02*
X51658857Y40062358D01*
X51601714Y40090929D01*
X51573142Y40119500D01*
X51544571Y40176643D01*
X51544571Y40290929D01*
X51573142Y40348072D01*
X51601714Y40376643D01*
X51658857Y40405215D01*
X52144571Y40405215D01*
X51573142Y40662358D02*
X51544571Y40748072D01*
X51544571Y40890929D01*
X51573142Y40948072D01*
X51601714Y40976643D01*
X51658857Y41005215D01*
X51716000Y41005215D01*
X51773142Y40976643D01*
X51801714Y40948072D01*
X51830285Y40890929D01*
X51858857Y40776643D01*
X51887428Y40719500D01*
X51916000Y40690929D01*
X51973142Y40662358D01*
X52030285Y40662358D01*
X52087428Y40690929D01*
X52116000Y40719500D01*
X52144571Y40776643D01*
X52144571Y40919500D01*
X52116000Y41005215D01*
X51858857Y41462358D02*
X51830285Y41548072D01*
X51801714Y41576643D01*
X51744571Y41605215D01*
X51658857Y41605215D01*
X51601714Y41576643D01*
X51573142Y41548072D01*
X51544571Y41490929D01*
X51544571Y41262358D01*
X52144571Y41262358D01*
X52144571Y41462358D01*
X52116000Y41519500D01*
X52087428Y41548072D01*
X52030285Y41576643D01*
X51973142Y41576643D01*
X51916000Y41548072D01*
X51887428Y41519500D01*
X51858857Y41462358D01*
X51858857Y41262358D01*
X51487428Y41719500D02*
X51487428Y42176643D01*
X51544571Y42319500D02*
X52144571Y42319500D01*
X52144571Y42462358D01*
X52116000Y42548072D01*
X52058857Y42605215D01*
X52001714Y42633786D01*
X51887428Y42662358D01*
X51801714Y42662358D01*
X51687428Y42633786D01*
X51630285Y42605215D01*
X51573142Y42548072D01*
X51544571Y42462358D01*
X51544571Y42319500D01*
X51773142Y42919500D02*
X51773142Y43376643D01*
X51544571Y43148072D02*
X52001714Y43148072D01*
X71752666Y40078167D02*
X71752666Y40611500D01*
X71819333Y40778167D02*
X72519333Y40778167D01*
X72519333Y40944834D01*
X72486000Y41044834D01*
X72419333Y41111500D01*
X72352666Y41144834D01*
X72219333Y41178167D01*
X72119333Y41178167D01*
X71986000Y41144834D01*
X71919333Y41111500D01*
X71852666Y41044834D01*
X71819333Y40944834D01*
X71819333Y40778167D01*
X71819333Y41478167D02*
X72519333Y41478167D01*
X71819333Y42211500D02*
X72152666Y41978167D01*
X71819333Y41811500D02*
X72519333Y41811500D01*
X72519333Y42078167D01*
X72486000Y42144834D01*
X72452666Y42178167D01*
X72386000Y42211500D01*
X72286000Y42211500D01*
X72219333Y42178167D01*
X72186000Y42144834D01*
X72152666Y42078167D01*
X72152666Y41811500D01*
X64187428Y40300429D02*
X64187428Y40757572D01*
X64273142Y40871858D02*
X64244571Y40957572D01*
X64244571Y41100429D01*
X64273142Y41157572D01*
X64301714Y41186143D01*
X64358857Y41214715D01*
X64416000Y41214715D01*
X64473142Y41186143D01*
X64501714Y41157572D01*
X64530285Y41100429D01*
X64558857Y40986143D01*
X64587428Y40929000D01*
X64616000Y40900429D01*
X64673142Y40871858D01*
X64730285Y40871858D01*
X64787428Y40900429D01*
X64816000Y40929000D01*
X64844571Y40986143D01*
X64844571Y41129000D01*
X64816000Y41214715D01*
X64244571Y41471858D02*
X64844571Y41471858D01*
X64244571Y41757572D02*
X64844571Y41757572D01*
X64844571Y41900429D01*
X64816000Y41986143D01*
X64758857Y42043286D01*
X64701714Y42071858D01*
X64587428Y42100429D01*
X64501714Y42100429D01*
X64387428Y42071858D01*
X64330285Y42043286D01*
X64273142Y41986143D01*
X64244571Y41900429D01*
X64244571Y41757572D01*
X64558857Y42357572D02*
X64558857Y42557572D01*
X64244571Y42643286D02*
X64244571Y42357572D01*
X64844571Y42357572D01*
X64844571Y42643286D01*
X56653142Y40035358D02*
X56624571Y40121072D01*
X56624571Y40263929D01*
X56653142Y40321072D01*
X56681714Y40349643D01*
X56738857Y40378215D01*
X56796000Y40378215D01*
X56853142Y40349643D01*
X56881714Y40321072D01*
X56910285Y40263929D01*
X56938857Y40149643D01*
X56967428Y40092500D01*
X56996000Y40063929D01*
X57053142Y40035358D01*
X57110285Y40035358D01*
X57167428Y40063929D01*
X57196000Y40092500D01*
X57224571Y40149643D01*
X57224571Y40292500D01*
X57196000Y40378215D01*
X56938857Y40635358D02*
X56938857Y40835358D01*
X56624571Y40921072D02*
X56624571Y40635358D01*
X57224571Y40635358D01*
X57224571Y40921072D01*
X56624571Y41521072D02*
X56910285Y41321072D01*
X56624571Y41178215D02*
X57224571Y41178215D01*
X57224571Y41406786D01*
X57196000Y41463929D01*
X57167428Y41492500D01*
X57110285Y41521072D01*
X57024571Y41521072D01*
X56967428Y41492500D01*
X56938857Y41463929D01*
X56910285Y41406786D01*
X56910285Y41178215D01*
X56567428Y41635358D02*
X56567428Y42092500D01*
X56624571Y42578215D02*
X56910285Y42378215D01*
X56624571Y42235358D02*
X57224571Y42235358D01*
X57224571Y42463929D01*
X57196000Y42521072D01*
X57167428Y42549643D01*
X57110285Y42578215D01*
X57024571Y42578215D01*
X56967428Y42549643D01*
X56938857Y42521072D01*
X56910285Y42463929D01*
X56910285Y42235358D01*
X57224571Y42778215D02*
X56624571Y43178215D01*
X57224571Y43178215D02*
X56624571Y42778215D01*
X54684571Y40062358D02*
X54198857Y40062358D01*
X54141714Y40090929D01*
X54113142Y40119500D01*
X54084571Y40176643D01*
X54084571Y40290929D01*
X54113142Y40348072D01*
X54141714Y40376643D01*
X54198857Y40405215D01*
X54684571Y40405215D01*
X54113142Y40662358D02*
X54084571Y40748072D01*
X54084571Y40890929D01*
X54113142Y40948072D01*
X54141714Y40976643D01*
X54198857Y41005215D01*
X54256000Y41005215D01*
X54313142Y40976643D01*
X54341714Y40948072D01*
X54370285Y40890929D01*
X54398857Y40776643D01*
X54427428Y40719500D01*
X54456000Y40690929D01*
X54513142Y40662358D01*
X54570285Y40662358D01*
X54627428Y40690929D01*
X54656000Y40719500D01*
X54684571Y40776643D01*
X54684571Y40919500D01*
X54656000Y41005215D01*
X54398857Y41462358D02*
X54370285Y41548072D01*
X54341714Y41576643D01*
X54284571Y41605215D01*
X54198857Y41605215D01*
X54141714Y41576643D01*
X54113142Y41548072D01*
X54084571Y41490929D01*
X54084571Y41262358D01*
X54684571Y41262358D01*
X54684571Y41462358D01*
X54656000Y41519500D01*
X54627428Y41548072D01*
X54570285Y41576643D01*
X54513142Y41576643D01*
X54456000Y41548072D01*
X54427428Y41519500D01*
X54398857Y41462358D01*
X54398857Y41262358D01*
X54027428Y41719500D02*
X54027428Y42176643D01*
X54084571Y42319500D02*
X54684571Y42319500D01*
X54684571Y42462358D01*
X54656000Y42548072D01*
X54598857Y42605215D01*
X54541714Y42633786D01*
X54427428Y42662358D01*
X54341714Y42662358D01*
X54227428Y42633786D01*
X54170285Y42605215D01*
X54113142Y42548072D01*
X54084571Y42462358D01*
X54084571Y42319500D01*
X54313142Y42919500D02*
X54313142Y43376643D01*
X66727428Y39959143D02*
X66727428Y40416286D01*
X66784571Y40559143D02*
X67384571Y40559143D01*
X67384571Y40702000D01*
X67356000Y40787715D01*
X67298857Y40844858D01*
X67241714Y40873429D01*
X67127428Y40902000D01*
X67041714Y40902000D01*
X66927428Y40873429D01*
X66870285Y40844858D01*
X66813142Y40787715D01*
X66784571Y40702000D01*
X66784571Y40559143D01*
X66784571Y41159143D02*
X67384571Y41159143D01*
X66784571Y41502000D02*
X67127428Y41244858D01*
X67384571Y41502000D02*
X67041714Y41159143D01*
X67384571Y41702000D02*
X66784571Y41844858D01*
X67213142Y41959143D01*
X66784571Y42073429D01*
X67384571Y42216286D01*
X67098857Y42444858D02*
X67098857Y42644858D01*
X66784571Y42730572D02*
X66784571Y42444858D01*
X67384571Y42444858D01*
X67384571Y42730572D01*
X33707428Y40149715D02*
X33707428Y40606858D01*
X34364571Y40692572D02*
X33764571Y40835429D01*
X34193142Y40949715D01*
X33764571Y41064000D01*
X34364571Y41206858D01*
X33764571Y41778286D02*
X34050285Y41578286D01*
X33764571Y41435429D02*
X34364571Y41435429D01*
X34364571Y41664000D01*
X34336000Y41721143D01*
X34307428Y41749715D01*
X34250285Y41778286D01*
X34164571Y41778286D01*
X34107428Y41749715D01*
X34078857Y41721143D01*
X34050285Y41664000D01*
X34050285Y41435429D01*
X33764571Y42035429D02*
X34364571Y42035429D01*
X34364571Y42264000D01*
X34336000Y42321143D01*
X34307428Y42349715D01*
X34250285Y42378286D01*
X34164571Y42378286D01*
X34107428Y42349715D01*
X34078857Y42321143D01*
X34050285Y42264000D01*
X34050285Y42035429D01*
X33764571Y42978286D02*
X34050285Y42778286D01*
X33764571Y42635429D02*
X34364571Y42635429D01*
X34364571Y42864000D01*
X34336000Y42921143D01*
X34307428Y42949715D01*
X34250285Y42978286D01*
X34164571Y42978286D01*
X34107428Y42949715D01*
X34078857Y42921143D01*
X34050285Y42864000D01*
X34050285Y42635429D01*
X34364571Y43349715D02*
X34364571Y43464000D01*
X34336000Y43521143D01*
X34278857Y43578286D01*
X34164571Y43606858D01*
X33964571Y43606858D01*
X33850285Y43578286D01*
X33793142Y43521143D01*
X33764571Y43464000D01*
X33764571Y43349715D01*
X33793142Y43292572D01*
X33850285Y43235429D01*
X33964571Y43206858D01*
X34164571Y43206858D01*
X34278857Y43235429D01*
X34336000Y43292572D01*
X34364571Y43349715D01*
X34364571Y43778286D02*
X34364571Y44121143D01*
X33764571Y43949715D02*
X34364571Y43949715D01*
X43812666Y39939334D02*
X43812666Y40472667D01*
X43879333Y40639334D02*
X44579333Y40639334D01*
X44579333Y40806000D01*
X44546000Y40906000D01*
X44479333Y40972667D01*
X44412666Y41006000D01*
X44279333Y41039334D01*
X44179333Y41039334D01*
X44046000Y41006000D01*
X43979333Y40972667D01*
X43912666Y40906000D01*
X43879333Y40806000D01*
X43879333Y40639334D01*
X43879333Y41339334D02*
X44579333Y41339334D01*
X43879333Y41739334D02*
X44279333Y41439334D01*
X44579333Y41739334D02*
X44179333Y41339334D01*
X44579333Y41972667D02*
X43879333Y42139334D01*
X44379333Y42272667D01*
X43879333Y42406000D01*
X44579333Y42572667D01*
X43879333Y42839334D02*
X44579333Y42839334D01*
X44579333Y43006000D01*
X44546000Y43106000D01*
X44479333Y43172667D01*
X44412666Y43206000D01*
X44279333Y43239334D01*
X44179333Y43239334D01*
X44046000Y43206000D01*
X43979333Y43172667D01*
X43912666Y43106000D01*
X43879333Y43006000D01*
X43879333Y42839334D01*
X41384571Y40930572D02*
X41984571Y40930572D01*
X41384571Y41273429D01*
X41984571Y41273429D01*
X41441714Y41902000D02*
X41413142Y41873429D01*
X41384571Y41787715D01*
X41384571Y41730572D01*
X41413142Y41644858D01*
X41470285Y41587715D01*
X41527428Y41559143D01*
X41641714Y41530572D01*
X41727428Y41530572D01*
X41841714Y41559143D01*
X41898857Y41587715D01*
X41956000Y41644858D01*
X41984571Y41730572D01*
X41984571Y41787715D01*
X41956000Y41873429D01*
X41927428Y41902000D01*
X38787428Y39986143D02*
X38787428Y40443286D01*
X38844571Y40586143D02*
X39444571Y40586143D01*
X38844571Y40871858D02*
X39444571Y40871858D01*
X38844571Y41214715D01*
X39444571Y41214715D01*
X38844571Y41500429D02*
X39444571Y41500429D01*
X39444571Y41643286D01*
X39416000Y41729000D01*
X39358857Y41786143D01*
X39301714Y41814715D01*
X39187428Y41843286D01*
X39101714Y41843286D01*
X38987428Y41814715D01*
X38930285Y41786143D01*
X38873142Y41729000D01*
X38844571Y41643286D01*
X38844571Y41500429D01*
X39158857Y42100429D02*
X39158857Y42300429D01*
X38844571Y42386143D02*
X38844571Y42100429D01*
X39444571Y42100429D01*
X39444571Y42386143D01*
X39444571Y42586143D02*
X38844571Y42986143D01*
X39444571Y42986143D02*
X38844571Y42586143D01*
X36192666Y40089334D02*
X36192666Y40622667D01*
X36959333Y40689334D02*
X36959333Y41089334D01*
X36259333Y40889334D02*
X36959333Y40889334D01*
X36259333Y41722667D02*
X36592666Y41489334D01*
X36259333Y41322667D02*
X36959333Y41322667D01*
X36959333Y41589334D01*
X36926000Y41656000D01*
X36892666Y41689334D01*
X36826000Y41722667D01*
X36726000Y41722667D01*
X36659333Y41689334D01*
X36626000Y41656000D01*
X36592666Y41589334D01*
X36592666Y41322667D01*
X36259333Y42022667D02*
X36959333Y42022667D01*
X36259333Y42422667D02*
X36659333Y42122667D01*
X36959333Y42422667D02*
X36559333Y42022667D01*
X36959333Y42856000D02*
X36959333Y42922667D01*
X36926000Y42989334D01*
X36892666Y43022667D01*
X36826000Y43056000D01*
X36692666Y43089334D01*
X36526000Y43089334D01*
X36392666Y43056000D01*
X36326000Y43022667D01*
X36292666Y42989334D01*
X36259333Y42922667D01*
X36259333Y42856000D01*
X36292666Y42789334D01*
X36326000Y42756000D01*
X36392666Y42722667D01*
X36526000Y42689334D01*
X36692666Y42689334D01*
X36826000Y42722667D01*
X36892666Y42756000D01*
X36926000Y42789334D01*
X36959333Y42856000D01*
X23822428Y39965500D02*
X23822428Y40536929D01*
X23536714Y40251215D02*
X24108142Y40251215D01*
X24286714Y40822643D02*
X24286714Y41286929D01*
X24001000Y41036929D01*
X24001000Y41144072D01*
X23965285Y41215500D01*
X23929571Y41251215D01*
X23858142Y41286929D01*
X23679571Y41286929D01*
X23608142Y41251215D01*
X23572428Y41215500D01*
X23536714Y41144072D01*
X23536714Y40929786D01*
X23572428Y40858358D01*
X23608142Y40822643D01*
X23608142Y41608358D02*
X23572428Y41644072D01*
X23536714Y41608358D01*
X23572428Y41572643D01*
X23608142Y41608358D01*
X23536714Y41608358D01*
X24286714Y41894072D02*
X24286714Y42358358D01*
X24001000Y42108358D01*
X24001000Y42215500D01*
X23965285Y42286929D01*
X23929571Y42322643D01*
X23858142Y42358358D01*
X23679571Y42358358D01*
X23608142Y42322643D01*
X23572428Y42286929D01*
X23536714Y42215500D01*
X23536714Y42001215D01*
X23572428Y41929786D01*
X23608142Y41894072D01*
X24286714Y42572643D02*
X23536714Y42822643D01*
X24286714Y43072643D01*
D12*
X-1513000Y48972000D02*
X-2046334Y48972000D01*
X-1779667Y48705334D02*
X-1779667Y49238667D01*
X-2713000Y49405334D02*
X-2379667Y49405334D01*
X-2346334Y49072000D01*
X-2379667Y49105334D01*
X-2446334Y49138667D01*
X-2613000Y49138667D01*
X-2679667Y49105334D01*
X-2713000Y49072000D01*
X-2746334Y49005334D01*
X-2746334Y48838667D01*
X-2713000Y48772000D01*
X-2679667Y48738667D01*
X-2613000Y48705334D01*
X-2446334Y48705334D01*
X-2379667Y48738667D01*
X-2346334Y48772000D01*
X-2946334Y49405334D02*
X-3179667Y48705334D01*
X-3413000Y49405334D01*
X-2133667Y51912000D02*
X-2067000Y51945334D01*
X-1967000Y51945334D01*
X-1867000Y51912000D01*
X-1800334Y51845334D01*
X-1767000Y51778667D01*
X-1733667Y51645334D01*
X-1733667Y51545334D01*
X-1767000Y51412000D01*
X-1800334Y51345334D01*
X-1867000Y51278667D01*
X-1967000Y51245334D01*
X-2033667Y51245334D01*
X-2133667Y51278667D01*
X-2167000Y51312000D01*
X-2167000Y51545334D01*
X-2033667Y51545334D01*
X-2467000Y51245334D02*
X-2467000Y51945334D01*
X-2867000Y51245334D01*
X-2867000Y51945334D01*
X-3200334Y51245334D02*
X-3200334Y51945334D01*
X-3367000Y51945334D01*
X-3467000Y51912000D01*
X-3533667Y51845334D01*
X-3567000Y51778667D01*
X-3600334Y51645334D01*
X-3600334Y51545334D01*
X-3567000Y51412000D01*
X-3533667Y51345334D01*
X-3467000Y51278667D01*
X-3367000Y51245334D01*
X-3200334Y51245334D01*
X-1979667Y54039334D02*
X-1579667Y54039334D01*
X-1779667Y54039334D02*
X-1779667Y54739334D01*
X-1713000Y54639334D01*
X-1646334Y54572667D01*
X-1579667Y54539334D01*
X-2246334Y54672667D02*
X-2279667Y54706000D01*
X-2346334Y54739334D01*
X-2513000Y54739334D01*
X-2579667Y54706000D01*
X-2613000Y54672667D01*
X-2646334Y54606000D01*
X-2646334Y54539334D01*
X-2613000Y54439334D01*
X-2213000Y54039334D01*
X-2646334Y54039334D01*
X-2846334Y54739334D02*
X-3079667Y54039334D01*
X-3313000Y54739334D01*
D13*
X54229000Y-4445000D02*
X52324000Y-4445000D01*
X53594000Y-3810000D02*
X53594000Y-8890000D01*
X50419000Y-5080000D02*
X54229000Y-5080000D01*
X54229000Y-5080000D02*
X54229000Y-4445000D01*
X53594000Y-3810000D02*
X50419000Y-3810000D01*
X52324000Y-3810000D02*
X52324000Y-4445000D01*
X51689000Y-3810000D02*
X51689000Y-4445000D01*
X51689000Y-4445000D02*
X51054000Y-4445000D01*
X51054000Y-3810000D02*
X51054000Y-4445000D01*
X50419000Y-3810000D02*
X50419000Y-8890000D01*
X52959000Y-5080000D02*
X52959000Y-5715000D01*
X52959000Y-5715000D02*
X51689000Y-5715000D01*
X52324000Y-5080000D02*
X52324000Y-6350000D01*
X51689000Y-5080000D02*
X51689000Y-5715000D01*
X51054000Y-5080000D02*
X51054000Y-5715000D01*
X54229000Y-6350000D02*
X49149000Y-6350000D01*
X54229000Y-7620000D02*
X54229000Y-6350000D01*
X54229000Y-6985000D02*
X49149000Y-6985000D01*
X54229000Y-7620000D02*
X50419000Y-7620000D01*
X53594000Y-8255000D02*
X50419000Y-8255000D01*
X52959000Y-8255000D02*
X52959000Y-8890000D01*
X51054000Y-8255000D02*
X51054000Y-8890000D01*
X53594000Y-8890000D02*
X52959000Y-8890000D01*
X51054000Y-8890000D02*
X50419000Y-8890000D01*
X49784000Y-8890000D02*
X49149000Y-8890000D01*
X49784000Y-4445000D02*
X49784000Y-8890000D01*
X49149000Y-4445000D02*
X49149000Y-8890000D01*
X49784000Y-4445000D02*
X49149000Y-4445000D01*
X49784000Y-5080000D02*
X49149000Y-5080000D01*
X49784000Y-8255000D02*
X49149000Y-8255000D01*
X51689000Y-6985000D02*
X51689000Y-7620000D01*
X51054000Y-6985000D02*
X51054000Y-7620000D01*
G36*
X51689000Y-5715000D02*
G01*
X52324000Y-5715000D01*
X52324000Y-5080000D01*
X51689000Y-5080000D01*
X51689000Y-5715000D01*
G37*
X51689000Y-5715000D02*
X52324000Y-5715000D01*
X52324000Y-5080000D01*
X51689000Y-5080000D01*
X51689000Y-5715000D01*
G36*
X50419000Y-5715000D02*
G01*
X51054000Y-5715000D01*
X51054000Y-5080000D01*
X50419000Y-5080000D01*
X50419000Y-5715000D01*
G37*
X50419000Y-5715000D02*
X51054000Y-5715000D01*
X51054000Y-5080000D01*
X50419000Y-5080000D01*
X50419000Y-5715000D01*
G36*
X51054000Y-7620000D02*
G01*
X51689000Y-7620000D01*
X51689000Y-6985000D01*
X51054000Y-6985000D01*
X51054000Y-7620000D01*
G37*
X51054000Y-7620000D02*
X51689000Y-7620000D01*
X51689000Y-6985000D01*
X51054000Y-6985000D01*
X51054000Y-7620000D01*
X51054000Y-5715000D02*
X50419000Y-5715000D01*
X51054000Y-5715000D02*
X50419000Y-5715000D01*
G36*
X51054000Y-7620000D02*
G01*
X51689000Y-7620000D01*
X51689000Y-6985000D01*
X51054000Y-6985000D01*
X51054000Y-7620000D01*
G37*
X51054000Y-7620000D02*
X51689000Y-7620000D01*
X51689000Y-6985000D01*
X51054000Y-6985000D01*
X51054000Y-7620000D01*
G36*
X50419000Y-5715000D02*
G01*
X51054000Y-5715000D01*
X51054000Y-5080000D01*
X50419000Y-5080000D01*
X50419000Y-5715000D01*
G37*
X50419000Y-5715000D02*
X51054000Y-5715000D01*
X51054000Y-5080000D01*
X50419000Y-5080000D01*
X50419000Y-5715000D01*
G36*
X51689000Y-5715000D02*
G01*
X52324000Y-5715000D01*
X52324000Y-5080000D01*
X51689000Y-5080000D01*
X51689000Y-5715000D01*
G37*
X51689000Y-5715000D02*
X52324000Y-5715000D01*
X52324000Y-5080000D01*
X51689000Y-5080000D01*
X51689000Y-5715000D01*
X51054000Y-6985000D02*
X51054000Y-7620000D01*
X51689000Y-6985000D02*
X51689000Y-7620000D01*
X49784000Y-8255000D02*
X49149000Y-8255000D01*
X49784000Y-5080000D02*
X49149000Y-5080000D01*
X49784000Y-4445000D02*
X49149000Y-4445000D01*
X49149000Y-4445000D02*
X49149000Y-8890000D01*
X49784000Y-4445000D02*
X49784000Y-8890000D01*
X49784000Y-8890000D02*
X49149000Y-8890000D01*
X51054000Y-8890000D02*
X50419000Y-8890000D01*
X53594000Y-8890000D02*
X52959000Y-8890000D01*
X51054000Y-8255000D02*
X51054000Y-8890000D01*
X52959000Y-8255000D02*
X52959000Y-8890000D01*
X53594000Y-8255000D02*
X50419000Y-8255000D01*
X54229000Y-7620000D02*
X50419000Y-7620000D01*
X54229000Y-6985000D02*
X49149000Y-6985000D01*
X54229000Y-7620000D02*
X54229000Y-6350000D01*
X54229000Y-6350000D02*
X49149000Y-6350000D01*
X51054000Y-5080000D02*
X51054000Y-5715000D01*
X51689000Y-5080000D02*
X51689000Y-5715000D01*
X52324000Y-5080000D02*
X52324000Y-6350000D01*
X52959000Y-5715000D02*
X51689000Y-5715000D01*
X52959000Y-5080000D02*
X52959000Y-5715000D01*
X50419000Y-3810000D02*
X50419000Y-8890000D01*
X51054000Y-3810000D02*
X51054000Y-4445000D01*
X51689000Y-4445000D02*
X51054000Y-4445000D01*
X51689000Y-3810000D02*
X51689000Y-4445000D01*
X52324000Y-3810000D02*
X52324000Y-4445000D01*
X53594000Y-3810000D02*
X50419000Y-3810000D01*
X54229000Y-5080000D02*
X54229000Y-4445000D01*
X50419000Y-5080000D02*
X54229000Y-5080000D01*
X53594000Y-3810000D02*
X53594000Y-8890000D01*
X54229000Y-4445000D02*
X52324000Y-4445000D01*
D12*
X54135428Y-9955571D02*
X54064000Y-9991285D01*
X53921142Y-9991285D01*
X53849714Y-9955571D01*
X53814000Y-9884142D01*
X53814000Y-9848428D01*
X53849714Y-9777000D01*
X53921142Y-9741285D01*
X54028285Y-9741285D01*
X54099714Y-9705571D01*
X54135428Y-9634142D01*
X54135428Y-9598428D01*
X54099714Y-9527000D01*
X54028285Y-9491285D01*
X53921142Y-9491285D01*
X53849714Y-9527000D01*
X53385428Y-9991285D02*
X53456857Y-9955571D01*
X53492571Y-9919857D01*
X53528285Y-9848428D01*
X53528285Y-9634142D01*
X53492571Y-9562714D01*
X53456857Y-9527000D01*
X53385428Y-9491285D01*
X53278285Y-9491285D01*
X53206857Y-9527000D01*
X53171142Y-9562714D01*
X53135428Y-9634142D01*
X53135428Y-9848428D01*
X53171142Y-9919857D01*
X53206857Y-9955571D01*
X53278285Y-9991285D01*
X53385428Y-9991285D01*
X52706857Y-9991285D02*
X52778285Y-9955571D01*
X52814000Y-9884142D01*
X52814000Y-9241285D01*
X52099714Y-9991285D02*
X52099714Y-9598428D01*
X52135428Y-9527000D01*
X52206857Y-9491285D01*
X52349714Y-9491285D01*
X52421142Y-9527000D01*
X52099714Y-9955571D02*
X52171142Y-9991285D01*
X52349714Y-9991285D01*
X52421142Y-9955571D01*
X52456857Y-9884142D01*
X52456857Y-9812714D01*
X52421142Y-9741285D01*
X52349714Y-9705571D01*
X52171142Y-9705571D01*
X52099714Y-9669857D01*
X51742571Y-9991285D02*
X51742571Y-9491285D01*
X51742571Y-9634142D02*
X51706857Y-9562714D01*
X51671142Y-9527000D01*
X51599714Y-9491285D01*
X51528285Y-9491285D01*
X51278285Y-9991285D02*
X51278285Y-9491285D01*
X51278285Y-9562714D02*
X51242571Y-9527000D01*
X51171142Y-9491285D01*
X51064000Y-9491285D01*
X50992571Y-9527000D01*
X50956857Y-9598428D01*
X50956857Y-9991285D01*
X50956857Y-9598428D02*
X50921142Y-9527000D01*
X50849714Y-9491285D01*
X50742571Y-9491285D01*
X50671142Y-9527000D01*
X50635428Y-9598428D01*
X50635428Y-9991285D01*
X50171142Y-9991285D02*
X50242571Y-9955571D01*
X50278285Y-9919857D01*
X50314000Y-9848428D01*
X50314000Y-9634142D01*
X50278285Y-9562714D01*
X50242571Y-9527000D01*
X50171142Y-9491285D01*
X50064000Y-9491285D01*
X49992571Y-9527000D01*
X49956857Y-9562714D01*
X49921142Y-9634142D01*
X49921142Y-9848428D01*
X49956857Y-9919857D01*
X49992571Y-9955571D01*
X50064000Y-9991285D01*
X50171142Y-9991285D01*
X49599714Y-9491285D02*
X49599714Y-9991285D01*
X49599714Y-9562714D02*
X49564000Y-9527000D01*
X49492571Y-9491285D01*
X49385428Y-9491285D01*
X49314000Y-9527000D01*
X49278285Y-9598428D01*
X49278285Y-9991285D01*
X54135428Y-9955571D02*
X54064000Y-9991285D01*
X53921142Y-9991285D01*
X53849714Y-9955571D01*
X53814000Y-9884142D01*
X53814000Y-9848428D01*
X53849714Y-9777000D01*
X53921142Y-9741285D01*
X54028285Y-9741285D01*
X54099714Y-9705571D01*
X54135428Y-9634142D01*
X54135428Y-9598428D01*
X54099714Y-9527000D01*
X54028285Y-9491285D01*
X53921142Y-9491285D01*
X53849714Y-9527000D01*
X53385428Y-9991285D02*
X53456857Y-9955571D01*
X53492571Y-9919857D01*
X53528285Y-9848428D01*
X53528285Y-9634142D01*
X53492571Y-9562714D01*
X53456857Y-9527000D01*
X53385428Y-9491285D01*
X53278285Y-9491285D01*
X53206857Y-9527000D01*
X53171142Y-9562714D01*
X53135428Y-9634142D01*
X53135428Y-9848428D01*
X53171142Y-9919857D01*
X53206857Y-9955571D01*
X53278285Y-9991285D01*
X53385428Y-9991285D01*
X52706857Y-9991285D02*
X52778285Y-9955571D01*
X52814000Y-9884142D01*
X52814000Y-9241285D01*
X52099714Y-9991285D02*
X52099714Y-9598428D01*
X52135428Y-9527000D01*
X52206857Y-9491285D01*
X52349714Y-9491285D01*
X52421142Y-9527000D01*
X52099714Y-9955571D02*
X52171142Y-9991285D01*
X52349714Y-9991285D01*
X52421142Y-9955571D01*
X52456857Y-9884142D01*
X52456857Y-9812714D01*
X52421142Y-9741285D01*
X52349714Y-9705571D01*
X52171142Y-9705571D01*
X52099714Y-9669857D01*
X51742571Y-9991285D02*
X51742571Y-9491285D01*
X51742571Y-9634142D02*
X51706857Y-9562714D01*
X51671142Y-9527000D01*
X51599714Y-9491285D01*
X51528285Y-9491285D01*
X51278285Y-9991285D02*
X51278285Y-9491285D01*
X51278285Y-9562714D02*
X51242571Y-9527000D01*
X51171142Y-9491285D01*
X51064000Y-9491285D01*
X50992571Y-9527000D01*
X50956857Y-9598428D01*
X50956857Y-9991285D01*
X50956857Y-9598428D02*
X50921142Y-9527000D01*
X50849714Y-9491285D01*
X50742571Y-9491285D01*
X50671142Y-9527000D01*
X50635428Y-9598428D01*
X50635428Y-9991285D01*
X50171142Y-9991285D02*
X50242571Y-9955571D01*
X50278285Y-9919857D01*
X50314000Y-9848428D01*
X50314000Y-9634142D01*
X50278285Y-9562714D01*
X50242571Y-9527000D01*
X50171142Y-9491285D01*
X50064000Y-9491285D01*
X49992571Y-9527000D01*
X49956857Y-9562714D01*
X49921142Y-9634142D01*
X49921142Y-9848428D01*
X49956857Y-9919857D01*
X49992571Y-9955571D01*
X50064000Y-9991285D01*
X50171142Y-9991285D01*
X49599714Y-9491285D02*
X49599714Y-9991285D01*
X49599714Y-9562714D02*
X49564000Y-9527000D01*
X49492571Y-9491285D01*
X49385428Y-9491285D01*
X49314000Y-9527000D01*
X49278285Y-9598428D01*
X49278285Y-9991285D01*
M02*
