G04 #@! TF.GenerationSoftware,KiCad,Pcbnew,(5.1.9)-1*
G04 #@! TF.CreationDate,2021-06-25T18:31:08+01:00*
G04 #@! TF.ProjectId,Greaseweazle F1 Plus Mini,47726561-7365-4776-9561-7a6c65204631,1*
G04 #@! TF.SameCoordinates,PX6312cb0PY6bcb370*
G04 #@! TF.FileFunction,Soldermask,Top*
G04 #@! TF.FilePolarity,Negative*
%FSLAX46Y46*%
G04 Gerber Fmt 4.6, Leading zero omitted, Abs format (unit mm)*
G04 Created by KiCad (PCBNEW (5.1.9)-1) date 2021-06-25 18:31:08*
%MOMM*%
%LPD*%
G01*
G04 APERTURE LIST*
%ADD10C,0.100000*%
%ADD11O,1.900000X1.900000*%
%ADD12C,1.900000*%
%ADD13C,2.300000*%
%ADD14C,1.950000*%
%ADD15C,4.264000*%
%ADD16C,1.701140*%
%ADD17C,3.700120*%
%ADD18C,0.900000*%
%ADD19C,0.800000*%
%ADD20C,1.200000*%
G04 APERTURE END LIST*
D10*
G36*
X36449000Y67945000D02*
G01*
X35814000Y67945000D01*
X35814000Y68580000D01*
X36449000Y68580000D01*
X36449000Y67945000D01*
G37*
X36449000Y67945000D02*
X35814000Y67945000D01*
X35814000Y68580000D01*
X36449000Y68580000D01*
X36449000Y67945000D01*
G36*
X36449000Y67310000D02*
G01*
X35814000Y67310000D01*
X35814000Y67945000D01*
X36449000Y67945000D01*
X36449000Y67310000D01*
G37*
X36449000Y67310000D02*
X35814000Y67310000D01*
X35814000Y67945000D01*
X36449000Y67945000D01*
X36449000Y67310000D01*
G36*
X37084000Y67310000D02*
G01*
X36449000Y67310000D01*
X36449000Y67945000D01*
X37084000Y67945000D01*
X37084000Y67310000D01*
G37*
X37084000Y67310000D02*
X36449000Y67310000D01*
X36449000Y67945000D01*
X37084000Y67945000D01*
X37084000Y67310000D01*
G36*
X35814000Y67310000D02*
G01*
X35179000Y67310000D01*
X35179000Y67945000D01*
X35814000Y67945000D01*
X35814000Y67310000D01*
G37*
X35814000Y67310000D02*
X35179000Y67310000D01*
X35179000Y67945000D01*
X35814000Y67945000D01*
X35814000Y67310000D01*
G36*
X35179000Y67945000D02*
G01*
X34544000Y67945000D01*
X34544000Y68580000D01*
X35179000Y68580000D01*
X35179000Y67945000D01*
G37*
X35179000Y67945000D02*
X34544000Y67945000D01*
X34544000Y68580000D01*
X35179000Y68580000D01*
X35179000Y67945000D01*
G36*
X38354000Y68580000D02*
G01*
X37719000Y68580000D01*
X37719000Y69215000D01*
X38354000Y69215000D01*
X38354000Y68580000D01*
G37*
X38354000Y68580000D02*
X37719000Y68580000D01*
X37719000Y69215000D01*
X38354000Y69215000D01*
X38354000Y68580000D01*
G36*
X38354000Y64770000D02*
G01*
X37719000Y64770000D01*
X37719000Y65405000D01*
X38354000Y65405000D01*
X38354000Y64770000D01*
G37*
X38354000Y64770000D02*
X37719000Y64770000D01*
X37719000Y65405000D01*
X38354000Y65405000D01*
X38354000Y64770000D01*
G36*
X37084000Y69215000D02*
G01*
X36449000Y69215000D01*
X36449000Y69850000D01*
X37084000Y69850000D01*
X37084000Y69215000D01*
G37*
X37084000Y69215000D02*
X36449000Y69215000D01*
X36449000Y69850000D01*
X37084000Y69850000D01*
X37084000Y69215000D01*
G36*
X37084000Y68580000D02*
G01*
X36449000Y68580000D01*
X36449000Y69215000D01*
X37084000Y69215000D01*
X37084000Y68580000D01*
G37*
X37084000Y68580000D02*
X36449000Y68580000D01*
X36449000Y69215000D01*
X37084000Y69215000D01*
X37084000Y68580000D01*
G36*
X36449000Y68580000D02*
G01*
X35814000Y68580000D01*
X35814000Y69215000D01*
X36449000Y69215000D01*
X36449000Y68580000D01*
G37*
X36449000Y68580000D02*
X35814000Y68580000D01*
X35814000Y69215000D01*
X36449000Y69215000D01*
X36449000Y68580000D01*
G36*
X35814000Y68580000D02*
G01*
X35179000Y68580000D01*
X35179000Y69215000D01*
X35814000Y69215000D01*
X35814000Y68580000D01*
G37*
X35814000Y68580000D02*
X35179000Y68580000D01*
X35179000Y69215000D01*
X35814000Y69215000D01*
X35814000Y68580000D01*
G36*
X35814000Y69215000D02*
G01*
X35179000Y69215000D01*
X35179000Y69850000D01*
X35814000Y69850000D01*
X35814000Y69215000D01*
G37*
X35814000Y69215000D02*
X35179000Y69215000D01*
X35179000Y69850000D01*
X35814000Y69850000D01*
X35814000Y69215000D01*
G36*
X35179000Y68580000D02*
G01*
X34544000Y68580000D01*
X34544000Y69215000D01*
X35179000Y69215000D01*
X35179000Y68580000D01*
G37*
X35179000Y68580000D02*
X34544000Y68580000D01*
X34544000Y69215000D01*
X35179000Y69215000D01*
X35179000Y68580000D01*
G36*
X34544000Y68580000D02*
G01*
X33909000Y68580000D01*
X33909000Y69215000D01*
X34544000Y69215000D01*
X34544000Y68580000D01*
G37*
X34544000Y68580000D02*
X33909000Y68580000D01*
X33909000Y69215000D01*
X34544000Y69215000D01*
X34544000Y68580000D01*
G36*
X33909000Y66040000D02*
G01*
X33274000Y66040000D01*
X33274000Y66675000D01*
X33909000Y66675000D01*
X33909000Y66040000D01*
G37*
X33909000Y66040000D02*
X33274000Y66040000D01*
X33274000Y66675000D01*
X33909000Y66675000D01*
X33909000Y66040000D01*
G36*
X34544000Y64770000D02*
G01*
X33909000Y64770000D01*
X33909000Y65405000D01*
X34544000Y65405000D01*
X34544000Y64770000D01*
G37*
X34544000Y64770000D02*
X33909000Y64770000D01*
X33909000Y65405000D01*
X34544000Y65405000D01*
X34544000Y64770000D01*
G36*
X37084000Y64770000D02*
G01*
X36449000Y64770000D01*
X36449000Y65405000D01*
X37084000Y65405000D01*
X37084000Y64770000D01*
G37*
X37084000Y64770000D02*
X36449000Y64770000D01*
X36449000Y65405000D01*
X37084000Y65405000D01*
X37084000Y64770000D01*
G36*
X38354000Y66675000D02*
G01*
X37719000Y66675000D01*
X37719000Y67310000D01*
X38354000Y67310000D01*
X38354000Y66675000D01*
G37*
X38354000Y66675000D02*
X37719000Y66675000D01*
X37719000Y67310000D01*
X38354000Y67310000D01*
X38354000Y66675000D01*
G36*
X38354000Y66675000D02*
G01*
X37719000Y66675000D01*
X37719000Y67310000D01*
X38354000Y67310000D01*
X38354000Y66675000D01*
G37*
X38354000Y66675000D02*
X37719000Y66675000D01*
X37719000Y67310000D01*
X38354000Y67310000D01*
X38354000Y66675000D01*
G36*
X37084000Y64770000D02*
G01*
X36449000Y64770000D01*
X36449000Y65405000D01*
X37084000Y65405000D01*
X37084000Y64770000D01*
G37*
X37084000Y64770000D02*
X36449000Y64770000D01*
X36449000Y65405000D01*
X37084000Y65405000D01*
X37084000Y64770000D01*
G36*
X34544000Y64770000D02*
G01*
X33909000Y64770000D01*
X33909000Y65405000D01*
X34544000Y65405000D01*
X34544000Y64770000D01*
G37*
X34544000Y64770000D02*
X33909000Y64770000D01*
X33909000Y65405000D01*
X34544000Y65405000D01*
X34544000Y64770000D01*
G36*
X33909000Y66040000D02*
G01*
X33274000Y66040000D01*
X33274000Y66675000D01*
X33909000Y66675000D01*
X33909000Y66040000D01*
G37*
X33909000Y66040000D02*
X33274000Y66040000D01*
X33274000Y66675000D01*
X33909000Y66675000D01*
X33909000Y66040000D01*
G36*
X34544000Y68580000D02*
G01*
X33909000Y68580000D01*
X33909000Y69215000D01*
X34544000Y69215000D01*
X34544000Y68580000D01*
G37*
X34544000Y68580000D02*
X33909000Y68580000D01*
X33909000Y69215000D01*
X34544000Y69215000D01*
X34544000Y68580000D01*
G36*
X35179000Y68580000D02*
G01*
X34544000Y68580000D01*
X34544000Y69215000D01*
X35179000Y69215000D01*
X35179000Y68580000D01*
G37*
X35179000Y68580000D02*
X34544000Y68580000D01*
X34544000Y69215000D01*
X35179000Y69215000D01*
X35179000Y68580000D01*
G36*
X35814000Y69215000D02*
G01*
X35179000Y69215000D01*
X35179000Y69850000D01*
X35814000Y69850000D01*
X35814000Y69215000D01*
G37*
X35814000Y69215000D02*
X35179000Y69215000D01*
X35179000Y69850000D01*
X35814000Y69850000D01*
X35814000Y69215000D01*
G36*
X35814000Y68580000D02*
G01*
X35179000Y68580000D01*
X35179000Y69215000D01*
X35814000Y69215000D01*
X35814000Y68580000D01*
G37*
X35814000Y68580000D02*
X35179000Y68580000D01*
X35179000Y69215000D01*
X35814000Y69215000D01*
X35814000Y68580000D01*
G36*
X36449000Y68580000D02*
G01*
X35814000Y68580000D01*
X35814000Y69215000D01*
X36449000Y69215000D01*
X36449000Y68580000D01*
G37*
X36449000Y68580000D02*
X35814000Y68580000D01*
X35814000Y69215000D01*
X36449000Y69215000D01*
X36449000Y68580000D01*
G36*
X37084000Y68580000D02*
G01*
X36449000Y68580000D01*
X36449000Y69215000D01*
X37084000Y69215000D01*
X37084000Y68580000D01*
G37*
X37084000Y68580000D02*
X36449000Y68580000D01*
X36449000Y69215000D01*
X37084000Y69215000D01*
X37084000Y68580000D01*
G36*
X37084000Y69215000D02*
G01*
X36449000Y69215000D01*
X36449000Y69850000D01*
X37084000Y69850000D01*
X37084000Y69215000D01*
G37*
X37084000Y69215000D02*
X36449000Y69215000D01*
X36449000Y69850000D01*
X37084000Y69850000D01*
X37084000Y69215000D01*
G36*
X38354000Y64770000D02*
G01*
X37719000Y64770000D01*
X37719000Y65405000D01*
X38354000Y65405000D01*
X38354000Y64770000D01*
G37*
X38354000Y64770000D02*
X37719000Y64770000D01*
X37719000Y65405000D01*
X38354000Y65405000D01*
X38354000Y64770000D01*
G36*
X38354000Y68580000D02*
G01*
X37719000Y68580000D01*
X37719000Y69215000D01*
X38354000Y69215000D01*
X38354000Y68580000D01*
G37*
X38354000Y68580000D02*
X37719000Y68580000D01*
X37719000Y69215000D01*
X38354000Y69215000D01*
X38354000Y68580000D01*
G36*
X35179000Y67945000D02*
G01*
X34544000Y67945000D01*
X34544000Y68580000D01*
X35179000Y68580000D01*
X35179000Y67945000D01*
G37*
X35179000Y67945000D02*
X34544000Y67945000D01*
X34544000Y68580000D01*
X35179000Y68580000D01*
X35179000Y67945000D01*
G36*
X35814000Y67310000D02*
G01*
X35179000Y67310000D01*
X35179000Y67945000D01*
X35814000Y67945000D01*
X35814000Y67310000D01*
G37*
X35814000Y67310000D02*
X35179000Y67310000D01*
X35179000Y67945000D01*
X35814000Y67945000D01*
X35814000Y67310000D01*
G36*
X37084000Y67310000D02*
G01*
X36449000Y67310000D01*
X36449000Y67945000D01*
X37084000Y67945000D01*
X37084000Y67310000D01*
G37*
X37084000Y67310000D02*
X36449000Y67310000D01*
X36449000Y67945000D01*
X37084000Y67945000D01*
X37084000Y67310000D01*
G36*
X36449000Y67310000D02*
G01*
X35814000Y67310000D01*
X35814000Y67945000D01*
X36449000Y67945000D01*
X36449000Y67310000D01*
G37*
X36449000Y67310000D02*
X35814000Y67310000D01*
X35814000Y67945000D01*
X36449000Y67945000D01*
X36449000Y67310000D01*
G36*
X36449000Y67945000D02*
G01*
X35814000Y67945000D01*
X35814000Y68580000D01*
X36449000Y68580000D01*
X36449000Y67945000D01*
G37*
X36449000Y67945000D02*
X35814000Y67945000D01*
X35814000Y68580000D01*
X36449000Y68580000D01*
X36449000Y67945000D01*
G36*
X36449000Y67945000D02*
G01*
X35814000Y67945000D01*
X35814000Y68580000D01*
X36449000Y68580000D01*
X36449000Y67945000D01*
G37*
X36449000Y67945000D02*
X35814000Y67945000D01*
X35814000Y68580000D01*
X36449000Y68580000D01*
X36449000Y67945000D01*
G36*
X36449000Y67310000D02*
G01*
X35814000Y67310000D01*
X35814000Y67945000D01*
X36449000Y67945000D01*
X36449000Y67310000D01*
G37*
X36449000Y67310000D02*
X35814000Y67310000D01*
X35814000Y67945000D01*
X36449000Y67945000D01*
X36449000Y67310000D01*
G36*
X37084000Y67310000D02*
G01*
X36449000Y67310000D01*
X36449000Y67945000D01*
X37084000Y67945000D01*
X37084000Y67310000D01*
G37*
X37084000Y67310000D02*
X36449000Y67310000D01*
X36449000Y67945000D01*
X37084000Y67945000D01*
X37084000Y67310000D01*
G36*
X35814000Y67310000D02*
G01*
X35179000Y67310000D01*
X35179000Y67945000D01*
X35814000Y67945000D01*
X35814000Y67310000D01*
G37*
X35814000Y67310000D02*
X35179000Y67310000D01*
X35179000Y67945000D01*
X35814000Y67945000D01*
X35814000Y67310000D01*
G36*
X35179000Y67945000D02*
G01*
X34544000Y67945000D01*
X34544000Y68580000D01*
X35179000Y68580000D01*
X35179000Y67945000D01*
G37*
X35179000Y67945000D02*
X34544000Y67945000D01*
X34544000Y68580000D01*
X35179000Y68580000D01*
X35179000Y67945000D01*
G36*
X38354000Y68580000D02*
G01*
X37719000Y68580000D01*
X37719000Y69215000D01*
X38354000Y69215000D01*
X38354000Y68580000D01*
G37*
X38354000Y68580000D02*
X37719000Y68580000D01*
X37719000Y69215000D01*
X38354000Y69215000D01*
X38354000Y68580000D01*
G36*
X38354000Y64770000D02*
G01*
X37719000Y64770000D01*
X37719000Y65405000D01*
X38354000Y65405000D01*
X38354000Y64770000D01*
G37*
X38354000Y64770000D02*
X37719000Y64770000D01*
X37719000Y65405000D01*
X38354000Y65405000D01*
X38354000Y64770000D01*
G36*
X37084000Y69215000D02*
G01*
X36449000Y69215000D01*
X36449000Y69850000D01*
X37084000Y69850000D01*
X37084000Y69215000D01*
G37*
X37084000Y69215000D02*
X36449000Y69215000D01*
X36449000Y69850000D01*
X37084000Y69850000D01*
X37084000Y69215000D01*
G36*
X37084000Y68580000D02*
G01*
X36449000Y68580000D01*
X36449000Y69215000D01*
X37084000Y69215000D01*
X37084000Y68580000D01*
G37*
X37084000Y68580000D02*
X36449000Y68580000D01*
X36449000Y69215000D01*
X37084000Y69215000D01*
X37084000Y68580000D01*
G36*
X36449000Y68580000D02*
G01*
X35814000Y68580000D01*
X35814000Y69215000D01*
X36449000Y69215000D01*
X36449000Y68580000D01*
G37*
X36449000Y68580000D02*
X35814000Y68580000D01*
X35814000Y69215000D01*
X36449000Y69215000D01*
X36449000Y68580000D01*
G36*
X35814000Y68580000D02*
G01*
X35179000Y68580000D01*
X35179000Y69215000D01*
X35814000Y69215000D01*
X35814000Y68580000D01*
G37*
X35814000Y68580000D02*
X35179000Y68580000D01*
X35179000Y69215000D01*
X35814000Y69215000D01*
X35814000Y68580000D01*
G36*
X35814000Y69215000D02*
G01*
X35179000Y69215000D01*
X35179000Y69850000D01*
X35814000Y69850000D01*
X35814000Y69215000D01*
G37*
X35814000Y69215000D02*
X35179000Y69215000D01*
X35179000Y69850000D01*
X35814000Y69850000D01*
X35814000Y69215000D01*
G36*
X35179000Y68580000D02*
G01*
X34544000Y68580000D01*
X34544000Y69215000D01*
X35179000Y69215000D01*
X35179000Y68580000D01*
G37*
X35179000Y68580000D02*
X34544000Y68580000D01*
X34544000Y69215000D01*
X35179000Y69215000D01*
X35179000Y68580000D01*
G36*
X34544000Y68580000D02*
G01*
X33909000Y68580000D01*
X33909000Y69215000D01*
X34544000Y69215000D01*
X34544000Y68580000D01*
G37*
X34544000Y68580000D02*
X33909000Y68580000D01*
X33909000Y69215000D01*
X34544000Y69215000D01*
X34544000Y68580000D01*
G36*
X33909000Y66040000D02*
G01*
X33274000Y66040000D01*
X33274000Y66675000D01*
X33909000Y66675000D01*
X33909000Y66040000D01*
G37*
X33909000Y66040000D02*
X33274000Y66040000D01*
X33274000Y66675000D01*
X33909000Y66675000D01*
X33909000Y66040000D01*
G36*
X34544000Y64770000D02*
G01*
X33909000Y64770000D01*
X33909000Y65405000D01*
X34544000Y65405000D01*
X34544000Y64770000D01*
G37*
X34544000Y64770000D02*
X33909000Y64770000D01*
X33909000Y65405000D01*
X34544000Y65405000D01*
X34544000Y64770000D01*
G36*
X37084000Y64770000D02*
G01*
X36449000Y64770000D01*
X36449000Y65405000D01*
X37084000Y65405000D01*
X37084000Y64770000D01*
G37*
X37084000Y64770000D02*
X36449000Y64770000D01*
X36449000Y65405000D01*
X37084000Y65405000D01*
X37084000Y64770000D01*
G36*
X38354000Y66675000D02*
G01*
X37719000Y66675000D01*
X37719000Y67310000D01*
X38354000Y67310000D01*
X38354000Y66675000D01*
G37*
X38354000Y66675000D02*
X37719000Y66675000D01*
X37719000Y67310000D01*
X38354000Y67310000D01*
X38354000Y66675000D01*
G36*
X38354000Y66675000D02*
G01*
X37719000Y66675000D01*
X37719000Y67310000D01*
X38354000Y67310000D01*
X38354000Y66675000D01*
G37*
X38354000Y66675000D02*
X37719000Y66675000D01*
X37719000Y67310000D01*
X38354000Y67310000D01*
X38354000Y66675000D01*
G36*
X37084000Y64770000D02*
G01*
X36449000Y64770000D01*
X36449000Y65405000D01*
X37084000Y65405000D01*
X37084000Y64770000D01*
G37*
X37084000Y64770000D02*
X36449000Y64770000D01*
X36449000Y65405000D01*
X37084000Y65405000D01*
X37084000Y64770000D01*
G36*
X34544000Y64770000D02*
G01*
X33909000Y64770000D01*
X33909000Y65405000D01*
X34544000Y65405000D01*
X34544000Y64770000D01*
G37*
X34544000Y64770000D02*
X33909000Y64770000D01*
X33909000Y65405000D01*
X34544000Y65405000D01*
X34544000Y64770000D01*
G36*
X33909000Y66040000D02*
G01*
X33274000Y66040000D01*
X33274000Y66675000D01*
X33909000Y66675000D01*
X33909000Y66040000D01*
G37*
X33909000Y66040000D02*
X33274000Y66040000D01*
X33274000Y66675000D01*
X33909000Y66675000D01*
X33909000Y66040000D01*
G36*
X34544000Y68580000D02*
G01*
X33909000Y68580000D01*
X33909000Y69215000D01*
X34544000Y69215000D01*
X34544000Y68580000D01*
G37*
X34544000Y68580000D02*
X33909000Y68580000D01*
X33909000Y69215000D01*
X34544000Y69215000D01*
X34544000Y68580000D01*
G36*
X35179000Y68580000D02*
G01*
X34544000Y68580000D01*
X34544000Y69215000D01*
X35179000Y69215000D01*
X35179000Y68580000D01*
G37*
X35179000Y68580000D02*
X34544000Y68580000D01*
X34544000Y69215000D01*
X35179000Y69215000D01*
X35179000Y68580000D01*
G36*
X35814000Y69215000D02*
G01*
X35179000Y69215000D01*
X35179000Y69850000D01*
X35814000Y69850000D01*
X35814000Y69215000D01*
G37*
X35814000Y69215000D02*
X35179000Y69215000D01*
X35179000Y69850000D01*
X35814000Y69850000D01*
X35814000Y69215000D01*
G36*
X35814000Y68580000D02*
G01*
X35179000Y68580000D01*
X35179000Y69215000D01*
X35814000Y69215000D01*
X35814000Y68580000D01*
G37*
X35814000Y68580000D02*
X35179000Y68580000D01*
X35179000Y69215000D01*
X35814000Y69215000D01*
X35814000Y68580000D01*
G36*
X36449000Y68580000D02*
G01*
X35814000Y68580000D01*
X35814000Y69215000D01*
X36449000Y69215000D01*
X36449000Y68580000D01*
G37*
X36449000Y68580000D02*
X35814000Y68580000D01*
X35814000Y69215000D01*
X36449000Y69215000D01*
X36449000Y68580000D01*
G36*
X37084000Y68580000D02*
G01*
X36449000Y68580000D01*
X36449000Y69215000D01*
X37084000Y69215000D01*
X37084000Y68580000D01*
G37*
X37084000Y68580000D02*
X36449000Y68580000D01*
X36449000Y69215000D01*
X37084000Y69215000D01*
X37084000Y68580000D01*
G36*
X37084000Y69215000D02*
G01*
X36449000Y69215000D01*
X36449000Y69850000D01*
X37084000Y69850000D01*
X37084000Y69215000D01*
G37*
X37084000Y69215000D02*
X36449000Y69215000D01*
X36449000Y69850000D01*
X37084000Y69850000D01*
X37084000Y69215000D01*
G36*
X38354000Y64770000D02*
G01*
X37719000Y64770000D01*
X37719000Y65405000D01*
X38354000Y65405000D01*
X38354000Y64770000D01*
G37*
X38354000Y64770000D02*
X37719000Y64770000D01*
X37719000Y65405000D01*
X38354000Y65405000D01*
X38354000Y64770000D01*
G36*
X38354000Y68580000D02*
G01*
X37719000Y68580000D01*
X37719000Y69215000D01*
X38354000Y69215000D01*
X38354000Y68580000D01*
G37*
X38354000Y68580000D02*
X37719000Y68580000D01*
X37719000Y69215000D01*
X38354000Y69215000D01*
X38354000Y68580000D01*
G36*
X35179000Y67945000D02*
G01*
X34544000Y67945000D01*
X34544000Y68580000D01*
X35179000Y68580000D01*
X35179000Y67945000D01*
G37*
X35179000Y67945000D02*
X34544000Y67945000D01*
X34544000Y68580000D01*
X35179000Y68580000D01*
X35179000Y67945000D01*
G36*
X35814000Y67310000D02*
G01*
X35179000Y67310000D01*
X35179000Y67945000D01*
X35814000Y67945000D01*
X35814000Y67310000D01*
G37*
X35814000Y67310000D02*
X35179000Y67310000D01*
X35179000Y67945000D01*
X35814000Y67945000D01*
X35814000Y67310000D01*
G36*
X37084000Y67310000D02*
G01*
X36449000Y67310000D01*
X36449000Y67945000D01*
X37084000Y67945000D01*
X37084000Y67310000D01*
G37*
X37084000Y67310000D02*
X36449000Y67310000D01*
X36449000Y67945000D01*
X37084000Y67945000D01*
X37084000Y67310000D01*
G36*
X36449000Y67310000D02*
G01*
X35814000Y67310000D01*
X35814000Y67945000D01*
X36449000Y67945000D01*
X36449000Y67310000D01*
G37*
X36449000Y67310000D02*
X35814000Y67310000D01*
X35814000Y67945000D01*
X36449000Y67945000D01*
X36449000Y67310000D01*
G36*
X36449000Y67945000D02*
G01*
X35814000Y67945000D01*
X35814000Y68580000D01*
X36449000Y68580000D01*
X36449000Y67945000D01*
G37*
X36449000Y67945000D02*
X35814000Y67945000D01*
X35814000Y68580000D01*
X36449000Y68580000D01*
X36449000Y67945000D01*
D11*
X16129000Y41275000D03*
X13589000Y41275000D03*
X11049000Y41275000D03*
G36*
G01*
X9359000Y40325000D02*
X7659000Y40325000D01*
G75*
G02*
X7559000Y40425000I0J100000D01*
G01*
X7559000Y42125000D01*
G75*
G02*
X7659000Y42225000I100000J0D01*
G01*
X9359000Y42225000D01*
G75*
G02*
X9459000Y42125000I0J-100000D01*
G01*
X9459000Y40425000D01*
G75*
G02*
X9359000Y40325000I-100000J0D01*
G01*
G37*
X25019000Y39370000D03*
G36*
G01*
X23329000Y38420000D02*
X21629000Y38420000D01*
G75*
G02*
X21529000Y38520000I0J100000D01*
G01*
X21529000Y40220000D01*
G75*
G02*
X21629000Y40320000I100000J0D01*
G01*
X23329000Y40320000D01*
G75*
G02*
X23429000Y40220000I0J-100000D01*
G01*
X23429000Y38520000D01*
G75*
G02*
X23329000Y38420000I-100000J0D01*
G01*
G37*
X19939000Y43180000D03*
X22479000Y43180000D03*
G36*
G01*
X24169000Y44130000D02*
X25869000Y44130000D01*
G75*
G02*
X25969000Y44030000I0J-100000D01*
G01*
X25969000Y42330000D01*
G75*
G02*
X25869000Y42230000I-100000J0D01*
G01*
X24169000Y42230000D01*
G75*
G02*
X24069000Y42330000I0J100000D01*
G01*
X24069000Y44030000D01*
G75*
G02*
X24169000Y44130000I100000J0D01*
G01*
G37*
D12*
X23749000Y-15875000D03*
G36*
G01*
X39939000Y-15025000D02*
X39939000Y-16725000D01*
G75*
G02*
X39839000Y-16825000I-100000J0D01*
G01*
X38139000Y-16825000D01*
G75*
G02*
X38039000Y-16725000I0J100000D01*
G01*
X38039000Y-15025000D01*
G75*
G02*
X38139000Y-14925000I100000J0D01*
G01*
X39839000Y-14925000D01*
G75*
G02*
X39939000Y-15025000I0J-100000D01*
G01*
G37*
X23749000Y-13335000D03*
X38989000Y-13335000D03*
X23749000Y-10795000D03*
X38989000Y-10795000D03*
X23749000Y-8255000D03*
X38989000Y-8255000D03*
X23749000Y-5715000D03*
X38989000Y-5715000D03*
X23749000Y-3175000D03*
X38989000Y-3175000D03*
X23749000Y-635000D03*
X38989000Y-635000D03*
X23749000Y1905000D03*
X38989000Y1905000D03*
X23749000Y4445000D03*
X38989000Y4445000D03*
X23749000Y6985000D03*
X38989000Y6985000D03*
X23749000Y9525000D03*
X38989000Y9525000D03*
X23749000Y12065000D03*
X38989000Y12065000D03*
X23749000Y14605000D03*
X38989000Y14605000D03*
X23749000Y17145000D03*
X38989000Y17145000D03*
X23749000Y19685000D03*
X38989000Y19685000D03*
X23749000Y22225000D03*
X38989000Y22225000D03*
X23749000Y24765000D03*
X38989000Y24765000D03*
X23749000Y27305000D03*
X38989000Y27305000D03*
X23749000Y29845000D03*
X38989000Y29845000D03*
X23749000Y32385000D03*
X38989000Y32385000D03*
D13*
X-431000Y39390000D03*
D14*
X-2921000Y40640000D03*
X-2921000Y45140000D03*
D13*
X-431000Y46400000D03*
D11*
X38989000Y45085000D03*
X38989000Y42545000D03*
X38989000Y40005000D03*
G36*
G01*
X39939000Y38315000D02*
X39939000Y36615000D01*
G75*
G02*
X39839000Y36515000I-100000J0D01*
G01*
X38139000Y36515000D01*
G75*
G02*
X38039000Y36615000I0J100000D01*
G01*
X38039000Y38315000D01*
G75*
G02*
X38139000Y38415000I100000J0D01*
G01*
X39839000Y38415000D01*
G75*
G02*
X39939000Y38315000I0J-100000D01*
G01*
G37*
X12065000Y65532000D03*
X12065000Y62992000D03*
X12065000Y60452000D03*
G36*
G01*
X13015000Y58762000D02*
X13015000Y57062000D01*
G75*
G02*
X12915000Y56962000I-100000J0D01*
G01*
X11215000Y56962000D01*
G75*
G02*
X11115000Y57062000I0J100000D01*
G01*
X11115000Y58762000D01*
G75*
G02*
X11215000Y58862000I100000J0D01*
G01*
X12915000Y58862000D01*
G75*
G02*
X13015000Y58762000I0J-100000D01*
G01*
G37*
G36*
G01*
X19639000Y60953222D02*
X19639000Y59950778D01*
G75*
G02*
X19340222Y59652000I-298778J0D01*
G01*
X18712778Y59652000D01*
G75*
G02*
X18414000Y59950778I0J298778D01*
G01*
X18414000Y60953222D01*
G75*
G02*
X18712778Y61252000I298778J0D01*
G01*
X19340222Y61252000D01*
G75*
G02*
X19639000Y60953222I0J-298778D01*
G01*
G37*
G36*
G01*
X21464000Y60953222D02*
X21464000Y59950778D01*
G75*
G02*
X21165222Y59652000I-298778J0D01*
G01*
X20537778Y59652000D01*
G75*
G02*
X20239000Y59950778I0J298778D01*
G01*
X20239000Y60953222D01*
G75*
G02*
X20537778Y61252000I298778J0D01*
G01*
X21165222Y61252000D01*
G75*
G02*
X21464000Y60953222I0J-298778D01*
G01*
G37*
G36*
G01*
X19639000Y63493222D02*
X19639000Y62490778D01*
G75*
G02*
X19340222Y62192000I-298778J0D01*
G01*
X18712778Y62192000D01*
G75*
G02*
X18414000Y62490778I0J298778D01*
G01*
X18414000Y63493222D01*
G75*
G02*
X18712778Y63792000I298778J0D01*
G01*
X19340222Y63792000D01*
G75*
G02*
X19639000Y63493222I0J-298778D01*
G01*
G37*
G36*
G01*
X21464000Y63493222D02*
X21464000Y62490778D01*
G75*
G02*
X21165222Y62192000I-298778J0D01*
G01*
X20537778Y62192000D01*
G75*
G02*
X20239000Y62490778I0J298778D01*
G01*
X20239000Y63493222D01*
G75*
G02*
X20537778Y63792000I298778J0D01*
G01*
X21165222Y63792000D01*
G75*
G02*
X21464000Y63493222I0J-298778D01*
G01*
G37*
D15*
X42114000Y-21970000D03*
X6114000Y-21970000D03*
X42114000Y72030000D03*
X-3886000Y72030000D03*
D11*
X26924000Y48895000D03*
G36*
G01*
X25974000Y50585000D02*
X25974000Y52285000D01*
G75*
G02*
X26074000Y52385000I100000J0D01*
G01*
X27774000Y52385000D01*
G75*
G02*
X27874000Y52285000I0J-100000D01*
G01*
X27874000Y50585000D01*
G75*
G02*
X27774000Y50485000I-100000J0D01*
G01*
X26074000Y50485000D01*
G75*
G02*
X25974000Y50585000I0J100000D01*
G01*
G37*
X14224000Y48895000D03*
G36*
G01*
X13274000Y50585000D02*
X13274000Y52285000D01*
G75*
G02*
X13374000Y52385000I100000J0D01*
G01*
X15074000Y52385000D01*
G75*
G02*
X15174000Y52285000I0J-100000D01*
G01*
X15174000Y50585000D01*
G75*
G02*
X15074000Y50485000I-100000J0D01*
G01*
X13374000Y50485000D01*
G75*
G02*
X13274000Y50585000I0J100000D01*
G01*
G37*
X2159000Y48895000D03*
G36*
G01*
X1209000Y50585000D02*
X1209000Y52285000D01*
G75*
G02*
X1309000Y52385000I100000J0D01*
G01*
X3009000Y52385000D01*
G75*
G02*
X3109000Y52285000I0J-100000D01*
G01*
X3109000Y50585000D01*
G75*
G02*
X3009000Y50485000I-100000J0D01*
G01*
X1309000Y50485000D01*
G75*
G02*
X1209000Y50585000I0J100000D01*
G01*
G37*
G36*
G01*
X23622335Y51100000D02*
X22605665Y51100000D01*
G75*
G02*
X22314000Y51391665I0J291665D01*
G01*
X22314000Y52208335D01*
G75*
G02*
X22605665Y52500000I291665J0D01*
G01*
X23622335Y52500000D01*
G75*
G02*
X23914000Y52208335I0J-291665D01*
G01*
X23914000Y51391665D01*
G75*
G02*
X23622335Y51100000I-291665J0D01*
G01*
G37*
G36*
G01*
X23622335Y49100000D02*
X22605665Y49100000D01*
G75*
G02*
X22314000Y49391665I0J291665D01*
G01*
X22314000Y50208335D01*
G75*
G02*
X22605665Y50500000I291665J0D01*
G01*
X23622335Y50500000D01*
G75*
G02*
X23914000Y50208335I0J-291665D01*
G01*
X23914000Y49391665D01*
G75*
G02*
X23622335Y49100000I-291665J0D01*
G01*
G37*
G36*
G01*
X-1142665Y51100000D02*
X-2159335Y51100000D01*
G75*
G02*
X-2451000Y51391665I0J291665D01*
G01*
X-2451000Y52208335D01*
G75*
G02*
X-2159335Y52500000I291665J0D01*
G01*
X-1142665Y52500000D01*
G75*
G02*
X-851000Y52208335I0J-291665D01*
G01*
X-851000Y51391665D01*
G75*
G02*
X-1142665Y51100000I-291665J0D01*
G01*
G37*
G36*
G01*
X-1142665Y49100000D02*
X-2159335Y49100000D01*
G75*
G02*
X-2451000Y49391665I0J291665D01*
G01*
X-2451000Y50208335D01*
G75*
G02*
X-2159335Y50500000I291665J0D01*
G01*
X-1142665Y50500000D01*
G75*
G02*
X-851000Y50208335I0J-291665D01*
G01*
X-851000Y49391665D01*
G75*
G02*
X-1142665Y49100000I-291665J0D01*
G01*
G37*
G36*
G01*
X10922335Y51100000D02*
X9905665Y51100000D01*
G75*
G02*
X9614000Y51391665I0J291665D01*
G01*
X9614000Y52208335D01*
G75*
G02*
X9905665Y52500000I291665J0D01*
G01*
X10922335Y52500000D01*
G75*
G02*
X11214000Y52208335I0J-291665D01*
G01*
X11214000Y51391665D01*
G75*
G02*
X10922335Y51100000I-291665J0D01*
G01*
G37*
G36*
G01*
X10922335Y49100000D02*
X9905665Y49100000D01*
G75*
G02*
X9614000Y49391665I0J291665D01*
G01*
X9614000Y50208335D01*
G75*
G02*
X9905665Y50500000I291665J0D01*
G01*
X10922335Y50500000D01*
G75*
G02*
X11214000Y50208335I0J-291665D01*
G01*
X11214000Y49391665D01*
G75*
G02*
X10922335Y49100000I-291665J0D01*
G01*
G37*
G36*
G01*
X20445523Y51150000D02*
X19432477Y51150000D01*
G75*
G02*
X19139000Y51443477I0J293477D01*
G01*
X19139000Y52206523D01*
G75*
G02*
X19432477Y52500000I293477J0D01*
G01*
X20445523Y52500000D01*
G75*
G02*
X20739000Y52206523I0J-293477D01*
G01*
X20739000Y51443477D01*
G75*
G02*
X20445523Y51150000I-293477J0D01*
G01*
G37*
G36*
G01*
X20445523Y49100000D02*
X19432477Y49100000D01*
G75*
G02*
X19139000Y49393477I0J293477D01*
G01*
X19139000Y50156523D01*
G75*
G02*
X19432477Y50450000I293477J0D01*
G01*
X20445523Y50450000D01*
G75*
G02*
X20739000Y50156523I0J-293477D01*
G01*
X20739000Y49393477D01*
G75*
G02*
X20445523Y49100000I-293477J0D01*
G01*
G37*
G36*
G01*
X-4319477Y51150000D02*
X-5332523Y51150000D01*
G75*
G02*
X-5626000Y51443477I0J293477D01*
G01*
X-5626000Y52206523D01*
G75*
G02*
X-5332523Y52500000I293477J0D01*
G01*
X-4319477Y52500000D01*
G75*
G02*
X-4026000Y52206523I0J-293477D01*
G01*
X-4026000Y51443477D01*
G75*
G02*
X-4319477Y51150000I-293477J0D01*
G01*
G37*
G36*
G01*
X-4319477Y49100000D02*
X-5332523Y49100000D01*
G75*
G02*
X-5626000Y49393477I0J293477D01*
G01*
X-5626000Y50156523D01*
G75*
G02*
X-5332523Y50450000I293477J0D01*
G01*
X-4319477Y50450000D01*
G75*
G02*
X-4026000Y50156523I0J-293477D01*
G01*
X-4026000Y49393477D01*
G75*
G02*
X-4319477Y49100000I-293477J0D01*
G01*
G37*
G36*
G01*
X7745523Y51150000D02*
X6732477Y51150000D01*
G75*
G02*
X6439000Y51443477I0J293477D01*
G01*
X6439000Y52206523D01*
G75*
G02*
X6732477Y52500000I293477J0D01*
G01*
X7745523Y52500000D01*
G75*
G02*
X8039000Y52206523I0J-293477D01*
G01*
X8039000Y51443477D01*
G75*
G02*
X7745523Y51150000I-293477J0D01*
G01*
G37*
G36*
G01*
X7745523Y49100000D02*
X6732477Y49100000D01*
G75*
G02*
X6439000Y49393477I0J293477D01*
G01*
X6439000Y50156523D01*
G75*
G02*
X6732477Y50450000I293477J0D01*
G01*
X7745523Y50450000D01*
G75*
G02*
X8039000Y50156523I0J-293477D01*
G01*
X8039000Y49393477D01*
G75*
G02*
X7745523Y49100000I-293477J0D01*
G01*
G37*
G36*
G01*
X35045222Y-21036000D02*
X34042778Y-21036000D01*
G75*
G02*
X33744000Y-20737222I0J298778D01*
G01*
X33744000Y-20109778D01*
G75*
G02*
X34042778Y-19811000I298778J0D01*
G01*
X35045222Y-19811000D01*
G75*
G02*
X35344000Y-20109778I0J-298778D01*
G01*
X35344000Y-20737222D01*
G75*
G02*
X35045222Y-21036000I-298778J0D01*
G01*
G37*
G36*
G01*
X35045222Y-22861000D02*
X34042778Y-22861000D01*
G75*
G02*
X33744000Y-22562222I0J298778D01*
G01*
X33744000Y-21934778D01*
G75*
G02*
X34042778Y-21636000I298778J0D01*
G01*
X35045222Y-21636000D01*
G75*
G02*
X35344000Y-21934778I0J-298778D01*
G01*
X35344000Y-22562222D01*
G75*
G02*
X35045222Y-22861000I-298778J0D01*
G01*
G37*
G36*
G01*
X15174000Y29425000D02*
X15174000Y27725000D01*
G75*
G02*
X15074000Y27625000I-100000J0D01*
G01*
X13374000Y27625000D01*
G75*
G02*
X13274000Y27725000I0J100000D01*
G01*
X13274000Y29425000D01*
G75*
G02*
X13374000Y29525000I100000J0D01*
G01*
X15074000Y29525000D01*
G75*
G02*
X15174000Y29425000I0J-100000D01*
G01*
G37*
X14224000Y31115000D03*
X14224000Y33655000D03*
X14224000Y36195000D03*
G36*
G01*
X4379000Y42760000D02*
X4379000Y41060000D01*
G75*
G02*
X4279000Y40960000I-100000J0D01*
G01*
X2579000Y40960000D01*
G75*
G02*
X2479000Y41060000I0J100000D01*
G01*
X2479000Y42760000D01*
G75*
G02*
X2579000Y42860000I100000J0D01*
G01*
X4279000Y42860000D01*
G75*
G02*
X4379000Y42760000I0J-100000D01*
G01*
G37*
X3429000Y44450000D03*
D16*
X3987800Y62839600D03*
X3987800Y60350400D03*
X5994400Y60350400D03*
X5994400Y62839600D03*
D17*
X1270000Y67614800D03*
X1270000Y55575200D03*
G36*
G01*
X13274000Y20105000D02*
X13274000Y21805000D01*
G75*
G02*
X13374000Y21905000I100000J0D01*
G01*
X15074000Y21905000D01*
G75*
G02*
X15174000Y21805000I0J-100000D01*
G01*
X15174000Y20105000D01*
G75*
G02*
X15074000Y20005000I-100000J0D01*
G01*
X13374000Y20005000D01*
G75*
G02*
X13274000Y20105000I0J100000D01*
G01*
G37*
D11*
X16764000Y20955000D03*
X14224000Y18415000D03*
X16764000Y18415000D03*
X14224000Y15875000D03*
X16764000Y15875000D03*
X14224000Y13335000D03*
X16764000Y13335000D03*
X14224000Y10795000D03*
X16764000Y10795000D03*
X14224000Y8255000D03*
X16764000Y8255000D03*
X14224000Y5715000D03*
X16764000Y5715000D03*
X14224000Y3175000D03*
X16764000Y3175000D03*
X14224000Y635000D03*
X16764000Y635000D03*
X14224000Y-1905000D03*
X16764000Y-1905000D03*
X14224000Y-4445000D03*
X16764000Y-4445000D03*
X14224000Y-6985000D03*
X16764000Y-6985000D03*
X14224000Y-9525000D03*
X16764000Y-9525000D03*
X14224000Y-12065000D03*
X16764000Y-12065000D03*
X14224000Y-14605000D03*
X16764000Y-14605000D03*
X14224000Y-17145000D03*
X16764000Y-17145000D03*
X14224000Y-19685000D03*
X16764000Y-19685000D03*
G36*
G01*
X31875250Y-22861000D02*
X30862750Y-22861000D01*
G75*
G02*
X30569000Y-22567250I0J293750D01*
G01*
X30569000Y-21979750D01*
G75*
G02*
X30862750Y-21686000I293750J0D01*
G01*
X31875250Y-21686000D01*
G75*
G02*
X32169000Y-21979750I0J-293750D01*
G01*
X32169000Y-22567250D01*
G75*
G02*
X31875250Y-22861000I-293750J0D01*
G01*
G37*
G36*
G01*
X31875250Y-20986000D02*
X30862750Y-20986000D01*
G75*
G02*
X30569000Y-20692250I0J293750D01*
G01*
X30569000Y-20104750D01*
G75*
G02*
X30862750Y-19811000I293750J0D01*
G01*
X31875250Y-19811000D01*
G75*
G02*
X32169000Y-20104750I0J-293750D01*
G01*
X32169000Y-20692250D01*
G75*
G02*
X31875250Y-20986000I-293750J0D01*
G01*
G37*
G36*
G01*
X22350250Y-22861000D02*
X21337750Y-22861000D01*
G75*
G02*
X21044000Y-22567250I0J293750D01*
G01*
X21044000Y-21979750D01*
G75*
G02*
X21337750Y-21686000I293750J0D01*
G01*
X22350250Y-21686000D01*
G75*
G02*
X22644000Y-21979750I0J-293750D01*
G01*
X22644000Y-22567250D01*
G75*
G02*
X22350250Y-22861000I-293750J0D01*
G01*
G37*
G36*
G01*
X22350250Y-20986000D02*
X21337750Y-20986000D01*
G75*
G02*
X21044000Y-20692250I0J293750D01*
G01*
X21044000Y-20104750D01*
G75*
G02*
X21337750Y-19811000I293750J0D01*
G01*
X22350250Y-19811000D01*
G75*
G02*
X22644000Y-20104750I0J-293750D01*
G01*
X22644000Y-20692250D01*
G75*
G02*
X22350250Y-20986000I-293750J0D01*
G01*
G37*
G36*
G01*
X25525250Y-22861000D02*
X24512750Y-22861000D01*
G75*
G02*
X24219000Y-22567250I0J293750D01*
G01*
X24219000Y-21979750D01*
G75*
G02*
X24512750Y-21686000I293750J0D01*
G01*
X25525250Y-21686000D01*
G75*
G02*
X25819000Y-21979750I0J-293750D01*
G01*
X25819000Y-22567250D01*
G75*
G02*
X25525250Y-22861000I-293750J0D01*
G01*
G37*
G36*
G01*
X25525250Y-20986000D02*
X24512750Y-20986000D01*
G75*
G02*
X24219000Y-20692250I0J293750D01*
G01*
X24219000Y-20104750D01*
G75*
G02*
X24512750Y-19811000I293750J0D01*
G01*
X25525250Y-19811000D01*
G75*
G02*
X25819000Y-20104750I0J-293750D01*
G01*
X25819000Y-20692250D01*
G75*
G02*
X25525250Y-20986000I-293750J0D01*
G01*
G37*
G36*
G01*
X28700250Y-22861000D02*
X27687750Y-22861000D01*
G75*
G02*
X27394000Y-22567250I0J293750D01*
G01*
X27394000Y-21979750D01*
G75*
G02*
X27687750Y-21686000I293750J0D01*
G01*
X28700250Y-21686000D01*
G75*
G02*
X28994000Y-21979750I0J-293750D01*
G01*
X28994000Y-22567250D01*
G75*
G02*
X28700250Y-22861000I-293750J0D01*
G01*
G37*
G36*
G01*
X28700250Y-20986000D02*
X27687750Y-20986000D01*
G75*
G02*
X27394000Y-20692250I0J293750D01*
G01*
X27394000Y-20104750D01*
G75*
G02*
X27687750Y-19811000I293750J0D01*
G01*
X28700250Y-19811000D01*
G75*
G02*
X28994000Y-20104750I0J-293750D01*
G01*
X28994000Y-20692250D01*
G75*
G02*
X28700250Y-20986000I-293750J0D01*
G01*
G37*
G36*
G01*
X32767750Y52325000D02*
X33780250Y52325000D01*
G75*
G02*
X34074000Y52031250I0J-293750D01*
G01*
X34074000Y51443750D01*
G75*
G02*
X33780250Y51150000I-293750J0D01*
G01*
X32767750Y51150000D01*
G75*
G02*
X32474000Y51443750I0J293750D01*
G01*
X32474000Y52031250D01*
G75*
G02*
X32767750Y52325000I293750J0D01*
G01*
G37*
G36*
G01*
X32767750Y50450000D02*
X33780250Y50450000D01*
G75*
G02*
X34074000Y50156250I0J-293750D01*
G01*
X34074000Y49568750D01*
G75*
G02*
X33780250Y49275000I-293750J0D01*
G01*
X32767750Y49275000D01*
G75*
G02*
X32474000Y49568750I0J293750D01*
G01*
X32474000Y50156250D01*
G75*
G02*
X32767750Y50450000I293750J0D01*
G01*
G37*
D18*
X37211000Y-4953000D03*
D19*
X19812000Y14605000D03*
D20*
X23114000Y57912000D03*
X36068004Y-22225000D03*
D19*
X34163000Y-14605000D03*
X31115000Y-9525000D03*
X36068000Y-6985000D03*
X33909000Y-4445000D03*
X32546999Y13335000D03*
X31496000Y24765000D03*
X33274000Y48641000D03*
X25654000Y60452000D03*
X30734000Y60452000D03*
D18*
X-4826000Y48640990D03*
D10*
G36*
X35103302Y-21634010D02*
G01*
X35155123Y-21639114D01*
X35155508Y-21639190D01*
X35199435Y-21652515D01*
X35199797Y-21652665D01*
X35240275Y-21674301D01*
X35240601Y-21674519D01*
X35276084Y-21703639D01*
X35276361Y-21703916D01*
X35305481Y-21739399D01*
X35305699Y-21739725D01*
X35327335Y-21780203D01*
X35327485Y-21780565D01*
X35340810Y-21824492D01*
X35340886Y-21824877D01*
X35342465Y-21840908D01*
X35347190Y-21864660D01*
X35356416Y-21886934D01*
X35369811Y-21906981D01*
X35386858Y-21924028D01*
X35406905Y-21937423D01*
X35429179Y-21946649D01*
X35452829Y-21951353D01*
X35476936Y-21951353D01*
X35500586Y-21946648D01*
X35522860Y-21937422D01*
X35542865Y-21924055D01*
X35564577Y-21900100D01*
X35566481Y-21899488D01*
X35567963Y-21900831D01*
X35567722Y-21902554D01*
X35540624Y-21943109D01*
X35495764Y-22051411D01*
X35472893Y-22166389D01*
X35472893Y-22283611D01*
X35495764Y-22398589D01*
X35540624Y-22506891D01*
X35570616Y-22551777D01*
X35570747Y-22553773D01*
X35569084Y-22554884D01*
X35567407Y-22554157D01*
X35555884Y-22540116D01*
X35537247Y-22524821D01*
X35515984Y-22513455D01*
X35492909Y-22506455D01*
X35468918Y-22504092D01*
X35444927Y-22506455D01*
X35421852Y-22513455D01*
X35400588Y-22524820D01*
X35381951Y-22540115D01*
X35366656Y-22558752D01*
X35355313Y-22579972D01*
X35346495Y-22615174D01*
X35340886Y-22672123D01*
X35340810Y-22672508D01*
X35327485Y-22716435D01*
X35327335Y-22716797D01*
X35305699Y-22757275D01*
X35305481Y-22757601D01*
X35276361Y-22793084D01*
X35276084Y-22793361D01*
X35240601Y-22822481D01*
X35240275Y-22822699D01*
X35199797Y-22844335D01*
X35199435Y-22844485D01*
X35155508Y-22857810D01*
X35155123Y-22857886D01*
X35103302Y-22862990D01*
X35103106Y-22863000D01*
X35045222Y-22863000D01*
X35043490Y-22862000D01*
X35043490Y-22860000D01*
X35045026Y-22859010D01*
X35103116Y-22853289D01*
X35158790Y-22836400D01*
X35210098Y-22808976D01*
X35255069Y-22772069D01*
X35291976Y-22727098D01*
X35319400Y-22675790D01*
X35336289Y-22620116D01*
X35342000Y-22562128D01*
X35342000Y-21934872D01*
X35336289Y-21876884D01*
X35319400Y-21821210D01*
X35291976Y-21769902D01*
X35255069Y-21724931D01*
X35210098Y-21688024D01*
X35158790Y-21660600D01*
X35103116Y-21643711D01*
X35045026Y-21637990D01*
X35043400Y-21636825D01*
X35043596Y-21634835D01*
X35045222Y-21634000D01*
X35103106Y-21634000D01*
X35103302Y-21634010D01*
G37*
G36*
X-4359231Y49101000D02*
G01*
X-4359231Y49099000D01*
X-4360767Y49098010D01*
X-4384954Y49095628D01*
X-4408029Y49088628D01*
X-4429293Y49077263D01*
X-4447930Y49061968D01*
X-4463225Y49043331D01*
X-4474590Y49022067D01*
X-4481590Y48998992D01*
X-4483953Y48975001D01*
X-4481590Y48951010D01*
X-4474590Y48927935D01*
X-4466027Y48911914D01*
X-4466093Y48909915D01*
X-4467856Y48908972D01*
X-4469454Y48909860D01*
X-4479699Y48925193D01*
X-4541797Y48987291D01*
X-4614818Y49036082D01*
X-4695954Y49069689D01*
X-4782091Y49086823D01*
X-4869909Y49086823D01*
X-4956046Y49069689D01*
X-5037182Y49036082D01*
X-5110203Y48987291D01*
X-5172301Y48925193D01*
X-5182546Y48909860D01*
X-5184340Y48908975D01*
X-5186003Y48910086D01*
X-5185973Y48911914D01*
X-5177410Y48927935D01*
X-5170410Y48951010D01*
X-5168047Y48975001D01*
X-5170410Y48998992D01*
X-5177410Y49022067D01*
X-5188775Y49043331D01*
X-5204071Y49061968D01*
X-5222707Y49077263D01*
X-5243971Y49088628D01*
X-5267046Y49095628D01*
X-5291233Y49098010D01*
X-5292859Y49099175D01*
X-5292663Y49101165D01*
X-5291037Y49102000D01*
X-4360963Y49102000D01*
X-4359231Y49101000D01*
G37*
M02*
