G04 #@! TF.GenerationSoftware,KiCad,Pcbnew,(5.1.9)-1*
G04 #@! TF.CreationDate,2021-06-25T18:31:08+01:00*
G04 #@! TF.ProjectId,Greaseweazle F1 Plus Mini,47726561-7365-4776-9561-7a6c65204631,1*
G04 #@! TF.SameCoordinates,PX6312cb0PY6bcb370*
G04 #@! TF.FileFunction,Legend,Bot*
G04 #@! TF.FilePolarity,Positive*
%FSLAX46Y46*%
G04 Gerber Fmt 4.6, Leading zero omitted, Abs format (unit mm)*
G04 Created by KiCad (PCBNEW (5.1.9)-1) date 2021-06-25 18:31:08*
%MOMM*%
%LPD*%
G01*
G04 APERTURE LIST*
%ADD10C,0.150000*%
%ADD11C,0.125000*%
%ADD12C,0.100000*%
G04 APERTURE END LIST*
D10*
X12852333Y39593000D02*
X12919000Y39626334D01*
X13019000Y39626334D01*
X13119000Y39593000D01*
X13185666Y39526334D01*
X13219000Y39459667D01*
X13252333Y39326334D01*
X13252333Y39226334D01*
X13219000Y39093000D01*
X13185666Y39026334D01*
X13119000Y38959667D01*
X13019000Y38926334D01*
X12952333Y38926334D01*
X12852333Y38959667D01*
X12819000Y38993000D01*
X12819000Y39226334D01*
X12952333Y39226334D01*
X12519000Y38926334D02*
X12519000Y39626334D01*
X12119000Y38926334D01*
X12119000Y39626334D01*
X11785666Y38926334D02*
X11785666Y39626334D01*
X11619000Y39626334D01*
X11519000Y39593000D01*
X11452333Y39526334D01*
X11419000Y39459667D01*
X11385666Y39326334D01*
X11385666Y39226334D01*
X11419000Y39093000D01*
X11452333Y39026334D01*
X11519000Y38959667D01*
X11619000Y38926334D01*
X11785666Y38926334D01*
X17362333Y39193000D02*
X16829000Y39193000D01*
X17095666Y38926334D02*
X17095666Y39459667D01*
X16129000Y38926334D02*
X16529000Y38926334D01*
X16329000Y38926334D02*
X16329000Y39626334D01*
X16395666Y39526334D01*
X16462333Y39459667D01*
X16529000Y39426334D01*
X15862333Y39559667D02*
X15829000Y39593000D01*
X15762333Y39626334D01*
X15595666Y39626334D01*
X15529000Y39593000D01*
X15495666Y39559667D01*
X15462333Y39493000D01*
X15462333Y39426334D01*
X15495666Y39326334D01*
X15895666Y38926334D01*
X15462333Y38926334D01*
X15262333Y39626334D02*
X15029000Y38926334D01*
X14795666Y39626334D01*
X9282000Y39193000D02*
X8748666Y39193000D01*
X9015333Y38926334D02*
X9015333Y39459667D01*
X8082000Y39626334D02*
X8415333Y39626334D01*
X8448666Y39293000D01*
X8415333Y39326334D01*
X8348666Y39359667D01*
X8182000Y39359667D01*
X8115333Y39326334D01*
X8082000Y39293000D01*
X8048666Y39226334D01*
X8048666Y39059667D01*
X8082000Y38993000D01*
X8115333Y38959667D01*
X8182000Y38926334D01*
X8348666Y38926334D01*
X8415333Y38959667D01*
X8448666Y38993000D01*
X7848666Y39626334D02*
X7615333Y38926334D01*
X7382000Y39626334D01*
D11*
X43656285Y-16327380D02*
X44227714Y-16327380D01*
X43942000Y-16327380D02*
X43942000Y-15327380D01*
X44037238Y-15470238D01*
X44132476Y-15565476D01*
X44227714Y-15613095D01*
X13811285Y25963620D02*
X14382714Y25963620D01*
X14097000Y25963620D02*
X14097000Y26963620D01*
X14192238Y26820762D01*
X14287476Y26725524D01*
X14382714Y26677905D01*
X20113523Y-19137380D02*
X19494476Y-19137380D01*
X19827809Y-19518333D01*
X19684952Y-19518333D01*
X19589714Y-19565952D01*
X19542095Y-19613571D01*
X19494476Y-19708809D01*
X19494476Y-19946904D01*
X19542095Y-20042142D01*
X19589714Y-20089761D01*
X19684952Y-20137380D01*
X19970666Y-20137380D01*
X20065904Y-20089761D01*
X20113523Y-20042142D01*
X18637333Y-19470714D02*
X18637333Y-20137380D01*
X18875428Y-19089761D02*
X19113523Y-19804047D01*
X18494476Y-19804047D01*
X13938285Y23042620D02*
X14509714Y23042620D01*
X14224000Y23042620D02*
X14224000Y24042620D01*
X14319238Y23899762D01*
X14414476Y23804524D01*
X14509714Y23756905D01*
D10*
X16179000Y29348000D02*
X16179000Y28814667D01*
X16445666Y29081334D02*
X15912333Y29081334D01*
X15745666Y28148000D02*
X15745666Y28481334D01*
X16079000Y28514667D01*
X16045666Y28481334D01*
X16012333Y28414667D01*
X16012333Y28248000D01*
X16045666Y28181334D01*
X16079000Y28148000D01*
X16145666Y28114667D01*
X16312333Y28114667D01*
X16379000Y28148000D01*
X16412333Y28181334D01*
X16445666Y28248000D01*
X16445666Y28414667D01*
X16412333Y28481334D01*
X16379000Y28514667D01*
X15745666Y27914667D02*
X16445666Y27681334D01*
X15745666Y27448000D01*
X15652000Y32918334D02*
X15618666Y32985000D01*
X15618666Y33085000D01*
X15652000Y33185000D01*
X15718666Y33251667D01*
X15785333Y33285000D01*
X15918666Y33318334D01*
X16018666Y33318334D01*
X16152000Y33285000D01*
X16218666Y33251667D01*
X16285333Y33185000D01*
X16318666Y33085000D01*
X16318666Y33018334D01*
X16285333Y32918334D01*
X16252000Y32885000D01*
X16018666Y32885000D01*
X16018666Y33018334D01*
X16318666Y32585000D02*
X15618666Y32585000D01*
X16318666Y32185000D01*
X15618666Y32185000D01*
X16318666Y31851667D02*
X15618666Y31851667D01*
X15618666Y31685000D01*
X15652000Y31585000D01*
X15718666Y31518334D01*
X15785333Y31485000D01*
X15918666Y31451667D01*
X16018666Y31451667D01*
X16152000Y31485000D01*
X16218666Y31518334D01*
X16285333Y31585000D01*
X16318666Y31685000D01*
X16318666Y31851667D01*
X16179000Y37428334D02*
X16179000Y36895000D01*
X16445666Y37161667D02*
X15912333Y37161667D01*
X16445666Y36195000D02*
X16445666Y36595000D01*
X16445666Y36395000D02*
X15745666Y36395000D01*
X15845666Y36461667D01*
X15912333Y36528334D01*
X15945666Y36595000D01*
X15812333Y35928334D02*
X15779000Y35895000D01*
X15745666Y35828334D01*
X15745666Y35661667D01*
X15779000Y35595000D01*
X15812333Y35561667D01*
X15879000Y35528334D01*
X15945666Y35528334D01*
X16045666Y35561667D01*
X16445666Y35961667D01*
X16445666Y35528334D01*
X15745666Y35328334D02*
X16445666Y35095000D01*
X15745666Y34861667D01*
D12*
X35179000Y67945000D02*
X34544000Y67945000D01*
G36*
X35179000Y66040000D02*
G01*
X35814000Y66040000D01*
X35814000Y66675000D01*
X35179000Y66675000D01*
X35179000Y66040000D01*
G37*
X35179000Y66040000D02*
X35814000Y66040000D01*
X35814000Y66675000D01*
X35179000Y66675000D01*
X35179000Y66040000D01*
G36*
X34544000Y67945000D02*
G01*
X35179000Y67945000D01*
X35179000Y68580000D01*
X34544000Y68580000D01*
X34544000Y67945000D01*
G37*
X34544000Y67945000D02*
X35179000Y67945000D01*
X35179000Y68580000D01*
X34544000Y68580000D01*
X34544000Y67945000D01*
G36*
X35814000Y67945000D02*
G01*
X36449000Y67945000D01*
X36449000Y68580000D01*
X35814000Y68580000D01*
X35814000Y67945000D01*
G37*
X35814000Y67945000D02*
X36449000Y67945000D01*
X36449000Y68580000D01*
X35814000Y68580000D01*
X35814000Y67945000D01*
X35179000Y66675000D02*
X35179000Y66040000D01*
X35814000Y66675000D02*
X35814000Y66040000D01*
X33909000Y65405000D02*
X33274000Y65405000D01*
X33909000Y68580000D02*
X33274000Y68580000D01*
X33909000Y69215000D02*
X33274000Y69215000D01*
X33274000Y69215000D02*
X33274000Y64770000D01*
X33909000Y69215000D02*
X33909000Y64770000D01*
X33909000Y64770000D02*
X33274000Y64770000D01*
X35179000Y64770000D02*
X34544000Y64770000D01*
X37719000Y64770000D02*
X37084000Y64770000D01*
X35179000Y65405000D02*
X35179000Y64770000D01*
X37084000Y65405000D02*
X37084000Y64770000D01*
X37719000Y65405000D02*
X34544000Y65405000D01*
X38354000Y66040000D02*
X34544000Y66040000D01*
X38354000Y66675000D02*
X33274000Y66675000D01*
X38354000Y66040000D02*
X38354000Y67310000D01*
X38354000Y67310000D02*
X33274000Y67310000D01*
X35179000Y68580000D02*
X35179000Y67945000D01*
X35814000Y68580000D02*
X35814000Y67945000D01*
X36449000Y68580000D02*
X36449000Y67310000D01*
X37084000Y67945000D02*
X35814000Y67945000D01*
X37084000Y68580000D02*
X37084000Y67945000D01*
X34544000Y69850000D02*
X34544000Y64770000D01*
X35179000Y69850000D02*
X35179000Y69215000D01*
X35814000Y69215000D02*
X35179000Y69215000D01*
X35814000Y69850000D02*
X35814000Y69215000D01*
X36449000Y69850000D02*
X36449000Y69215000D01*
X37719000Y69850000D02*
X34544000Y69850000D01*
X38354000Y68580000D02*
X38354000Y69215000D01*
X34544000Y68580000D02*
X38354000Y68580000D01*
X37719000Y69850000D02*
X37719000Y64770000D01*
X38354000Y69215000D02*
X36449000Y69215000D01*
X38354000Y69215000D02*
X36449000Y69215000D01*
X37719000Y69850000D02*
X37719000Y64770000D01*
X34544000Y68580000D02*
X38354000Y68580000D01*
X38354000Y68580000D02*
X38354000Y69215000D01*
X37719000Y69850000D02*
X34544000Y69850000D01*
X36449000Y69850000D02*
X36449000Y69215000D01*
X35814000Y69850000D02*
X35814000Y69215000D01*
X35814000Y69215000D02*
X35179000Y69215000D01*
X35179000Y69850000D02*
X35179000Y69215000D01*
X34544000Y69850000D02*
X34544000Y64770000D01*
X37084000Y68580000D02*
X37084000Y67945000D01*
X37084000Y67945000D02*
X35814000Y67945000D01*
X36449000Y68580000D02*
X36449000Y67310000D01*
X35814000Y68580000D02*
X35814000Y67945000D01*
X35179000Y68580000D02*
X35179000Y67945000D01*
X38354000Y67310000D02*
X33274000Y67310000D01*
X38354000Y66040000D02*
X38354000Y67310000D01*
X38354000Y66675000D02*
X33274000Y66675000D01*
X38354000Y66040000D02*
X34544000Y66040000D01*
X37719000Y65405000D02*
X34544000Y65405000D01*
X37084000Y65405000D02*
X37084000Y64770000D01*
X35179000Y65405000D02*
X35179000Y64770000D01*
X37719000Y64770000D02*
X37084000Y64770000D01*
X35179000Y64770000D02*
X34544000Y64770000D01*
X33909000Y64770000D02*
X33274000Y64770000D01*
X33909000Y69215000D02*
X33909000Y64770000D01*
X33274000Y69215000D02*
X33274000Y64770000D01*
X33909000Y69215000D02*
X33274000Y69215000D01*
X33909000Y68580000D02*
X33274000Y68580000D01*
X33909000Y65405000D02*
X33274000Y65405000D01*
X35814000Y66675000D02*
X35814000Y66040000D01*
X35179000Y66675000D02*
X35179000Y66040000D01*
G36*
X35814000Y67945000D02*
G01*
X36449000Y67945000D01*
X36449000Y68580000D01*
X35814000Y68580000D01*
X35814000Y67945000D01*
G37*
X35814000Y67945000D02*
X36449000Y67945000D01*
X36449000Y68580000D01*
X35814000Y68580000D01*
X35814000Y67945000D01*
G36*
X34544000Y67945000D02*
G01*
X35179000Y67945000D01*
X35179000Y68580000D01*
X34544000Y68580000D01*
X34544000Y67945000D01*
G37*
X34544000Y67945000D02*
X35179000Y67945000D01*
X35179000Y68580000D01*
X34544000Y68580000D01*
X34544000Y67945000D01*
G36*
X35179000Y66040000D02*
G01*
X35814000Y66040000D01*
X35814000Y66675000D01*
X35179000Y66675000D01*
X35179000Y66040000D01*
G37*
X35179000Y66040000D02*
X35814000Y66040000D01*
X35814000Y66675000D01*
X35179000Y66675000D01*
X35179000Y66040000D01*
X35179000Y67945000D02*
X34544000Y67945000D01*
D10*
X38260428Y63704429D02*
X38189000Y63668715D01*
X38046142Y63668715D01*
X37974714Y63704429D01*
X37939000Y63775858D01*
X37939000Y63811572D01*
X37974714Y63883000D01*
X38046142Y63918715D01*
X38153285Y63918715D01*
X38224714Y63954429D01*
X38260428Y64025858D01*
X38260428Y64061572D01*
X38224714Y64133000D01*
X38153285Y64168715D01*
X38046142Y64168715D01*
X37974714Y64133000D01*
X37510428Y63668715D02*
X37581857Y63704429D01*
X37617571Y63740143D01*
X37653285Y63811572D01*
X37653285Y64025858D01*
X37617571Y64097286D01*
X37581857Y64133000D01*
X37510428Y64168715D01*
X37403285Y64168715D01*
X37331857Y64133000D01*
X37296142Y64097286D01*
X37260428Y64025858D01*
X37260428Y63811572D01*
X37296142Y63740143D01*
X37331857Y63704429D01*
X37403285Y63668715D01*
X37510428Y63668715D01*
X36831857Y63668715D02*
X36903285Y63704429D01*
X36939000Y63775858D01*
X36939000Y64418715D01*
X36224714Y63668715D02*
X36224714Y64061572D01*
X36260428Y64133000D01*
X36331857Y64168715D01*
X36474714Y64168715D01*
X36546142Y64133000D01*
X36224714Y63704429D02*
X36296142Y63668715D01*
X36474714Y63668715D01*
X36546142Y63704429D01*
X36581857Y63775858D01*
X36581857Y63847286D01*
X36546142Y63918715D01*
X36474714Y63954429D01*
X36296142Y63954429D01*
X36224714Y63990143D01*
X35867571Y63668715D02*
X35867571Y64168715D01*
X35867571Y64025858D02*
X35831857Y64097286D01*
X35796142Y64133000D01*
X35724714Y64168715D01*
X35653285Y64168715D01*
X35403285Y63668715D02*
X35403285Y64168715D01*
X35403285Y64097286D02*
X35367571Y64133000D01*
X35296142Y64168715D01*
X35189000Y64168715D01*
X35117571Y64133000D01*
X35081857Y64061572D01*
X35081857Y63668715D01*
X35081857Y64061572D02*
X35046142Y64133000D01*
X34974714Y64168715D01*
X34867571Y64168715D01*
X34796142Y64133000D01*
X34760428Y64061572D01*
X34760428Y63668715D01*
X34296142Y63668715D02*
X34367571Y63704429D01*
X34403285Y63740143D01*
X34439000Y63811572D01*
X34439000Y64025858D01*
X34403285Y64097286D01*
X34367571Y64133000D01*
X34296142Y64168715D01*
X34189000Y64168715D01*
X34117571Y64133000D01*
X34081857Y64097286D01*
X34046142Y64025858D01*
X34046142Y63811572D01*
X34081857Y63740143D01*
X34117571Y63704429D01*
X34189000Y63668715D01*
X34296142Y63668715D01*
X33724714Y64168715D02*
X33724714Y63668715D01*
X33724714Y64097286D02*
X33689000Y64133000D01*
X33617571Y64168715D01*
X33510428Y64168715D01*
X33439000Y64133000D01*
X33403285Y64061572D01*
X33403285Y63668715D01*
X38260428Y63704429D02*
X38189000Y63668715D01*
X38046142Y63668715D01*
X37974714Y63704429D01*
X37939000Y63775858D01*
X37939000Y63811572D01*
X37974714Y63883000D01*
X38046142Y63918715D01*
X38153285Y63918715D01*
X38224714Y63954429D01*
X38260428Y64025858D01*
X38260428Y64061572D01*
X38224714Y64133000D01*
X38153285Y64168715D01*
X38046142Y64168715D01*
X37974714Y64133000D01*
X37510428Y63668715D02*
X37581857Y63704429D01*
X37617571Y63740143D01*
X37653285Y63811572D01*
X37653285Y64025858D01*
X37617571Y64097286D01*
X37581857Y64133000D01*
X37510428Y64168715D01*
X37403285Y64168715D01*
X37331857Y64133000D01*
X37296142Y64097286D01*
X37260428Y64025858D01*
X37260428Y63811572D01*
X37296142Y63740143D01*
X37331857Y63704429D01*
X37403285Y63668715D01*
X37510428Y63668715D01*
X36831857Y63668715D02*
X36903285Y63704429D01*
X36939000Y63775858D01*
X36939000Y64418715D01*
X36224714Y63668715D02*
X36224714Y64061572D01*
X36260428Y64133000D01*
X36331857Y64168715D01*
X36474714Y64168715D01*
X36546142Y64133000D01*
X36224714Y63704429D02*
X36296142Y63668715D01*
X36474714Y63668715D01*
X36546142Y63704429D01*
X36581857Y63775858D01*
X36581857Y63847286D01*
X36546142Y63918715D01*
X36474714Y63954429D01*
X36296142Y63954429D01*
X36224714Y63990143D01*
X35867571Y63668715D02*
X35867571Y64168715D01*
X35867571Y64025858D02*
X35831857Y64097286D01*
X35796142Y64133000D01*
X35724714Y64168715D01*
X35653285Y64168715D01*
X35403285Y63668715D02*
X35403285Y64168715D01*
X35403285Y64097286D02*
X35367571Y64133000D01*
X35296142Y64168715D01*
X35189000Y64168715D01*
X35117571Y64133000D01*
X35081857Y64061572D01*
X35081857Y63668715D01*
X35081857Y64061572D02*
X35046142Y64133000D01*
X34974714Y64168715D01*
X34867571Y64168715D01*
X34796142Y64133000D01*
X34760428Y64061572D01*
X34760428Y63668715D01*
X34296142Y63668715D02*
X34367571Y63704429D01*
X34403285Y63740143D01*
X34439000Y63811572D01*
X34439000Y64025858D01*
X34403285Y64097286D01*
X34367571Y64133000D01*
X34296142Y64168715D01*
X34189000Y64168715D01*
X34117571Y64133000D01*
X34081857Y64097286D01*
X34046142Y64025858D01*
X34046142Y63811572D01*
X34081857Y63740143D01*
X34117571Y63704429D01*
X34189000Y63668715D01*
X34296142Y63668715D01*
X33724714Y64168715D02*
X33724714Y63668715D01*
X33724714Y64097286D02*
X33689000Y64133000D01*
X33617571Y64168715D01*
X33510428Y64168715D01*
X33439000Y64133000D01*
X33403285Y64061572D01*
X33403285Y63668715D01*
M02*
